<?xml version="1.0" encoding="utf-8"?>
<!-- Generator: Adobe Illustrator 19.2.0, SVG Export Plug-In . SVG Version: 6.00 Build 0)  -->
<svg version="1.1" id="Layer_1" xmlns="http://www.w3.org/2000/svg" xmlns:xlink="http://www.w3.org/1999/xlink" x="0px" y="0px"
	 viewBox="0 0 6000 120" style="enable-background:new 0 0 6000 120;" xml:space="preserve">
<style type="text/css">
	.st0{fill:#71B9EA;}
	.st1{fill:#1C86AF;}
	.st2{fill:#353638;}
	.st3{fill:#F7F4EB;}
	.st4{fill:#EFE8D6;}
	.st5{fill:#F7F4ED;}
	.st6{fill:#FFFFFF;}
	.st7{clip-path:url(#SVGID_2_);fill:#D5CFC0;}
	.st8{fill:#E9BAA9;}
	.st9{fill:#DFA696;}
	.st10{fill:#CC7691;}
	.st11{fill:#3A3A3A;}
	.st12{fill:#B75978;}
</style>
<polyline class="st0" points="-5.5,-6.3 6004.5,-6.3 6004.5,117.8 -5.5,117.8 -5.5,-6.3 "/>
<g>
	<path class="st1" d="M998.3,98.2c-100.3-19-184.2,0-184.2,0s-92.2,19-192.5,0c-100.3-19-184.2,0-184.2,0s-92.2,19-192.5,0
		s-184.2,0-184.2,0s-92.2,19-192.5,0s-184.2,0-184.2,0s-92.2,19-192.5,0s-184.2,0-184.2,0s-4.2,0.9-11.8,2.1V143h1895.7V98.2
		C1190.8,98.2,1098.6,117.2,998.3,98.2z"/>
	<path class="st1" d="M6703.8,105.2c-17.4-1.3-35.5-3.5-54-7c-100.3-19-184.2,0-184.2,0s-92.2,19-192.5,0c-100.3-19-184.2,0-184.2,0
		s-92.2,19-192.5,0c-100.3-19-184.2,0-184.2,0s-92.2,19-192.5,0c-100.3-19-184.2,0-184.2,0s-92.2,19-192.5,0
		c-100.3-19-184.2,0-184.2,0s-92.2,19-192.5,0c-100.3-19-184.2,0-184.2,0s-92.2,19-192.5,0c-100.3-19-184.2,0-184.2,0v0
		c-3.7,0.7-94.4,18.6-192.9,0c-100.3-19-184.2,0-184.2,0s-92.2,19-192.5,0c-100.3-19-184.2,0-184.2,0s-92.2,19-192.5,0
		c-100.3-19-184.2,0-184.2,0s-92.2,19-192.5,0c-100.3-19-184.2,0-184.2,0s-92.2,19-192.5,0s-184.2,0-184.2,0s-92.2,19-192.5,0
		c-100.3-19-184.2,0-184.2,0s-92.2,19-192.5,0c-100.3-19-184.2,0-184.2,0s-92.2,19-192.5,0c-100.3-19-184.2,0-184.2,0V143h753.6
		h753.6h753.6h753.4h0.1H6704v-37.8H6703.8z"/>
</g>
<g>
	
		<rect x="3633.5" y="59.4" transform="matrix(0.1625 -0.9867 0.9867 0.1625 3012.9478 3669.9067)" class="st2" width="69.6" height="1.5"/>
	<path class="st2" d="M3663.3,90.7l-0.2,1.1c0,0.1,0,0.1,0.1,0.1l31.8,5.2c0.1,0,0.1,0,0.1-0.1l0.2-1.1c0-0.1,0-0.1-0.1-0.1
		l-31.8-5.2C3663.3,90.6,3663.3,90.7,3663.3,90.7z"/>
	<polygon class="st3" points="3677.2,27.9 3672.6,28.9 3673.7,21.9 3677.8,24 	"/>
	<path class="st4" d="M3633.7,86.6l28,4.6c0,0,0.6-9.6,3.3-25.5l-12.3-9.3C3640.7,72.2,3633.7,86.6,3633.7,86.6"/>
	<path class="st3" d="M3670.9,35.7c-6.9,6.4-13.1,13.7-18.3,20.6l12.3,9.3C3666.3,57.3,3668.2,47.1,3670.9,35.7z"/>
	<polygon class="st4" points="3668.5,68.4 3665,89.9 3693.9,94.7 3691.2,86.2 	"/>
	<polygon class="st3" points="3674.6,31.4 3668.5,68.4 3691.2,86.2 	"/>
	<path class="st5" d="M3675.4,96.2l-22.8-3.7c-0.1,0-0.1,0-0.1,0.1l-0.9,5.3h0.1v0.2l22.8,3.7v-0.2h0.2l0.9-5.3
		C3675.5,96.3,3675.5,96.2,3675.4,96.2z"/>
	<path class="st2" d="M3657.5,97.4l-3.7-0.7c0,0-0.1,0-0.1-0.1l0.5-2.6c0,0,0-0.1,0.1-0.1l3.7,0.7c0,0,0.1,0,0.1,0.1L3657.5,97.4
		C3657.6,97.3,3657.6,97.4,3657.5,97.4z"/>
	<path class="st2" d="M3662.5,98.2l-3.7-0.7c0,0-0.1,0-0.1-0.1l0.5-2.6c0,0,0-0.1,0.1-0.1l3.7,0.7c0,0,0.1,0,0.1,0.1L3662.5,98.2
		C3662.6,98.2,3662.6,98.2,3662.5,98.2z"/>
	<path class="st2" d="M3667.5,99l-3.7-0.7c0,0-0.1,0-0.1-0.1l0.5-2.6c0,0,0-0.1,0.1-0.1l3.7,0.7c0,0,0.1,0,0.1,0.1L3667.5,99
		C3667.6,99,3667.6,99,3667.5,99z"/>
	<path class="st2" d="M3672.4,99.8l-3.7-0.7c0,0-0.1,0-0.1-0.1l0.5-2.6c0,0,0-0.1,0.1-0.1l3.7,0.7c0,0,0.1,0,0.1,0.1L3672.4,99.8
		C3672.6,99.8,3672.6,99.8,3672.4,99.8z"/>
	<path class="st2" d="M3681.4,111.9l-35.3-5.8c0,0-10.8-2.7-12-11.2c3.7,0.6,51.4,8.5,51.4,8.5L3681.4,111.9z"/>
	<path class="st4" d="M3684.2,106.3l-49-8.1c0,0,0,0,0-0.1l-0.7-1.5c0,0,0,0,0.1,0l50.5,8.4c0,0,0,0,0,0.1L3684.2,106.3
		C3684.3,106.2,3684.2,106.3,3684.2,106.3z"/>
	<path class="st4" d="M3685.4,104l-54.2-8.9c0,0-0.1,0-0.1-0.1l0.1-0.6c0,0,0-0.1,0.1-0.1l54.2,8.9c0,0,0.1,0,0.1,0.1L3685.4,104
		C3685.6,104,3685.4,104.1,3685.4,104z"/>
	<path class="st4" d="M3676.9,96.8l-25.5-4.2c0,0-0.1,0-0.1-0.1l0.1-0.6c0,0,0-0.1,0.1-0.1L3677,96c0,0,0.1,0,0.1,0.1L3676.9,96.8
		C3677,96.8,3676.9,96.8,3676.9,96.8z"/>
	<polygon class="st6" points="3681.6,26.4 3678.8,25.1 3677,24.2 3676.2,29.2 3684.4,27.9 	"/>
	<g>
		<defs>
			<path id="SVGID_1_" d="M3656.6,87.7C3656.6,87.7,3656.6,87.8,3656.6,87.7L3656.6,87.7L3656.6,87.7 M3657.3,87.6
				c-0.1,0-0.2,0.1-0.3,0.1c0,0,0,0,0,0c-0.1,0-0.2,0.1-0.3,0.1l0,0c0,0-0.2,0-0.1,0.3c0,0,0.1,0,0.1,0c0.2,0,0.4-0.1,0.6-0.4
				C3657.2,87.8,3657.2,87.7,3657.3,87.6 M3657.7,87.3L3657.7,87.3l-0.2,0.2l0,0c0,0,0,0.1,0,0.1c0.1,0,0.2,0,0.2,0
				c0.1,0.1,0.1,0.2,0.1,0.2c0.1,0,0.1,0,0-0.1v-0.1c0,0,0,0,0-0.1C3657.8,87.4,3657.8,87.3,3657.7,87.3 M3659.7,86.2
				c0.3,0.2,0.4,0.3,0.4,0.3s0-0.1,0-0.2C3660,86.2,3659.8,86.2,3659.7,86.2 M3659.5,86h-0.1c-0.1,0.2-0.2,0.4-0.6,0.4v0
				c0,0.1,0,0.1,0,0.1c0,0.1,0,0.1,0,0.1c0,0.1,0,0.1,0,0.1c0,0.1-0.1,0.1-0.1,0.1c0,0,0,0,0,0c0,0-0.1,0.1-0.1,0.1
				c-0.2,0.1-0.3,0.1-0.3,0.1s0-0.1,0.1-0.1c0,0,0-0.1,0.1-0.1h-0.1c-0.1,0-0.1,0-0.1,0c0,0,0,0,0,0c0,0,0,0.1,0,0.1v0.1
				c0,0,0.1,0.1,0.5,0.2h0.1h0.1c0.1-0.1,0.2-0.1,0.2-0.1c0.1-0.1,0.1-0.1,0.1-0.1c0.1-0.1,0.1-0.1,0.1-0.3c0-0.2,0.1-0.5,0.2-0.6
				h0.1c0,0,0,0,0,0C3659.6,86.2,3659.6,86.1,3659.5,86 M3654.9,85c0,0.1,0.1,0.2,0.2,0.2c0.1,0.1,0.2,0.1,0.3,0.1
				c0.1,0,0.1,0,0.2,0c-0.1,0-0.2,0-0.3-0.1c-0.1,0-0.1,0-0.1,0c-0.1,0-0.1,0-0.1,0c-0.1-0.1-0.1-0.1-0.1-0.1
				C3654.9,85,3654.9,85,3654.9,85C3654.9,85,3654.9,85,3654.9,85 M3656.1,83.5C3656.1,83.5,3656.1,83.6,3656.1,83.5
				C3656.1,83.6,3656.1,83.5,3656.1,83.5 M3656.1,83.5C3656.1,83.5,3656.1,83.5,3656.1,83.5C3656.1,83.5,3656.1,83.5,3656.1,83.5
				 M3656.2,83.5v0.1C3656.2,83.6,3656.1,83.6,3656.2,83.5c-0.1,0.1,0,0.1,0,0.1l0,0l0,0l0,0l0,0
				C3656.2,83.6,3656.2,83.6,3656.2,83.5 M3655,83.1c-0.3,0-0.5,0-0.6,0.1c0,0,0,0-0.1,0.1c0,0,0,0.1-0.1,0.1c0,0,0,0,0,0.1
				c0,0.1,0,0.2,0,0.2c0,0.1,0,0.3-0.1,0.5c0,0,0.2,0,0.5-0.2c0.1-0.1,0.1-0.3,0.3-0.5c0.1-0.1,0.3-0.1,0.5-0.1c0,0,0.1,0.1,0.1,0.2
				c0,0.1,0,0.2-0.2,0.3c-0.1,0-0.3,0.1-0.5,0.3c0,0,0,0,0,0.1c0,0.1,0,0.3,0,0.5c0,0,0,0.1,0.1,0.1c-0.1-0.2-0.1-0.3,0-0.5
				c0.1-0.2,0.2-0.3,0.5-0.5c0.2-0.1,0.2-0.3,0.2-0.6S3655.5,83.1,3655,83.1 M3656.2,87.6c0-0.1,0-0.2,0.1-0.3
				c0-0.1,0.1-0.2,0.1-0.3c0,0,0,0,0-0.1v0.1V87c0,0.1,0.1,0.3,0.2,0.4c0,0-0.1,0.1-0.2,0.1C3656.3,87.5,3656.3,87.6,3656.2,87.6
				 M3657.5,81.3c-0.1,0-0.2,0-0.3,0.1c-0.1,0-0.1,0.1-0.2,0.1c0,0,0,0-0.1,0.1c-0.1,0.1-0.2,0.1-0.2,0.3c-0.1-0.1-0.1-0.1-0.2-0.1
				c-0.1,0-0.2,0-0.3,0.1c-0.2,0.2-0.1,0.6-0.3,0.6c0,0,0.2,0.1,0.5,0.1c0.1,0,0.1,0,0.2,0v0.1c0,0.5,0,0.6,0,0.7c0,0-0.2,0-0.2,0.2
				c0,0,0,0,0,0.1c0,0.1,0,0.2,0.1,0.2c-0.1,0-0.1,0-0.1,0.1c0,0.1,0,0.1,0.1,0.1c0,0,0,0.1,0,0.2c0,0.1-0.1,0.6-0.2,0.7
				c-0.1,0.1-0.2,0.2-0.4,0.2c0.1,0,0.2,0,0.3,0c0.1,0,0.1,0,0.1,0s-0.2,0.1-0.3,0.2c-0.1,0-0.1,0.1-0.2,0.1c0,0,0,0-0.1,0
				c-0.1,0-0.1,0-0.2,0c-0.1,0-0.1,0-0.2,0c-0.1,0-0.3-0.1-0.5-0.2c-0.2-0.1-0.3-0.1-0.6-0.1c-0.1,0-0.2,0-0.2,0.1l-0.1,0.1
				c-0.1,0.3,0,0.5,0.2,0.6c0.1,0.1,0.1,0.1,0.2,0.1s0.1,0,0.2-0.1c0.1-0.1,0-0.1,0-0.1h-0.1h-0.1c-0.1,0-0.1-0.1-0.1-0.1
				c0-0.1,0-0.3,0.2-0.3c0,0,0,0,0.1,0c0.1,0,0.2,0.1,0.3,0.2c0.1,0.1,0.2,0.2,0.5,0.2h-0.1c-0.1,0-0.1,0.1-0.1,0.1s0,0.1-0.1,0.1
				c0,0.1,0,0.3,0,0.5c0,0.1,0.1,0.2,0.1,0.3c0,0,0,0,0,0.1v0.1c0,0,0,0.1-0.1,0.1l-0.1,0.1h-0.1c-0.1,0-0.1-0.1-0.1-0.1v-0.1
				c0,0,0-0.1-0.1-0.1c0,0,0,0,0,0.1c0,0,0,0,0,0.1c0,0.1,0,0.2,0.1,0.2c0.1,0.1,0.2,0.1,0.3,0.1s0.2,0,0.3-0.1
				c0.1-0.1,0.2-0.2,0.2-0.2c0-0.1,0-0.1,0-0.2c0-0.1,0-0.2-0.1-0.3c0-0.1-0.1-0.1-0.1-0.2v-0.1c0-0.2,0.3-0.2,0.6-0.3
				c0.1,0,0.2,0,0.3-0.1c-0.1,0.1-0.2,0.6-0.2,1c-0.2,0.1-0.3,0.3-0.5,0.6c-0.1,0.3-0.1,0.7,0.1,0.9c0.1,0.1,0.1,0.1,0.2,0.1
				c0,0,0.1,0,0.1,0s0,0,0-0.1c0-0.1,0-0.2,0-0.5c0-0.1,0-0.2,0-0.3c0-0.1,0.1-0.2,0.2-0.3c0.1,0.7,0.2,0.9,0.3,0.9c0,0,0.1,0,0-0.1
				c0-0.1-0.1-0.5-0.1-0.9c0,0,0.1,0,0.1-0.1c0,0.1,0,0.3,0.1,0.5c0.1,0.1,0.2,0.1,0.4,0.1c0.2,0,0.4-0.1,0.6-0.3c0,0,0,0,0.1,0.1
				l-0.1,0.1c0,0-0.1,0.1,0,0.1c0.3-0.2,0.3-0.3,0.3-0.3h0.1c0,0.1,0,0.2-0.1,0.3c0,0,0.1,0,0.1,0c0.1,0,0.2,0,0.2-0.1
				c0-0.2,0-0.2,0-0.2h0.1c0,0,0,0,0.1,0.1l0.1-0.1c0.1-0.1,0.1-0.2,0.1-0.3c0.1,0,0.2,0,0.3,0c0,0,0-0.1-0.1-0.1c0,0,0-0.1-0.1-0.1
				l0.1-0.1c0.1,0,0.1,0,0.2,0c0.1,0,0.2,0.1,0.2,0.2c0.1,0.1,0,0.2-0.1,0.2h0.1h0.1c0,0,0,0,0.1,0c0.1-0.1,0.1-0.3,0-0.5
				c0,0,0.1,0,0.1,0v-0.1v-0.1c0-0.1,0-0.2,0-0.3c0-0.1,0.1-0.1,0.2-0.1c0.1,0,0.1,0,0.2,0c0.1,0,0.1,0.1,0.1,0.1V86h0
				c0-0.1,0.1-0.2,0.1-0.3c0.1-0.3-0.1-0.7-0.2-0.8c-0.1-0.1-0.2-0.2-0.2-0.3c0-0.1,0.1-0.1,0.2-0.1c0.1,0.1,0.1,0.3,0.1,0.6
				c0.1,0.1,0.1,0.1,0.1,0.1c-0.1-0.1,0-0.3,0.1-0.5c0-0.1,0-0.1,0-0.2v-0.1c0,0,0,0,0-0.1c-0.1-0.2-0.1-0.2-0.6-0.3
				c-0.1,0-0.2,0-0.3,0c-0.2,0-0.3,0.1-0.4,0.3c-0.1,0.2-0.2,0.5,0,0.7c0.1,0,0.1,0.1,0.2,0.2c0.1,0.1,0.1,0.3,0,0.6
				c-0.1,0.2-0.3,0.3-0.5,0.3c-0.1,0-0.2,0-0.3,0c-0.3-0.1-0.6-0.3-0.6-0.6c0-0.2,0.1-0.6,0.1-0.7c0.1-0.1,0.2-0.2,0.2-0.3
				c0.1,0,0.1,0,0.1-0.1c0-0.1,0-0.1-0.1-0.1l0.1-0.1c0,0,0.1,0,0.1-0.1c0,0,0,0.1-0.1,0.1c0,0,0,0,0-0.1c0,0,0.1,0,0.1-0.1
				c0,0,0,0-0.1,0c0,0,0.1-0.1,0-0.2c0-0.1,0.1-0.3-0.1-0.7c-0.2-0.3-0.2-0.6-0.2-0.6h0.1c0.1,0,0.2-0.1,0.5-0.2l0.1-0.1
				c0-0.1,0-0.2-0.1-0.3C3657.7,81.3,3657.6,81.3,3657.5,81.3"/>
		</defs>
		<clipPath id="SVGID_2_">
			<use xlink:href="#SVGID_1_"  style="overflow:visible;"/>
		</clipPath>
		<rect x="3653.5" y="81.3" class="st7" width="6.7" height="7.3"/>
	</g>
</g>
<g>
	<path class="st8" d="M2231.6,79.2c0.1,0.1,0.2,0.2,0.2,0.2C2231.8,79.3,2231.8,79.2,2231.6,79.2z"/>
	<path class="st8" d="M2214.4,122L2214.4,122h1.6c0.2-3,0.6-5.4,1.3-8c-1.6,1.7-3,3.8-4.2,5.8C2213.8,120.2,2214.3,121.1,2214.4,122
		z"/>
	<path class="st8" d="M2210.5,111.4c0.2-0.7,0.3-1.4,0.5-2C2210.9,110.1,2210.8,110.7,2210.5,111.4z"/>
	<path class="st8" d="M2209.8,115.8c0.1-0.5,0.2-1,0.3-1.6C2209.8,114.8,2209.8,115.3,2209.8,115.8z"/>
	<path class="st8" d="M2231.4,78.9c-0.2-0.1-0.3-0.3-0.5-0.4C2231.1,78.6,2231.2,78.8,2231.4,78.9z"/>
	<path class="st8" d="M2210,113.5c0.1-0.5,0.2-1,0.3-1.5C2210.3,112.5,2210.1,113,2210,113.5z"/>
	<path class="st8" d="M2209.1,121.3c0,0.3,0,0.6,0,0.8C2209.1,121.8,2209.1,121.5,2209.1,121.3z"/>
	<path class="st8" d="M2209.1,120.7c0-0.6,0.1-1.2,0.1-1.8C2209.2,119.5,2209.2,120.1,2209.1,120.7z"/>
	<path class="st8" d="M2209.3,118.2c0.1-0.6,0.1-1.1,0.2-1.7C2209.5,117.1,2209.4,117.6,2209.3,118.2z"/>
	<path class="st9" d="M2209.1,121.3c0-0.2,0-0.4,0-0.5C2209.1,120.9,2209.1,121.1,2209.1,121.3z"/>
	<path class="st9" d="M2210.4,112c0-0.2,0.1-0.4,0.1-0.6C2210.5,111.6,2210.4,111.8,2210.4,112z"/>
	<path class="st9" d="M2209.6,116.5c0-0.2,0.1-0.5,0.1-0.7C2209.6,116.1,2209.6,116.3,2209.6,116.5z"/>
	<path class="st9" d="M2225.9,76.7h0.1c-0.3,0-0.6-0.1-1-0.1c0,0,4.6,2.9,5.8,6.3C2229.6,79.5,2225.9,76.7,2225.9,76.7z"/>
	<path class="st9" d="M2209.9,114.3c0-0.2,0.1-0.5,0.1-0.7C2210,113.8,2210,114,2209.9,114.3z"/>
	<path class="st9" d="M2209.3,118.9c0-0.2,0-0.4,0.1-0.7C2209.3,118.4,2209.3,118.6,2209.3,118.9z"/>
	<path class="st9" d="M2209.8,122c0-1,1-2.4,2.3-2.4c0.4,0,0.7,0.1,1,0.3c1.2-2.1,2.6-4.1,4.2-5.8c1.3-4.6,3.6-8.5,7.3-10.5
		c9.9-5,11.4-9.4,10.9-13.4c0-0.2,0-0.3,0-0.5c-0.5,0.9-1.8,1.5-2.5,1.3c-0.8-0.1-0.5-1.2-0.3-2.5c0.2-1.2,0.4-2.1,1.2-1.9
		c0.4,0.1,0.9,0.4,1.3,1c0.1,0.4,0.1,0.7,0.2,1.1c0-0.1,0-0.2,0-0.3c-0.4-2.2-1-4.9-2.3-7c-0.3-0.7-0.7-1.3-1.2-1.9
		c-0.1-0.1-0.2-0.2-0.2-0.2c-0.1-0.1-0.2-0.2-0.3-0.2c-0.2-0.1-0.3-0.3-0.5-0.4c-0.6-0.5-1.3-0.9-2.2-1.2c-0.4-0.2-0.9-0.3-1.4-0.4
		c-0.2,0-0.4-0.1-0.6-0.1c-0.2,0-0.3-0.1-0.5-0.1c-0.1,0-0.2,0-0.3,0h-0.1c0,0,3.7,2.8,4.9,6.2c1.2,3.4,0.5,9.1-5.3,12.4
		c-3.2,1.8-11.5,4.4-14.4,14c-0.2,0.6-0.4,1.3-0.5,2c0,0.2-0.1,0.4-0.1,0.6c-0.1,0.5-0.2,1-0.3,1.5c0,0.2-0.1,0.5-0.1,0.7
		c-0.1,0.5-0.2,1-0.3,1.6c0,0.2-0.1,0.5-0.1,0.7c-0.1,0.6-0.1,1.1-0.2,1.7c0,0.2,0,0.4-0.1,0.7c-0.1,0.6-0.1,1.2-0.1,1.8
		c0,0.2,0,0.3,0,0.5c0,0.3,0,0.8,0,0.8L2209.8,122L2209.8,122z M2229.4,93c0.7-1,1.7-1.4,2.5-0.8c0.8,0.6,0.9,1.9,0.2,2.9
		c-0.7,1-1.9,1.4-2.7,0.8C2228.6,95.3,2228.8,94,2229.4,93z M2224.6,96.9c1.1-0.8,2.5-0.6,3.2,0.4c0.7,1,0.4,2.5-0.7,3.2
		c-1.1,0.8-2.5,0.6-3.2-0.4C2223.2,99.2,2223.6,97.7,2224.6,96.9z M2218.8,100.9c1.1-0.8,2.5-0.6,3.3,0.5c0.8,1.1,0.4,2.6-0.7,3.3
		c-1.1,0.8-2.5,0.6-3.3-0.5C2217.5,103.2,2217.8,101.7,2218.8,100.9z M2213.6,107.3c0.6-1.2,2-1.7,3.1-1s1.5,2.1,0.8,3.3
		c-0.6,1.2-2,1.7-3.1,1S2212.9,108.5,2213.6,107.3z M2210.8,114.6c0.3-1.3,1.5-2.1,2.7-1.9c1.2,0.3,1.9,1.6,1.6,2.9
		s-1.5,2.1-2.7,1.9C2211.2,117.2,2210.5,115.9,2210.8,114.6z"/>
	<path class="st9" d="M2235.4,88.8c0,0.3,0,0.6,0.1,0.8C2235.4,89.4,2235.4,89.1,2235.4,88.8z"/>
	<path class="st9" d="M2353.6,91.5c0.2,1.2,0.5,2.3-0.3,2.4c-0.2,0-0.3,0-0.5,0c-0.1,0.6-0.1,1.1-0.1,1.6c-0.6,4,0.9,8.4,10.9,13.4
		c0.8,0.4,2.8,1.9,3.7,4.3c1.5,2.6,2.5,4.8,2.6,8.8h3c0.4,0,0.8-0.5,1.4-0.5c0.5,0,0.9,0.5,1.3,0.5h2.1c-0.8-12-8.4-20.2-13.2-22.4
		c-5.3-2.5-10.2-7.1-10.4-10.6c-0.2,0.6-0.4,1.2-0.5,1.8C2353.5,90.9,2353.6,91.2,2353.6,91.5z M2375.5,116.8
		c0.3,1.3-0.5,2.5-1.6,2.8c-1.2,0.3-2.4-0.5-2.7-1.8c-0.3-1.3,0.5-2.5,1.6-2.8S2375.2,115.5,2375.5,116.8z M2369.5,108.7
		c1.1-0.6,2.5-0.1,3.1,1c0.6,1.2,0.3,2.6-0.8,3.2s-2.5,0.1-3.1-1C2368,110.7,2368.4,109.3,2369.5,108.7z M2364.1,104
		c0.7-1,2.2-1.2,3.3-0.5c1.1,0.8,1.4,2.2,0.7,3.2c-0.7,1-2.2,1.2-3.3,0.5S2363.4,105,2364.1,104z M2358.4,100c0.7-1,2.1-1.2,3.2-0.4
		c1.1,0.8,1.4,2.2,0.7,3.1c-0.7,1-2.1,1.2-3.2,0.4C2358,102.4,2357.8,101,2358.4,100z M2354.3,95c0.8-0.6,1.8-0.2,2.5,0.8
		c0.7,1,0.8,2.2,0,2.8c-0.8,0.6-2,0.3-2.7-0.7C2353.5,96.9,2353.5,95.6,2354.3,95z"/>
	<path class="st8" d="M2257.2,14.5c0-5.9,1.4-13.3,4.6-18.8c1.3,0.3,2.5,0.6,3.4,0.9c-4.6-1.5-15.2-3.6-20.4,5.4
		c-6.7,11.6-1.4,22.2-10.9,25.1c0,0,13.2,6.6,27.2-0.1c-0.8,0.4-1.5,0.7-2.3,1C2257.8,23.7,2257.2,18.9,2257.2,14.5z"/>
	<path class="st9" d="M2261.2,26.9c0.1-0.1,0.2-0.1,0.4-0.2C2261.4,26.8,2261.3,26.9,2261.2,26.9z"/>
	<path class="st9" d="M2265.3-3.4c-0.9-0.3-2.1-0.6-3.4-0.9c-3.2,5.5-4.6,12.9-4.6,18.8c0,4.4,0.5,9.1,1.6,13.3
		c0.8-0.3,1.5-0.6,2.3-1c0.1-0.1,0.2-0.1,0.4-0.2C2260.4,14.3,2262.2,4.4,2265.3-3.4z"/>
	<path class="st8" d="M2353.3,93.9c0.8-0.1,0.5-1.2,0.3-2.4c-0.1-0.3-0.1-0.5-0.2-0.8c-0.3,1-0.5,2-0.6,2.9c0,0.1,0,0.2,0,0.3
		C2353,93.9,2353.2,93.9,2353.3,93.9z"/>
	<path class="st10" d="M2395,115.7c-0.3-0.2-0.5-0.5-0.8-0.8C2394.4,115.2,2394.8,115.4,2395,115.7z"/>
	<path class="st10" d="M2392.6,113.2c-0.2-0.3-0.5-0.6-0.7-0.9C2392.1,112.6,2392.3,112.9,2392.6,113.2z"/>
	<path class="st10" d="M2393.8,114.5c-0.2-0.3-0.5-0.5-0.7-0.8C2393.3,114,2393.5,114.2,2393.8,114.5z"/>
	<path class="st10" d="M2390.4,110.2c-0.3-0.5-0.7-1.1-1-1.7C2389.8,109.1,2390,109.7,2390.4,110.2z"/>
	<path class="st10" d="M2391.4,111.8c-0.2-0.3-0.5-0.7-0.7-1C2391,111.1,2391.2,111.4,2391.4,111.8z"/>
	<path class="st10" d="M2396.2,116.7c-0.3-0.2-0.6-0.5-0.9-0.8C2395.6,116.2,2395.9,116.5,2396.2,116.7z"/>
	<path class="st10" d="M2265.4-3.6c0,0.1-0.1,0.1-0.1,0.2C2265.3-3.5,2265.3-3.5,2265.4-3.6z"/>
	<path class="st10" d="M2266,69.5c0.2-0.2,0.4-0.4,0.6-0.5c-0.6-0.4-2.6-1.9-1.8-5.3c0,0,0.5,3.4,3.9,3.8c0.4-0.2,0.8-0.5,1.3-0.7
		h0.1c0.4-0.2,0.8-0.3,1.2-0.5c0.1,0,0.1-0.1,0.2-0.1c0.4-0.1,0.8-0.2,1.2-0.3c0.1,0,0.2-0.1,0.3-0.1c0.5-0.1,1-0.2,1.5-0.2
		s1-0.1,1.5,0c0.2,0,0.3,0,0.5,0c0.4,0,0.7,0,1.1,0.1c0.2,0,0.3,0,0.5,0.1c0.4,0.1,0.7,0.1,1.1,0.2c0.1,0,0.3,0.1,0.4,0.1
		c0.4,0.1,0.9,0.3,1.3,0.4h0.1c1,0.4,1.9,0.9,2.7,1.4c0,0,0.1,0,0.1,0.1c0.4,0.3,0.7,0.5,1.1,0.8l0.1,0.1c0.4,0.3,0.7,0.7,1,1
		c1.6-0.7,6.9-2.6,12.1,0c0.3-0.4,0.7-0.7,1-1c0.1-0.1,0.2-0.2,0.3-0.3c0.3-0.2,0.5-0.4,0.8-0.6c0.1-0.1,0.3-0.2,0.4-0.3
		c0.3-0.2,0.6-0.4,0.9-0.5c0.1-0.1,0.3-0.4,0.4-0.4c0.4-0.2,0.9,0.2,1.3-0.8c0.5,0,0.9-0.1,1.4-0.2c0.1,0,0.3,0,0.4,0
		c0.3-0.1,0.7-0.1,1.1-0.1c0.2,0,0.3,0,0.5,0c0.4,0,0.7,0,1.1-0.1c0.2,0,0.4,0,0.6,0c0.5,0,0.7,0.2,1.7,0.3V66h-0.2
		c0.5,0,1,0,1.4,0.1c0.1,0,0.1,0,0.2,0c0.4,0.1,0.8,0.2,1.2,0.3l0.1,0.1c0.4,0.1,0.8,0.6,1.2,0.6s0.8,0.3,1.2,0.5
		c3.3-0.5,3.8-3.8,3.8-3.8c0.7,3.3-1.1,4.8-1.7,5.3c0.1,0.1,0.2,0.2,0.3,0.3c0.1,0.1,0.2,0.2,0.4,0.3c0.8,0,1.4-0.1,2-0.4
		c1.1-2.4,2.3-7-2.8-9.6c0,0-8.3-4-18.9,0.2c0,0,0.4-0.8,1.6-1.8c5.4-3.1,12.2-3.7,17.8-1.4c0,0.3,0,0.6-0.1,1
		c0.5-4.2,0.5-14.3-9.7-25.3c-10.5-11.6-10.3-19.1-10.2-19.7c-0.1-0.8-1.5-19.4,3.3-24.8c0,0-4.2,10.8,3.2,22.5c0,0-1.2,0.6-3.2,1.3
		c3.9-1.4,10.3-4.5,14-10.7c1.4-2.3,2.6-4.7,3.4-7c-3.2,0.5-7.2-0.1-7.2-0.1c5.3-0.4,7.5-5.7,8.2-7.7c-0.5-4.3-2.8-8.5-7.9-12.5
		c-10.9-8.6-18.5-4.2-27.9,1.2c-2.3,1.3-5,3.3-7.7,6.1c4.1,0.1,5.2,4.5,5.2,4.5s-2.9-1.6-7.9-1.6c-2.8,3.3-5.4,7.5-7.5,12.7
		c0.3-0.7,0.6-1.4,0.9-2.1c10.2-2.5,15.1,3,15.1,3s-7.5-1.1-13.8,0.4c0.2,0.4,0.8,1.5,1.3,2.9c0.1,0.2,0.2,0.5,0.3,0.8
		c0.3,0.8,0.6,1.7,0.9,2.7c0.2,0.6,0.3,1.2,0.5,1.8c8.3-1.3,13.2,4.2,13.2,4.2c-5.4-0.7-9.4-0.3-12.5,0.6c0,0.7,0,1.5,0,2.2
		c0,0.8-0.1,1.6-0.3,2.4c-0.1,0.4-0.2,0.8-0.3,1.2c-0.3,1.2-0.7,2.3-1.3,3.4c-1.2,2.2-3.1,4.2-5.9,5.9c-0.4,0.2-0.8,0.5-1.3,0.7
		c-0.3,0.1-0.5,0.3-0.8,0.4c0.2,1.8,0.4,3.7,0.7,5.6c2.6,15.3,4.8,22.1,6.5,26.1l-0.7-1.9c3.5-1.5,7.3-2.3,10.8-1.7
		c5.3,1.5,6.9,4.3,6.9,4.3c-5.8-2.8-17-0.7-17-0.7s-7.2,3.4-5.6,10.1C2263.8,69.1,2264.8,69.6,2266,69.5z M2313.9,2
		c-1.4,1.9-3,3.5-4.6,4.8c-4.1-1.8-6.4-6-6.4-6C2307.8,3.5,2312.8,2.3,2313.9,2z M2266.2,32.7c0,0-2.5-8.5,5.8-11.8
		c9.8-3.9,17.2,2.9,17.2,2.9C2271.3,20.8,2266.2,32.7,2266.2,32.7z M2270.1,50.1c0,0-0.8-9.1,10.1-12.3c12.3-3.6,20.2,4,20.2,4
		C2275.9,39.4,2270.1,50.1,2270.1,50.1z"/>
	<path class="st10" d="M2397.4,117.7c-0.3-0.2-0.6-0.5-1-0.8C2396.8,117.2,2397.1,117.5,2397.4,117.7z"/>
	<path class="st10" d="M2312.8,110c4.4-4.2,5.3-9.8,4.5-14.8c0.2,0,0.5,0.1,0.7,0.1c2.7,0,4.9-2.2,4.9-4.9c0-2.2-1.5-4.1-3.5-4.7
		c-0.3,0.4-0.6,0.8-0.9,1.1c-0.6,0.6-1.2,1.2-1.9,1.7c-0.7,0.5-1.4,0.9-2.2,1.3c-0.8,0.4-1.6,0.7-2.4,0.9c-0.8,0.2-1.7,0.4-2.6,0.4
		c-0.9,0-1.8,0.1-2.7-0.1c-0.9-0.1-1.8-0.3-2.7-0.6c-0.4-0.1-0.8-0.3-1.2-0.5c-0.8-0.3-1.6-0.8-2.3-1.2c-0.7-0.5-1.4-1-2-1.6
		c-2.7-2.7-4.2-6.4-3.7-10.4c0.1-0.4,0.1-0.8,0.2-1.3c0.1-0.3,0.2-0.7,0.3-1c0-0.1,0-0.1,0.1-0.2c0.3-0.8,0.6-1.5,1-2.2
		c-0.9-0.6-3.6-1.8-9.1-0.2c0.2,0.4,0.4,0.8,0.6,1.2c0.2,0.4,0.3,0.8,0.5,1.2v0.1c0.1,0.4,0.2,0.7,0.3,1.1c0,0.1,0,0.2,0.1,0.2
		c0.1,0.5,0.2,0.9,0.2,1.4c0.4,4.4-1.6,8.5-5,11.1c-0.7,0.5-1.4,1-2.2,1.4c-1.5,0.8-3.3,1.3-5.1,1.5c-3.7,0.3-7.1-0.8-9.8-2.8
		c-0.1,0-0.3,0-0.4,0c-2.8,0-5.1,2.3-5.1,5.1s2.3,5.1,5.1,5.1c0.3,0,0.6,0,0.8-0.1c0,1.9,0.4,5.4,2.6,8.9c0.1,2.3,0.3,8.7-0.3,14.7
		h41.7C2311.8,117,2312.4,111.6,2312.8,110z M2283.4,104.8c0,0,8.9,4.1,19.2,0.4C2302.6,105.2,2296.3,115,2283.4,104.8z M2302.8,95
		c-0.1,0.6-0.3,0-0.6,1l-0.1,0.4c-0.1,0.1-0.2,0.5-0.3,0.6c-0.2,0.1-0.5,0.3-0.7,0.4c-0.5,0.2-0.9,0.3-0.9,0.3
		c-5.7,1.1-9.1-1.2-9.1-1.2c5.2,1,9,0.1,9.9-0.3c0.3-0.1,0.7-0.4,0.7-1.2v-0.2c-1.1-0.5-2-0.8-2-0.8c4.5-1.3,4.8,3,4.8,3
		C2304,96,2303.4,95.4,2302.8,95z"/>
	<path class="st10" d="M2398.6,118.5c-0.3-0.2-0.7-0.5-1.1-0.7C2397.9,118,2398.2,118.3,2398.6,118.5z"/>
	<path class="st10" d="M2380.1,89.6c-0.3-0.3-0.5-0.5-0.8-0.8C2379.6,89.1,2379.8,89.3,2380.1,89.6z"/>
	<path class="st10" d="M2264.2,71.3c0,0.1,0.1,0.1,0.1,0.2c0,0,0,0,0,0.1c0-0.1,0.1-0.1,0.1-0.2
		C2264.4,71.4,2264.3,71.3,2264.2,71.3z"/>
	<path class="st10" d="M2369.6,82.9c-0.1,0-0.1,0-0.2-0.1C2369.5,82.9,2369.6,82.9,2369.6,82.9z"/>
	<path class="st10" d="M2368.5,82.6c-0.1,0-0.1,0-0.2,0C2368.4,82.5,2368.5,82.6,2368.5,82.6z"/>
	<path class="st10" d="M2370.8,83.3c-0.1,0-0.1-0.1-0.2-0.1C2370.6,83.3,2370.8,83.3,2370.8,83.3z"/>
	<path class="st10" d="M2367.4,82.3h-0.1H2367.4z"/>
	<path class="st10" d="M2379,88.5c-0.2-0.2-0.3-0.3-0.5-0.5C2378.6,88.2,2378.8,88.4,2379,88.5z"/>
	<path class="st10" d="M2371.9,83.8c-0.1,0-0.2-0.1-0.2-0.1C2371.8,83.7,2371.8,83.8,2371.9,83.8z"/>
	<path class="st10" d="M2366.3,82.1C2366.2,82.1,2366.2,82.1,2366.3,82.1C2366.2,82.1,2366.2,82.1,2366.3,82.1z"/>
	<path class="st10" d="M2365.1,82L2365.1,82z"/>
	<path class="st10" d="M2377.1,86.9c-0.1-0.1-0.3-0.2-0.4-0.3C2376.8,86.7,2376.9,86.8,2377.1,86.9z"/>
	<path class="st10" d="M2378,87.7c-0.2-0.1-0.3-0.3-0.5-0.4C2377.8,87.5,2377.9,87.6,2378,87.7z"/>
	<path class="st10" d="M2376.1,86.2c-0.1-0.1-0.3-0.2-0.4-0.3C2375.8,86.1,2376,86.1,2376.1,86.2z"/>
	<path class="st10" d="M2372.9,84.3c-0.1,0-0.2-0.1-0.3-0.1C2372.8,84.2,2372.9,84.3,2372.9,84.3z"/>
	<path class="st10" d="M2374,84.9c-0.1-0.1-0.2-0.1-0.3-0.2C2373.8,84.8,2373.9,84.9,2374,84.9z"/>
	<path class="st10" d="M2375.1,85.6c-0.1-0.1-0.2-0.1-0.3-0.2C2374.8,85.4,2374.9,85.5,2375.1,85.6z"/>
	<path class="st10" d="M2363.8,113.4c-1-1.6-2.3-3-3.8-4.3c-0.4-0.3-0.7-0.6-1.1-0.9c0,0,0,0-0.1-0.1c-0.4-0.3-0.8-0.6-1.2-0.8
		l-0.1-0.1c-0.4-0.3-0.8-0.5-1.2-0.8c-0.1,0-0.1-0.1-0.2-0.1c-0.5-0.3-1-0.6-1.5-0.9c-8.2-4.8-6.6-24.6,4-23c0,0-4.5,2.9-4.5,6.5
		c0,0.1,0,0.1,0,0.2c0.3-0.8,0.7-1.7,1.1-2.4c1.3-3,4-4.4,8.1-4.7c0.3,0,0.6,0,0.9,0c7.9-1.1,16.8,1.3,21.5,6.5
		c2.2,2.4,3.1,5.7,4,8.7c1.1,3.4,1.9,6.9,3,10.4c1.3,4.1,3.2,8.1,6,11.1c2.6,1.8,4.7,2.5,4.7,2.5c-3.9-3.5-2.3-14.3-0.9-19.1
		c1.4-4.8,0.7-12.3-3.2-20.6c-0.3-0.6-0.5-1.1-0.8-1.6c-4.7-1.3-11.4-1-11.4-1c4.3-3,7.8-2.8,9.4-2.5c0.7,1,1.3,2.1,2,3.4
		c-3.5-7-6.8-9.7-23.2-10.7c-17.6-1.1-20.5,4.4-24,14.1s-5.3,19.4,3.2,24.2c2.8,1.6,6.1,4.5,7.9,6.3c1.7,2.3,2.9,5.4,3.3,8.4h1.5
		C2366.3,119,2365.2,115.7,2363.8,113.4z"/>
	<path class="st10" d="M2319.1-11c0,0.2,0,0.4-0.1,0.6C2319.1-10.6,2319.1-10.8,2319.1-11z"/>
	<path class="st10" d="M2318.4-7.2c-0.1,0.3-0.2,0.6-0.3,0.9C2318.2-6.6,2318.3-6.9,2318.4-7.2z"/>
	<path class="st10" d="M2319.1-14.1c0,0.3,0.1,0.6,0.1,1C2319.2-13.5,2319.2-13.8,2319.1-14.1z"/>
	<path class="st10" d="M2318.9-9.1c0,0.2-0.1,0.4-0.1,0.6C2318.8-8.7,2318.8-8.9,2318.9-9.1z"/>
	<path class="st10" d="M2318.8-8.1c-0.1,0.2-0.1,0.4-0.2,0.7C2318.6-7.7,2318.6-7.9,2318.8-8.1z"/>
	<path class="st10" d="M2319-10c0,0.2-0.1,0.4-0.1,0.6C2319-9.6,2319-9.8,2319-10z"/>
	<path class="st10" d="M2272.9-16.3c0.9-1.1,1.8-2,2.7-2.9C2274.8-18.4,2273.8-17.4,2272.9-16.3z"/>
	<path class="st10" d="M2319.2-11.9c0,0.2,0,0.4,0,0.7C2319.2-11.5,2319.2-11.7,2319.2-11.9z"/>
	<path class="st10" d="M2185.5,86.9c0.1-0.4,0.1-0.8,0.2-1.3C2185.8,86.1,2185.6,86.5,2185.5,86.9z"/>
	<path class="st10" d="M2185.8,85.6c0.1-0.4,0.2-0.9,0.3-1.3C2185.9,84.7,2185.8,85.2,2185.8,85.6z"/>
	<path class="st10" d="M2202.5,81.8c5.5-7.9,16.7-8.2,25-5.4c0.1,0.1,0.2,0.2,0.4,0.3c6.7,1,10.1,12.9,9.6,17.7
		c-0.5,5.3-11.4,9-15.3,14.8c-0.4,0.6-0.8,0.7-1.1,1.7c-1.8,3-3.3,6-3.5,11h3.4c0.7-11,4.4-15.3,12.9-20c8.5-4.8,6.7-14.4,3.2-24.1
		s-6.4-15.2-24-14.1c-13.4,0.8-18,2.7-21.2,7.2c1.5-0.3,5-0.6,9.4,2.5c0,0-6.7-0.3-11.4,1c-0.3,0.5-0.5,1.1-0.8,1.6
		c-0.2,0.5-0.5,1-0.7,1.5c1.5-0.2,3.8-0.1,6.5,1.2c0,0-4.1,0.5-7.7,1.8c-0.4,1.3-0.8,2.5-1.1,3.8c1.3-0.4,3.2-0.6,5.7,0.2
		c0,0-3.4,0.9-6.3,2.4c-0.6,3.9-0.5,7.2,0.3,9.8c1.4,4.6,2.9,14.7-0.5,18.6C2197.8,108.9,2195.3,92.1,2202.5,81.8z"/>
	<path class="st10" d="M2187.8,79c0.2-0.5,0.4-1,0.6-1.5C2188.1,78,2187.9,78.5,2187.8,79z"/>
	<path class="st10" d="M2187.2,80.5c0.2-0.5,0.3-1,0.5-1.5C2187.5,79.5,2187.3,80,2187.2,80.5z"/>
	<path class="st10" d="M2189.8,74.4c0.7-1.3,1.3-2.5,2-3.5C2191,72,2190.4,73.1,2189.8,74.4z"/>
	<path class="st10" d="M2319.2-13c0,0.3,0,0.5,0,0.8C2319.2-12.5,2319.2-12.7,2319.2-13z"/>
	<path class="st10" d="M2237.5,94.5c0.5-4.8-2.9-16.7-9.6-17.7c0.1,0,0.1,0.1,0.2,0.1c1,0.3,2,0.9,2.8,1.6c0.2,0.1,0.3,0.3,0.5,0.4
		c0.1,0.1,0.2,0.2,0.3,0.2c0.1,0.1,0.2,0.2,0.2,0.2C2235.8,83.5,2237.9,90.9,2237.5,94.5z"/>
	<path class="st10" d="M2217.5,122c0.1-5,1.7-8.2,3.5-11c-0.1,0-0.2,0-0.3,0.1c-1.3,0.8-2.4,1.8-3.4,2.9c-0.7,2.6-1.1,5-1.3,8
		H2217.5z"/>
	<path class="st10" d="M2226,76.7c-0.3,0-0.7-0.1-1-0.1C2225.3,76.6,2225.8,76.7,2226,76.7z"/>
	<path class="st10" d="M2221,111c0.4-0.6,0.8-1.2,1.1-1.7C2221.8,109.8,2221.4,110.4,2221,111z"/>
	<path class="st10" d="M2220.8,111.1c0.1-0.1,0.2-0.1,0.3-0.1c0.4-0.6,0.8-1.2,1.1-1.7c4-5.8,14.8-9.5,15.3-14.8
		c0.4-3.6-1.8-11-5.6-15.1c0.5,0.5,0.9,1.2,1.2,1.9c1.3,2.1,1.9,4.8,2.3,7c0,0.1,0,0.2,0,0.3c0,0,0,0,0,0.1v0.1
		c0,0.3,0.1,0.6,0.1,0.8c0,0.2,0,0.3,0,0.5c0.6,4-0.9,8.4-10.9,13.4c-3.8,1.9-6,5.9-7.3,10.5
		C2218.3,112.9,2219.4,111.9,2220.8,111.1z"/>
	<path class="st10" d="M2231.4,78.9c0.1,0.1,0.2,0.2,0.3,0.2C2231.6,79.1,2231.5,79,2231.4,78.9z"/>
	<path class="st10" d="M2226,76.7c0.1,0,0.2,0,0.3,0C2226.2,76.7,2226.1,76.7,2226,76.7z"/>
	<path class="st10" d="M2228.8,77.3L2228.8,77.3c0.8,0.3,1.5,0.7,2.2,1.2c-0.9-0.7-1.8-1.3-2.8-1.6
		C2228.3,77,2228.5,77.2,2228.8,77.3z"/>
	<path class="st10" d="M2227.4,76.9c-0.2,0-0.4-0.1-0.6-0.1C2227,76.9,2227.2,76.9,2227.4,76.9z"/>
	<path class="st10" d="M2358.8,108.2C2358.8,108.1,2358.8,108.1,2358.8,108.2C2358.8,108.1,2358.8,108.1,2358.8,108.2z"/>
	<path class="st10" d="M2359.9,109.1L2359.9,109.1z"/>
	<path class="st10" d="M2357.5,107.3l-0.1-0.1C2357.4,107.2,2357.5,107.2,2357.5,107.3z"/>
	<path class="st10" d="M2356.2,106.4c-0.1,0-0.1-0.1-0.2-0.1C2356.1,106.3,2356.1,106.3,2356.2,106.4z"/>
	<path class="st10" d="M2364.2,113.5c-0.1-0.1-0.3-0.1-0.3-0.1c1,2.4,2.4,5.6,3.2,8.6h2.7C2368.8,119,2367.3,115.4,2364.2,113.5z"/>
	<path class="st10" d="M2359.9,109.1c1.5,1.3,2.8,2.7,3.8,4.3C2362.8,111.8,2361.4,110.4,2359.9,109.1z"/>
	<path class="st10" d="M2357.4,107.2c-0.4-0.3-0.8-0.5-1.2-0.8C2356.6,106.6,2357,106.9,2357.4,107.2z"/>
	<path class="st10" d="M2359.9,109.1c-0.4-0.3-0.7-0.6-1.1-0.9C2359.2,108.5,2359.5,108.8,2359.9,109.1z"/>
	<path class="st10" d="M2356,106.2c-0.5-0.3-1-0.6-1.5-0.9C2355,105.6,2355.5,105.9,2356,106.2z"/>
	<path class="st10" d="M2358.8,108.1c-0.4-0.3-0.8-0.6-1.2-0.8C2357.9,107.5,2358.3,107.8,2358.8,108.1z"/>
	<path class="st10" d="M2358.5,82.3c-10.6-1.6-12.2,18.3-4,23c0.5,0.3,1,0.6,1.5,0.9c0.1,0,0.1,0.1,0.2,0.1c0.4,0.3,0.8,0.5,1.2,0.8
		l0.1,0.1c0.4,0.3,0.8,0.6,1.2,0.8c0,0,0,0,0.1,0.1c0.4,0.3,0.8,0.6,1.1,0.9c1.5,1.3,2.8,2.7,3.8,4.3c0.1,0,0.2-0.1,0.4,0
		c3.1,2,4.6,5.5,5.7,8.5h0.1c-0.1-4-1.1-6.3-2.6-8.8c-1-2.4-2.9-3.9-3.7-4.3c-9.9-5-11.4-9.4-10.9-13.4c0-0.5,0-1,0.1-1.6
		c-0.9-0.1-2-0.7-2.2-1.7c-0.2-1.2,1-2.4,1.8-2.5c0.6-0.1,0.9,0.3,1.1,1.1c0.2-0.6,0.3-1.2,0.5-1.7c0-0.1,0-0.1,0-0.2
		C2354,85.2,2358.5,82.3,2358.5,82.3z"/>
	<path class="st10" d="M2262.3,26.3c-0.3,0.1-0.5,0.3-0.8,0.4C2261.8,26.6,2262.1,26.5,2262.3,26.3z"/>
	<path class="st10" d="M2265.2-3.4L2265.2-3.4z"/>
	<path class="st10" d="M2269.2,1.3c0.3,0.8,0.6,1.7,0.9,2.7C2269.9,3,2269.6,2.1,2269.2,1.3z"/>
	<path class="st10" d="M2271.3,12.8c0,0.8-0.1,1.6-0.3,2.4C2271.2,14.4,2271.3,13.6,2271.3,12.8z"/>
	<path class="st10" d="M2261.5,26.7L2261.5,26.7z"/>
	<path class="st10" d="M2268.9,0.6c-0.6-1.4-1.1-2.5-1.3-2.9C2267.8-1.9,2268.4-0.9,2268.9,0.6z"/>
	<path class="st10" d="M2270.6,5.8c-0.1-0.6-0.3-1.2-0.5-1.8C2270.3,4.6,2270.5,5.2,2270.6,5.8z"/>
	<path class="st10" d="M2263.6,25.6c-0.4,0.2-0.8,0.5-1.3,0.7C2262.8,26.1,2263.2,25.9,2263.6,25.6z"/>
	<path class="st10" d="M2271.3,12.8c0-0.7,0-1.5,0-2.2C2271.4,11.3,2271.4,12.1,2271.3,12.8z"/>
	<path class="st10" d="M2270.8,16.3c-0.3,1.2-0.7,2.3-1.3,3.4C2270.1,18.6,2270.5,17.5,2270.8,16.3z"/>
	<path class="st10" d="M2264.5-1.2c0.2-0.7,0.5-1.8,0.8-1.8c-3.1,7-4.9,17.5-3.8,29.9v-0.1c0.3-0.1,0.5-0.3,0.8-0.5
		c0.4-0.2,0.8-0.5,1.3-0.7c2.8-1.7,4.7-3.7,5.9-5.9c0.6-1.1,1-2.3,1.3-3.4c0.1-0.4,0.2-0.8,0.3-1.2c0.1-0.8,0.2-1.6,0.3-2.4
		c0-0.7,0-1.5,0-2.2c-6.3,1.8-8.3,5.6-8.5,5.5c0,0-1.6-7.5,5.2-9.7c0.9-0.3,1.8-0.5,2.7-0.6c-0.1-0.6-0.3-1.2-0.5-1.8
		c-0.3-1-0.6-1.9-0.9-2.7c-0.1-0.3-0.2-0.5-0.3-0.8c-0.6-1.4-1.1-2.4-1.3-2.8C2266.5-2,2265.5-1.6,2264.5-1.2z"/>
	<path class="st10" d="M2353.4,90.7c-0.2-0.7-0.5-1.2-1.1-1.1c-0.8,0.1-2,1.3-1.8,2.5c0.2,1,1.3,1.6,2.2,1.7c0-0.1,0-0.2,0-0.3
		C2353,92.7,2353.2,91.7,2353.4,90.7z"/>
	<path class="st6" d="M2262.2,78c0-0.4,0-0.8,0.1-1.2C2262.2,77.3,2262.2,77.6,2262.2,78z"/>
	<path class="st6" d="M2262.3,76.8c0.1-0.9,0.3-1.7,0.6-2.5C2262.6,75.1,2262.4,75.9,2262.3,76.8z"/>
	<path class="st6" d="M2267.1,73.6c-1,1.7-1.6,3.6-1.4,5.7c0.3,3.1,2.2,5.9,4.8,7.5l0.2-12.2C2269.3,74.3,2268.1,74,2267.1,73.6z"/>
	<path class="st6" d="M2262.2,78.2c0,0.4,0,0.9,0,1.4c0.1,0.9,0.3,1.7,0.5,2.5c-0.3-0.8-0.4-1.7-0.5-2.5
		C2262.2,79.1,2262.2,78.7,2262.2,78.2z"/>
	<path class="st6" d="M2264.3,71.5L2264.3,71.5c-0.1,0.2-0.2,0.3-0.3,0.5C2264.1,71.9,2264.2,71.7,2264.3,71.5z"/>
	<path class="st6" d="M2287.9,73.1c0.2,0.4,0.3,0.8,0.5,1.2C2288.3,73.9,2288.1,73.5,2287.9,73.1z"/>
	<path class="st6" d="M2287.3,71.9c0.2,0.4,0.4,0.8,0.6,1.2C2287.8,72.7,2287.5,72.3,2287.3,71.9z"/>
	<path class="st6" d="M2288.5,74.4c0.1,0.4,0.2,0.7,0.3,1.1C2288.8,75.2,2288.6,74.8,2288.5,74.4z"/>
	<path class="st6" d="M2280.9,66.5c1,0.4,1.9,0.9,2.7,1.4C2282.8,67.4,2281.8,66.9,2280.9,66.5z"/>
	<path class="st6" d="M2264.4,71.4L2264.4,71.4c0,0-0.1,0.1-0.1,0.2C2264.4,71.5,2264.4,71.4,2264.4,71.4z"/>
	<path class="st6" d="M2283.8,68c0.4,0.3,0.7,0.5,1.1,0.8C2284.4,68.6,2284,68.3,2283.8,68z"/>
	<path class="st6" d="M2284.9,69c0.4,0.3,0.7,0.7,1,1C2285.6,69.6,2285.2,69.3,2284.9,69z"/>
	<path class="st6" d="M2279.5,66.1c0.4,0.1,0.9,0.3,1.3,0.4C2280.4,66.3,2279.9,66.2,2279.5,66.1z"/>
	<path class="st6" d="M2276.5,88.2c2.1-0.2,4-1,5.5-2.3c-0.6,0.2-1.3,0.3-2,0.3c-4,0-7.3-3-7.3-6.7c0-2.5,1.5-4.7,3.7-5.9
		c0.3,2.1,2.1,3.7,4.3,3.7c1.9,0,3.5-1.2,4.1-3c-1.7-3.5-5.6-5.8-9.9-5.4c-3.3,0.3-6.1,2.1-7.7,4.7c1,0.4,2.2,0.7,3.6,1l-0.2,12.2
		C2272.2,87.8,2274.3,88.4,2276.5,88.2z"/>
	<path class="st6" d="M2278.1,65.8c0.4,0.1,0.7,0.1,1.1,0.2C2278.8,65.9,2278.4,65.8,2278.1,65.8z"/>
	<path class="st6" d="M2276,65.6c-0.5,0-1,0-1.5,0s-1,0.1-1.5,0.2c0.5-0.1,1-0.2,1.5-0.2S2275.5,65.6,2276,65.6z"/>
	<path class="st6" d="M2270,66.8c-0.4,0.2-0.9,0.4-1.3,0.7C2269.1,67.2,2269.6,67,2270,66.8z"/>
	<path class="st6" d="M2288.8,75.8c0.1,0.4,0.2,0.9,0.2,1.4C2289,76.7,2288.9,76.2,2288.8,75.8z"/>
	<path class="st6" d="M2271.5,66.2c0.4-0.1,0.8-0.2,1.2-0.3C2272.3,66,2271.9,66.1,2271.5,66.2z"/>
	<path class="st6" d="M2276.5,65.6c0.4,0,0.7,0,1.1,0.1C2277.2,65.6,2276.9,65.6,2276.5,65.6z"/>
	<path class="st6" d="M2270.1,66.8c0.4-0.2,0.8-0.3,1.2-0.5C2270.9,66.4,2270.5,66.6,2270.1,66.8z"/>
	<path class="st6" d="M2266,69.5c0.2-0.2,0.4-0.4,0.6-0.5C2266.4,69.1,2266.2,69.3,2266,69.5z"/>
	<path class="st6" d="M2321.3,75.7c0.1,0.4,0.2,0.8,0.2,1.2C2321.5,76.5,2321.4,76.1,2321.3,75.7z"/>
	<path class="st6" d="M2319.4,85.7c0.2-0.3,0.4-0.6,0.6-0.9C2319.8,85.1,2319.6,85.4,2319.4,85.7z"/>
	<path class="st6" d="M2321.3,75.6c-0.1-0.4-0.2-0.9-0.4-1.3C2321.1,74.7,2321.2,75.2,2321.3,75.6z"/>
	<path class="st6" d="M2321.6,77.1c0,0.4,0.1,0.8,0.1,1.2C2321.8,77.9,2321.6,77.5,2321.6,77.1z"/>
	<path class="st6" d="M2319.9,72.1L2319.9,72.1c-0.1-0.2-0.3-0.5-0.5-0.7C2319.6,71.6,2319.8,71.8,2319.9,72.1z"/>
	<path class="st6" d="M2321.8,78.5c0,0.5,0,0.9-0.1,1.4C2321.8,79.5,2321.8,79,2321.8,78.5z"/>
	<path class="st6" d="M2321.6,79.9c-0.1,0.9-0.3,1.7-0.6,2.5C2321.3,81.6,2321.5,80.8,2321.6,79.9z"/>
	<path class="st6" d="M2314.2,86.2c2.2-1.6,3.7-4,4-6.7c0.4-3.2-1-6.2-3.3-8.2c-0.1,0-0.3,0-0.4,0.1
		C2314.4,75.2,2314.3,81.8,2314.2,86.2z"/>
	<path class="st6" d="M2299.3,68.7c0.3-0.2,0.5-0.4,0.8-0.6C2299.9,68.3,2299.6,68.5,2299.3,68.7z"/>
	<path class="st6" d="M2300.5,67.8c0.3-0.2,0.6-0.4,0.9-0.5C2301.1,67.4,2300.8,67.6,2300.5,67.8z"/>
	<path class="st6" d="M2298,70c0.3-0.4,0.7-0.7,1-1C2298.6,69.3,2298.3,69.6,2298,70z"/>
	<path class="st6" d="M2318.5,86.8c0.3-0.3,0.6-0.7,0.9-1.1C2319.1,86,2318.8,86.4,2318.5,86.8z"/>
	<path class="st6" d="M2314.5,89.8c-0.8,0.4-1.6,0.7-2.4,0.9C2312.9,90.4,2313.8,90.1,2314.5,89.8z"/>
	<path class="st6" d="M2312.6,66.3c0.4,0.1,0.8,0.3,1.2,0.5C2313.5,66.6,2313.1,66.5,2312.6,66.3z"/>
	<path class="st6" d="M2303.2,66.5c0.5-0.2,0.9-0.3,1.4-0.4C2304.1,66.1,2303.6,66.3,2303.2,66.5z"/>
	<path class="st6" d="M2295.1,75.5c0.1-0.3,0.2-0.7,0.3-1C2295.3,74.9,2295.2,75.2,2295.1,75.5z"/>
	<path class="st6" d="M2299.6,73.5c0.9,2.1,3.2,3.3,5.5,2.7c2-0.5,3.4-2.3,3.6-4.3c2,0.9,3.5,2.6,4.1,4.7c1,4-1.7,8-6,9.1
		c-1.9,0.5-3.7,0.3-5.3-0.4c1.5,1.4,3.5,2.4,5.7,2.7c2.6,0.3,5.1-0.5,7.1-1.9c0.1-4.4,0.2-11.1,0.3-14.8c0.1,0,0.3,0,0.4-0.1
		c-1.5-1.3-3.4-2.2-5.5-2.4C2305.3,68.5,2301.5,70.4,2299.6,73.5z"/>
	<path class="st6" d="M2306.6,65.7c0.4,0,0.7-0.1,1.1-0.1C2307.3,65.6,2306.9,65.6,2306.6,65.7z"/>
	<path class="st6" d="M2305,65.9c0.3-0.1,0.7-0.1,1.1-0.2C2305.8,65.8,2305.4,65.8,2305,65.9z"/>
	<path class="st6" d="M2309.8,65.7c0.5,0.1,1,0.1,1.4,0.2C2310.8,65.8,2310.2,65.7,2309.8,65.7z"/>
	<path class="st6" d="M2311.4,66c0.4,0.1,0.8,0.2,1.2,0.3C2312.1,66.2,2311.8,66.1,2311.4,66z"/>
	<path class="st6" d="M2316.6,88.5c0.7-0.5,1.3-1.1,1.9-1.7C2317.9,87.4,2317.3,87.9,2316.6,88.5z"/>
	<path class="st6" d="M2308.1,65.6c0.5,0,1,0,1.6,0.1C2309.2,65.6,2308.8,65.6,2308.1,65.6z"/>
	<path class="st6" d="M2295.4,74.3c0.3-0.8,0.6-1.5,1-2.2C2296,72.8,2295.8,73.6,2295.4,74.3z"/>
	<path class="st6" d="M2315.1,67.5c-0.4-0.2-0.8-0.4-1.2-0.6C2314.3,67,2314.8,67.2,2315.1,67.5z"/>
	<path class="st6" d="M2317.5,69.2c-0.1-0.1-0.2-0.2-0.3-0.3C2317.3,69,2317.4,69.1,2317.5,69.2z"/>
	<path class="st6" d="M2301.8,67.1c0.4-0.2,0.9-0.4,1.3-0.6C2302.8,66.6,2302.2,66.8,2301.8,67.1z"/>
	<path class="st11" d="M2280.6,77.3c-2.2,0-4-1.6-4.3-3.7c-2.2,1.2-3.7,3.3-3.7,5.9c0,3.7,3.3,6.7,7.3,6.7c0.7,0,1.4-0.1,2-0.3
		c2.5-2,3.9-5.2,3.6-8.4c-0.1-1.1-0.4-2.2-0.9-3.1C2284.1,76.1,2282.5,77.3,2280.6,77.3z"/>
	<path class="st11" d="M2306.8,85.8c4.3-1.1,7-5.1,6-9.1c-0.5-2.2-2.1-3.8-4.1-4.7c-0.1,2-1.5,3.7-3.6,4.3c-2.3,0.6-4.6-0.6-5.5-2.7
		c-0.7,1.1-1.1,2.3-1.3,3.7c-0.4,3.1,0.9,6.2,3.1,8.3C2303,86.1,2304.8,86.3,2306.8,85.8z"/>
	<path class="st11" d="M2324.8,70.3c0,0-1.9,2.7-5,1.7c0.4,0.7,0.8,1.4,1.1,2.2C2321.8,74.2,2324,73.7,2324.8,70.3z"/>
	<path class="st11" d="M2321.3,75.6L2321.3,75.6z"/>
	<path class="st11" d="M2261.6,66.6c0,3.1,1.7,4.3,2.6,4.7c-0.5-1-0.9-1.9-1.1-2.7C2262,67.7,2261.6,66.6,2261.6,66.6z"/>
	<path class="st11" d="M2267,88.2C2267,88.2,2267,88.3,2267,88.2C2267,88.3,2267,88.2,2267,88.2z"/>
	<path class="st11" d="M2318.8,70.6c0.2,0.2,0.4,0.5,0.6,0.7c0.7-0.3,2.8-1.4,2.7-4.8c0,0-0.6,1.7-2.3,2.5c-0.4,0.9-0.8,1.5-0.8,1.5
		S2318.9,70.6,2318.8,70.6z"/>
	<path class="st11" d="M2262.2,78.2c0-0.1,0-0.1,0-0.2C2262.2,78.1,2262.2,78.2,2262.2,78.2z"/>
	<path class="st11" d="M2262.3,76.9C2262.3,76.8,2262.3,76.8,2262.3,76.9C2262.3,76.8,2262.3,76.8,2262.3,76.9z"/>
	<path class="st11" d="M2321.6,76.9c0,0.1,0,0.1,0,0.2C2321.6,77,2321.6,77,2321.6,76.9z"/>
	<path class="st11" d="M2258.9,70.3c0.9,3.5,3.4,3.9,4,4c0.3-0.8,0.6-1.5,1.1-2.3C2260.8,73.1,2258.9,70.3,2258.9,70.3z"/>
	<path class="st11" d="M2321.8,78.2c0,0.1,0,0.2,0,0.3C2321.8,78.4,2321.8,78.3,2321.8,78.2z"/>
	<path class="st11" d="M2302.8,90c-0.8-0.3-1.6-0.8-2.3-1.2C2301.3,89.3,2302,89.7,2302.8,90z"/>
	<path class="st11" d="M2300.6,88.8c-0.7-0.5-1.4-1-2-1.6C2299.2,87.8,2299.8,88.3,2300.6,88.8z"/>
	<path class="st11" d="M2288.4,74.3L2288.4,74.3C2288.5,74.4,2288.4,74.3,2288.4,74.3z"/>
	<path class="st11" d="M2295.4,74.5c0-0.1,0-0.1,0.1-0.2C2295.4,74.4,2295.4,74.5,2295.4,74.5z"/>
	<path class="st11" d="M2294.9,76.8c0.1-0.4,0.1-0.8,0.2-1.3C2295,76,2294.9,76.4,2294.9,76.8z"/>
	<path class="st11" d="M2287.9,73.1L2287.9,73.1z"/>
	<path class="st11" d="M2271.3,66.3c0.1,0,0.1-0.1,0.2-0.1C2271.5,66.2,2271.4,66.3,2271.3,66.3z"/>
	<path class="st11" d="M2303.2,66L2303.2,66z"/>
	<path class="st11" d="M2301.4,67.3c0.1-0.1,0.3-0.1,0.4-0.2C2301.8,67.1,2301.6,67.2,2301.4,67.3z"/>
	<path class="st11" d="M2300.1,68.1c0.1-0.1,0.3-0.2,0.4-0.3C2300.4,67.9,2300.3,68,2300.1,68.1z"/>
	<path class="st11" d="M2299,69c0.1-0.1,0.2-0.2,0.3-0.3C2299.2,68.8,2299.1,68.9,2299,69z"/>
	<path class="st11" d="M2304.6,66c0.1,0,0.3-0.1,0.4-0.1C2304.9,65.9,2304.8,66,2304.6,66z"/>
	<path class="st11" d="M2311.1,65.9c0.1,0,0.1,0,0.2,0.1C2311.3,65.9,2311.2,65.9,2311.1,65.9z"/>
	<path class="st11" d="M2298,70c-5.2-2.6-10.4-0.7-12.1,0c0.5,0.6,1,1.2,1.4,1.9c5.6-1.6,8.3-0.4,9.1,0.2
		C2296.9,71.3,2297.4,70.6,2298,70z"/>
	<path class="st11" d="M2307.8,65.6c0.2,0,0.3,0,0.5,0C2308,65.6,2307.8,65.6,2307.8,65.6z"/>
	<path class="st11" d="M2306.1,65.7c0.2,0,0.3,0,0.5-0.1C2306.4,65.7,2306.2,65.7,2306.1,65.7z"/>
	<path class="st11" d="M2276,65.6c0.2,0,0.3,0,0.5,0C2276.3,65.6,2276.2,65.6,2276,65.6z"/>
	<path class="st11" d="M2270,66.8C2270,66.8,2270.1,66.8,2270,66.8C2270.1,66.8,2270,66.8,2270,66.8z"/>
	<path class="st11" d="M2312.5,66.3C2312.6,66.3,2312.6,66.3,2312.5,66.3C2312.6,66.3,2312.6,66.3,2312.5,66.3z"/>
	<path class="st11" d="M2272.8,65.9c0.1,0,0.2-0.1,0.3-0.1C2272.9,65.9,2272.8,65.9,2272.8,65.9z"/>
	<path class="st11" d="M2284.8,68.9l0.1,0.1C2284.8,68.9,2284.8,68.9,2284.8,68.9z"/>
	<path class="st11" d="M2264.8,63.7c-0.8,3.4,1.2,4.9,1.8,5.3c0.6-0.6,1.3-1.1,2.1-1.5C2265.3,67,2264.8,63.7,2264.8,63.7z"/>
	<path class="st11" d="M2288.8,75.5c0,0.1,0,0.2,0.1,0.2C2288.8,75.7,2288.8,75.6,2288.8,75.5z"/>
	<path class="st11" d="M2283.6,68c0,0,0.1,0,0.1,0.1C2283.6,68,2283.6,68,2283.6,68z"/>
	<path class="st11" d="M2280.8,66.5L2280.8,66.5z"/>
	<path class="st11" d="M2279.1,66c0.1,0,0.3,0.1,0.4,0.1C2279.4,66,2279.2,66,2279.1,66z"/>
	<path class="st11" d="M2277.6,65.7c0.2,0,0.3,0,0.5,0.1C2277.9,65.7,2277.8,65.7,2277.6,65.7z"/>
	<path class="st11" d="M2266,69.5L2266,69.5c-1.3,0.1-2.2-0.4-2.9-0.9c0.2,0.9,0.6,1.8,1.1,2.7c0.1,0,0.2,0.1,0.2,0.1
		C2264.9,70.7,2265.4,70.1,2266,69.5z"/>
	<path class="st11" d="M2317.5,69.2c0.5,0.4,1,0.9,1.4,1.4c0.1,0,0.1,0,0.1,0s0.4-0.6,0.8-1.5c-0.5,0.3-1.2,0.4-2,0.4
		C2317.8,69.4,2317.6,69.3,2317.5,69.2z"/>
	<path class="st11" d="M2306.8,91.1c-0.9-0.1-1.8-0.3-2.7-0.6C2304.9,90.8,2305.8,91,2306.8,91.1c0.9,0.1,1.8,0.1,2.7,0.1
		C2308.6,91.2,2307.8,91.2,2306.8,91.1z"/>
	<path class="st11" d="M2284.1,88.2c-0.7,0.5-1.4,1-2.2,1.4C2282.8,89.2,2283.4,88.8,2284.1,88.2z"/>
	<path class="st11" d="M2276.8,91.1c1.9-0.2,3.6-0.7,5.1-1.5C2280.4,90.4,2278.6,90.9,2276.8,91.1c-3.7,0.3-7.1-0.8-9.8-2.8
		C2269.8,90.3,2273.1,91.4,2276.8,91.1z"/>
	<path class="st11" d="M2309.8,65.8L2309.8,65.8z"/>
	<path class="st11" d="M2313.9,67L2313.9,67z"/>
	<path class="st11" d="M2318.9,63.7c0,0-0.5,3.3-3.8,3.8c0.7,0.4,1.4,0.9,2.1,1.5C2317.8,68.5,2319.8,67,2318.9,63.7z"/>
	<path class="st11" d="M2270.4,90l0.1-3.2c-2.6-1.6-4.5-4.4-4.8-7.5c-0.2-2.1,0.3-4,1.4-5.7c-1.3-0.5-2.2-1.2-2.7-2
		c-0.1,0.2-0.2,0.3-0.3,0.5c-0.4,0.7-0.8,1.5-1.1,2.3c-0.3,0.8-0.5,1.6-0.6,2.5V77c-0.1,0.4-0.1,0.8-0.1,1.2c0,0.1,0,0.1,0,0.2
		c0,0.4,0,0.9,0,1.4c0.1,0.9,0.3,1.7,0.5,2.5c0.8,2.4,2.3,4.5,4.2,6.1c0,0,0,0,0.1,0C2268.4,88.4,2269.6,89,2270.4,90z"/>
	<path class="st11" d="M2284.9,69l-0.1-0.1c-0.3-0.3-0.7-0.6-1.1-0.8l-0.1-0.1c-0.8-0.6-1.7-1.1-2.7-1.4h-0.1
		c-0.4-0.2-0.8-0.3-1.3-0.4c-0.1,0-0.3-0.1-0.4-0.1c-0.3-0.1-0.7-0.2-1.1-0.2c-0.2,0-0.3-0.1-0.5-0.1c-0.4,0-0.7-0.1-1.1-0.1
		c-0.2,0-0.3,0-0.5,0c-0.5,0-1,0-1.5,0s-1,0.1-1.5,0.2c-0.1,0-0.2,0-0.3,0.1c-0.4,0.1-0.8,0.2-1.2,0.3c-0.1,0-0.1,0.1-0.2,0.1
		c-0.4,0.1-0.8,0.3-1.2,0.5h-0.1c-0.4,0.2-0.9,0.4-1.3,0.7c-0.8,0.4-1.5,0.9-2.1,1.5c-0.2,0.2-0.4,0.4-0.6,0.5
		c-0.6,0.6-1.1,1.2-1.6,1.9c0,0-0.1,0.1-0.1,0.2c0.5,0.8,1.5,1.5,2.7,2c1.6-2.5,4.4-4.4,7.7-4.7c4.3-0.4,8.2,1.9,9.9,5.4
		c1.6,1.2,2.5,3.1,2.5,5.1c0,3.1-2.2,5.7-5.3,6.5c-1.5,1.3-3.4,2.1-5.5,2.3c-2.2,0.2-4.3-0.4-6-1.4l-0.1,3.2c-0.8-1-2-1.6-3.4-1.7
		c2.6,2.1,6.1,3.2,9.8,2.8c1.9-0.2,3.6-0.7,5.1-1.5c0.8-0.4,1.5-0.9,2.2-1.4c3.4-2.6,5.4-6.7,5-11.1c0-0.5-0.1-0.9-0.2-1.4
		c0-0.1,0-0.2-0.1-0.2c-0.1-0.4-0.2-0.8-0.3-1.1v-0.1c-0.1-0.4-0.3-0.8-0.5-1.2c-0.2-0.4-0.4-0.8-0.6-1.2c-0.4-0.7-0.9-1.3-1.4-1.9
		C2285.6,69.6,2285.2,69.3,2284.9,69z"/>
	<path class="st11" d="M2314.9,71.3c2.3,2,3.7,5,3.3,8.2c-0.3,2.7-1.8,5.1-4,6.7c0,0.3,0,0.7,0,1c0.9-1.1,2.3-1.8,3.8-1.8
		c0.5,0,1,0.1,1.4,0.2c0.2-0.3,0.4-0.6,0.6-0.9c0.4-0.7,0.8-1.5,1.1-2.3c0.3-0.8,0.5-1.7,0.6-2.5c0.1-0.5,0.1-0.9,0.1-1.4
		c0-0.1,0-0.2,0-0.3c0-0.4,0-0.8-0.1-1.2c0-0.1,0-0.1,0-0.2c-0.1-0.4-0.1-0.8-0.2-1.2c0,0,0,0,0-0.1c-0.1-0.4-0.2-0.9-0.4-1.3
		c-0.3-0.8-0.6-1.5-1.1-2.2c-0.1-0.2-0.3-0.5-0.5-0.7c-0.2-0.3-0.4-0.5-0.6-0.7C2318.4,70.7,2317,71,2314.9,71.3z"/>
	<path class="st11" d="M2317.9,85.4c-1.5,0-2.9,0.7-3.8,1.8c0-0.3,0-0.7,0-1c-2,1.4-4.5,2.2-7.1,1.9c-2.2-0.3-4.2-1.3-5.7-2.7
		c-2.1-0.9-3.7-2.6-4.3-4.8c-0.7-2.7,0.3-5.4,2.4-7.2c0,0,0,0.1,0.1,0.1c1.9-3.1,5.7-5.1,9.7-4.6c2.1,0.2,4,1.1,5.5,2.4
		c2.1-0.4,3.6-0.6,4-0.7c-0.4-0.5-0.9-1-1.4-1.4c-0.1-0.1-0.2-0.2-0.3-0.3c-0.6-0.6-1.3-1-2.1-1.4c-0.4-0.2-0.8-0.5-1.2-0.5
		s-0.8-0.4-1.2-0.6l-0.1-0.1c-0.4-0.1-0.8-0.3-1.2-0.4c-0.1,0-0.1,0.1-0.2,0.1c-0.5-0.1-0.9-0.1-1.4-0.1h0.2v-0.2
		c-1-0.1-1.1-0.2-1.7-0.2c-0.2,0-0.4,0-0.5,0c-0.4,0-0.7,0-1.1,0c-0.2,0-0.4,0-0.5,0.1c-0.4,0.1-0.7,0.1-1.1,0.2
		c-0.1,0-0.3-0.2-0.4-0.1c-0.5,0.1-1,0.2-1.4,0.2c-0.5,1-0.9,0.6-1.3,0.8c-0.1,0.1-0.3,0.3-0.4,0.3c-0.3,0.2-0.6,0.4-0.9,0.6
		c-0.1,0.1-0.3,0.2-0.4,0.3c-0.3,0.2-0.6,0.4-0.8,0.7c-0.1,0.1-0.2,0.2-0.3,0.3c-0.4,0.3-0.7,0.7-1,1c-0.6,0.7-1.1,1.4-1.5,2.1
		s-0.7,1.4-1,2.2c0,0.1,0,0.1-0.1,0.2c-0.1,0.3-0.2,0.7-0.3,1c-0.1,0.4-0.2,0.8-0.2,1.3c-0.5,3.9,1,7.7,3.7,10.4
		c0.6,0.6,1.3,1.1,2,1.6c0.7,0.5,1.5,0.9,2.3,1.2c0.4,0.2,0.8,0.3,1.2,0.5c0.9,0.3,1.7,0.5,2.7,0.6c0.9,0.1,1.8,0.1,2.7,0.1
		c0.9-0.1,1.8-0.2,2.6-0.4c0.8-0.2,1.6-0.5,2.4-0.9s1.5-0.8,2.2-1.3c0.7-0.5,1.3-1.1,1.9-1.7c0.3-0.3,0.6-0.7,0.9-1.1
		C2318.9,85.5,2318.4,85.4,2317.9,85.4z"/>
	<path class="st11" d="M2282,85.9c3.1-0.8,5.3-3.4,5.3-6.5c0-2-1-3.9-2.5-5.1c0.5,1,0.8,2,0.9,3.1
		C2285.9,80.7,2284.4,83.8,2282,85.9z"/>
	<path class="st11" d="M2298.3,77.2c0.2-1.3,0.6-2.6,1.3-3.7c0,0,0-0.1-0.1-0.1c-2.1,1.8-3.1,4.5-2.4,7.2c0.6,2.2,2.2,4,4.3,4.8
		C2299.2,83.4,2297.9,80.3,2298.3,77.2z"/>
	<path class="st12" d="M2283.4,104.8c12.8,10.2,19.2,0.4,19.2,0.4C2292.3,108.9,2283.4,104.8,2283.4,104.8z"/>
	<path class="st12" d="M2285.8,59.1c0,0-1.6-2.8-6.9-4.3c-3.5-0.6-7.3,0.2-10.8,1.7l0.7,1.9C2268.8,58.4,2279.9,56.4,2285.8,59.1z"
		/>
	<path class="st12" d="M2317.4,57.5c-0.2,1.3-0.4,2-0.4,2C2317.2,59.1,2317.4,58.3,2317.4,57.5z"/>
	<path class="st12" d="M2299.8,57.9c-1.2,1-1.6,1.8-1.6,1.8c10.7-4.2,18.9-0.2,18.9-0.2s0.2-0.7,0.4-2c0-0.3,0.1-0.7,0.1-1
		C2311.9,54.1,2305.1,54.7,2299.8,57.9z"/>
	<path class="st12" d="M2185.3,115.3c-0.1,0.2-0.3,0.3-0.4,0.5C2185.1,115.6,2185.2,115.5,2185.3,115.3z"/>
	<path class="st12" d="M2226.8,76.8c-0.2,0-0.3-0.1-0.5-0.1C2226.4,76.8,2226.6,76.8,2226.8,76.8z"/>
	<path class="st12" d="M2228.8,77.3c-0.4-0.2-0.9-0.3-1.4-0.4C2227.8,77,2228.3,77.2,2228.8,77.3z"/>
	<path class="st12" d="M2227.3,76.7c0.2,0,0.4,0,0.6,0.1c-0.1-0.1-0.2-0.2-0.4-0.3c-8.3-2.8-19.5-2.5-25,5.4
		c-7.1,10.3-4.8,27-17.2,33.5c-0.1,0.2-0.3,0.3-0.4,0.5c0,0,9-3.4,13.8-12.5c2.9-6.6,4-13.6,9.3-19c4.2-4.2,10.8-8,17-7.6
		C2225.8,76.5,2226.6,76.5,2227.3,76.7z"/>
	<path class="st12" d="M2227.9,76.7c-0.2,0-0.4-0.1-0.6-0.1c0.3,0.1,0.5,0.1,0.8,0.2C2228,76.8,2228,76.8,2227.9,76.7z"/>
	<path class="st12" d="M2227.3,76.7c-0.7-0.1-1.5-0.2-2.3,0c0.4,0,0.7,0.1,1,0.1C2226.5,76.7,2226.9,76.6,2227.3,76.7z"/>
	<path class="st12" d="M2228.1,76.9c-0.3-0.1-0.5-0.2-0.8-0.2c-0.4,0-0.8,0-1.2,0.1c0.1,0,0.1,0,0.2,0c0.2,0,0.3,0,0.5,0.1
		c0.2,0,0.4,0.1,0.6,0.1c0.5,0.1,1,0.2,1.4,0.4C2228.5,77.2,2228.3,77,2228.1,76.9z"/>
	<path class="st12" d="M2393,113.7c-0.1-0.2-0.3-0.3-0.4-0.5C2392.8,113.4,2392.9,113.5,2393,113.7z"/>
	<path class="st12" d="M2374.8,85.3c-0.2-0.1-0.5-0.3-0.7-0.4C2374.2,85.1,2374.5,85.2,2374.8,85.3z"/>
	<path class="st12" d="M2367.3,82.3c-0.3-0.1-0.7-0.1-1-0.2C2366.6,82.1,2366.9,82.2,2367.3,82.3z"/>
	<path class="st12" d="M2366.2,82.1c-0.3-0.1-0.7-0.1-1-0.1C2365.5,82,2365.8,82,2366.2,82.1z"/>
	<path class="st12" d="M2390.8,110.7c-0.1-0.2-0.2-0.3-0.4-0.5C2390.5,110.4,2390.6,110.6,2390.8,110.7z"/>
	<path class="st12" d="M2375.8,86c-0.2-0.1-0.4-0.3-0.6-0.4C2375.3,85.7,2375.5,85.8,2375.8,86z"/>
	<path class="st12" d="M2379.3,88.8c-0.1-0.1-0.2-0.2-0.3-0.3C2379.1,88.6,2379.2,88.7,2379.3,88.8z"/>
	<path class="st12" d="M2376.8,86.6c-0.2-0.1-0.4-0.3-0.6-0.4C2376.3,86.4,2376.5,86.5,2376.8,86.6z"/>
	<path class="st12" d="M2364,81.9L2364,81.9c0.4,0,0.7,0,1.1,0C2364.8,81.9,2364.4,81.9,2364,81.9z"/>
	<path class="st12" d="M2377.6,87.3c-0.2-0.1-0.3-0.3-0.5-0.4C2377.2,87.1,2377.4,87.2,2377.6,87.3z"/>
	<path class="st12" d="M2378.5,88.1c-0.1-0.1-0.3-0.2-0.4-0.3C2378.2,87.8,2378.3,87.9,2378.5,88.1z"/>
	<path class="st12" d="M2391.9,112.3c-0.1-0.2-0.3-0.4-0.4-0.6C2391.6,112,2391.8,112.1,2391.9,112.3z"/>
	<path class="st12" d="M2371.6,83.7c-0.3-0.1-0.6-0.2-0.9-0.4C2371,83.5,2371.3,83.6,2371.6,83.7z"/>
	<path class="st12" d="M2369.5,82.9c-0.3-0.1-0.6-0.2-0.9-0.3C2368.8,82.7,2369.1,82.8,2369.5,82.9z"/>
	<path class="st12" d="M2398.6,118.5L2398.6,118.5z"/>
	<path class="st12" d="M2370.5,83.3c-0.3-0.1-0.6-0.2-0.9-0.3C2369.9,83,2370.2,83.1,2370.5,83.3z"/>
	<path class="st12" d="M2373.8,84.7c-0.2-0.1-0.5-0.3-0.8-0.4C2373.2,84.5,2373.5,84.6,2373.8,84.7z"/>
	<path class="st12" d="M2394.2,114.9c-0.1-0.1-0.3-0.3-0.4-0.4C2393.9,114.6,2394,114.8,2394.2,114.9z"/>
	<path class="st12" d="M2372.8,84.2c-0.3-0.1-0.5-0.3-0.8-0.4C2372.1,83.9,2372.4,84.1,2372.8,84.2z"/>
	<path class="st12" d="M2396.4,116.9c-0.1-0.1-0.2-0.1-0.2-0.2C2396.3,116.8,2396.3,116.9,2396.4,116.9z"/>
	<path class="st12" d="M2397.5,117.8l-0.1-0.1L2397.5,117.8z"/>
	<path class="st12" d="M2395.3,116c-0.1-0.1-0.2-0.2-0.3-0.3C2395.1,115.8,2395.2,115.9,2395.3,116z"/>
	<path class="st12" d="M2368.4,82.5c-0.3-0.1-0.6-0.2-1-0.2C2367.8,82.4,2368,82.4,2368.4,82.5z"/>
	<path class="st12" d="M2389.5,97.1c-0.9-3-1.9-6.3-4-8.7c-4.7-5.2-13.6-7.6-21.5-6.5c0.4,0,0.7,0,1.1,0c0.3,0,0.7,0.1,1,0.1h0.1
		c0.3,0.1,0.7,0.1,1,0.2h0.1c0.3,0.1,0.6,0.2,1,0.2c0.1,0,0.1,0,0.2,0c0.3,0.1,0.6,0.2,0.9,0.3c0.1,0,0.1,0,0.2,0.1
		c0.3,0.1,0.6,0.2,0.9,0.3c0.1,0,0.1,0.1,0.2,0.1c0.3,0.1,0.6,0.2,0.9,0.4c0.1,0,0.2,0.1,0.2,0.1c0.3,0.1,0.5,0.3,0.8,0.4
		c0.1,0,0.2,0.1,0.3,0.1c0.3,0.1,0.5,0.3,0.8,0.4c0.1,0.1,0.2,0.1,0.3,0.2c0.2,0.1,0.5,0.3,0.7,0.4c0.1,0.1,0.2,0.1,0.3,0.2
		c0.2,0.1,0.4,0.3,0.6,0.4c0.1,0.1,0.3,0.2,0.4,0.3c0.2,0.1,0.4,0.3,0.6,0.4c0.1,0.1,0.3,0.2,0.4,0.3c0.2,0.1,0.3,0.3,0.5,0.4
		c0.2,0.1,0.3,0.3,0.5,0.4c0.1,0.1,0.3,0.2,0.4,0.3c0.2,0.2,0.4,0.3,0.5,0.5c0.1,0.1,0.2,0.2,0.3,0.3c0.3,0.3,0.5,0.5,0.8,0.8
		c5.3,5.3,6.4,12.4,9.3,19c0.3,0.6,0.6,1.2,1,1.7c0.1,0.2,0.2,0.3,0.4,0.5c0.2,0.4,0.5,0.7,0.7,1c0.1,0.2,0.3,0.4,0.4,0.6
		c0.2,0.3,0.5,0.6,0.7,0.9c0.1,0.2,0.3,0.3,0.4,0.5c0.2,0.3,0.5,0.6,0.7,0.8c0.1,0.1,0.3,0.3,0.4,0.4c0.3,0.3,0.5,0.5,0.8,0.8
		c0.1,0.1,0.2,0.2,0.3,0.3c0.3,0.3,0.6,0.5,0.9,0.8c0.1,0.1,0.2,0.1,0.2,0.2c0.3,0.3,0.7,0.5,1,0.8l0.1,0.1c0.4,0.3,0.7,0.5,1.1,0.7
		c-2.9-3-4.7-7-6-11.1C2391.4,104,2390.6,100.5,2389.5,97.1z"/>
	<path class="st8" d="M2300.5,41.8c0,0-7.9-7.6-20.2-4c-11,3.2-10.1,12.3-10.1,12.3S2275.9,39.4,2300.5,41.8z"/>
	<path class="st8" d="M2289.3,23.8c0,0-7.4-6.8-17.2-2.9c-8.3,3.3-5.8,11.8-5.8,11.8S2271.3,20.8,2289.3,23.8z"/>
	<path class="st8" d="M2271.2,9.3c0,0.4,0.1,0.9,0.1,1.3c3.1-0.9,7.1-1.3,12.5-0.6c0,0-4.9-5.5-13.2-4.2c0,0.1,0,0.1,0,0.2
		C2270.9,7.1,2271.1,8.2,2271.2,9.3z"/>
	<path class="st8" d="M2271.3,10.6L2271.3,10.6c0-0.4-0.1-0.9-0.1-1.3C2271.3,9.7,2271.3,10.2,2271.3,10.6z"/>
	<path class="st8" d="M2270.8,6c0-0.1,0-0.1,0-0.2C2270.6,5.9,2270.8,6,2270.8,6z"/>
	<path class="st8" d="M2270.8,6c0.2,1.1,0.4,2.2,0.6,3.3C2271.1,8.2,2270.9,7.1,2270.8,6z"/>
	<path class="st8" d="M2270.8,6c0-0.1,0-0.1,0-0.2c-0.9,0.1-1.7,0.3-2.7,0.6c-6.7,2.1-5.2,9.7-5.2,9.7c0.3,0.1,2.3-3.7,8.5-5.5
		c0-0.4-0.1-0.9-0.1-1.3C2271.1,8.2,2270.9,7.1,2270.8,6z"/>
	<path class="st8" d="M2265.4-3.6L2265.4-3.6z"/>
	<path class="st8" d="M2267.4-2.7L2267.4-2.7c0.1,0,0.1,0,0.1,0s0.1,0.1,0.1,0.3c6.3-1.5,13.8-0.4,13.8-0.4s-4.9-5.5-15.1-3
		c-0.3,0.7-0.6,1.4-0.9,2.1c0,0,0,0,0,0.1s0,0.1-0.1,0.2C2266.4-3.1,2267.1-2.8,2267.4-2.7z"/>
	<path class="st8" d="M2267.4-2.7C2267.4-2.6,2267.5-2.6,2267.4-2.7C2267.5-2.6,2267.4-2.6,2267.4-2.7z"/>
	<path class="st8" d="M2265.3-3.4L2265.3-3.4c1.1,0.3,1.8,0.6,2.1,0.7C2267.1-2.8,2266.4-3.1,2265.3-3.4z"/>
	<path class="st8" d="M2267.4-2.7L2267.4-2.7z"/>
	<path class="st8" d="M2267.5-2.6L2267.5-2.6c0,0,0.1,0.1,0.1,0.3C2267.5-2.5,2267.5-2.6,2267.5-2.6z"/>
	<path class="st8" d="M2267.6-2.4c-0.1-0.2-0.1-0.3-0.1-0.3s0,0-0.1,0c-0.3-0.1-1-0.4-2.1-0.7c-0.3,0.7-0.5,1.3-0.8,2
		C2265.5-1.8,2266.5-2.1,2267.6-2.4z"/>
	<path class="st8" d="M2275.6-19.3L2275.6-19.3z"/>
	<path class="st8" d="M2272.9-16.3L2272.9-16.3z"/>
	<path class="st8" d="M2275.6-19.3L2275.6-19.3c-0.9,0.9-1.8,1.9-2.7,2.9c4.9,0,7.9,1.6,7.9,1.6S2279.8-19.2,2275.6-19.3z"/>
	<path class="st8" d="M2319.2-12.2c0,0.1,0,0.2,0,0.3C2319.2-12,2319.2-12.1,2319.2-12.2z"/>
	<path class="st8" d="M2318.5-7.5c0,0.1,0,0.2-0.1,0.3C2318.4-7.3,2318.5-7.4,2318.5-7.5z"/>
	<path class="st8" d="M2319.2-13.1v0.1C2319.2-13.1,2319.2-13.1,2319.2-13.1z"/>
	<path class="st8" d="M2318.1-6.3L2318.1-6.3z"/>
	<path class="st8" d="M2319.1-10.4c0,0.1,0,0.2,0,0.3C2319.1-10.1,2319.1-10.2,2319.1-10.4z"/>
	<path class="st8" d="M2318.9-9.4c0,0.1,0,0.2-0.1,0.3C2318.9-9.2,2318.9-9.3,2318.9-9.4z"/>
	<path class="st8" d="M2319.2-11.3c0,0.1,0,0.2,0,0.3C2319.2-11.1,2319.2-11.2,2319.2-11.3z"/>
	<path class="st8" d="M2318.8-8.5c0,0.1,0,0.2-0.1,0.3C2318.8-8.3,2318.8-8.4,2318.8-8.5z"/>
	<path class="st8" d="M2319.1-14.1L2319.1-14.1z"/>
	<path class="st8" d="M2311-6.4c0,0,4,0.6,7.2,0.1c0.1-0.3,0.2-0.6,0.3-0.9c0-0.1,0-0.2,0.1-0.3c0.1-0.2,0.1-0.4,0.2-0.7
		c0-0.1,0.1-0.2,0.1-0.3c0-0.2,0.1-0.4,0.1-0.6c0-0.1,0-0.2,0.1-0.3c0-0.2,0.1-0.4,0.1-0.6c0-0.1,0-0.2,0-0.3c0-0.2,0-0.4,0.1-0.6
		c0-0.1,0-0.2,0-0.3c0-0.2,0-0.4,0-0.7c0-0.1,0-0.2,0-0.3c0-0.3,0-0.5,0-0.8v-0.1c0-0.3,0-0.6-0.1-1
		C2318.5-12.1,2316.2-6.8,2311-6.4z"/>
	<path class="st8" d="M2309.3,6.8c1.7-1.3,3.3-2.9,4.6-4.8c-1.2,0.4-6.2,1.5-11-1.2C2302.9,0.7,2305.2,5,2309.3,6.8z"/>
	<path class="st12" d="M2297.5,12.4C2297.5,12.5,2297.5,12.5,2297.5,12.4c1.2-0.3,2.3-0.7,3.3-1
		C2298.8,12.1,2297.5,12.4,2297.5,12.4z"/>
	<path class="st12" d="M2300.8-12.4c-4.7,5.5-3.3,24-3.3,24.8c0,0,1.3-0.3,3.3-1c1.9-0.7,3.2-1.3,3.2-1.3
		C2296.5-1.6,2300.8-12.4,2300.8-12.4z"/>
	<path class="st8" d="M2191.8,70.9L2191.8,70.9z"/>
	<path class="st8" d="M2189.8,74.4L2189.8,74.4z"/>
	<path class="st8" d="M2201.1,73.4c-4.3-3-7.8-2.8-9.4-2.5c-0.7,1-1.4,2.2-2,3.5C2194.5,73.1,2201.1,73.4,2201.1,73.4z"/>
	<path class="st8" d="M2187.8,79.1C2187.8,79,2187.8,79,2187.8,79.1C2187.8,79,2187.8,79,2187.8,79.1z"/>
	<path class="st8" d="M2188.3,77.6L2188.3,77.6z"/>
	<path class="st8" d="M2187.1,80.5L2187.1,80.5C2187.1,80.5,2187.2,80.5,2187.1,80.5C2187.2,80.5,2187.1,80.5,2187.1,80.5z"/>
	<path class="st8" d="M2187.9,77.6L2187.9,77.6c0,0.5-0.2,1-0.4,1.5h0.1c-0.2,0.5-0.3,1-0.5,1.5c3.6-1.3,7.5-1.8,7.5-1.8
		C2191.9,77.4,2189.9,77.3,2187.9,77.6z"/>
	<path class="st8" d="M2185.8,85.6L2185.8,85.6z"/>
	<path class="st8" d="M2185.5,86.9L2185.5,86.9z"/>
	<path class="st8" d="M2186,84.3L2186,84.3z"/>
	<path class="st8" d="M2185.9,84.3L2185.9,84.3c0,0.4-0.1,0.9-0.2,1.3h0.2c-0.1,0.4,0,0.9,0,1.3c2-1.5,6-2.4,6-2.4
		C2189.4,83.7,2186.9,83.9,2185.9,84.3z"/>
	<path class="st8" d="M2398.4,79.8C2398.4,79.7,2398.4,79.7,2398.4,79.8C2398.4,79.7,2398.4,79.7,2398.4,79.8z"/>
	<path class="st8" d="M2387,78.8c0,0,6.7-0.3,11.4,1v-0.1c-0.6-1.3-1.3-2.4-2-3.4C2394.9,76,2391.4,75.7,2387,78.8z"/>
	<path class="st11" d="M2299.6,93.9c0,0,0.9,0.3,2,0.8v0.2c0,0.7-0.4,1-0.7,1.2c-0.9,0.4-4.7,1.3-9.9,0.3c0,0,3.4,2.3,9.1,1.2
		c0,0,0.5-0.1,0.9-0.3c0.3-0.1,0.5-0.2,0.7-0.4c0.1-0.1,0.2-0.5,0.3-0.6l0.1-0.4c0.3-1,0.5-0.4,0.6-1c0.6,0.4,1.2,1.1,1.6,1.9
		C2304.4,96.8,2304.2,92.6,2299.6,93.9z"/>
	<path class="st8" d="M2374.2,121.5c-0.5,0-1,0.5-1.4,0.5h2.7C2375.1,122,2374.8,121.5,2374.2,121.5z"/>
	
		<ellipse transform="matrix(0.9755 -0.2201 0.2201 0.9755 32.4092 525.3669)" class="st8" cx="2373.4" cy="117.3" rx="2.2" ry="2.3"/>
	<ellipse transform="matrix(0.8773 -0.48 0.48 0.8773 237.796 1151.5271)" class="st8" cx="2370.8" cy="110.7" rx="2.3" ry="2.4"/>
	
		<ellipse transform="matrix(0.5744 -0.8186 0.8186 0.5744 920.8434 1981.6462)" class="st8" cx="2366.1" cy="105.3" rx="2.3" ry="2.4"/>
	
		<ellipse transform="matrix(0.5745 -0.8185 0.8185 0.5745 921.3823 1975.3059)" class="st8" cx="2360.5" cy="101.5" rx="2.2" ry="2.4"/>
	<path class="st8" d="M2354.2,97.9c0.7,1,1.9,1.3,2.7,0.7c0.8-0.6,0.7-1.8,0-2.8c-0.7-1-1.7-1.4-2.5-0.8
		C2353.5,95.6,2353.5,96.9,2354.2,97.9z"/>
	<path class="st8" d="M2235.6,88.8c0-0.1-0.1-0.1-0.1-0.2c-0.1-0.4-0.2-0.7-0.2-1.1c-0.4-0.5-0.9-0.9-1.3-1c-0.8-0.1-1,0.7-1.3,1.9
		c-0.2,1.2-0.3,2.3,0.5,2.5c0.7,0.1,1.8-0.4,2.8-1.3C2234.9,89.4,2235.6,89.1,2235.6,88.8z"/>
	<path class="st8" d="M2235.4,89.6C2235.4,89.6,2235.4,89.7,2235.4,89.6C2235.4,89.7,2235.4,89.7,2235.4,89.6
		C2235.4,89.7,2235.4,89.6,2235.4,89.6z"/>
	<path class="st8" d="M2235.4,88.7C2235.4,88.7,2235.3,88.7,2235.4,88.7C2235.4,88.8,2235.4,88.7,2235.4,88.7z"/>
	<path class="st8" d="M2214.4,122L2214.4,122c0-0.9-0.5-1.8-1.3-2.2c-0.4,0.7-0.8,1.2-1.2,2.2H2214.4z"/>
	<path class="st8" d="M2213.1,119.8c-0.3-0.2-0.7-0.3-1-0.3c-1.3,0-2.3,1.5-2.3,2.5h2.1C2212.3,121,2212.8,120.6,2213.1,119.8z"/>
	<path class="st8" d="M2212.4,117.4c1.2,0.3,2.4-0.6,2.7-1.9c0.3-1.3-0.5-2.6-1.6-2.9c-1.2-0.3-2.4,0.6-2.7,1.9
		C2210.5,115.9,2211.2,117.2,2212.4,117.4z"/>
	<path class="st8" d="M2214.4,110.6c1.1,0.6,2.5,0.2,3.1-1s0.3-2.7-0.8-3.3s-2.5-0.2-3.1,1S2213.3,110,2214.4,110.6z"/>
	<path class="st8" d="M2221.5,104.8c1.1-0.8,1.4-2.3,0.7-3.3c-0.7-1-2.2-1.3-3.3-0.5s-1.4,2.3-0.7,3.3
		C2218.9,105.3,2220.4,105.6,2221.5,104.8z"/>
	<path class="st8" d="M2227.1,100.6c1.1-0.8,1.4-2.2,0.7-3.2c-0.7-1-2.1-1.2-3.2-0.4c-1.1,0.8-1.4,2.2-0.7,3.2
		C2224.6,101.2,2226,101.4,2227.1,100.6z"/>
	<path class="st8" d="M2229.3,95.8c0.8,0.6,2,0.3,2.7-0.8c0.7-1.1,0.6-2.3-0.2-2.9c-0.8-0.6-1.8-0.2-2.5,0.8
		C2228.6,93.9,2228.5,95.2,2229.3,95.8z"/>
	<path class="st1" d="M2369.9,122.1L2369.9,122.1c0,0.1,0,0.2,0,0.2C2369.9,122.3,2369.9,122.2,2369.9,122.1z"/>
</g>
</svg>
