<?xml version="1.0" encoding="utf-8"?>
<!-- Generator: Adobe Illustrator 16.2.1, SVG Export Plug-In . SVG Version: 6.00 Build 0)  -->
<!DOCTYPE svg PUBLIC "-//W3C//DTD SVG 1.1//EN" "http://www.w3.org/Graphics/SVG/1.1/DTD/svg11.dtd">
<svg version="1.1" id="Layer_1" xmlns="http://www.w3.org/2000/svg" xmlns:xlink="http://www.w3.org/1999/xlink" x="0px" y="0px"
	 width="136.5px" height="50px" viewBox="0 0 136.5 50" enable-background="new 0 0 136.5 50" xml:space="preserve">
<g>
	<g opacity="0.1">
		<g>
			<defs>
				
					<rect id="SVGID_1_" x="116.145" y="6.942" transform="matrix(-0.9099 -0.4149 0.4149 -0.9099 220.0742 63.1943)" width="1.51" height="1.509"/>
			</defs>
			<clipPath id="SVGID_2_">
				<use xlink:href="#SVGID_1_"  overflow="visible"/>
			</clipPath>
			<path clip-path="url(#SVGID_2_)" fill="#FFFFFF" d="M117.588,8.009c-0.173,0.379-0.621,0.546-1.001,0.373
				c-0.378-0.173-0.546-0.621-0.373-1s0.621-0.546,1-0.373C117.593,7.183,117.761,7.63,117.588,8.009"/>
		</g>
	</g>
	<path fill="#FFFFFF" d="M117.03,7.754c-0.032,0.072-0.116,0.103-0.188,0.07c-0.071-0.032-0.103-0.116-0.069-0.188
		c0.032-0.071,0.116-0.103,0.187-0.07C117.031,7.6,117.062,7.684,117.03,7.754"/>
	<path fill="#637378" d="M131.346,20.244c-2.228,3.028-6.489,3.677-9.517,1.449c-3.028-2.229-3.675-6.489-1.448-9.517
		c2.229-3.028,6.489-3.676,9.517-1.448S133.573,17.217,131.346,20.244"/>
	<path fill="#435457" d="M130.974,19.971c-2.077,2.823-6.048,3.428-8.871,1.351c-2.821-2.077-3.426-6.048-1.35-8.871
		c2.077-2.823,6.049-3.427,8.871-1.35C132.446,13.178,133.051,17.148,130.974,19.971"/>
	<path fill="#637378" d="M124.208,11.393c-2.229,3.027-6.488,3.675-9.516,1.447c-3.028-2.228-3.677-6.488-1.448-9.516
		c2.229-3.028,6.489-3.676,9.517-1.448C125.788,4.105,126.437,8.365,124.208,11.393"/>
	<path fill="#435457" d="M123.831,11.116c-2.075,2.819-6.042,3.423-8.861,1.348c-2.819-2.075-3.423-6.042-1.348-8.861
		c2.073-2.82,6.041-3.423,8.861-1.349C125.303,4.328,125.906,8.296,123.831,11.116"/>
	<path fill="#0EA7C8" d="M134.169,11.75c0,0,1.212-4.63,1.245-6.863c0.015-1.051-0.057-1.783-0.334-2.305
		c0.002-0.003-0.003,0.003,0,0c-0.362-0.835-1.141-1.188-2.668-1.496c-2.19-0.442-6.972-0.24-6.972-0.24l4.83,4.795L134.169,11.75z"
		/>
	<path fill="#1591A5" d="M133.688,11.152c0,0,1.127-4.162,1.175-6.164c0.022-0.942-0.035-1.597-0.282-2.063
		c0.002-0.002-0.001,0.003,0,0c-0.318-0.746-1.019-1.056-2.389-1.32c-1.968-0.378-6.273-0.16-6.273-0.16l4.31,4.26L133.688,11.152z"
		/>
	<path fill="#178193" d="M130.826,5.421c-0.012,0.01-0.103-0.052-0.115-0.052c-0.113,0.191-0.129,0.527-0.24,0.721l3.217,5.062
		c0,0,1.127-4.162,1.175-6.164c0.022-0.942-0.035-1.597-0.282-2.063c-0.1-0.232-0.234-0.421-0.417-0.582
		C134.029,3.43,131.617,4.786,130.826,5.421"/>
	<path fill="#8E989C" d="M134.247,12.886c0.146-0.126,0.269-0.377,0.235-0.87c-0.082-1.208-0.821-3.114-2.111-4.935
		c0-0.001,0.001-0.005,0.001-0.005c-1.887-2.626-3.149-3.935-3.604-4.375c-1.383-1.381-2.866-2.321-3.91-2.623
		c-0.446-0.129-0.711-0.08-0.868,0.022c-0.188,0.112-0.46,0.368-0.46,0.368c-0.142,0.217,0.105,0.099,0.189,0.057
		c0.011-0.005,0.024-0.016,0.043-0.029l10.072,12.507c-0.013,0.012-0.024,0.023-0.029,0.031c-0.06,0.073-0.22,0.284,0.021,0.193
		C133.826,13.226,134.091,13.04,134.247,12.886"/>
	<path fill="#626E71" d="M134.102,12.322c-0.083-1.208-0.822-3.114-2.11-4.934c0-0.002,0-0.005,0-0.005
		c-1.887-2.626-3.149-3.935-3.606-4.375c-1.381-1.381-2.864-2.321-3.908-2.623c-1.075-0.311-1.098,0.415-1.098,0.415l9.96,12.366
		c-0.044,0.039-0.07,0.089-0.015,0.117c0.049,0.024,0.101,0.03,0.141,0.032C133.543,13.324,134.174,13.37,134.102,12.322"/>
	<path fill="#F4F4F4" d="M133.565,12.808c0,0,0.528-2.272-3.27-6.984c-3.8-4.711-6.427-5.058-6.427-5.058
		S111.46,1.356,99.098,23.623l1.019,1.263c0.644,0.569,1.356,1.051,1.996,1.622c0.573,0.512,1.038,1.086,1.437,1.742
		c0.398,0.659,0.729,1.349,0.951,2.072l1.217,1.51c0.055,0.028,0.113,0.049,0.174,0.062c0.083,0.019,0.066,0.148-0.017,0.134
		l0.107,0.133C130.363,24.804,133.565,12.808,133.565,12.808"/>
	<path fill="#D7DFE2" d="M133.485,11.599c0,0-0.392-2.304-3.203-5.792c-2.887-3.672-5.286-4.634-5.286-4.634
		s-12.732,0.251-25.412,22.975l0.77,0.941c0.577,0.483,1.197,0.916,1.759,1.418c0.573,0.512,1.038,1.086,1.437,1.742
		c0.349,0.576,0.645,1.177,0.862,1.801l1.251,1.529C130.056,24.385,133.485,11.599,133.485,11.599"/>
	<path fill="#C9D3D6" d="M112.525,29.162c-1.597-7.775-9.243-10.882-9.319-10.912l0.231-0.343c0.081,0.032,1.954,0.812,4.089,2.573
		c1.972,1.625,4.503,4.439,5.358,8.608L112.525,29.162z"/>
	<path fill="#C9D3D6" d="M107.91,30.92c-1.428-5.8-7.194-8.611-7.25-8.639l0.179-0.322c0.059,0.03,5.984,2.729,7.427,8.864
		L107.91,30.92z"/>
	<path fill="#C9D3D6" d="M113.085,18.373c-0.078,0.096-0.157,0.19-0.238,0.283c1.812,1.91,3.604,4.654,4.28,8.38l0.36-0.065
		C116.792,23.141,114.945,20.327,113.085,18.373"/>
	<path fill="#C9D3D6" d="M111.573,17.273c-0.148-0.127-0.295-0.248-0.439-0.363c-2.508-2.02-4.841-2.856-4.862-2.865l-0.252,0.312
		c0.022,0.008,2.424,0.856,4.886,2.838c0.131,0.105,0.264,0.217,0.398,0.331C111.385,17.428,111.468,17.345,111.573,17.273"/>
	<path fill="#C9D3D6" d="M121.787,24.439c0.02-0.016,0.039-0.031,0.059-0.047c0.036-0.036,0.073-0.072,0.111-0.105
		c0.004-0.002,0.009-0.002,0.012-0.004c-1.328-4.979-4.583-8.481-7.062-10.635c-2.702-2.348-5.221-3.435-5.245-3.446l-0.282,0.283
		c0.096,0.046,9.802,4.532,12.263,13.997l0.14-0.037C121.783,24.443,121.784,24.441,121.787,24.439"/>
	<path fill="#C9D3D6" d="M125.825,21.549c0.06-0.047,0.112-0.102,0.171-0.15c0.005-0.004,0.011-0.006,0.017-0.009
		c-1.104-5.304-4.484-9.028-7.127-11.208c-2.879-2.377-5.5-3.514-5.511-3.506l-0.307,0.254c0.01-0.008,2.746,1.191,5.584,3.534
		c2.616,2.16,5.963,5.848,7.02,11.11l0.146-0.023C125.819,21.549,125.823,21.551,125.825,21.549"/>
	<path fill="#C9D3D6" d="M129.493,17.976l0.101-0.128c0.009-0.012,0.021-0.018,0.032-0.021c-0.982-5.717-4.219-9.222-6.784-11.165
		c-2.798-2.119-5.277-2.826-5.303-2.833l-0.392,0.227c0.025,0.007,2.74,0.826,5.483,2.907c2.527,1.916,5.733,5.394,6.66,11.079
		l0.188-0.031C129.479,17.999,129.483,17.986,129.493,17.976"/>
	<path fill="#C9D3D6" d="M132.347,14.128c0.013-0.023,0.024-0.047,0.038-0.069c-1.022-4.775-3.772-7.916-5.919-9.718
		c-1.768-1.483-3.389-2.312-4.133-2.65c-0.189,0.028-0.364,0.097-0.543,0.167c0.184,0.072,2.225,0.903,4.449,2.773
		c2.136,1.796,4.883,4.944,5.839,9.749l0.107-0.022C132.243,14.283,132.299,14.208,132.347,14.128"/>
	<path fill="#C9D3D6" d="M133.485,11.599c0,0-0.345-2.332-3.189-5.775c-0.609,0.377-1.324,0.958-1.977,1.354
		c-1.168,0.711-2.368,1.363-3.519,2.106c-2.34,1.51-4.586,3.165-6.743,4.927c-5.22,4.261-10.342,8.65-15.161,13.338
		c0.104,0.148,0.5,0.615,0.595,0.772c0.35,0.577,0.646,1.177,0.863,1.802l1.25,1.529C129.999,24.457,133.485,11.599,133.485,11.599"
		/>
	<path fill="#C9D3D6" d="M129.571,15.089c-2.361,3.209-6.878,3.896-10.086,1.535c-3.209-2.362-3.896-6.877-1.536-10.087
		c2.362-3.208,6.878-3.896,10.087-1.534C131.245,7.365,131.932,11.88,129.571,15.089"/>
	<path fill="#EEF4F6" d="M128.905,15.494c-2.361,3.209-6.878,3.896-10.087,1.534s-3.896-6.876-1.534-10.085
		c2.361-3.209,6.877-3.896,10.086-1.535C130.58,7.769,131.266,12.285,128.905,15.494"/>
	<path fill="#F4F4F4" d="M128.905,15.494c-2.361,3.209-6.878,3.896-10.087,1.534s-3.896-6.876-1.534-10.085
		c2.361-3.209,6.877-3.896,10.086-1.535C130.58,7.769,131.266,12.285,128.905,15.494"/>
	<path fill="#747F83" d="M106.725,35.43c0.115-0.185,0.21-0.364,0.288-0.544c1.038-2.026-0.816-2.87-1.22-3.025
		c-0.862-4.182-5.262-7.275-6.34-7.978c-0.166-1.104-1.29-1.857-2.366-1.924c-0.336,0.01-0.688,0.074-1.055,0.211
		c-2.676,1.002-4.695,4.852-4.695,4.852s4.206-3.611,6.346-1.262l5.722,7.635l0.268-0.073c1.697,2.482-2.686,5.668-2.686,5.668
		S105.197,37.846,106.725,35.43"/>
	<path fill="#819499" d="M128.576,15.252c-2.228,3.028-6.488,3.676-9.515,1.449c-3.028-2.229-3.677-6.489-1.449-9.517
		c2.229-3.027,6.489-3.676,9.517-1.448C130.156,7.964,130.805,12.225,128.576,15.252"/>
	<path fill="#637378" d="M126.74,6.058c3.028,2.229,3.677,6.489,1.448,9.517c-0.282,0.383-0.597,0.728-0.938,1.034
		c0.492-0.38,0.939-0.831,1.325-1.356c2.229-3.027,1.58-7.288-1.447-9.516c-2.644-1.946-6.229-1.697-8.578,0.414
		C120.894,4.342,124.238,4.216,126.74,6.058"/>
	<g>
		<defs>
			<path id="SVGID_3_" d="M117.612,7.184c-2.228,3.028-1.579,7.289,1.449,9.517c3.026,2.227,7.287,1.579,9.515-1.449
				c2.229-3.027,1.58-7.288-1.447-9.516c-0.387-0.285-0.793-0.522-1.214-0.714C123.045,3.713,119.556,4.544,117.612,7.184"/>
		</defs>
		<clipPath id="SVGID_4_">
			<use xlink:href="#SVGID_3_"  overflow="visible"/>
		</clipPath>
		<path clip-path="url(#SVGID_4_)" fill="#EAF7FE" d="M114.626,11.59c0,0-0.129-0.001-0.34,0.031
			c0.196,0.237,0.466,0.427,0.588,0.709c1.231,2.841,2.786,5.095,5.761,6.95c0.206-0.283,0.345-0.496,0.345-0.496
			c0.145,0.18,0.305,0.217,0.305,0.217c-0.044-0.168-0.069-0.591,0.021-0.961c0.09-0.369,0.101-1.135,0.101-1.135
			s0.247-0.199,0.763-0.614c0.516-0.416,1.186-0.411,1.186-0.411c-0.182-0.224-0.47-0.168-0.47-0.168s0.013-0.009,1.088-0.876
			c1.076-0.868,1.997-0.712,1.997-0.712c-0.124-0.178-0.293-0.227-0.293-0.227c0.858-0.562,1.29-0.51,1.29-0.51
			c-0.488-1.085-1.418-1.161-1.418-1.161c0.4-0.49,1-0.321,1-0.321c-0.271-0.541-0.712-0.812-0.712-0.812
			c0.707-0.569,1.169-0.479,1.169-0.479c-1.13-1.4-2.824-1.347-2.824-1.347c0.403-0.417,0.895-0.611,0.895-0.611
			c-1.664-0.895-3.22-0.233-3.22-0.233c0.141-0.261,0.615-0.663,0.615-0.663s-1.39,0.196-2.122,0.62
			c-0.73,0.422-2.443,2.118-2.443,2.118s0.04-0.18-0.092-0.389c0,0-0.061,0.383-0.565,0.79c0,0,0.004-0.133-0.138-0.24
			c0,0-0.02,0.367-0.327,0.651c0,0-0.366-0.112-0.642-0.11c0,0-0.184-0.205-0.309-0.289c0,0,0.045,0.261-0.019,0.366
			c0,0-0.962-0.093-1.616-0.009C114.199,11.268,114.534,11.386,114.626,11.59"/>
		<path clip-path="url(#SVGID_4_)" fill="#CDEAF5" d="M124.182,9.267c0.403-0.417,0.895-0.611,0.895-0.611
			c-1.664-0.895-3.22-0.233-3.22-0.233c0.141-0.261,0.615-0.663,0.615-0.663s-1.39,0.196-2.122,0.62
			c-0.73,0.422-2.443,2.118-2.443,2.118s0.04-0.18-0.092-0.389c0,0-0.061,0.383-0.565,0.79c0,0,0.004-0.133-0.138-0.24
			c0,0-0.02,0.367-0.327,0.651c0,0-0.366-0.112-0.642-0.11c0,0-0.184-0.205-0.309-0.289c0,0,0.045,0.261-0.019,0.366
			c0,0-0.558-0.053-1.111-0.042c0.325,0.397,0.67,0.78,0.993,1.178c0.062-0.053,0.125-0.105,0.188-0.155
			c2.799-2.331,4.294-1.808,4.294-1.808c-0.076-0.233-0.236-0.419-0.236-0.419c0.666-0.195,1.916-0.065,1.916-0.065
			c-0.159-0.176-0.938-0.741-0.938-0.741c2.047-0.661,2.949-0.39,2.949-0.39c-0.412,0.258-0.691,0.724-0.691,0.724
			c2.655,0.003,3.424,1.108,3.424,1.108c0.223-0.052,0.404-0.053,0.404-0.053C125.876,9.213,124.182,9.267,124.182,9.267"/>
		<path clip-path="url(#SVGID_4_)" fill="#5C5B5D" d="M120.454,9.179c-0.028-0.031-0.113-0.13-0.113-0.13
			c-0.81-0.872-0.642-2.128-0.642-2.128s-0.608,0.39-0.774,1.186c-0.165,0.797,0.407,1.678,0.407,1.678
			c-0.094,0.119-0.396,0.267-0.396,0.267s0.455,0.026,1.002-0.315C120.322,9.496,120.471,9.197,120.454,9.179"/>
		<path clip-path="url(#SVGID_4_)" fill="#747F83" d="M120.454,9.179c-0.027-0.03-0.113-0.13-0.113-0.13
			c-0.81-0.872-0.642-2.128-0.642-2.128s-0.882,1.407,0.353,2.739C120.052,9.659,120.309,9.516,120.454,9.179"/>
		<path clip-path="url(#SVGID_4_)" fill="#5C5B5D" d="M124.173,13.792c0.022,0.033,0.103,0.138,0.103,0.138
			c0.682,0.977,1.944,1.078,1.944,1.078s-0.509,0.512-1.323,0.505c-0.812-0.007-1.553-0.753-1.553-0.753
			c-0.136,0.066-0.346,0.329-0.346,0.329s0.071-0.45,0.521-0.913C123.835,13.853,124.158,13.771,124.173,13.792"/>
		<path clip-path="url(#SVGID_4_)" fill="#747F83" d="M124.173,13.792c0.022,0.032,0.103,0.138,0.103,0.138
			c0.682,0.977,1.944,1.078,1.944,1.078s-1.562,0.562-2.602-0.925C123.618,14.083,123.812,13.861,124.173,13.792"/>
		<path clip-path="url(#SVGID_4_)" fill="#CDEAF5" d="M119.444,14.666c-0.254,0.206-0.329,0.535-0.167,0.736
			c0.163,0.201,0.5,0.198,0.757-0.007c0.254-0.206,0.328-0.535,0.166-0.736S119.701,14.461,119.444,14.666"/>
		<path clip-path="url(#SVGID_4_)" fill="#FFFFFF" d="M119.577,14.578c-0.251,0.202-0.324,0.527-0.163,0.725
			c0.158,0.198,0.491,0.195,0.742-0.006c0.251-0.203,0.324-0.527,0.165-0.727C120.161,14.373,119.828,14.377,119.577,14.578"/>
		<path clip-path="url(#SVGID_4_)" fill="#4F4E51" d="M120.042,14.481c-0.013,0.006-0.026,0.013-0.038,0.023
			c-0.064,0.052-0.083,0.134-0.041,0.186c0.036,0.046,0.108,0.052,0.168,0.015c-0.015,0.061-0.052,0.121-0.108,0.167
			c-0.118,0.095-0.277,0.095-0.354,0.001c-0.076-0.096-0.043-0.25,0.075-0.346C119.84,14.451,119.959,14.436,120.042,14.481"/>
		<path clip-path="url(#SVGID_4_)" fill="#CDEAF5" d="M118.266,13.203c-0.254,0.206-0.329,0.535-0.167,0.736
			c0.163,0.201,0.5,0.198,0.755-0.008c0.254-0.205,0.33-0.535,0.167-0.736C118.857,12.995,118.521,12.998,118.266,13.203"/>
		<path clip-path="url(#SVGID_4_)" fill="#FFFFFF" d="M118.398,13.116c-0.251,0.203-0.324,0.527-0.165,0.724
			c0.16,0.199,0.493,0.195,0.743-0.008c0.252-0.201,0.324-0.525,0.165-0.724C118.981,12.91,118.649,12.914,118.398,13.116"/>
		<path clip-path="url(#SVGID_4_)" fill="#A1D4E9" d="M120.557,14.383c0,0,0.403,0.193,0.27,0.598c0,0,0.292-0.205,0.119-0.484
			C120.77,14.217,120.557,14.383,120.557,14.383"/>
		<path clip-path="url(#SVGID_4_)" fill="#4F4E51" d="M119.07,13.275c-0.013,0.008-0.025,0.014-0.039,0.024
			c-0.063,0.052-0.082,0.135-0.041,0.187c0.038,0.045,0.109,0.05,0.169,0.015c-0.014,0.06-0.052,0.12-0.108,0.165
			c-0.118,0.096-0.277,0.096-0.354,0.002c-0.076-0.096-0.044-0.25,0.075-0.346C118.868,13.246,118.987,13.231,119.07,13.275"/>
		<path clip-path="url(#SVGID_4_)" fill="#5C5B5D" d="M121.509,15.898c-0.107-0.182-0.285-0.528-0.542-0.883
			c-0.359-0.494-0.627-0.777-0.918-0.91c-0.079-0.036-0.225-0.076-0.262-0.113l-0.042-0.039c-0.038-0.036-0.066-0.062-0.088-0.086
			c-0.018-0.025-0.037-0.057-0.064-0.103l-0.03-0.05c-0.025-0.043-0.035-0.193-0.054-0.279c-0.068-0.312-0.288-0.633-0.695-1.09
			c-0.29-0.326-0.592-0.573-0.748-0.717c0,0-0.16-0.155-0.343-0.253l-0.166,0.18c0,0,0.164,0.126,0.308,0.263
			c-0.243,0.243-0.54,0.573-0.54,0.573l-0.009,0.01c-0.015,0.018-0.124,0.112-0.139,0.131c-0.107,0.14-0.162,0.234-0.107,0.399
			c0.053,0.161,0.246,0.489,0.468,0.795c0.084,0.115,0.189,0.234,0.31,0.346c0.179,0.164,0.365,0.293,0.465,0.318
			c0.146,0.038,0.455-0.129,0.599-0.189l0.041-0.018c0.05-0.02,0.099-0.043,0.146-0.065c0.069-0.032,0.141-0.065,0.171-0.069
			c0.006,0,0.027,0,0.066,0.035c0.007,0.008,0.015,0.018,0.022,0.025c0.008,0.01,0.015,0.02,0.02,0.029
			c0.028,0.045,0.023,0.066,0.022,0.071c-0.011,0.028-0.06,0.091-0.105,0.151c-0.031,0.043-0.064,0.087-0.095,0.13l-0.025,0.038
			c-0.09,0.126-0.319,0.394-0.312,0.544c0.004,0.103,0.09,0.312,0.213,0.521c0.082,0.142,0.177,0.271,0.271,0.377
			c0.252,0.283,0.531,0.539,0.678,0.625c0.149,0.089,0.253,0.057,0.413-0.02c0.022-0.012,0.137-0.098,0.157-0.107l0.012-0.008
			c0,0,0.386-0.219,0.675-0.405c0.103,0.169,0.191,0.356,0.191,0.356l0.211-0.124C121.626,16.09,121.509,15.898,121.509,15.898
			 M119.152,13.819c-0.067,0.042-0.504,0.328-0.662,0.347c-0.153,0.02-0.196,0.018-0.39-0.151c-0.007-0.008-0.016-0.016-0.023-0.023
			c-0.202-0.187-0.521-0.569-0.653-0.821l-0.009-0.017c-0.137-0.256-0.18-0.348-0.129-0.426c0.067-0.106,0.544-0.588,0.633-0.667
			c0.068-0.06,0.152-0.02,0.171-0.006c0.012,0.009,0.03,0.024,0.053,0.046c0.148,0.137,0.484,0.433,0.62,0.588
			c0.212,0.242,0.518,0.512,0.521,0.875c0.002,0.117-0.058,0.211-0.129,0.254L119.152,13.819z M120.271,16.43
			c-0.088,0.031-0.168-0.031-0.391-0.217l-0.014-0.014c-0.216-0.183-0.524-0.574-0.663-0.812c-0.007-0.01-0.013-0.02-0.018-0.029
			c-0.127-0.223-0.119-0.266-0.067-0.411c0.053-0.151,0.425-0.518,0.48-0.573l0.003-0.004c0.058-0.061,0.161-0.098,0.274-0.071
			c0.354,0.081,0.555,0.438,0.746,0.696c0.122,0.165,0.341,0.556,0.442,0.729c0.016,0.028,0.026,0.049,0.033,0.062
			c0.01,0.021,0.031,0.113-0.042,0.166C120.961,16.021,120.388,16.385,120.271,16.43"/>
		<path clip-path="url(#SVGID_4_)" fill="#A1D4E9" d="M119.604,12.754c0,0-0.134-0.561-0.68-0.503c0,0,0.338-0.312,0.642-0.016
			C119.87,12.529,119.604,12.754,119.604,12.754"/>
		<path clip-path="url(#SVGID_4_)" fill="#A1D4E9" d="M120.007,12.179c0,0-0.127-0.518-0.604-0.414c0,0,0.253-0.296,0.54-0.086
			C120.229,11.889,120.007,12.179,120.007,12.179"/>
		<path clip-path="url(#SVGID_4_)" fill="#A1D4E9" d="M121.232,14.206c0,0,0.308,0.276,0.062,0.565c0,0,0.295-0.062,0.258-0.338
			C121.514,14.159,121.232,14.206,121.232,14.206"/>
		<path clip-path="url(#SVGID_4_)" fill="#5C5B5D" d="M118.436,15.051c0,0,0.93,2.062,1.956,1.842c0,0-0.938,0.637-1.606,0.076
			C118.411,16.506,117.71,16.246,118.436,15.051"/>
		<path clip-path="url(#SVGID_4_)" fill="#EAF7FE" d="M125.3,16.551c0,0-0.747-0.48-1.037-0.085
			c-0.288,0.397-0.961,0.028-1.148,0.39c-0.188,0.363-1.015,0.27-1.321,1.095c0,0,0.644,0.28,1.134,0.226l-0.045-0.208
			c0,0,0.486,0.594,1.133,0.884c0,0-0.062-0.588-0.217-1.045c0,0,0.609,0.59,0.671,0.953c0,0,0.39-0.244,0.339-0.725
			c0,0,0.65,0.266,0.65-0.431S125.435,16.654,125.3,16.551"/>
		<path clip-path="url(#SVGID_4_)" fill="#CDEAF5" d="M124.469,18.76c0,0,0.188-0.673-0.799-1.271c0,0,0.078,0.145,0.128,0.318
			C123.798,17.807,124.436,18.457,124.469,18.76"/>
		<path clip-path="url(#SVGID_4_)" fill="#CDEAF5" d="M124.808,18.035c0,0-0.098-0.508-0.244-0.747c0,0,0.484,0.162,0.458,0.798
			C125.021,18.086,124.87,18.08,124.808,18.035"/>
		<path clip-path="url(#SVGID_4_)" fill="#CDEAF5" d="M124.015,18.852c0,0-0.921-1.027-1.246-1.217c0,0,0.066,0.124,0.112,0.332
			C122.881,17.967,123.485,18.684,124.015,18.852"/>
		<path clip-path="url(#SVGID_4_)" fill="#CDEAF5" d="M122.794,18.178c0,0-0.666-0.232-0.91-0.43c0,0-0.085,0.11-0.091,0.202
			C121.793,17.95,122.445,18.211,122.794,18.178"/>
		<path clip-path="url(#SVGID_4_)" fill="#EAF7FE" d="M117.235,8.631c0,0,0.606,0.648,0.27,1.003
			c-0.338,0.355,0.147,0.95-0.176,1.201s-0.081,1.048-0.838,1.498c0,0-0.392-0.582-0.427-1.075l0.214,0.008
			c0,0-0.672-0.373-1.075-0.956c0,0,0.59-0.045,1.067,0.026c0,0-0.689-0.494-1.06-0.488c0,0,0.17-0.428,0.652-0.464
			c0,0-0.379-0.591,0.307-0.718C116.855,8.54,117.108,8.517,117.235,8.631"/>
		<path clip-path="url(#SVGID_4_)" fill="#CDEAF5" d="M115.211,9.848c0,0,0.629-0.308,1.396,0.555c0,0-0.157-0.05-0.336-0.067
			C116.271,10.336,115.515,9.826,115.211,9.848"/>
		<path clip-path="url(#SVGID_4_)" fill="#CDEAF5" d="M115.863,9.383c0,0,0.517,0.004,0.779,0.105c0,0-0.247-0.448-0.867-0.306
			C115.775,9.183,115.808,9.33,115.863,9.383"/>
		<path clip-path="url(#SVGID_4_)" fill="#CDEAF5" d="M115.203,10.31c0,0,1.178,0.72,1.421,1.006c0,0-0.132-0.043-0.347-0.051
			C116.277,11.265,115.464,10.801,115.203,10.31"/>
		<path clip-path="url(#SVGID_4_)" fill="#CDEAF5" d="M116.087,11.389c0,0,0.349,0.614,0.586,0.818c0,0-0.092,0.103-0.182,0.126
			C116.491,12.333,116.116,11.737,116.087,11.389"/>
	</g>
	<g opacity="0.2">
		<g>
			<defs>
				
					<rect id="SVGID_5_" x="124.085" y="7.389" transform="matrix(-0.9098 -0.4151 0.4151 -0.9098 236.9476 69.2407)" width="3.828" height="2.962"/>
			</defs>
			<clipPath id="SVGID_6_">
				<use xlink:href="#SVGID_5_"  overflow="visible"/>
			</clipPath>
			<path clip-path="url(#SVGID_6_)" fill="#F3F3F3" d="M127.277,10.457c-0.561,0.452-1.589,0.108-2.295-0.768
				c-0.706-0.876-0.824-1.954-0.263-2.406c0.56-0.452,1.587-0.108,2.294,0.769C127.719,8.928,127.838,10.004,127.277,10.457"/>
		</g>
	</g>
	<path fill="#FFFFFF" d="M101.092,36.974l-0.002-0.003c0.555-0.077,1.15-0.353,1.639-0.745c2.102-1.694,1.954-5.336-0.312-8.146
		c-2.267-2.811-5.784-3.734-7.885-2.039c-0.488,0.394-0.893,0.924-1.081,1.445l-0.002-0.003c0.003,0.003-0.033,0.038-0.034,0.046
		c-0.123,0.284-0.231,0.598-0.293,0.913c-1.761,5.165-4.784,10.498-4.784,10.498l1.684-0.566l-0.48,0.857
		c2.067-0.854,6.115-1.624,10.54-2.133c0.319,0.004,0.658-0.043,0.961-0.102C101.05,36.996,101.089,36.97,101.092,36.974"/>
	<path fill="#FFEED0" d="M101.151,36.047l-0.001-0.003c0.411-0.002,0.988-0.286,1.415-0.631c1.839-1.481,1.676-4.688-0.336-7.183
		c-2.013-2.495-5.091-3.352-6.928-1.869c-0.428,0.344-0.833,0.854-0.918,1.251l-0.003-0.003c0.003,0.003-0.057,0.057-0.059,0.062
		c-0.104,0.25-0.212,0.537-0.265,0.816c-1.517,4.547-4.148,9.24-4.148,9.24l1.474-0.488l-0.418,0.756
		c1.812-0.739,5.368-1.394,9.259-1.814c0.28,0.007,0.598-0.05,0.864-0.1C101.096,36.081,101.149,36.044,101.151,36.047"/>
	<path fill="#FCC393" d="M101.239,34.154l-0.001-0.002c0.245,0.046,0.699-0.187,1.015-0.44c1.355-1.094,1.22-3.446-0.265-5.288
		c-1.484-1.841-3.777-2.454-5.134-1.36c-0.315,0.253-0.572,0.596-0.701,0.941v-0.002c0.001,0.002-0.027,0.029-0.028,0.034
		c-0.078,0.185-0.148,0.39-0.189,0.596c-1.117,3.354-3.057,6.814-3.057,6.814l1.089-0.36l-0.308,0.557
		c1.337-0.545,3.963-1.027,6.832-1.34c0.208,0.006,0.474-0.061,0.67-0.099C101.167,34.205,101.237,34.15,101.239,34.154"/>
	<g opacity="0.1">
		<g>
			<defs>
				
					<rect id="SVGID_7_" x="82.849" y="23.319" transform="matrix(-0.9098 -0.415 0.415 -0.9098 166.446 104.4095)" width="23.438" height="21.6"/>
			</defs>
			<clipPath id="SVGID_8_">
				<use xlink:href="#SVGID_7_"  overflow="visible"/>
			</clipPath>
			<path clip-path="url(#SVGID_8_)" fill="#FFFFFF" d="M105.361,32.049c-0.007-0.005-0.015-0.008-0.022-0.015
				c-0.037-0.027-0.032-0.069-0.009-0.095c-0.52-1.714-1.436-3.374-2.748-4.835c-4.377-4.867-11.514-5.671-15.938-1.798
				c-4.427,3.873-4.467,10.959-0.089,15.826c4.375,4.867,11.512,5.673,15.938,1.799C105.562,40.245,106.521,36.014,105.361,32.049"
				/>
		</g>
	</g>
	<g opacity="0.1">
		<g>
			<defs>
				
					<rect id="SVGID_9_" x="84.621" y="24.954" transform="matrix(-0.9098 -0.4151 0.4151 -0.9098 166.4427 104.4117)" width="19.893" height="18.33"/>
			</defs>
			<clipPath id="SVGID_10_">
				<use xlink:href="#SVGID_9_"  overflow="visible"/>
			</clipPath>
			<path clip-path="url(#SVGID_10_)" fill="#FFFFFF" d="M101.292,41.598c-3.755,3.288-9.812,2.604-13.524-1.526
				c-3.714-4.13-3.681-10.144,0.075-13.431s9.812-2.604,13.525,1.526C105.083,32.298,105.049,38.311,101.292,41.598"/>
		</g>
	</g>
	<path fill="#747F83" d="M95.166,33.812c0,0,7.494-4.623,8.662-5.575c1.024-0.833,0.06-1.833,0.06-1.833s-0.772-0.811-1.58-0.136
		C101.391,27.034,95.166,33.812,95.166,33.812"/>
	<path fill="#C9D3D6" d="M112.995,19.701c-0.665-0.805-1.658-1.12-2.401-1.172c1.303-1.02,3.024-1.473,4.054-0.23
		c0.575,0.696,0.614,1.291,0.493,1.968l-0.034,0.252l1.425-0.126l0.384-0.316c0,0-0.501-1.827-1.186-2.656
		c-1.847-2.232-4.56-1.331-6.318,0.123c-2.381,1.969-2.916,4.217-1.426,6.019c1.429,1.728,3.413,1.606,4.638,0.595
		C114.086,22.947,114.232,21.196,112.995,19.701 M111.614,23c-0.657,0.545-1.785,0.602-2.583-0.361
		c-1.085-1.312-0.001-2.666,0.434-3.117c0.898-0.1,1.796,0.227,2.301,0.838C112.539,21.295,112.482,22.281,111.614,23"/>
	<path fill="#0EA7C8" d="M112.259,20.31c-0.665-0.805-1.658-1.12-2.401-1.173c1.304-1.018,3.027-1.471,4.054-0.229
		c0.575,0.696,0.614,1.29,0.494,1.968l-0.034,0.252l1.424-0.126l0.384-0.317c0,0-0.5-1.826-1.186-2.654
		c-1.847-2.233-4.559-1.332-6.318,0.122c-2.381,1.969-2.916,4.217-1.425,6.019c1.429,1.728,3.415,1.607,4.637,0.594
		C113.352,23.555,113.496,21.805,112.259,20.31 M110.878,23.609c-0.657,0.543-1.785,0.601-2.583-0.363
		c-1.084-1.312,0-2.666,0.434-3.117c0.899-0.098,1.796,0.227,2.302,0.838C111.804,21.902,111.747,22.891,110.878,23.609"/>
	<path fill="#1591A5" d="M112.642,19.992c-0.664-0.805-1.657-1.119-2.4-1.172c1.303-1.02,3.026-1.473,4.053-0.23
		c0.576,0.697,0.614,1.291,0.495,1.968l-0.043,0.241l1.416-0.135l0.023-0.143c0.165-1.015-0.109-1.963-0.816-2.82
		c-1.847-2.232-4.557-1.327-6.315,0.127c-2.38,1.971-2.912,4.221-1.423,6.022c1.43,1.728,3.415,1.608,4.639,0.597
		C113.733,23.236,113.879,21.488,112.642,19.992 M111.261,23.291c-0.656,0.545-1.785,0.603-2.582-0.361
		c-1.085-1.313,0-2.666,0.434-3.117c0.898-0.099,1.796,0.227,2.301,0.838C112.188,21.586,112.131,22.573,111.261,23.291"/>
	<path fill="#178193" d="M112.642,19.992c-0.198-0.24-0.425-0.436-0.666-0.594c-0.332,0.285-0.665,0.571-0.995,0.859
		c0.164,0.113,0.311,0.244,0.433,0.393c0.774,0.936,0.718,1.923-0.152,2.641c-0.656,0.545-1.785,0.603-2.582-0.361
		c-0.11-0.134-0.198-0.269-0.267-0.402c-0.353,0.317-0.704,0.635-1.053,0.955c0.082,0.124,0.172,0.247,0.271,0.368
		c1.43,1.728,3.415,1.608,4.639,0.597C113.733,23.236,113.879,21.488,112.642,19.992"/>
	<path fill="#178193" d="M114.789,20.558l-0.043,0.241l1.416-0.135l0.023-0.143c0.165-1.015-0.108-1.963-0.816-2.82
		c-0.204-0.246-0.42-0.453-0.643-0.627c-0.382,0.318-0.763,0.638-1.143,0.957c0.26,0.123,0.5,0.305,0.71,0.559
		C114.87,19.287,114.908,19.881,114.789,20.558"/>
</g>
<g>
	<path fill="#EAF7FE" d="M13.603,42.539c-0.358-0.231-0.46-0.709-0.229-1.065l0,0c0.231-0.357,0.71-0.459,1.066-0.228l0,0
		c0.357,0.231,0.459,0.709,0.227,1.066l0,0c-0.214,0.331-0.641,0.441-0.986,0.271l0,0C13.653,42.571,13.628,42.557,13.603,42.539z
		 M16.084,42.93c0.112-0.413,0.537-0.654,0.947-0.542l0,0c0.411,0.113,0.652,0.537,0.539,0.947l0,0
		c-0.113,0.411-0.538,0.652-0.947,0.54l0,0c-0.05-0.013-0.096-0.03-0.139-0.052l0,0C16.16,43.662,15.985,43.29,16.084,42.93z
		 M11.12,40.43c-0.291-0.312-0.275-0.799,0.036-1.089l0,0c0.311-0.292,0.798-0.275,1.09,0.037l0,0
		c0.29,0.308,0.274,0.796-0.037,1.088l0,0c-0.242,0.226-0.589,0.267-0.868,0.128l0,0C11.26,40.554,11.185,40.5,11.12,40.43z
		 M19.089,43.604c0.035-0.424,0.408-0.739,0.833-0.703l0,0c0,0,0,0,0,0.002l0,0c0.424,0.034,0.739,0.407,0.704,0.831l0,0
		c-0.036,0.424-0.409,0.739-0.832,0.703l0,0c-0.099-0.009-0.192-0.036-0.277-0.077l0,0C19.241,44.223,19.062,43.929,19.089,43.604z
		 M9.142,37.908c-0.237-0.354-0.141-0.833,0.212-1.068l0,0c0.355-0.237,0.833-0.142,1.07,0.212l0,0
		c0.236,0.355,0.141,0.834-0.213,1.07l0,0c-0.238,0.158-0.531,0.167-0.769,0.049l0,0C9.324,38.112,9.219,38.024,9.142,37.908z
		 M22.167,43.726c-0.039-0.426,0.273-0.801,0.696-0.839l0,0l0,0l0,0c0.424-0.039,0.799,0.273,0.838,0.696l0,0
		c0.039,0.424-0.272,0.799-0.698,0.838l0,0c-0.146,0.014-0.287-0.016-0.411-0.076l0,0C22.361,44.229,22.191,44,22.167,43.726z
		 M7.542,35.173c-0.194-0.377-0.046-0.843,0.333-1.037l0,0c0.378-0.194,0.844-0.047,1.038,0.332l0,0
		c0.195,0.378,0.047,0.842-0.333,1.038l0,0c-0.226,0.115-0.482,0.109-0.694,0.004l0,0C7.743,35.439,7.621,35.323,7.542,35.173z
		 M25.218,43.316c-0.106-0.413,0.141-0.833,0.552-0.94l0,0c0.413-0.106,0.833,0.142,0.939,0.553l0,0
		c0.107,0.412-0.141,0.832-0.552,0.939l0,0c-0.186,0.048-0.375,0.023-0.535-0.055l0,0C25.429,43.718,25.276,43.542,25.218,43.316z
		 M6.224,32.315c-0.163-0.393,0.024-0.844,0.418-1.007l0,0c0.393-0.164,0.843,0.024,1.006,0.418l0,0c0,0,0,0,0-0.001l0,0
		c0.163,0.393-0.024,0.844-0.417,1.007l0,0c-0.215,0.089-0.444,0.074-0.636-0.021l0,0C6.434,32.632,6.299,32.496,6.224,32.315z
		 M28.168,42.427c-0.167-0.39,0.014-0.844,0.406-1.011l0,0l0,0l0,0c0.391-0.167,0.844,0.015,1.011,0.406l0,0
		c0.167,0.391-0.015,0.842-0.406,1.011l0,0c-0.216,0.092-0.45,0.078-0.643-0.019l0,0C28.375,42.735,28.244,42.603,28.168,42.427z
		 M35.465,45.459L35.465,45.459c-0.375-0.205-0.514-0.671-0.311-1.047l0,0c0.202-0.372,0.671-0.513,1.044-0.31l0,0l0,0l0,0
		c0.375,0.202,0.514,0.671,0.311,1.044l0,0c-0.197,0.365-0.649,0.507-1.019,0.324l0,0C35.482,45.467,35.473,45.463,35.465,45.459z
		 M37.916,45.778c0.144-0.399,0.585-0.605,0.987-0.463l0,0c0.398,0.146,0.607,0.586,0.461,0.987l0,0
		c-0.144,0.4-0.585,0.607-0.986,0.461l0.001,0.001c-0.027-0.01-0.056-0.021-0.081-0.034l0,0
		C37.951,46.56,37.781,46.149,37.916,45.778z M32.777,43.748L32.777,43.748c-0.343-0.251-0.417-0.734-0.165-1.077l0,0
		c0.252-0.342,0.734-0.417,1.077-0.164l0,0c0.344,0.251,0.416,0.733,0.164,1.076l0,0c-0.225,0.307-0.633,0.398-0.962,0.235l0,0
		C32.853,43.8,32.813,43.774,32.777,43.748z M40.85,46.714c0.084-0.417,0.488-0.689,0.906-0.605l0,0
		c0.418,0.081,0.689,0.486,0.608,0.904l0,0c-0.083,0.418-0.489,0.689-0.906,0.606l0,0c-0.068-0.013-0.133-0.035-0.193-0.065l0,0
		C40.96,47.403,40.782,47.062,40.85,46.714z M5.122,29.383c-0.137-0.402,0.077-0.842,0.48-0.979l0,0
		c0.403-0.135,0.84,0.079,0.979,0.481l0,0c0.137,0.402-0.079,0.841-0.481,0.979l0,0c-0.202,0.068-0.413,0.049-0.591-0.039l0,0
		C5.333,29.738,5.191,29.584,5.122,29.383z M30.343,41.711L30.343,41.711c-0.31-0.293-0.323-0.782-0.031-1.09l0,0
		c0.163-0.175,0.39-0.255,0.611-0.24l0,0c0.062-0.13,0.163-0.241,0.293-0.323l0,0l0,0l0,0c0.366-0.22,0.839-0.103,1.059,0.261l0,0
		c0.22,0.365,0.104,0.839-0.26,1.058l0,0c-0.14,0.086-0.298,0.12-0.45,0.11l0,0c-0.034,0.068-0.077,0.134-0.133,0.192l0,0
		c-0.238,0.253-0.606,0.309-0.902,0.162l0,0C30.462,41.807,30.399,41.765,30.343,41.711z M43.893,47.198
		c0.022-0.424,0.383-0.75,0.809-0.729l0,0c0.426,0.021,0.753,0.383,0.73,0.81l0,0c-0.021,0.424-0.383,0.751-0.809,0.729l0,0
		c-0.108-0.006-0.209-0.033-0.302-0.08l0,0C44.054,47.797,43.877,47.516,43.893,47.198z M28.164,39.417
		c-0.277-0.321-0.241-0.809,0.083-1.084l0,0c0.322-0.278,0.809-0.241,1.085,0.082l0,0c0,0,0,0,0,0l0,0
		c0.277,0.323,0.239,0.81-0.083,1.088l0,0c-0.243,0.206-0.576,0.238-0.844,0.104l0,0C28.315,39.562,28.233,39.5,28.164,39.417z
		 M4.193,26.399c-0.116-0.408,0.122-0.835,0.532-0.951l0,0c0.409-0.116,0.835,0.122,0.951,0.531l0,0
		c0.116,0.41-0.121,0.835-0.531,0.951l0,0c-0.191,0.055-0.386,0.031-0.553-0.051l0,0C4.406,26.786,4.255,26.618,4.193,26.399z
		 M46.974,47.252c-0.034-0.426,0.283-0.797,0.706-0.831l0,0c0,0,0,0,0.001,0l0,0c0.424-0.032,0.796,0.283,0.829,0.709l0,0
		c0.033,0.423-0.282,0.793-0.707,0.828l0,0c-0.145,0.012-0.282-0.018-0.402-0.076l0,0C47.166,47.765,46.996,47.531,46.974,47.252z
		 M26.222,36.938c-0.248-0.347-0.169-0.826,0.177-1.074l0,0c0.346-0.248,0.827-0.17,1.076,0.175l0,0
		c0.247,0.348,0.168,0.827-0.178,1.075l0,0c-0.24,0.174-0.545,0.188-0.792,0.066l0,0C26.396,37.127,26.297,37.045,26.222,36.938z
		 M33.538,39.434c-0.266-0.331-0.212-0.817,0.12-1.082l0,0l0,0l0,0c0.332-0.268,0.816-0.213,1.083,0.12l0,0
		c0.266,0.331,0.213,0.816-0.119,1.081l0,0.001c-0.242,0.193-0.563,0.219-0.825,0.089l0,0C33.7,39.595,33.611,39.524,33.538,39.434z
		 M50.036,46.915c-0.082-0.419,0.191-0.821,0.609-0.903l0,0c0.418-0.08,0.822,0.191,0.903,0.608l0,0
		c0.082,0.419-0.191,0.823-0.608,0.903l0,0c-0.173,0.035-0.343,0.008-0.488-0.063l0,0C50.244,47.356,50.083,47.162,50.036,46.915z
		 M24.489,34.323c-0.223-0.361-0.111-0.836,0.252-1.06l0,0c0.362-0.224,0.836-0.109,1.06,0.251l0,0
		c0.223,0.365,0.11,0.839-0.251,1.062l0,0c-0.236,0.144-0.517,0.147-0.747,0.034l0,0C24.678,34.549,24.566,34.452,24.489,34.323z
		 M3.411,23.381L3.411,23.381c-0.099-0.416,0.158-0.829,0.572-0.926l0,0c0.414-0.1,0.829,0.158,0.927,0.572l0,0c0,0,0,0,0-0.001l0,0
		c0.097,0.415-0.158,0.829-0.573,0.929l0,0c-0.181,0.042-0.364,0.017-0.519-0.059l0,0C3.62,23.797,3.466,23.614,3.411,23.381z
		 M22.922,31.626c-0.207-0.372-0.072-0.841,0.301-1.048l0,0c0.373-0.206,0.841-0.07,1.048,0.303l0,0l0,0l0,0
		c0.205,0.371,0.071,0.841-0.301,1.046l0,0c-0.23,0.128-0.497,0.125-0.716,0.016l0,0C23.118,31.876,23.001,31.769,22.922,31.626z
		 M53.044,46.251c-0.121-0.408,0.112-0.838,0.52-0.957l0,0c0.408-0.122,0.837,0.11,0.958,0.519l0,0
		c0.121,0.408-0.112,0.837-0.52,0.958l0,0c-0.193,0.058-0.392,0.034-0.559-0.048l0,0C53.256,46.63,53.108,46.465,53.044,46.251z
		 M35.879,37.431c-0.305-0.296-0.315-0.783-0.019-1.09l0,0c0.296-0.307,0.783-0.314,1.09-0.02l0,0
		c0.305,0.296,0.314,0.785,0.019,1.09l0,0c-0.239,0.249-0.604,0.301-0.896,0.155l0,0C36.004,37.532,35.938,37.487,35.879,37.431z
		 M2.753,20.337c-0.082-0.417,0.19-0.822,0.609-0.905l0,0c0.417-0.081,0.822,0.191,0.903,0.608l0,0
		c0.082,0.418-0.19,0.824-0.608,0.905l0,0c-0.173,0.033-0.342,0.008-0.489-0.064l0,0C2.961,20.777,2.801,20.582,2.753,20.337z
		 M21.594,28.674c-0.124-0.407,0.107-0.837,0.514-0.961l0,0c0.407-0.122,0.837,0.108,0.961,0.515l0,0
		c0.123,0.407-0.107,0.838-0.514,0.961l0,0c-0.196,0.061-0.395,0.036-0.565-0.046l0,0C21.805,29.051,21.657,28.886,21.594,28.674z
		 M55.979,45.312c-0.153-0.396,0.043-0.845,0.441-0.997l0,0c0,0,0,0,0.001,0.001l0,0c0.396-0.155,0.843,0.043,0.995,0.44l0,0
		c0.154,0.397-0.042,0.843-0.44,0.995l0,0c-0.209,0.083-0.432,0.065-0.62-0.026l0,0C56.188,45.644,56.051,45.5,55.979,45.312z
		 M2.212,17.274L2.212,17.274c-0.067-0.42,0.22-0.815,0.64-0.882l0,0c0.42-0.066,0.815,0.22,0.883,0.64l0,0
		c0.065,0.421-0.222,0.815-0.642,0.882l0,0c-0.164,0.027-0.324-0.001-0.462-0.07l0,0C2.415,17.737,2.253,17.529,2.212,17.274z
		 M37.951,35.149c-0.342-0.256-0.409-0.739-0.154-1.08l0,0c0.255-0.341,0.738-0.409,1.079-0.151l0,0
		c0.34,0.255,0.409,0.736,0.153,1.077l0,0c-0.227,0.301-0.631,0.389-0.958,0.228l0,0C38.03,35.203,37.989,35.179,37.951,35.149z
		 M21.055,25.451c-0.018-0.424,0.312-0.784,0.737-0.803l0,0c0.426-0.018,0.785,0.312,0.803,0.737l0,0
		c0.018,0.424-0.312,0.784-0.738,0.802l0,0c-0.133,0.008-0.262-0.022-0.374-0.079l0,0C21.24,25.989,21.067,25.742,21.055,25.451z
		 M58.828,44.136c-0.196-0.377-0.051-0.843,0.326-1.041l0,0c0.376-0.197,0.842-0.051,1.04,0.326l0,0
		c0.198,0.377,0.051,0.843-0.325,1.039l0,0c-0.228,0.12-0.486,0.114-0.7,0.008l0,0C59.028,44.399,58.907,44.285,58.828,44.136z
		 M1.78,14.192c-0.052-0.422,0.249-0.806,0.67-0.857l0,0c0.423-0.052,0.807,0.248,0.859,0.67l0,0
		c0.052,0.422-0.249,0.808-0.672,0.857l0,0c-0.154,0.021-0.304-0.007-0.434-0.072l0,0C1.978,14.678,1.812,14.461,1.78,14.192z
		 M39.726,32.628c-0.371-0.212-0.496-0.682-0.283-1.051l0,0c0.211-0.369,0.682-0.496,1.052-0.284l0,0
		c0.368,0.213,0.495,0.683,0.283,1.053l0,0c-0.204,0.354-0.646,0.485-1.009,0.307l0,0C39.754,32.646,39.74,32.637,39.726,32.628z
		 M21.278,22.215c0.074-0.42,0.474-0.699,0.894-0.625l0,0c0.419,0.075,0.698,0.474,0.624,0.894l0,0l0,0l0,0
		c-0.075,0.42-0.475,0.698-0.895,0.624l0,0c-0.073-0.013-0.143-0.036-0.206-0.067l0,0C21.396,22.893,21.216,22.561,21.278,22.215z
		 M61.512,42.619c-0.245-0.349-0.161-0.828,0.188-1.074l0,0c0.348-0.244,0.829-0.16,1.073,0.188l0,0
		c0.245,0.348,0.161,0.829-0.188,1.073l0,0c-0.239,0.169-0.54,0.18-0.785,0.06l0,0C61.688,42.81,61.588,42.728,61.512,42.619z
		 M61.265,41.203L61.265,41.203c-0.37-0.214-0.495-0.686-0.281-1.054l0,0c0.211-0.367,0.683-0.495,1.051-0.282l0,0l0,0l0,0
		c0.369,0.212,0.496,0.684,0.282,1.052l0,0c-0.204,0.354-0.646,0.485-1.007,0.307l0,0C61.295,41.219,61.279,41.211,61.265,41.203z
		 M63.712,41.581c0.153-0.397,0.598-0.596,0.996-0.443l0,0l0,0l0,0c0.397,0.153,0.595,0.598,0.442,0.997l0,0
		c-0.153,0.396-0.598,0.594-0.996,0.441l0,0c-0.022-0.01-0.044-0.018-0.066-0.029l0,0C63.735,42.372,63.568,41.954,63.712,41.581z
		 M1.458,11.096L1.458,11.096c-0.036-0.425,0.278-0.797,0.703-0.833l0,0c0.423-0.036,0.796,0.279,0.833,0.702l0,0
		c0.036,0.424-0.279,0.798-0.703,0.834l0,0c-0.146,0.012-0.285-0.017-0.407-0.076l0,0C1.65,11.607,1.481,11.375,1.458,11.096z
		 M58.631,39.343L58.631,39.343c-0.321-0.278-0.357-0.767-0.077-1.087l0,0c0.277-0.321,0.763-0.356,1.085-0.078l0,0
		c0.322,0.279,0.356,0.765,0.078,1.088l0,0c-0.234,0.269-0.616,0.338-0.924,0.186l0,0C58.737,39.422,58.683,39.386,58.631,39.343z
		 M66.626,42.583c0.096-0.414,0.509-0.673,0.925-0.575l0,0c0.415,0.096,0.672,0.51,0.577,0.923l0,0
		c-0.098,0.415-0.51,0.674-0.925,0.578l0,0c-0.061-0.015-0.116-0.035-0.169-0.062l0,0C66.722,43.293,66.544,42.938,66.626,42.583z
		 M40.773,28.903c0.167-0.392,0.619-0.574,1.012-0.408l0,0c0.391,0.167,0.574,0.621,0.408,1.011l-0.001-0.001
		c-0.166,0.393-0.619,0.576-1.01,0.409l0,0c-0.014-0.007-0.027-0.013-0.041-0.019l0,0C40.777,29.715,40.613,29.281,40.773,28.903z
		 M69.65,43.177c0.041-0.425,0.416-0.737,0.839-0.696l0,0c0.424,0.04,0.734,0.414,0.696,0.839l0,0
		c-0.04,0.424-0.415,0.735-0.839,0.697l0,0c-0.097-0.011-0.188-0.037-0.269-0.077l0,0C69.798,43.801,69.619,43.503,69.65,43.177z
		 M63.974,40.764c-0.292-0.309-0.274-0.798,0.036-1.09l0,0l0,0l0,0c0.312-0.288,0.798-0.272,1.089,0.039l0,0
		c0.291,0.311,0.275,0.798-0.037,1.088l0,0c-0.242,0.226-0.588,0.268-0.867,0.129l0,0C64.113,40.89,64.039,40.834,63.974,40.764z
		 M56.442,36.895c-0.233-0.355-0.135-0.834,0.221-1.068l0,0c0.356-0.233,0.833-0.133,1.068,0.221l0,0
		c0.233,0.356,0.135,0.835-0.221,1.068l0,0c-0.237,0.155-0.529,0.164-0.766,0.048l0,0C56.625,37.103,56.52,37.013,56.442,36.895z
		 M22.163,19.106L22.163,19.106c0.157-0.396,0.604-0.59,0.999-0.432l0,0c0.396,0.157,0.589,0.604,0.433,0.999l0,0
		c-0.156,0.396-0.604,0.59-1,0.434l0,0c-0.02-0.008-0.04-0.018-0.058-0.027l0,0C22.18,19.904,22.013,19.482,22.163,19.106z
		 M1.162,8.077c-0.064-0.42,0.227-0.813,0.646-0.876l0,0c0.421-0.064,0.814,0.226,0.878,0.648l0,0
		c0.062,0.419-0.227,0.812-0.648,0.875l0,0C1.876,8.749,1.719,8.721,1.582,8.653l0,0C1.365,8.545,1.201,8.336,1.162,8.077z
		 M72.725,43.362c-0.014-0.426,0.317-0.784,0.743-0.799l0,0c0.425-0.017,0.781,0.314,0.798,0.74l0,0
		c0.017,0.426-0.315,0.782-0.741,0.799l0,0c-0.132,0.006-0.26-0.023-0.37-0.078l0,0C72.91,43.903,72.738,43.654,72.725,43.362z
		 M55.241,33.712c-0.053-0.423,0.246-0.808,0.668-0.859l0,0c0.423-0.053,0.808,0.247,0.86,0.668l0,0
		c0.052,0.423-0.248,0.808-0.669,0.861l0,0c-0.154,0.02-0.306-0.009-0.436-0.073l0,0C55.439,34.197,55.274,33.979,55.241,33.712z
		 M41.776,26.087c0.118-0.406,0.546-0.643,0.956-0.523l0,0c0.409,0.117,0.642,0.545,0.524,0.954l0,0
		c-0.119,0.408-0.546,0.644-0.955,0.526l0,0c-0.045-0.014-0.087-0.03-0.127-0.051l0,0C41.845,26.831,41.67,26.452,41.776,26.087z
		 M75.801,43.147c-0.07-0.421,0.212-0.817,0.633-0.887l0,0l0,0l0,0c0.419-0.069,0.816,0.214,0.886,0.634l0,0
		c0.07,0.42-0.213,0.816-0.634,0.888l0,0c-0.166,0.027-0.327-0.002-0.467-0.07l0,0C76.004,43.604,75.843,43.401,75.801,43.147z
		 M66.142,38.574c-0.338-0.258-0.402-0.74-0.145-1.079l0,0c0.258-0.339,0.741-0.403,1.079-0.146l0,0
		c0.338,0.257,0.403,0.742,0.146,1.079l0,0c-0.228,0.3-0.63,0.385-0.954,0.225l0,0C66.224,38.633,66.182,38.606,66.142,38.574z
		 M23.87,17.302c-0.355-0.234-0.454-0.712-0.221-1.068l0,0c0.233-0.356,0.711-0.455,1.067-0.22l0,0
		c0.355,0.233,0.454,0.711,0.221,1.065l0,0c-0.215,0.33-0.642,0.439-0.985,0.271l0,0C23.924,17.335,23.898,17.318,23.87,17.302z
		 M0.549,5.144C0.44,4.732,0.685,4.31,1.097,4.201l0,0C1.508,4.092,1.93,4.337,2.039,4.749l0,0c0.108,0.412-0.136,0.834-0.548,0.942
		l0,0C1.304,5.74,1.114,5.715,0.953,5.636l0,0C0.76,5.542,0.609,5.366,0.549,5.144z M78.822,42.546
		c-0.122-0.408,0.11-0.837,0.52-0.958l0,0l0,0l0,0c0.409-0.121,0.835,0.11,0.958,0.52l0,0c0.12,0.408-0.112,0.837-0.521,0.958l0,0
		c-0.193,0.058-0.392,0.036-0.56-0.049l0,0C79.033,42.927,78.885,42.759,78.822,42.546z M55.527,30.339
		c0.126-0.406,0.559-0.632,0.966-0.505l0,0c0.406,0.127,0.632,0.559,0.505,0.965l0,0c-0.127,0.406-0.558,0.633-0.965,0.506l0,0
		c-0.04-0.012-0.077-0.028-0.112-0.046l0,0C55.587,31.095,55.412,30.707,55.527,30.339z M42.427,23.195
		c0.057-0.423,0.445-0.718,0.866-0.661l0,0c0.423,0.058,0.718,0.446,0.661,0.867l0,0c-0.057,0.422-0.444,0.718-0.866,0.66l0,0
		c-0.086-0.012-0.166-0.036-0.239-0.073l0,0C42.56,23.847,42.381,23.531,42.427,23.195z M67.491,35.016
		c0.174-0.39,0.629-0.564,1.018-0.393l0,0c0.39,0.173,0.565,0.629,0.392,1.019l0,0c-0.172,0.388-0.627,0.562-1.016,0.391l0,0
		c-0.01-0.006-0.02-0.01-0.03-0.015l0,0C67.486,35.836,67.324,35.396,67.491,35.016z M25.698,14.822
		c-0.294-0.308-0.282-0.796,0.026-1.09l0,0c0.309-0.293,0.796-0.282,1.09,0.027l0,0c0.293,0.308,0.281,0.795-0.027,1.088l0,0
		c-0.241,0.229-0.593,0.273-0.875,0.134l0,0C25.836,14.942,25.762,14.888,25.698,14.822z M81.746,41.58
		c-0.167-0.39,0.013-0.845,0.405-1.012l0,0l0,0l0,0c0.389-0.168,0.844,0.011,1.012,0.402l0,0c0.17,0.392-0.013,0.846-0.403,1.014
		l0,0c-0.216,0.091-0.45,0.079-0.646-0.019l0,0C81.956,41.888,81.822,41.755,81.746,41.58z M57.277,28.493
		c-0.309-0.293-0.323-0.78-0.03-1.091l0,0c0.292-0.308,0.781-0.322,1.088-0.028l0,0c0.309,0.292,0.323,0.779,0.03,1.087l0,0
		c-0.237,0.253-0.604,0.309-0.901,0.163l0,0C57.398,28.591,57.335,28.546,57.277,28.493z M42.364,20.374L42.364,20.374
		L42.364,20.374c-0.078-0.417,0.196-0.819,0.613-0.899l0,0c0.418-0.08,0.822,0.195,0.901,0.614l0,0
		c0.079,0.419-0.197,0.821-0.614,0.899l0,0c-0.171,0.032-0.339,0.006-0.484-0.065l0,0C42.571,20.818,42.41,20.622,42.364,20.374z
		 M28.059,12.837c-0.179-0.385-0.011-0.843,0.374-1.022l0,0c0.386-0.18,0.846-0.013,1.024,0.375l0,0
		c0.18,0.385,0.012,0.843-0.373,1.021l0,0c-0.221,0.104-0.466,0.093-0.667-0.007l0,0C28.264,13.129,28.137,13.003,28.059,12.837z
		 M68.169,32.325c0.017-0.426,0.376-0.758,0.802-0.739l0,0c0.424,0.018,0.756,0.377,0.737,0.801l0,0
		c-0.018,0.425-0.375,0.757-0.801,0.739l0,0c-0.111-0.004-0.217-0.032-0.31-0.079l0,0C68.333,32.917,68.157,32.639,68.169,32.325z
		 M41.391,17.734L41.391,17.734L41.391,17.734c-0.21-0.37-0.082-0.84,0.289-1.05l0,0c0.37-0.209,0.84-0.08,1.05,0.289l0,0
		c0.21,0.37,0.081,0.84-0.29,1.05l0,0c-0.23,0.132-0.501,0.129-0.722,0.021l0,0C41.585,17.977,41.47,17.873,41.391,17.734z
		 M59.633,26.515c-0.146-0.402,0.061-0.843,0.461-0.988l0,0c0.399-0.144,0.841,0.061,0.987,0.461l0,0
		c0.144,0.399-0.062,0.843-0.461,0.987l0,0l0,0l0,0c-0.207,0.075-0.423,0.056-0.604-0.033l0,0
		C59.843,26.855,59.702,26.707,59.633,26.515z M30.963,11.828c-0.028-0.425,0.294-0.792,0.72-0.818l0,0
		c0.425-0.026,0.791,0.295,0.817,0.72l0,0c0.028,0.423-0.294,0.791-0.719,0.818l0,0c-0.139,0.009-0.273-0.02-0.389-0.078l0,0
		C31.152,12.351,30.981,12.114,30.963,11.828z M67.586,29.766L67.586,29.766L67.586,29.766c-0.208-0.371-0.075-0.84,0.298-1.048l0,0
		c0.372-0.208,0.841-0.073,1.049,0.3l0,0c0.207,0.372,0.072,0.842-0.299,1.046l0,0c-0.23,0.131-0.498,0.126-0.718,0.019l0,0
		C67.782,30.015,67.665,29.909,67.586,29.766z M39.628,15.504c-0.309-0.293-0.323-0.781-0.031-1.09l0,0
		c0.293-0.31,0.781-0.322,1.091-0.03l0,0c0.309,0.292,0.321,0.78,0.029,1.089l0,0c-0.238,0.252-0.605,0.307-0.901,0.161l0,0
		C39.748,15.6,39.685,15.558,39.628,15.504z M34.042,11.875c0.099-0.415,0.513-0.671,0.927-0.572l0,0
		c0.414,0.099,0.671,0.515,0.572,0.928l0,0c-0.098,0.414-0.513,0.67-0.928,0.572l0,0c-0.058-0.015-0.114-0.034-0.165-0.059l0,0
		C34.134,12.588,33.958,12.23,34.042,11.875z M62.627,25.825c0.065-0.422,0.458-0.709,0.879-0.646l0,0
		c0.42,0.064,0.709,0.458,0.646,0.879l0,0c-0.065,0.42-0.458,0.709-0.878,0.646l0,0c-0.08-0.013-0.156-0.037-0.225-0.072l0,0
		C62.755,26.487,62.577,26.165,62.627,25.825z M37.297,13.827C37.297,13.827,37.297,13.827,37.297,13.827L37.297,13.827
		c-0.373-0.202-0.514-0.668-0.312-1.044l0,0c0.201-0.375,0.668-0.515,1.042-0.312l0,0c0.375,0.201,0.515,0.669,0.314,1.043l0,0
		c-0.198,0.367-0.649,0.509-1.021,0.325l0,0C37.313,13.835,37.306,13.831,37.297,13.827z M65.747,27.748
		c-0.343-0.252-0.418-0.734-0.166-1.077l0,0c0.251-0.344,0.733-0.418,1.077-0.166l0,0c0.342,0.251,0.417,0.732,0.166,1.076l0,0
		c-0.224,0.308-0.632,0.398-0.962,0.236l0,0C65.822,27.798,65.784,27.775,65.747,27.748z"/>
</g>
</svg>
