<?xml version="1.0" encoding="utf-8"?>
<!-- Generator: Adobe Illustrator 17.0.2, SVG Export Plug-In . SVG Version: 6.00 Build 0)  -->
<!DOCTYPE svg PUBLIC "-//W3C//DTD SVG 1.1//EN" "http://www.w3.org/Graphics/SVG/1.1/DTD/svg11.dtd">
<svg version="1.1" id="Layer_1" xmlns="http://www.w3.org/2000/svg" xmlns:xlink="http://www.w3.org/1999/xlink" x="0px" y="0px"
	 width="74px" height="12.132px" viewBox="-0.958 0.462 74 12.132" enable-background="new -0.958 0.462 74 12.132"
	 xml:space="preserve">
<path fill="#FFFFFF" d="M15.079,5.296c0.445-0.524,0.668-1.13,0.668-1.817c0-0.825-0.327-1.532-0.981-2.125
	c-0.653-0.592-1.444-0.889-2.372-0.889H-0.218c-0.419,0.092-0.734,0.46-0.74,0.905v2.119h13.294L1.384,6.616
	C0.707,6.825,0.148,7.192-0.295,7.721C-0.737,8.25-0.958,8.851-0.958,9.526c0,0.85,0.327,1.573,0.98,2.17
	c0.653,0.597,1.444,0.896,2.373,0.896h12.532c0.436-0.054,0.778-0.4,0.821-0.839V9.535H2.394L13.36,6.391
	C14.061,6.184,14.633,5.82,15.079,5.296z M32.358,0.463c-0.479,0.021-0.861,0.395-0.898,0.869l0.001,7.314
	c-0.021,0.503-0.44,0.899-0.948,0.899c-0.008,0-6.19,0.001-8.151,0.002c-0.488-0.022-0.879-0.412-0.9-0.901H21.46V0.463h-2.474
	v0.001c-0.43,0.019-0.784,0.323-0.878,0.727v8.356c0,0.843,0.327,1.561,0.98,2.155c0.653,0.594,1.445,0.891,2.373,0.891h10
	c0.927,0,1.719-0.297,2.372-0.891c0.654-0.593,0.981-1.312,0.981-2.155V0.462L32.358,0.463L32.358,0.463z M72.087,5.653
	c-0.187-0.174-0.4-0.319-0.64-0.423c-0.32-0.139-0.674-0.182-1.017-0.231V3.487c0-0.827-0.327-1.537-0.981-2.133
	c-0.654-0.594-1.436-0.892-2.345-0.892h-9.868v0.004c-0.488,0.021-0.878,0.41-0.901,0.898v11.229h13.353
	c0.927,0,1.719-0.298,2.373-0.895c0.653-0.596,0.981-1.317,0.981-2.165c0,0,0-1.51,0-1.512C73.041,7.16,72.728,6.25,72.087,5.653z
	 M59.704,3.487h4.145c0.004,0,0.008-0.002,0.013-0.002h2.451v0.002c0.008,0,0.016-0.002,0.023-0.002c0.432,0,0.781,0.341,0.8,0.768
	h0.004v0.466c0,0.155-0.138,0.282-0.309,0.282h-2.969c-0.004,0-0.007-0.002-0.012-0.002h-4.146
	C59.704,4.999,59.704,3.487,59.704,3.487z M69.675,9.256c0,0.155-0.139,0.281-0.309,0.281h-2.188c-0.003,0-0.007-0.002-0.01-0.002
	h-7.464V8.022c0,0,9.166,0,9.175,0c0.424,0,0.767,0.33,0.796,0.747V9.256z M52.95,1.354c-0.654-0.594-1.444-0.892-2.372-0.892
	H38.114c-0.487,0.028-0.874,0.42-0.889,0.912v11.219h2.536c0.424-0.052,0.76-0.381,0.816-0.805V8.042l9.08,0.002
	c0.512,0,0.93,0.378,0.93,0.844v2.919c0,0.028-0.006,0.057-0.009,0.084v0.704h2.394l0,0h0.08c0.474-0.03,0.848-0.406,0.879-0.878
	V9.545c0-0.895-0.379-1.653-1.137-2.273c0.757-0.603,1.137-1.36,1.137-2.274V3.487C53.929,2.66,53.603,1.949,52.95,1.354z
	 M50.579,4.716c0,0.155-0.138,0.282-0.309,0.282h-1.258v0.001h-8.435V3.487l9.18,0.005v0.003c0.008,0,0.016-0.002,0.023-0.002
	c0.429,0,0.775,0.337,0.799,0.76C50.579,4.253,50.579,4.716,50.579,4.716z"/>
</svg>
