<?xml version="1.0" encoding="UTF-8"?>
<svg width="24px" height="18px" viewBox="0 0 24 18" version="1.1" xmlns="http://www.w3.org/2000/svg" xmlns:xlink="http://www.w3.org/1999/xlink">
    <!-- Generator: Sketch 44.1 (41455) - http://www.bohemiancoding.com/sketch -->
    <title>Page-1</title>
    <desc>Created with Sketch.</desc>
    <defs></defs>
    <g id="Page-2" stroke="none" stroke-width="1" fill="none" fill-rule="evenodd">
        <path d="M0,15.374731 L0,2.62610829 C0.0187479746,2.57642646 0.034683453,2.52486803 0.0468693365,2.473312 C0.294330602,1.06159251 1.52326184,0.00517864053 2.95847479,0.00421874423 C8.98494373,-0.00140624808 15.0116526,-0.00140624808 21.0390815,0.00421874423 C22.4058058,0.00421874423 23.588806,0.964115043 23.9103713,2.29145965 C23.9375555,2.40394749 23.9703648,2.51456114 23.9984874,2.62610349 L23.9975515,15.3747262 C23.9806765,15.4084714 23.9666164,15.4440931 23.9563047,15.4797149 C23.7332032,16.7245804 22.8679743,17.6826049 21.6390671,17.913292 C21.0635132,18.022029 20.4588746,17.9948448 19.8673865,17.9957831 C14.2551128,18.0014056 8.64211916,18.0014056 3.02888558,17.9957831 C1.64903393,17.9957831 0.490438856,17.1230693 0.115359545,15.821018 C0.0731769025,15.6766592 0.0384934494,15.524794 5.92052759e-05,15.3748102 L0,15.374731 Z M8.16463795,8.78096336 C7.78967846,9.15124336 7.43533274,9.50088559 7.08662641,9.85523131 L3.26767898,13.6629 C3.03707829,13.891624 2.93022744,14.1522311 3.02770491,14.4671971 C3.20112457,15.0399432 3.87135776,15.1777363 4.32130915,14.7315525 C5.9092656,13.1511072 7.49352645,11.5660545 9.07663542,9.97718613 C9.13475474,9.90875512 9.18818497,9.83470152 9.23505671,9.75783543 C9.36629373,9.87782247 9.45347151,9.95281436 9.5387679,10.0296781 L11.4473057,11.7638747 C11.8100745,12.0919673 12.1887776,12.0882237 12.5534422,11.759188 C13.2133709,11.1620605 13.8732996,10.5630612 14.5332283,9.96406195 C14.5932218,9.90781683 14.6597763,9.8525124 14.7338323,9.78408139 C15.3309597,10.3821448 15.9149607,10.9689534 16.4980257,11.5538902 L19.6776822,14.7335467 C19.8932845,14.9500849 20.1398242,15.0513204 20.4407277,14.9707083 C21.0237927,14.8132253 21.1906467,14.1345426 20.7491424,13.6902306 C19.6870651,12.6206661 18.6212443,11.5539094 17.5526877,10.4918561 C16.9846211,9.9237895 16.4128109,9.35759467 15.8353853,8.78016905 C15.9103771,8.70892555 15.9722449,8.64987033 16.0350509,8.5926893 L18.356992,6.48353316 L20.7323514,4.32376649 C20.9610755,4.11566337 21.0519969,3.86068852 20.9760691,3.56352862 L20.9760691,3.56259032 C20.9170139,3.29449129 20.7089059,3.08357807 20.4417428,3.02264865 C20.1417752,2.94297006 19.8989934,3.05264541 19.6749536,3.25699774 C17.1823429,5.52736846 14.6861326,7.79682728 12.1860827,10.0633824 C12.1260892,10.1196251 12.061409,10.1721195 11.9948522,10.2302388 L8.4223581,6.98506938 C7.04718667,5.73926797 5.67201523,4.49053887 4.29600389,3.24099386 C4.07852738,3.04320243 3.83666951,2.94851346 3.5460849,3.02914235 L3.54514661,3.03008065 C3.28079117,3.09382256 3.07458144,3.30285918 3.01552382,3.57002232 C2.94334442,3.86998991 3.03895969,4.12215467 3.26768858,4.32932429 C4.25103035,5.22077998 5.23434812,6.11413147 6.21577009,7.00839486 L8.16463795,8.78096336 Z" id="Page-1" fill="#FEFEFE" fill-rule="nonzero"></path>
    </g>
</svg>