<svg id="Icons" xmlns="http://www.w3.org/2000/svg" viewBox="0 0 64 64">
  <defs>
    <style>
      .cls-1 {
        fill: #004880;
      }

      .cls-2 {
        fill: #fff;
      }
    </style>
  </defs>
  <title>logo_nuget</title>
  <path class="cls-1" d="M48.86,64H28.14A15.24,15.24,0,0,1,13,48.7V28.3A15.24,15.24,0,0,1,28.14,13H48.86A15.24,15.24,0,0,1,64,28.3V48.7A15.24,15.24,0,0,1,48.86,64Z"/>
  <g>
    <path class="cls-2" d="M57.9,47.83A10.72,10.72,0,1,1,47.18,37.07,10.77,10.77,0,0,1,57.9,47.83Z"/>
    <path class="cls-2" d="M25.95,20.65a6.72,6.72,0,1,1-6.76,6.71A6.73,6.73,0,0,1,25.95,20.65Z"/>
  </g>
  <path class="cls-1" d="M0,6.5A5.5,5.5,0,1,0,5.5,1,5.5,5.5,0,0,0,0,6.5"/>
</svg>