<?xml version="1.0" encoding="UTF-8"?>
<svg width="24px" height="20px" viewBox="0 0 24 20" version="1.1" xmlns="http://www.w3.org/2000/svg" xmlns:xlink="http://www.w3.org/1999/xlink">
    <!-- Generator: Sketch 44.1 (41455) - http://www.bohemiancoding.com/sketch -->
    <title>Shape</title>
    <desc>Created with Sketch.</desc>
    <defs></defs>
    <g id="Page-2" stroke="none" stroke-width="1" fill="none" fill-rule="evenodd">
        <path d="M24,2.6 C23.1,3 22.2,3.3 21.2,3.4 C22.2,2.8 23,1.8 23.4,0.7 C22.4,1.3 21.4,1.7 20.3,1.9 C19.4,0.9 18.1,0.3 16.7,0.3 C13.5,0.3 11.2,3.3 11.9,6.3 C7.7,6.1 4.1,4.1 1.7,1.1 C0.4,3.4 1,6.3 3.2,7.7 C2.4,7.7 1.6,7.5 1,7.1 C0.9,9.4 2.6,11.5 4.9,12 C4.2,12.2 3.4,12.2 2.7,12.1 C3.3,14.1 5.1,15.5 7.3,15.5 C5.2,17.1 2.6,17.8 0,17.5 C2.2,18.9 4.8,19.7 7.5,19.7 C16.6,19.7 21.8,12 21.5,5.1 C22.5,4.4 23.3,3.5 24,2.6 Z" id="Shape" fill="#FEFEFE" fill-rule="nonzero"></path>
    </g>
</svg>