<?xml version="1.0" encoding="UTF-8"?>
<svg width="25px" height="25px" viewBox="0 0 25 25" version="1.1" xmlns="http://www.w3.org/2000/svg" xmlns:xlink="http://www.w3.org/1999/xlink">
    <!-- Generator: Sketch 43.2 (39069) - http://www.bohemiancoding.com/sketch -->
    <title>Page 1 Copy 2</title>
    <desc>Created with Sketch.</desc>
    <defs></defs>
    <g id="Page-1" stroke="none" stroke-width="1" fill="none" fill-rule="evenodd">
        <g id="sub-page-copy-6" transform="translate(-366.000000, -1496.000000)" fill="#0978BC">
            <path d="M375.375,1513.70833 L375.375,1503.29167 L384.75,1508.65208 L375.375,1513.70833 Z M378.5,1496 C371.596875,1496 366,1501.59687 366,1508.5 C366,1515.40313 371.596875,1521 378.5,1521 C385.403125,1521 391,1515.40313 391,1508.5 C391,1501.59687 385.403125,1496 378.5,1496 L378.5,1496 Z M378.5,1498.08333 C384.24375,1498.08333 388.916667,1502.75625 388.916667,1508.5 C388.916667,1514.24375 384.24375,1518.91667 378.5,1518.91667 C372.75625,1518.91667 368.083333,1514.24375 368.083333,1508.5 C368.083333,1502.75625 372.75625,1498.08333 378.5,1498.08333 L378.5,1498.08333 Z" id="Page-1-Copy-2"></path>
        </g>
    </g>
</svg>