<?xml version="1.0" standalone="no"?>
<!DOCTYPE svg PUBLIC "-//W3C//DTD SVG 1.1//EN" "http://www.w3.org/Graphics/SVG/1.1/DTD/svg11.dtd" >
<svg xmlns="http://www.w3.org/2000/svg">
<metadata>
This is a custom SVG webfont generated by Font Squirrel.
Designer    : Blah
Foundry     : PYRS Fontlab Ltd  Made with FontLab
</metadata>
<defs>
<font id="FoundationIconsSocialRegular" horiz-adv-x="2048" >
<font-face units-per-em="2048" ascent="1706" descent="-342" />
<missing-glyph horiz-adv-x="512" />
<glyph unicode=" "  horiz-adv-x="512" />
<glyph unicode="&#x09;" horiz-adv-x="512" />
<glyph unicode="&#xa0;" horiz-adv-x="512" />
<glyph unicode="A" d="M197 1090q-1 9 -2 16q0 30 18 51q10 16 27.5 23.5t35.5 7.5h410q-8 66 -17.5 113t-17.5 81q-4 18 -3 35q0 30 11 59q18 44 47 78.5t59 58t42 32.5q19 14 44 13q12 0 26 -3q35 -12 51 -49l186 -418h189q35 0 58 -23.5t23 -58.5v-827q0 -35 -23.5 -58.5t-57.5 -23.5h-758 q-14 0 -47 8t-69 28.5t-69.5 55.5t-48.5 90zM1485 233v914q0 25 17.5 41t41.5 16h240q25 0 42 -16.5t17 -40.5v-914q0 -23 -17.5 -40t-41.5 -17h-240q-25 0 -42 17t-17 40z" />
<glyph unicode="B" d="M188 238v913q0 25 17.5 41t42.5 16h239q25 0 42.5 -16t17.5 -41v-913q0 -23 -17.5 -40.5t-42.5 -17.5h-239q-25 0 -42.5 17.5t-17.5 40.5zM647 279v827q0 35 23.5 58.5t58.5 23.5h758q14 0 47 -8.5t68.5 -29t68.5 -55t49 -87.5l115 -713q1 -9 1 -17q0 -30 -17 -51 q-23 -31 -64 -30h-409q8 -66 17 -113t17 -82q4 -18 4 -34q0 -30 -12 -59q-18 -44 -47 -79t-58.5 -58.5t-41.5 -31.5q-22 -14 -46 -14q-12 0 -24 4q-35 12 -51 49l-186 418h-189q-35 0 -58.5 23.5t-23.5 58.5z" />
<glyph unicode="C" d="M88 766q0 74 52.5 126t125.5 52q211 0 396.5 -81t323.5 -219t219 -323.5t81 -396.5q0 -74 -52 -126t-126 -52t-126 52t-52 126q0 137 -52.5 258t-142.5 211t-211 142.5t-258 52.5q-74 0 -126 52t-52 126zM88 1440q0 74 52.5 126t125.5 52q233 0 449.5 -60.5t405 -171 t343 -265t265 -343t171 -404.5t60.5 -450q0 -74 -52.5 -126t-125.5 -52q-74 0 -126 52t-52 126q0 184 -48.5 355.5t-135.5 320t-208.5 270t-270 208.5t-319.5 135.5t-356 48.5q-74 0 -126 52t-52 126zM94 8q0 51 19.5 97.5t53.5 80t79 53t98 19.5q51 0 97 -19.5t80 -53 t53.5 -80t19.5 -97.5q0 -53 -19.5 -98t-53.5 -79t-80 -53.5t-97 -19.5q-53 0 -98 19.5t-79 53.5t-53.5 79t-19.5 98z" />
<glyph unicode="D" d="M63 -240v1844q0 20 14.5 33.5t35.5 13.5h1822q20 0 35 -13.5t15 -33.5v-1844q0 -20 -14.5 -33.5t-35.5 -13.5h-1822q-20 0 -35 13.5t-15 33.5zM969 623h176v-684h254v684h250l10 245h-260v181q0 51 17 80q16 28 75 28h8h154l6 229q-29 4 -58.5 5.5t-54.5 3.5q-29 2 -57 2 q-17 1 -34 1q-69 0 -121 -21q-65 -26 -106.5 -71.5t-62 -105t-20.5 -121.5v-211h-176v-245z" />
<glyph unicode="E" d="M57 399q70 -68 162 -102q90 -34 184 -34h6q97 1 192 39t173 118q-13 -2 -25 -2q-30 0 -56 11q-36 15 -50 42t1 57.5t71 55.5q-20 -2 -38 -3q-27 0 -51 6q-40 9 -69 27.5t-49.5 41t-30.5 44.5q23 25 52.5 37.5t78.5 16.5q-109 25 -155.5 76t-59.5 116q29 6 62.5 11.5 t56.5 3.5q-96 49 -133 116q-33 61 -33 114v11q172 -63 289 -115.5t207 -101.5q33 -18 69.5 -48t77.5 -71q25 70 54.5 137.5t66.5 129t81 113.5t99 87q-2 -16 -10 -30.5t-18 -26.5q66 61 151 72q-2 -16 -13 -27.5t-26.5 -21t-32 -16.5t-30.5 -13q10 2 38.5 14t59.5 21.5 t57.5 12.5t32.5 -11q6 -16 -8 -27.5t-36.5 -20t-45.5 -14.5t-31 -8q-20 -6 -45 -16q15 1 30 1q54 0 105 -18q66 -23 120 -66.5t95 -105t60 -131.5q4 -10 6 -21.5t4 -23.5q25 -10 58.5 -10t66.5 4t61.5 12t42.5 19q-23 -49 -76 -84t-134 -41q39 -16 103 -24q30 -3 57 -3 q31 0 59 4q-33 -35 -87 -61q-50 -25 -132 -25h-13q-39 -160 -146.5 -287t-256 -208.5t-324.5 -116.5q-100 -20 -199 -20l-153 12q-176 27 -339 116.5t-284 255.5z" />
<glyph unicode="F" d="M76 682q0 197 74.5 370t202.5 301t301 202.5t370 74.5t370 -74.5t301 -202.5t202.5 -301t74.5 -370t-74.5 -370t-202.5 -301t-301 -202.5t-370 -74.5q-72 0 -138.5 10t-129.5 29q27 43 53.5 95t40.5 107q4 14 12 50q8 29 20.5 79t35.5 132q25 -47 89 -82t142 -35 q115 0 209 49t161.5 136t104.5 206t37 258q0 104 -43 202.5t-121 174.5t-189.5 121t-246.5 45q-170 0 -297 -54.5t-211 -140.5t-127 -191.5t-43 -205.5q0 -123 47 -222.5t148 -140.5q16 -6 29.5 0t17.5 25q4 12 9 36.5t9 39.5q4 18 2 27.5t-14 25.5q-29 35 -46.5 79 t-17.5 107q0 90 33 172t93.5 144.5t146.5 99.5t194 37q94 0 168 -27.5t125 -76t77 -115t26 -144.5q0 -102 -22 -194t-61.5 -161t-95 -108.5t-123.5 -39.5q-37 0 -68.5 14t-52 38.5t-29.5 58.5q-4 16 -4 33q0 19 5 38q10 45 24.5 91t27.5 89t22.5 83t9.5 73q0 59 -32 101 t-97 42q-37 0 -71 -18.5t-58.5 -52t-38.5 -78.5t-14 -97q0 -27 4 -53q4 -23 9 -48.5t17 -47.5q-41 -166 -63.5 -267.5t-36.5 -156.5q-16 -66 -23 -94q-12 -53 -15 -111q-2 -34 -2 -66q0 -21 1 -40q-125 55 -229.5 143t-179 200.5t-116.5 246t-42 278.5z" />
<glyph unicode="G" d="M63 -240v1844q0 20 14.5 33.5t35.5 13.5h1822q20 0 35 -13.5t15 -33.5v-1844q0 -20 -14.5 -33.5t-35.5 -13.5h-1822q-20 0 -35 13.5t-15 33.5zM373 1124q0 -59 41 -102t112 -43h2q74 0 117 43t41 102q0 61 -42 103.5t-114 42.5t-114.5 -42.5t-42.5 -103.5zM389 23h279 v841h-279v-841zM823 23h279v471q0 18 2 35.5t8 31.5q16 37 50 70t93 33q76 0 109 -52.5t33 -138.5v-450h278v483q0 96 -24.5 167.5t-67.5 119t-101.5 70t-127.5 22.5q-55 0 -96 -13.5t-71 -35t-50.5 -46t-34.5 -45.5v119h-279q2 -35 2 -135v-254q0 -167 -2 -452z" />
<glyph unicode="H" d="M80 682q0 195 74.5 367t202.5 300t300 202.5t367 74.5t367 -74.5t300 -202.5t202.5 -300t74.5 -367t-74.5 -367t-202.5 -300t-300 -202.5t-367 -74.5t-367 74.5t-300 202.5t-202.5 300t-74.5 367zM217 680q0 -156 55.5 -293t151.5 -246q6 12 51 78t128 150t202 169 t276 136q8 4 15.5 5t15.5 5q-16 35 -32.5 67.5t-32.5 67.5q-152 -45 -295.5 -68.5t-257 -33.5t-188.5 -11t-89 -1v-25zM236 846q12 0 77.5 1t166 10t230.5 29.5t271 57.5q-51 88 -101.5 168t-91 142.5t-69.5 103.5t-37 53q-172 -80 -289.5 -228.5t-156.5 -336.5zM528 45 q104 -80 229.5 -125t266.5 -45q166 0 315 64q-4 27 -16 84t-32.5 138t-50.5 180t-73 210q-2 -2 -6 -2q-170 -59 -288.5 -142t-193.5 -160t-110 -134.5t-41 -67.5zM836 1464q8 -10 37.5 -51t71.5 -104.5t92 -144.5t100 -171q106 39 184 87t129 91t76.5 74t32.5 39 q-109 96 -245 149.5t-290 53.5q-94 0 -188 -23zM1198 872q14 -29 27.5 -58.5t25.5 -57.5q4 -10 9.5 -20.5t9.5 -20.5q86 11 169 10h27q96 -2 174 -9t129.5 -16.5t61.5 -11.5q-2 143 -49 270t-133 232q-6 -8 -36 -42t-84 -80t-136 -98.5t-195 -97.5zM1317 588 q39 -109 67.5 -206t48 -173t28.5 -127t14 -70q135 92 226 231.5t120 309.5q-10 2 -55.5 14.5t-113 21.5t-154.5 11h-22q-77 1 -159 -12z" />
<glyph unicode="I" d="M70 682q0 197 74.5 371t204.5 304t304 204.5t371 74.5q150 0 285 -44t252 -122v-915q0 -47 -34 -81t-81 -34t-82 34t-35 81v274q0 82 -19.5 141.5t-53 97.5t-81 55.5t-100.5 17.5h-469q-63 0 -119.5 -19.5t-99.5 -56.5t-67.5 -89t-24.5 -116q0 -33 8 -71.5t31.5 -73.5 t65.5 -62.5t110 -40.5q55 -10 93 -15t62.5 -13.5t36 -23.5t11.5 -44t-15.5 -44t-41 -22.5t-61.5 -8.5t-79 -1h-416q-14 59 -22 119t-8 123zM174 248h416q150 0 243 74.5t93 203.5q0 90 -31 141.5t-77 79t-100 38t-100.5 18.5t-77 20.5t-30.5 44.5q0 47 36 65.5t103 18.5h152 h137q31 0 62.5 -4t56 -14t41 -29.5t16.5 -52.5v-289q0 -78 27.5 -137t74 -99t106.5 -59.5t124 -19.5q63 0 123.5 19.5t106.5 59.5t74 99t28 137v705q94 -123 147 -271.5t53 -314.5q0 -197 -74.5 -371t-204.5 -304t-304 -204.5t-371 -74.5q-139 0 -267 37.5t-237.5 106.5 t-198 165t-147.5 211z" />
<glyph unicode="J" d="M63 -240v1844q0 20 14.5 33.5t35.5 13.5h1822q20 0 35 -13.5t15 -33.5v-1844q0 -20 -14.5 -33.5t-35.5 -13.5h-1822q-20 0 -35 13.5t-15 33.5zM369 35q0 -14 14 -15h426q14 0 55 6.5t88 28.5q43 20 84 71.5t41 147.5v20q0 17 -4 44t-15 55.5t-34 50.5q-25 25 -55 37 q29 16 54.5 50t25.5 100q0 106 -64.5 168.5t-179.5 62.5h-422q-14 0 -14 -14v-813zM575 197v190h224q2 0 14 -2t25.5 -11t23.5 -28.5t10 -56.5q0 -59 -28.5 -75.5t-57.5 -16.5h-211zM575 539v155h193h31l7 -1q7 -1 15 -8t15.5 -21.5t7.5 -40.5q0 -29 -5 -46.5t-13.5 -25.5 t-18.5 -10t-23 -2h-209zM1081 304q0 -24 7.5 -58.5t23.5 -74.5t51 -75q82 -92 244 -92h12q18 0 64.5 4t94.5 27.5t85 70t37 127.5q0 14 -14 15h-142q-6 0 -10 -4q-4 -8 -4 -11q0 -2 -2 -14t-17 -29q-31 -31 -100 -30h-4q-8 0 -28.5 3t-43.5 15q-49 29 -51 96h408q12 0 12 13 q0 2 2 30q1 10 1 21q0 22 -3 50q-4 42 -20.5 89t-53.5 88q-78 90 -221 90q-63 0 -111.5 -15t-82 -38.5t-56 -53.5t-37.5 -56q-14 -31 -22 -60t-12.5 -51.5t-5.5 -36.5l-1 -14v-26zM1221 700q0 -14 12 -14h336q14 0 14 14v101q0 12 -14 12h-336q-12 0 -12 -12v-101zM1280 414 q2 12 10 28.5t22.5 31.5t37 26.5t55.5 11.5q49 0 78 -29q16 -16 22 -35.5t11 -33.5h-236z" />
<glyph unicode="K" d="M49 705q0 45 17.5 85.5t48 71.5t70.5 48.5t87 17.5q86 0 148 -56q-29 -18 -60 -41q-43 27 -88 27q-63 0 -108 -45t-45 -108q0 -68 53 -117q-6 -16 -11 -34.5t-9 -37.5q-47 31 -75 80.5t-28 108.5zM119 705q0 63 45 108t108 45q45 0 88 -27q-135 -104 -188 -243 q-53 49 -53 117zM145 446q0 18 2.5 36t4.5 34q4 -4 12 -8l35 61q-8 4 -14.5 9.5t-12.5 9.5q53 139 188 243q6 -4 11.5 -9t11.5 -9l49 49q-8 8 -12 10q115 72 262 115t315 47l-2 -6q-6 -14 2 -29q-170 -4 -318.5 -48t-259 -118.5t-175 -174t-64.5 -212.5q0 -115 66.5 -215 t180.5 -175.5t267.5 -118.5t327.5 -43t327.5 43t267.5 118.5t180.5 176t66.5 214.5q0 113 -63.5 211.5t-172 173t-256 119.5t-315.5 49l4 5l10 30q162 -6 303.5 -49t251.5 -113q-2 -4 -4 -5t-6 -5l49 -49q8 8 21 16q137 -106 186 -243q-10 -10 -23 -17l35 -61q2 2 4 3t4 3 q6 -35 6 -68q0 -121 -68.5 -228t-188 -187t-279.5 -126t-340 -46q-182 0 -341 46t-278.5 126t-188.5 187t-69 228zM152 516q4 18 9 36.5t11 35.5q6 -4 12 -9.5t15 -9.5l-35 -61q-8 4 -12 8zM180 446q0 113 64.5 212.5t175 174t259 118.5t318.5 48q6 -14 19 -16q4 -2 12 -2 q18 0 29 18q168 -4 315.5 -49t256 -119.5t172 -173t63.5 -211.5q0 -115 -66.5 -215t-180.5 -175.5t-267.5 -118.5t-327.5 -43t-327.5 43t-267.5 118.5t-180.5 175.5t-66.5 215zM217 446q0 -106 63.5 -200t172 -164t256 -111t313.5 -41t313.5 41t257 111t173 164t63.5 200 t-63.5 201.5t-173 165.5t-257 111t-313.5 41t-313.5 -41t-256 -111t-172 -165.5t-63.5 -201.5zM360 831q31 23 60 41q4 -2 12 -10l-49 -49q-6 4 -11.5 9t-11.5 9zM606 551q0 57 40 97t97 40t98.5 -40t41.5 -97t-41 -97t-99 -40q-57 0 -97 40t-40 97zM707 229q10 10 24 8.5 t25 -12.5l15 -13q15 -13 47 -28.5t81 -28t121 -12.5t124 13.5t86 29t50 28.5l16 13q10 10 25.5 10.5t26.5 -10.5q10 -10 10 -24.5t-10 -24.5q-2 -2 -21.5 -18.5t-59.5 -36t-101.5 -35.5t-145.5 -16t-143.5 16t-98.5 35.5t-56 36t-20 18.5q-9 11 -9 24q1 16 14 27zM995 1028 l2 6h25h49l-10 -30l-4 -5h-35h-25q-5 8 -4 17q-1 6 2 12zM997 999h25h35q-10 -18 -29 -18q-8 0 -12 2q-13 2 -19 16zM997 1034l158 447l377 -90q-12 -35 -12 -70l-320 76l-129 -363h-49h-25zM1182 551q0 57 40 97t99 40q57 0 97 -40t40 -97t-40 -97t-97 -40q-59 0 -99 40 t-40 97zM1520 1321q0 35 12 70l14 -5q14 -4 22.5 -15t4.5 -25q-4 -16 -16.5 -23.5t-26.5 -3.5zM1520 1321l10 -2q14 -4 26.5 3t16.5 24q4 14 -4 25t-23 15l-14 5q23 51 68 82.5t102 31.5q78 0 131 -53t53 -131q0 -76 -53 -129t-131 -53q-76 0 -129 53t-53 129zM1589 1321 q0 -47 33 -80t80 -33t80 33t33 80t-33 80t-80 33t-80 -33t-33 -80zM1589 1321q0 47 33 80t80 33t80 -33t33 -80t-33 -80t-80 -33t-80 33t-33 80zM1616 862q4 4 6 5t4 5q16 -10 30.5 -21t29.5 -22q-12 -8 -21 -16zM1626 872q66 55 148 56q47 0 88 -17.5t71.5 -48.5t48 -71.5 t17.5 -85.5q0 -59 -28.5 -109.5t-78.5 -81.5l-8 37q-4 18 -12 35q27 23 42 53.5t15 65.5q0 63 -45 108t-110 45q-47 0 -88 -29q-14 10 -29 21.5t-31 21.5zM1686 829q41 29 88 29q66 0 110.5 -45t44.5 -108q0 -35 -15.5 -66t-41.5 -53q-49 137 -186 243zM1849 569q12 6 23 17 q8 -16 12 -35l8 -37q-2 -2 -4 -3t-4 -3z" />
<glyph unicode="L" d="M72 -39q45 53 100 82t84 39q43 14 91 23.5t90 13.5t73 6t41 2h34q13 0 29 -4q80 -57 146.5 -102.5t116 -87.5t77 -86t27.5 -97q0 -10 -1 -17t-3 -14h-856q-20 0 -34.5 14.5t-14.5 35.5v192zM72 119v487q57 -45 133 -75.5t170 -30.5q41 0 88 6q-10 -27 -18.5 -50.5 t-8.5 -60.5q0 -66 28 -108.5t56 -81.5q-41 -2 -97 -2t-118.5 -7.5t-123 -23.5t-109.5 -53zM72 1303v307q0 20 14 34.5t35 14.5h1823q20 0 34.5 -14.5t14.5 -34.5v-492h-355v357h-153v-357h-355v-147h355v-359h153v359h355v-1202q0 -20 -14.5 -35t-34.5 -15h-803 q16 55 16 119q0 72 -26.5 132.5t-68.5 111.5t-92 94t-98 80l-100 78q-25 18 -49.5 46t-24.5 75t26 78.5t52 58.5q45 35 86 72.5t73 85t50.5 105.5t18.5 136q0 72 -17.5 128.5t-43 99.5t-55.5 74.5t-54 54.5h170l157 127h-592q-55 0 -114.5 -6.5t-121 -22.5t-124 -48 t-121.5 -81q-4 -4 -8 -7t-8 -7zM176 1079q0 53 9.5 107.5t45.5 99.5q35 41 88.5 66.5t106.5 25.5q88 0 153.5 -52t109.5 -130t65.5 -168t21.5 -166q0 -31 -16.5 -82t-57.5 -98q-35 -41 -85 -55.5t-103 -14.5q-90 0 -153.5 46.5t-104.5 117t-60.5 151t-19.5 152.5z" />
<glyph unicode="M" d="M63 4v1364q0 20 14.5 33.5t35.5 13.5h1822q20 0 35 -13t15 -34v-1364q0 -20 -14.5 -33.5t-35.5 -13.5h-1822q-20 0 -35 13.5t-15 33.5zM748 260l671 422l-671 422v-844z" />
<glyph unicode="N" d="M63 -240v1844q0 20 14.5 33.5t35.5 13.5h1822q20 0 35 -13.5t15 -33.5v-1844q0 -20 -14.5 -33.5t-35.5 -13.5h-1822q-20 0 -35 13.5t-15 33.5zM311 874q10 -10 17 -22q8 -10 15 -19.5t22 -11.5q25 -4 49 4.5t47.5 14.5t44 2t37.5 -33q10 -16 16 -33q-2 2 -2 4q0 -2 2 -4 q12 -29 19.5 -58.5t17.5 -58.5q18 -51 32.5 -104t28.5 -113q16 -63 36 -139t55 -137q18 -35 41.5 -59.5t54.5 -36.5q19 -9 42 -10h5q27 1 52.5 7.5t49 15.5t39.5 19q90 53 160 126t129 151q70 92 123 186t90 177t57.5 146.5t26.5 92.5q5 28 5 54q0 34 -9 63q-4 10 -8 19 t-13 20q-18 23 -43.5 35t-55.5 17q-25 4 -50 4h-10q-31 -1 -58 -5q-20 -4 -62 -21.5t-89 -53.5t-91 -89t-69 -129h29q13 1 24 1q37 0 63 -10q34 -13 44 -55q-8 14 -35 25q27 -10 35 -25q5 -15 5 -41q0 -13 -1 -30q-4 -41 -21.5 -83t-40.5 -83q-12 -25 -30.5 -55.5t-41 -51 t-51.5 -23.5h-4q-26 0 -55 32q-6 6 -12 14l-12 16q-18 33 -28.5 72t-17 81t-9.5 82t-9 75q-8 43 -16.5 94t-22.5 96l-4 12l-4 13q-16 35 -40 63.5t-52 38.5q-18 5 -36 5q-20 0 -42 -6q-41 -11 -68 -28q-86 -51 -156.5 -116.5t-144.5 -124.5v-9z" />
<glyph unicode="O" d="M63 -240v1844q0 20 14.5 33.5t35.5 13.5h1822q20 0 35 -13.5t15 -33.5v-1844q0 -20 -14.5 -33.5t-35.5 -13.5h-1822q-20 0 -35 13.5t-15 33.5zM264 682q0 -76 29 -142.5t78 -115.5t115.5 -78t142.5 -29t142.5 29t115.5 78t77.5 115.5t28.5 142.5t-28.5 142.5t-77.5 115.5 t-115.5 78t-142.5 29t-142.5 -29t-115.5 -78t-78 -115.5t-29 -142.5zM1055 682q0 -76 28.5 -142.5t77.5 -115.5t115.5 -78t142.5 -29t142.5 29t115.5 78t78 115.5t29 142.5t-29 142.5t-78 115.5t-115.5 78t-142.5 29t-142.5 -29t-115.5 -78t-77.5 -115.5t-28.5 -142.5z" />
<glyph unicode="P" d="M70 713q0 8 8 14q18 14 59 0q10 -4 23 -12q14 -10 36.5 -25.5t63.5 -38.5q14 -6 29.5 -14t32.5 -19q10 -4 18 -8t18 -8q33 -16 70 -29q31 -10 70 -21t77 -17h365q10 0 22.5 -10.5t28 -26t31.5 -34t37 -32.5l20 -12q10 -6 23 -10q52 -18 93 -18q25 0 45 6q54 17 79 53 q29 41 48 60t50 7q16 -6 17.5 -25.5t-8 -45t-26 -52t-34.5 -47.5q-41 -39 -89 -66.5t-114 -27.5q-61 0 -104 12q-12 2 -25 6q-10 4 -22.5 7.5t-22.5 7.5v-406q0 -41 -19.5 -70.5t-48 -51t-62.5 -32t-62 -10.5q-29 0 -71 10.5t-85 36t-84 70.5t-70 115q-20 57 -28 125 q-4 36 -4 78q0 28 2 60q4 79 35 173q-47 20 -92.5 44t-80.5 44q-41 23 -77 47q-14 8 -25.5 16.5t-21.5 16.5q-8 6 -14.5 11t-12.5 11q-51 43 -69.5 75t-20.5 38q-8 16 -8 25zM160 715v880q0 23 14 37.5t35 14.5h1624q23 0 37 -14.5t14 -37.5v-878q-16 -10 -38.5 -24.5 t-63.5 -37.5v889h-1522v-893q-41 23 -63.5 38.5t-36.5 25.5zM168 575q6 -6 12 -11t15 -11q-17 6 -27 22zM358 602l1348 14q-37 -16 -76 -30q-35 -12 -76 -25.5t-81 -21.5h-365q-6 0 -18.5 -4.5t-22.5 -14.5q-2 -4 -4 -12q-4 -16 -4 -31v-45q-20 14 -36.5 32.5t-32 34t-28 26 t-22.5 10.5h-365q-39 6 -77.5 17t-69.5 21q-37 13 -70 29zM535 846q0 47 18 88t49 71.5t72 49t88 18.5t88 -18.5t71.5 -49t49 -71.5t18.5 -88t-18.5 -88t-49 -72t-71.5 -49.5t-88 -18.5t-88 18.5t-72 49.5t-49 72t-18 88zM1059 -113v379q23 -4 49.5 -8t54.5 -4 q66 0 114 27.5t89 66.5q18 20 34.5 47t26 52.5t8.5 45t-18 25.5q-31 12 -50 -7t-48 -60q-25 -35 -79 -53q-21 -7 -45 -6q-41 0 -93 18q-12 4 -23 10l-20 12v45q0 14 4 31q2 8 4 12q10 10 22.5 14.5t18.5 4.5h365q41 8 81.5 21t75.5 26q39 14 76 30l9 4.5t11 4.5 q16 10 29.5 16t26.5 14q41 23 63.5 37.5t38.5 24.5q8 6 14.5 9t12.5 7q41 14 59 0q8 -6 8 -14q0 -9 -8 -25q0 -4 -7 -20.5t-25.5 -40t-50.5 -52t-81 -55.5q-39 -25 -80 -47q-35 -20 -78.5 -43.5t-91.5 -44.5q29 -94 34 -173q2 -36 3 -68q0 -38 -4 -70q-8 -68 -28 -125 q-29 -72 -70 -116t-84 -70.5t-85 -35.5t-71 -9t-62.5 10t-62 31.5t-48 51t-19.5 70.5zM1073 846q0 47 18.5 88t49 71.5t71.5 49t88 18.5t88.5 -18.5t72 -49t49 -71.5t18.5 -88t-18.5 -88t-49 -72t-71.5 -49.5t-89 -18.5q-47 0 -88 18.5t-71.5 49.5t-49 72t-18.5 88z" />
<glyph unicode="Q" d="M59 680q0 135 37 261t104.5 236.5t165 199.5t218.5 151q2 -2 29.5 -26.5t67.5 -59.5t85 -76t85 -77t67.5 -60.5t31.5 -28.5q-4 -4 -67.5 -60.5t-156.5 -140.5t-200.5 -180t-202 -181t-159 -142.5t-70.5 -63.5q-35 127 -35 248zM129 328q2 2 30.5 27.5t69.5 63.5t90.5 81 t92.5 83t74.5 67.5t39.5 35.5v-821q-135 82 -236.5 200t-160.5 263zM629 -190v456h1261q-55 -115 -137 -208t-182.5 -162.5t-217 -111.5t-241.5 -54h-176q-160 14 -307 80zM686 1573q84 29 168 45t170 16q209 0 397 -86v-637q-8 8 -63 58.5t-135 122t-171 153.5t-170 152.5 t-134.5 120t-61.5 55.5zM1524 367v1126q106 -66 193 -154t146.5 -193.5t92.5 -223t33 -242.5q0 -164 -56 -313h-409z" />
<glyph unicode="R" d="M80 1118q0 109 41 204t111.5 166t166 111.5t203.5 40.5q78 0 147.5 -21.5t131.5 -57.5q74 12 153 12q186 0 350 -70.5t287 -193.5t193.5 -287t70.5 -350q0 -49 -5 -97.5t-15 -95.5q53 -111 53 -233q0 -109 -41 -204t-111.5 -166t-166 -111.5t-203.5 -40.5 q-68 0 -130.5 16t-115.5 45q-41 -6 -83 -10t-83 -4q-186 0 -350 70.5t-287 193.5t-193.5 286.5t-70.5 350.5q0 92 19 182q-72 114 -72 264zM502 416q0 -80 59 -164q53 -82 148 -131q125 -68 323 -68q164 0 281 49q119 49 184 140q61 88 62 200q0 92 -35 158q-35 63 -103 109 q-33 20 -70.5 37.5t-82.5 31.5q-45 16 -95.5 28.5t-105.5 24.5q-82 18 -125 31q-18 4 -35.5 11.5t-36.5 15.5q-35 18 -53 41q-18 25 -18 53q0 49 55 86q57 39 158 39q102 0 149 -35q45 -37 82 -100q29 -49 53 -72q27 -25 78 -24q53 0 92 38q37 39 37 89q0 49 -28 102 q-29 53 -89 98q-59 45 -147 74q-92 29 -211 29q-154 0 -264 -43q-115 -41 -176 -121q-59 -82 -60 -182q0 -111 58 -181q59 -74 155 -114q92 -39 236 -70q53 -10 94 -20.5t72 -20.5q57 -18 96 -53q35 -35 35 -86q0 -68 -68 -113q-70 -47 -182 -47q-84 0 -129 25 q-49 23 -76 57q-31 41 -53 92q-23 53 -51 78q-33 27 -80 27q-55 0 -94 -35t-39 -84z" />
<glyph unicode="S" d="M63 -240v1844q0 20 14.5 33.5t35.5 13.5h1822q20 0 35 -13.5t15 -33.5v-1844q0 -20 -14.5 -33.5t-35.5 -13.5h-1822q-20 0 -35 13.5t-15 33.5zM184 823q-3 -20 -3 -39q0 -26 6 -51q11 -43 36 -77.5t62 -58.5t82 -30q20 -4 39 -4q43 0 83 19l373 -209q10 -84 73.5 -140.5 t151.5 -56.5q47 0 88.5 17.5t72 48t49 72.5t18.5 89l256 199q2 0 2 -2q61 0 114.5 23.5t93.5 63.5t63.5 93.5t23.5 114.5t-23.5 114.5t-63.5 93.5t-93.5 62.5t-114.5 22.5q-59 0 -112.5 -22.5t-92.5 -61.5t-62.5 -91t-25.5 -114l-190 -268h-3q-61 0 -116 -33l-346 209 q-6 74 -56.5 130t-128.5 69q-20 3 -39 3q-26 0 -51 -7q-43 -11 -77.5 -35.5t-58.5 -61.5t-30 -82zM231 815q12 72 71 113q45 32 98 31q16 0 32 -3q49 -8 85 -39.5t50 -76.5l-37 -13q-10 35 -38.5 59.5t-67.5 31.5q-11 2 -22 1q-41 0 -76 -25q-45 -32 -54 -87 q-4 -27 2.5 -52.5t20.5 -46t36.5 -35t49.5 -18.5q12 -4 22.5 -3t20.5 3l-6 -41q-23 -4 -43 0q-72 12 -113 71q-33 47 -33 102q0 14 2 28zM938 311l31 25q18 -31 49 -50.5t69 -19.5q57 0 97.5 40t40.5 97t-40 97.5t-98 40.5q-29 0 -53 -13v43q12 4 25.5 6.5t27.5 2.5 q37 0 69 -13.5t55.5 -38t38 -56.5t14.5 -69t-14.5 -68.5t-38 -56t-55.5 -38t-69 -13.5q-47 0 -86.5 22.5t-62.5 61.5zM1085 627l2 4zM1374 895q0 -41 15.5 -78t43 -64.5t63.5 -43t77 -15.5q84 0 142.5 58.5t58.5 142.5t-58.5 142.5t-142.5 58.5q-41 0 -77 -15.5t-63.5 -43 t-43 -64.5t-15.5 -78zM1421 895q0 63 44 107.5t108 44.5q63 0 108 -44.5t45 -107.5t-45 -107.5t-108 -44.5t-107.5 44.5t-44.5 107.5z" />
<glyph unicode="T" d="M63 -240v1260h519q-23 -47 -36.5 -101.5t-13.5 -111.5q0 -98 38 -186.5t102.5 -153t151.5 -102t186 -37.5q98 0 186 37.5t152.5 102t102.5 153t38 186.5q0 115 -51 213h547v-1260q0 -20 -14.5 -33.5t-35.5 -13.5h-1822q-20 0 -35 13.5t-15 33.5zM63 1098v506 q0 20 14.5 33.5t35.5 13.5h1822q20 0 35 -13.5t15 -33.5v-506h-596q-66 86 -164.5 136t-214.5 50q-117 0 -215.5 -50t-163.5 -136h-568zM158 1184h67v372q-29 -12 -48 -40.5t-19 -63.5v-268zM274 1184h66v383h-66v-383zM387 1184h68v383h-68v-383zM502 1184h65v112v156v115 h-65v-383zM588 807q0 88 32.5 165t90 134t134.5 90t165 33t164.5 -33t134 -90t90.5 -134t33 -165t-33 -165t-90.5 -134t-134 -90t-164.5 -33t-165 33t-134.5 90t-90 134t-32.5 165zM674 807q0 -70 26.5 -131.5t72.5 -106.5t106.5 -71.5t130.5 -26.5t131 26.5t106 71.5 t72 106.5t27 131.5t-27 130t-72 106.5t-106.5 73t-130.5 26.5q-70 0 -130.5 -26.5t-106.5 -73t-72.5 -106.5t-26.5 -130zM1485 1296q0 -47 32.5 -79.5t79.5 -32.5h185q47 0 79.5 32.5t32.5 79.5v156q0 47 -32.5 81t-79.5 34h-185q-47 0 -79.5 -34t-32.5 -81v-156z" />
<glyph unicode="U" d="M63 -240q0 -20 14.5 -33.5t35.5 -13.5h1822q20 0 35 13.5t15 33.5v1377l-457 -385l20 -21q29 -29 29 -65.5t-29 -63.5l-444 -446q-29 -29 -66 -29t-65 29l-438 438q-63 14 -120 49t-98 90q-43 59 -57 128q-8 38 -8 77q0 30 5 59q11 68 48 127.5t96 102.5t128 58 q40 9 79 9q29 0 57 -5q67 -11 126 -48t102 -96q12 -16 18 -31l62 62q29 29 65.5 28.5t65.5 -28.5l158 -158l452 633h-1601q-20 0 -35 -13.5t-15 -33.5v-1844zM293 964q4 60 31.5 115.5t76.5 98.5t109 61q46 14 94 14q13 0 26 -1q60 -5 115.5 -31.5t98.5 -75.5 q61 -72 72 -161q3 -22 3 -43q0 -66 -26 -126q47 -63 80 -106t37 -45q4 -6 16 -10.5t29 12.5l717 985h163q20 0 35 -13.5t15 -33.5v-408l-936 -788q-6 -4 -13 -7q-4 -1 -7 -1q-8 0 -15 8l-297 239q-55 -21 -112 -21q-37 0 -76 9q-97 23 -162 100q-43 49 -61 109 q-14 48 -14 97q0 11 1 23z" />
<glyph unicode="V" d="M0 -342v2048h2048v-2048h-2048zM74 725q0 -20 13 -33.5t34 -13.5h868q20 0 34.5 13.5t14.5 33.5v877q0 20 -14 34.5t-35 14.5h-868q-20 0 -33.5 -14.5t-13.5 -34.5v-877zM1012 -219q0 -20 14 -34.5t35 -14.5h866q20 0 34.5 14t14.5 35v876q0 20 -14 35t-35 15h-866 q-20 0 -34.5 -14.5t-14.5 -35.5v-876z" />
<glyph unicode="W" d="M96 791q0 168 73 317t199 260t294.5 175.5t361.5 64.5t361.5 -64.5t294.5 -175.5t199 -260.5t73 -316.5q0 -186 -90 -353.5t-254 -283.5l178 -328q16 -31 -10 -57q-12 -12 -33 -13q-12 0 -25 6l-420 246q-135 -37 -274 -37q-193 0 -361.5 64.5t-294.5 175.5t-199 260.5 t-73 319.5z" />
<glyph unicode="X" d="M195 -141v454q0 35 15 62.5t44 40.5l575 268q-104 61 -166.5 177t-62.5 261q0 102 33 192.5t90 157t135 105.5t166 39t166 -39t135 -105.5t90 -156.5t33 -193q0 -141 -61.5 -256.5t-161.5 -179.5l571 -270q27 -14 42 -41t15 -62v-454q0 -47 -26.5 -79t-67.5 -32h-1470 q-41 0 -67.5 32t-26.5 79z" />
<glyph unicode="Y" d="M63 -240v1844q0 20 14.5 33.5t35.5 13.5h1822q20 0 35 -13.5t15 -33.5v-1844q0 -20 -14.5 -33.5t-35.5 -13.5h-1822q-20 0 -35 13.5t-15 33.5zM618 797h150v-58v-479q0 -76 30.5 -123t77 -72.5t99.5 -33.5t100 -8h82q72 0 118 3t74.5 9t46 13t34.5 15v232v2v-2 q-41 -27 -90.5 -45.5t-100.5 -18.5q-27 0 -55.5 7.5t-52 17.5t-39 22.5t-15.5 22.5v279v217h314v57v160h-314v327h-180q-6 -125 -68 -215q-29 -41 -61 -67q-55 -45 -123 -45h-27v-217z" />
<glyph unicode="Z" d="M104 791q0 168 73 317t199 260t295 175.5t361 64.5q193 0 362 -64.5t295 -175.5t198.5 -260.5t72.5 -316.5q0 -170 -72.5 -319.5t-198.5 -260.5t-295 -175.5t-362 -64.5q-139 0 -274 37l-420 -246q-12 -6 -25 -6q-20 0 -32 13q-27 27 -11 57l179 328q-164 117 -254.5 284 t-90.5 353zM598 532q0 -23 15.5 -39t37.5 -16h484q23 0 39 16.5t16 38.5v127l285 -135v545l-285 -133v-2v125q0 23 -16.5 39t-38.5 16h-484q-23 0 -38 -16.5t-15 -38.5v-527z" />
<glyph unicode="a" d="M197 1090q-1 9 -2 16q0 30 18 51q10 16 27.5 23.5t35.5 7.5h410q-8 66 -17.5 113t-17.5 81q-4 18 -3 35q0 30 11 59q18 44 47 78.5t59 58t42 32.5q19 14 44 13q12 0 26 -3q35 -12 51 -49l186 -418h189q35 0 58 -23.5t23 -58.5v-827q0 -35 -23.5 -58.5t-57.5 -23.5h-758 q-14 0 -47 8t-69 28.5t-69.5 55.5t-48.5 90zM1485 233v914q0 25 17.5 41t41.5 16h240q25 0 42 -16.5t17 -40.5v-914q0 -23 -17.5 -40t-41.5 -17h-240q-25 0 -42 17t-17 40z" />
<glyph unicode="b" d="M188 238v913q0 25 17.5 41t42.5 16h239q25 0 42.5 -16t17.5 -41v-913q0 -23 -17.5 -40.5t-42.5 -17.5h-239q-25 0 -42.5 17.5t-17.5 40.5zM647 279v827q0 35 23.5 58.5t58.5 23.5h758q14 0 47 -8.5t68.5 -29t68.5 -55t49 -87.5l115 -713q1 -9 1 -17q0 -30 -17 -51 q-23 -31 -64 -30h-409q8 -66 17 -113t17 -82q4 -18 4 -34q0 -30 -12 -59q-18 -44 -47 -79t-58.5 -58.5t-41.5 -31.5q-22 -14 -46 -14q-12 0 -24 4q-35 12 -51 49l-186 418h-189q-35 0 -58.5 23.5t-23.5 58.5z" />
<glyph unicode="c" d="M88 766q0 74 52.5 126t125.5 52q211 0 396.5 -81t323.5 -219t219 -323.5t81 -396.5q0 -74 -52 -126t-126 -52t-126 52t-52 126q0 137 -52.5 258t-142.5 211t-211 142.5t-258 52.5q-74 0 -126 52t-52 126zM88 1440q0 74 52.5 126t125.5 52q233 0 449.5 -60.5t405 -171 t343 -265t265 -343t171 -404.5t60.5 -450q0 -74 -52.5 -126t-125.5 -52q-74 0 -126 52t-52 126q0 184 -48.5 355.5t-135.5 320t-208.5 270t-270 208.5t-319.5 135.5t-356 48.5q-74 0 -126 52t-52 126zM94 8q0 51 19.5 97.5t53.5 80t79 53t98 19.5q51 0 97 -19.5t80 -53 t53.5 -80t19.5 -97.5q0 -53 -19.5 -98t-53.5 -79t-80 -53.5t-97 -19.5q-53 0 -98 19.5t-79 53.5t-53.5 79t-19.5 98z" />
<glyph unicode="d" d="M63 -240v1844q0 20 14.5 33.5t35.5 13.5h1822q20 0 35 -13.5t15 -33.5v-1844q0 -20 -14.5 -33.5t-35.5 -13.5h-1822q-20 0 -35 13.5t-15 33.5zM969 623h176v-684h254v684h250l10 245h-260v181q0 51 17 80q16 28 75 28h8h154l6 229q-29 4 -58.5 5.5t-54.5 3.5q-29 2 -57 2 q-17 1 -34 1q-69 0 -121 -21q-65 -26 -106.5 -71.5t-62 -105t-20.5 -121.5v-211h-176v-245z" />
<glyph unicode="e" d="M57 399q70 -68 162 -102q90 -34 184 -34h6q97 1 192 39t173 118q-13 -2 -25 -2q-30 0 -56 11q-36 15 -50 42t1 57.5t71 55.5q-20 -2 -38 -3q-27 0 -51 6q-40 9 -69 27.5t-49.5 41t-30.5 44.5q23 25 52.5 37.5t78.5 16.5q-109 25 -155.5 76t-59.5 116q29 6 62.5 11.5 t56.5 3.5q-96 49 -133 116q-33 61 -33 114v11q172 -63 289 -115.5t207 -101.5q33 -18 69.5 -48t77.5 -71q25 70 54.5 137.5t66.5 129t81 113.5t99 87q-2 -16 -10 -30.5t-18 -26.5q66 61 151 72q-2 -16 -13 -27.5t-26.5 -21t-32 -16.5t-30.5 -13q10 2 38.5 14t59.5 21.5 t57.5 12.5t32.5 -11q6 -16 -8 -27.5t-36.5 -20t-45.5 -14.5t-31 -8q-20 -6 -45 -16q15 1 30 1q54 0 105 -18q66 -23 120 -66.5t95 -105t60 -131.5q4 -10 6 -21.5t4 -23.5q25 -10 58.5 -10t66.5 4t61.5 12t42.5 19q-23 -49 -76 -84t-134 -41q39 -16 103 -24q30 -3 57 -3 q31 0 59 4q-33 -35 -87 -61q-50 -25 -132 -25h-13q-39 -160 -146.5 -287t-256 -208.5t-324.5 -116.5q-100 -20 -199 -20l-153 12q-176 27 -339 116.5t-284 255.5z" />
<glyph unicode="f" d="M76 682q0 197 74.5 370t202.5 301t301 202.5t370 74.5t370 -74.5t301 -202.5t202.5 -301t74.5 -370t-74.5 -370t-202.5 -301t-301 -202.5t-370 -74.5q-72 0 -138.5 10t-129.5 29q27 43 53.5 95t40.5 107q4 14 12 50q8 29 20.5 79t35.5 132q25 -47 89 -82t142 -35 q115 0 209 49t161.5 136t104.5 206t37 258q0 104 -43 202.5t-121 174.5t-189.5 121t-246.5 45q-170 0 -297 -54.5t-211 -140.5t-127 -191.5t-43 -205.5q0 -123 47 -222.5t148 -140.5q16 -6 29.5 0t17.5 25q4 12 9 36.5t9 39.5q4 18 2 27.5t-14 25.5q-29 35 -46.5 79 t-17.5 107q0 90 33 172t93.5 144.5t146.5 99.5t194 37q94 0 168 -27.5t125 -76t77 -115t26 -144.5q0 -102 -22 -194t-61.5 -161t-95 -108.5t-123.5 -39.5q-37 0 -68.5 14t-52 38.5t-29.5 58.5q-4 16 -4 33q0 19 5 38q10 45 24.5 91t27.5 89t22.5 83t9.5 73q0 59 -32 101 t-97 42q-37 0 -71 -18.5t-58.5 -52t-38.5 -78.5t-14 -97q0 -27 4 -53q4 -23 9 -48.5t17 -47.5q-41 -166 -63.5 -267.5t-36.5 -156.5q-16 -66 -23 -94q-12 -53 -15 -111q-2 -34 -2 -66q0 -21 1 -40q-125 55 -229.5 143t-179 200.5t-116.5 246t-42 278.5z" />
<glyph unicode="g" d="M63 -240v1844q0 20 14.5 33.5t35.5 13.5h1822q20 0 35 -13.5t15 -33.5v-1844q0 -20 -14.5 -33.5t-35.5 -13.5h-1822q-20 0 -35 13.5t-15 33.5zM373 1124q0 -59 41 -102t112 -43h2q74 0 117 43t41 102q0 61 -42 103.5t-114 42.5t-114.5 -42.5t-42.5 -103.5zM389 23h279 v841h-279v-841zM823 23h279v471q0 18 2 35.5t8 31.5q16 37 50 70t93 33q76 0 109 -52.5t33 -138.5v-450h278v483q0 96 -24.5 167.5t-67.5 119t-101.5 70t-127.5 22.5q-55 0 -96 -13.5t-71 -35t-50.5 -46t-34.5 -45.5v119h-279q2 -35 2 -135v-254q0 -167 -2 -452z" />
<glyph unicode="h" d="M80 682q0 195 74.5 367t202.5 300t300 202.5t367 74.5t367 -74.5t300 -202.5t202.5 -300t74.5 -367t-74.5 -367t-202.5 -300t-300 -202.5t-367 -74.5t-367 74.5t-300 202.5t-202.5 300t-74.5 367zM217 680q0 -156 55.5 -293t151.5 -246q6 12 51 78t128 150t202 169 t276 136q8 4 15.5 5t15.5 5q-16 35 -32.5 67.5t-32.5 67.5q-152 -45 -295.5 -68.5t-257 -33.5t-188.5 -11t-89 -1v-25zM236 846q12 0 77.5 1t166 10t230.5 29.5t271 57.5q-51 88 -101.5 168t-91 142.5t-69.5 103.5t-37 53q-172 -80 -289.5 -228.5t-156.5 -336.5zM528 45 q104 -80 229.5 -125t266.5 -45q166 0 315 64q-4 27 -16 84t-32.5 138t-50.5 180t-73 210q-2 -2 -6 -2q-170 -59 -288.5 -142t-193.5 -160t-110 -134.5t-41 -67.5zM836 1464q8 -10 37.5 -51t71.5 -104.5t92 -144.5t100 -171q106 39 184 87t129 91t76.5 74t32.5 39 q-109 96 -245 149.5t-290 53.5q-94 0 -188 -23zM1198 872q14 -29 27.5 -58.5t25.5 -57.5q4 -10 9.5 -20.5t9.5 -20.5q86 11 169 10h27q96 -2 174 -9t129.5 -16.5t61.5 -11.5q-2 143 -49 270t-133 232q-6 -8 -36 -42t-84 -80t-136 -98.5t-195 -97.5zM1317 588 q39 -109 67.5 -206t48 -173t28.5 -127t14 -70q135 92 226 231.5t120 309.5q-10 2 -55.5 14.5t-113 21.5t-154.5 11h-22q-77 1 -159 -12z" />
<glyph unicode="i" d="M70 682q0 197 74.5 371t204.5 304t304 204.5t371 74.5q150 0 285 -44t252 -122v-915q0 -47 -34 -81t-81 -34t-82 34t-35 81v274q0 82 -19.5 141.5t-53 97.5t-81 55.5t-100.5 17.5h-469q-63 0 -119.5 -19.5t-99.5 -56.5t-67.5 -89t-24.5 -116q0 -33 8 -71.5t31.5 -73.5 t65.5 -62.5t110 -40.5q55 -10 93 -15t62.5 -13.5t36 -23.5t11.5 -44t-15.5 -44t-41 -22.5t-61.5 -8.5t-79 -1h-416q-14 59 -22 119t-8 123zM174 248h416q150 0 243 74.5t93 203.5q0 90 -31 141.5t-77 79t-100 38t-100.5 18.5t-77 20.5t-30.5 44.5q0 47 36 65.5t103 18.5h152 h137q31 0 62.5 -4t56 -14t41 -29.5t16.5 -52.5v-289q0 -78 27.5 -137t74 -99t106.5 -59.5t124 -19.5q63 0 123.5 19.5t106.5 59.5t74 99t28 137v705q94 -123 147 -271.5t53 -314.5q0 -197 -74.5 -371t-204.5 -304t-304 -204.5t-371 -74.5q-139 0 -267 37.5t-237.5 106.5 t-198 165t-147.5 211z" />
<glyph unicode="j" d="M63 -240v1844q0 20 14.5 33.5t35.5 13.5h1822q20 0 35 -13.5t15 -33.5v-1844q0 -20 -14.5 -33.5t-35.5 -13.5h-1822q-20 0 -35 13.5t-15 33.5zM369 35q0 -14 14 -15h426q14 0 55 6.5t88 28.5q43 20 84 71.5t41 147.5v20q0 17 -4 44t-15 55.5t-34 50.5q-25 25 -55 37 q29 16 54.5 50t25.5 100q0 106 -64.5 168.5t-179.5 62.5h-422q-14 0 -14 -14v-813zM575 197v190h224q2 0 14 -2t25.5 -11t23.5 -28.5t10 -56.5q0 -59 -28.5 -75.5t-57.5 -16.5h-211zM575 539v155h193h31l7 -1q7 -1 15 -8t15.5 -21.5t7.5 -40.5q0 -29 -5 -46.5t-13.5 -25.5 t-18.5 -10t-23 -2h-209zM1081 304q0 -24 7.5 -58.5t23.5 -74.5t51 -75q82 -92 244 -92h12q18 0 64.5 4t94.5 27.5t85 70t37 127.5q0 14 -14 15h-142q-6 0 -10 -4q-4 -8 -4 -11q0 -2 -2 -14t-17 -29q-31 -31 -100 -30h-4q-8 0 -28.5 3t-43.5 15q-49 29 -51 96h408q12 0 12 13 q0 2 2 30q1 10 1 21q0 22 -3 50q-4 42 -20.5 89t-53.5 88q-78 90 -221 90q-63 0 -111.5 -15t-82 -38.5t-56 -53.5t-37.5 -56q-14 -31 -22 -60t-12.5 -51.5t-5.5 -36.5l-1 -14v-26zM1221 700q0 -14 12 -14h336q14 0 14 14v101q0 12 -14 12h-336q-12 0 -12 -12v-101zM1280 414 q2 12 10 28.5t22.5 31.5t37 26.5t55.5 11.5q49 0 78 -29q16 -16 22 -35.5t11 -33.5h-236z" />
<glyph unicode="k" d="M49 705q0 45 17.5 85.5t48 71.5t70.5 48.5t87 17.5q86 0 148 -56q-29 -18 -60 -41q-43 27 -88 27q-63 0 -108 -45t-45 -108q0 -68 53 -117q-6 -16 -11 -34.5t-9 -37.5q-47 31 -75 80.5t-28 108.5zM119 705q0 63 45 108t108 45q45 0 88 -27q-135 -104 -188 -243 q-53 49 -53 117zM145 446q0 18 2.5 36t4.5 34q4 -4 12 -8l35 61q-8 4 -14.5 9.5t-12.5 9.5q53 139 188 243q6 -4 11.5 -9t11.5 -9l49 49q-8 8 -12 10q115 72 262 115t315 47l-2 -6q-6 -14 2 -29q-170 -4 -318.5 -48t-259 -118.5t-175 -174t-64.5 -212.5q0 -115 66.5 -215 t180.5 -175.5t267.5 -118.5t327.5 -43t327.5 43t267.5 118.5t180.5 176t66.5 214.5q0 113 -63.5 211.5t-172 173t-256 119.5t-315.5 49l4 5l10 30q162 -6 303.5 -49t251.5 -113q-2 -4 -4 -5t-6 -5l49 -49q8 8 21 16q137 -106 186 -243q-10 -10 -23 -17l35 -61q2 2 4 3t4 3 q6 -35 6 -68q0 -121 -68.5 -228t-188 -187t-279.5 -126t-340 -46q-182 0 -341 46t-278.5 126t-188.5 187t-69 228zM152 516q4 18 9 36.5t11 35.5q6 -4 12 -9.5t15 -9.5l-35 -61q-8 4 -12 8zM180 446q0 113 64.5 212.5t175 174t259 118.5t318.5 48q6 -14 19 -16q4 -2 12 -2 q18 0 29 18q168 -4 315.5 -49t256 -119.5t172 -173t63.5 -211.5q0 -115 -66.5 -215t-180.5 -175.5t-267.5 -118.5t-327.5 -43t-327.5 43t-267.5 118.5t-180.5 175.5t-66.5 215zM217 446q0 -106 63.5 -200t172 -164t256 -111t313.5 -41t313.5 41t257 111t173 164t63.5 200 t-63.5 201.5t-173 165.5t-257 111t-313.5 41t-313.5 -41t-256 -111t-172 -165.5t-63.5 -201.5zM360 831q31 23 60 41q4 -2 12 -10l-49 -49q-6 4 -11.5 9t-11.5 9zM606 551q0 57 40 97t97 40t98.5 -40t41.5 -97t-41 -97t-99 -40q-57 0 -97 40t-40 97zM707 229q10 10 24 8.5 t25 -12.5l15 -13q15 -13 47 -28.5t81 -28t121 -12.5t124 13.5t86 29t50 28.5l16 13q10 10 25.5 10.5t26.5 -10.5q10 -10 10 -24.5t-10 -24.5q-2 -2 -21.5 -18.5t-59.5 -36t-101.5 -35.5t-145.5 -16t-143.5 16t-98.5 35.5t-56 36t-20 18.5q-9 11 -9 24q1 16 14 27zM995 1028 l2 6h25h49l-10 -30l-4 -5h-35h-25q-5 8 -4 17q-1 6 2 12zM997 999h25h35q-10 -18 -29 -18q-8 0 -12 2q-13 2 -19 16zM997 1034l158 447l377 -90q-12 -35 -12 -70l-320 76l-129 -363h-49h-25zM1182 551q0 57 40 97t99 40q57 0 97 -40t40 -97t-40 -97t-97 -40q-59 0 -99 40 t-40 97zM1520 1321q0 35 12 70l14 -5q14 -4 22.5 -15t4.5 -25q-4 -16 -16.5 -23.5t-26.5 -3.5zM1520 1321l10 -2q14 -4 26.5 3t16.5 24q4 14 -4 25t-23 15l-14 5q23 51 68 82.5t102 31.5q78 0 131 -53t53 -131q0 -76 -53 -129t-131 -53q-76 0 -129 53t-53 129zM1589 1321 q0 -47 33 -80t80 -33t80 33t33 80t-33 80t-80 33t-80 -33t-33 -80zM1589 1321q0 47 33 80t80 33t80 -33t33 -80t-33 -80t-80 -33t-80 33t-33 80zM1616 862q4 4 6 5t4 5q16 -10 30.5 -21t29.5 -22q-12 -8 -21 -16zM1626 872q66 55 148 56q47 0 88 -17.5t71.5 -48.5t48 -71.5 t17.5 -85.5q0 -59 -28.5 -109.5t-78.5 -81.5l-8 37q-4 18 -12 35q27 23 42 53.5t15 65.5q0 63 -45 108t-110 45q-47 0 -88 -29q-14 10 -29 21.5t-31 21.5zM1686 829q41 29 88 29q66 0 110.5 -45t44.5 -108q0 -35 -15.5 -66t-41.5 -53q-49 137 -186 243zM1849 569q12 6 23 17 q8 -16 12 -35l8 -37q-2 -2 -4 -3t-4 -3z" />
<glyph unicode="l" d="M72 -39q45 53 100 82t84 39q43 14 91 23.5t90 13.5t73 6t41 2h34q13 0 29 -4q80 -57 146.5 -102.5t116 -87.5t77 -86t27.5 -97q0 -10 -1 -17t-3 -14h-856q-20 0 -34.5 14.5t-14.5 35.5v192zM72 119v487q57 -45 133 -75.5t170 -30.5q41 0 88 6q-10 -27 -18.5 -50.5 t-8.5 -60.5q0 -66 28 -108.5t56 -81.5q-41 -2 -97 -2t-118.5 -7.5t-123 -23.5t-109.5 -53zM72 1303v307q0 20 14 34.5t35 14.5h1823q20 0 34.5 -14.5t14.5 -34.5v-492h-355v357h-153v-357h-355v-147h355v-359h153v359h355v-1202q0 -20 -14.5 -35t-34.5 -15h-803 q16 55 16 119q0 72 -26.5 132.5t-68.5 111.5t-92 94t-98 80l-100 78q-25 18 -49.5 46t-24.5 75t26 78.5t52 58.5q45 35 86 72.5t73 85t50.5 105.5t18.5 136q0 72 -17.5 128.5t-43 99.5t-55.5 74.5t-54 54.5h170l157 127h-592q-55 0 -114.5 -6.5t-121 -22.5t-124 -48 t-121.5 -81q-4 -4 -8 -7t-8 -7zM176 1079q0 53 9.5 107.5t45.5 99.5q35 41 88.5 66.5t106.5 25.5q88 0 153.5 -52t109.5 -130t65.5 -168t21.5 -166q0 -31 -16.5 -82t-57.5 -98q-35 -41 -85 -55.5t-103 -14.5q-90 0 -153.5 46.5t-104.5 117t-60.5 151t-19.5 152.5z" />
<glyph unicode="m" d="M63 4v1364q0 20 14.5 33.5t35.5 13.5h1822q20 0 35 -13t15 -34v-1364q0 -20 -14.5 -33.5t-35.5 -13.5h-1822q-20 0 -35 13.5t-15 33.5zM748 260l671 422l-671 422v-844z" />
<glyph unicode="n" d="M63 -240v1844q0 20 14.5 33.5t35.5 13.5h1822q20 0 35 -13.5t15 -33.5v-1844q0 -20 -14.5 -33.5t-35.5 -13.5h-1822q-20 0 -35 13.5t-15 33.5zM311 874q10 -10 17 -22q8 -10 15 -19.5t22 -11.5q25 -4 49 4.5t47.5 14.5t44 2t37.5 -33q10 -16 16 -33q-2 2 -2 4q0 -2 2 -4 q12 -29 19.5 -58.5t17.5 -58.5q18 -51 32.5 -104t28.5 -113q16 -63 36 -139t55 -137q18 -35 41.5 -59.5t54.5 -36.5q19 -9 42 -10h5q27 1 52.5 7.5t49 15.5t39.5 19q90 53 160 126t129 151q70 92 123 186t90 177t57.5 146.5t26.5 92.5q5 28 5 54q0 34 -9 63q-4 10 -8 19 t-13 20q-18 23 -43.5 35t-55.5 17q-25 4 -50 4h-10q-31 -1 -58 -5q-20 -4 -62 -21.5t-89 -53.5t-91 -89t-69 -129h29q13 1 24 1q37 0 63 -10q34 -13 44 -55q-8 14 -35 25q27 -10 35 -25q5 -15 5 -41q0 -13 -1 -30q-4 -41 -21.5 -83t-40.5 -83q-12 -25 -30.5 -55.5t-41 -51 t-51.5 -23.5h-4q-26 0 -55 32q-6 6 -12 14l-12 16q-18 33 -28.5 72t-17 81t-9.5 82t-9 75q-8 43 -16.5 94t-22.5 96l-4 12l-4 13q-16 35 -40 63.5t-52 38.5q-18 5 -36 5q-20 0 -42 -6q-41 -11 -68 -28q-86 -51 -156.5 -116.5t-144.5 -124.5v-9z" />
<glyph unicode="o" d="M63 -240v1844q0 20 14.5 33.5t35.5 13.5h1822q20 0 35 -13.5t15 -33.5v-1844q0 -20 -14.5 -33.5t-35.5 -13.5h-1822q-20 0 -35 13.5t-15 33.5zM264 682q0 -76 29 -142.5t78 -115.5t115.5 -78t142.5 -29t142.5 29t115.5 78t77.5 115.5t28.5 142.5t-28.5 142.5t-77.5 115.5 t-115.5 78t-142.5 29t-142.5 -29t-115.5 -78t-78 -115.5t-29 -142.5zM1055 682q0 -76 28.5 -142.5t77.5 -115.5t115.5 -78t142.5 -29t142.5 29t115.5 78t78 115.5t29 142.5t-29 142.5t-78 115.5t-115.5 78t-142.5 29t-142.5 -29t-115.5 -78t-77.5 -115.5t-28.5 -142.5z" />
<glyph unicode="p" d="M70 713q0 8 8 14q18 14 59 0q10 -4 23 -12q14 -10 36.5 -25.5t63.5 -38.5q14 -6 29.5 -14t32.5 -19q10 -4 18 -8t18 -8q33 -16 70 -29q31 -10 70 -21t77 -17h365q10 0 22.5 -10.5t28 -26t31.5 -34t37 -32.5l20 -12q10 -6 23 -10q52 -18 93 -18q25 0 45 6q54 17 79 53 q29 41 48 60t50 7q16 -6 17.5 -25.5t-8 -45t-26 -52t-34.5 -47.5q-41 -39 -89 -66.5t-114 -27.5q-61 0 -104 12q-12 2 -25 6q-10 4 -22.5 7.5t-22.5 7.5v-406q0 -41 -19.5 -70.5t-48 -51t-62.5 -32t-62 -10.5q-29 0 -71 10.5t-85 36t-84 70.5t-70 115q-20 57 -28 125 q-4 36 -4 78q0 28 2 60q4 79 35 173q-47 20 -92.5 44t-80.5 44q-41 23 -77 47q-14 8 -25.5 16.5t-21.5 16.5q-8 6 -14.5 11t-12.5 11q-51 43 -69.5 75t-20.5 38q-8 16 -8 25zM160 715v880q0 23 14 37.5t35 14.5h1624q23 0 37 -14.5t14 -37.5v-878q-16 -10 -38.5 -24.5 t-63.5 -37.5v889h-1522v-893q-41 23 -63.5 38.5t-36.5 25.5zM168 575q6 -6 12 -11t15 -11q-17 6 -27 22zM358 602l1348 14q-37 -16 -76 -30q-35 -12 -76 -25.5t-81 -21.5h-365q-6 0 -18.5 -4.5t-22.5 -14.5q-2 -4 -4 -12q-4 -16 -4 -31v-45q-20 14 -36.5 32.5t-32 34t-28 26 t-22.5 10.5h-365q-39 6 -77.5 17t-69.5 21q-37 13 -70 29zM535 846q0 47 18 88t49 71.5t72 49t88 18.5t88 -18.5t71.5 -49t49 -71.5t18.5 -88t-18.5 -88t-49 -72t-71.5 -49.5t-88 -18.5t-88 18.5t-72 49.5t-49 72t-18 88zM1059 -113v379q23 -4 49.5 -8t54.5 -4 q66 0 114 27.5t89 66.5q18 20 34.5 47t26 52.5t8.5 45t-18 25.5q-31 12 -50 -7t-48 -60q-25 -35 -79 -53q-21 -7 -45 -6q-41 0 -93 18q-12 4 -23 10l-20 12v45q0 14 4 31q2 8 4 12q10 10 22.5 14.5t18.5 4.5h365q41 8 81.5 21t75.5 26q39 14 76 30l9 4.5t11 4.5 q16 10 29.5 16t26.5 14q41 23 63.5 37.5t38.5 24.5q8 6 14.5 9t12.5 7q41 14 59 0q8 -6 8 -14q0 -9 -8 -25q0 -4 -7 -20.5t-25.5 -40t-50.5 -52t-81 -55.5q-39 -25 -80 -47q-35 -20 -78.5 -43.5t-91.5 -44.5q29 -94 34 -173q2 -36 3 -68q0 -38 -4 -70q-8 -68 -28 -125 q-29 -72 -70 -116t-84 -70.5t-85 -35.5t-71 -9t-62.5 10t-62 31.5t-48 51t-19.5 70.5zM1073 846q0 47 18.5 88t49 71.5t71.5 49t88 18.5t88.5 -18.5t72 -49t49 -71.5t18.5 -88t-18.5 -88t-49 -72t-71.5 -49.5t-89 -18.5q-47 0 -88 18.5t-71.5 49.5t-49 72t-18.5 88z" />
<glyph unicode="q" d="M59 680q0 135 37 261t104.5 236.5t165 199.5t218.5 151q2 -2 29.5 -26.5t67.5 -59.5t85 -76t85 -77t67.5 -60.5t31.5 -28.5q-4 -4 -67.5 -60.5t-156.5 -140.5t-200.5 -180t-202 -181t-159 -142.5t-70.5 -63.5q-35 127 -35 248zM129 328q2 2 30.5 27.5t69.5 63.5t90.5 81 t92.5 83t74.5 67.5t39.5 35.5v-821q-135 82 -236.5 200t-160.5 263zM629 -190v456h1261q-55 -115 -137 -208t-182.5 -162.5t-217 -111.5t-241.5 -54h-176q-160 14 -307 80zM686 1573q84 29 168 45t170 16q209 0 397 -86v-637q-8 8 -63 58.5t-135 122t-171 153.5t-170 152.5 t-134.5 120t-61.5 55.5zM1524 367v1126q106 -66 193 -154t146.5 -193.5t92.5 -223t33 -242.5q0 -164 -56 -313h-409z" />
<glyph unicode="r" d="M80 1118q0 109 41 204t111.5 166t166 111.5t203.5 40.5q78 0 147.5 -21.5t131.5 -57.5q74 12 153 12q186 0 350 -70.5t287 -193.5t193.5 -287t70.5 -350q0 -49 -5 -97.5t-15 -95.5q53 -111 53 -233q0 -109 -41 -204t-111.5 -166t-166 -111.5t-203.5 -40.5 q-68 0 -130.5 16t-115.5 45q-41 -6 -83 -10t-83 -4q-186 0 -350 70.5t-287 193.5t-193.5 286.5t-70.5 350.5q0 92 19 182q-72 114 -72 264zM502 416q0 -80 59 -164q53 -82 148 -131q125 -68 323 -68q164 0 281 49q119 49 184 140q61 88 62 200q0 92 -35 158q-35 63 -103 109 q-33 20 -70.5 37.5t-82.5 31.5q-45 16 -95.5 28.5t-105.5 24.5q-82 18 -125 31q-18 4 -35.5 11.5t-36.5 15.5q-35 18 -53 41q-18 25 -18 53q0 49 55 86q57 39 158 39q102 0 149 -35q45 -37 82 -100q29 -49 53 -72q27 -25 78 -24q53 0 92 38q37 39 37 89q0 49 -28 102 q-29 53 -89 98q-59 45 -147 74q-92 29 -211 29q-154 0 -264 -43q-115 -41 -176 -121q-59 -82 -60 -182q0 -111 58 -181q59 -74 155 -114q92 -39 236 -70q53 -10 94 -20.5t72 -20.5q57 -18 96 -53q35 -35 35 -86q0 -68 -68 -113q-70 -47 -182 -47q-84 0 -129 25 q-49 23 -76 57q-31 41 -53 92q-23 53 -51 78q-33 27 -80 27q-55 0 -94 -35t-39 -84z" />
<glyph unicode="s" d="M63 -240v1844q0 20 14.5 33.5t35.5 13.5h1822q20 0 35 -13.5t15 -33.5v-1844q0 -20 -14.5 -33.5t-35.5 -13.5h-1822q-20 0 -35 13.5t-15 33.5zM184 823q-3 -20 -3 -39q0 -26 6 -51q11 -43 36 -77.5t62 -58.5t82 -30q20 -4 39 -4q43 0 83 19l373 -209q10 -84 73.5 -140.5 t151.5 -56.5q47 0 88.5 17.5t72 48t49 72.5t18.5 89l256 199q2 0 2 -2q61 0 114.5 23.5t93.5 63.5t63.5 93.5t23.5 114.5t-23.5 114.5t-63.5 93.5t-93.5 62.5t-114.5 22.5q-59 0 -112.5 -22.5t-92.5 -61.5t-62.5 -91t-25.5 -114l-190 -268h-3q-61 0 -116 -33l-346 209 q-6 74 -56.5 130t-128.5 69q-20 3 -39 3q-26 0 -51 -7q-43 -11 -77.5 -35.5t-58.5 -61.5t-30 -82zM231 815q12 72 71 113q45 32 98 31q16 0 32 -3q49 -8 85 -39.5t50 -76.5l-37 -13q-10 35 -38.5 59.5t-67.5 31.5q-11 2 -22 1q-41 0 -76 -25q-45 -32 -54 -87 q-4 -27 2.5 -52.5t20.5 -46t36.5 -35t49.5 -18.5q12 -4 22.5 -3t20.5 3l-6 -41q-23 -4 -43 0q-72 12 -113 71q-33 47 -33 102q0 14 2 28zM938 311l31 25q18 -31 49 -50.5t69 -19.5q57 0 97.5 40t40.5 97t-40 97.5t-98 40.5q-29 0 -53 -13v43q12 4 25.5 6.5t27.5 2.5 q37 0 69 -13.5t55.5 -38t38 -56.5t14.5 -69t-14.5 -68.5t-38 -56t-55.5 -38t-69 -13.5q-47 0 -86.5 22.5t-62.5 61.5zM1085 627l2 4zM1374 895q0 -41 15.5 -78t43 -64.5t63.5 -43t77 -15.5q84 0 142.5 58.5t58.5 142.5t-58.5 142.5t-142.5 58.5q-41 0 -77 -15.5t-63.5 -43 t-43 -64.5t-15.5 -78zM1421 895q0 63 44 107.5t108 44.5q63 0 108 -44.5t45 -107.5t-45 -107.5t-108 -44.5t-107.5 44.5t-44.5 107.5z" />
<glyph unicode="t" d="M63 -240v1260h519q-23 -47 -36.5 -101.5t-13.5 -111.5q0 -98 38 -186.5t102.5 -153t151.5 -102t186 -37.5q98 0 186 37.5t152.5 102t102.5 153t38 186.5q0 115 -51 213h547v-1260q0 -20 -14.5 -33.5t-35.5 -13.5h-1822q-20 0 -35 13.5t-15 33.5zM63 1098v506 q0 20 14.5 33.5t35.5 13.5h1822q20 0 35 -13.5t15 -33.5v-506h-596q-66 86 -164.5 136t-214.5 50q-117 0 -215.5 -50t-163.5 -136h-568zM158 1184h67v372q-29 -12 -48 -40.5t-19 -63.5v-268zM274 1184h66v383h-66v-383zM387 1184h68v383h-68v-383zM502 1184h65v112v156v115 h-65v-383zM588 807q0 88 32.5 165t90 134t134.5 90t165 33t164.5 -33t134 -90t90.5 -134t33 -165t-33 -165t-90.5 -134t-134 -90t-164.5 -33t-165 33t-134.5 90t-90 134t-32.5 165zM674 807q0 -70 26.5 -131.5t72.5 -106.5t106.5 -71.5t130.5 -26.5t131 26.5t106 71.5 t72 106.5t27 131.5t-27 130t-72 106.5t-106.5 73t-130.5 26.5q-70 0 -130.5 -26.5t-106.5 -73t-72.5 -106.5t-26.5 -130zM1485 1296q0 -47 32.5 -79.5t79.5 -32.5h185q47 0 79.5 32.5t32.5 79.5v156q0 47 -32.5 81t-79.5 34h-185q-47 0 -79.5 -34t-32.5 -81v-156z" />
<glyph unicode="u" d="M63 -240q0 -20 14.5 -33.5t35.5 -13.5h1822q20 0 35 13.5t15 33.5v1377l-457 -385l20 -21q29 -29 29 -65.5t-29 -63.5l-444 -446q-29 -29 -66 -29t-65 29l-438 438q-63 14 -120 49t-98 90q-43 59 -57 128q-8 38 -8 77q0 30 5 59q11 68 48 127.5t96 102.5t128 58 q40 9 79 9q29 0 57 -5q67 -11 126 -48t102 -96q12 -16 18 -31l62 62q29 29 65.5 28.5t65.5 -28.5l158 -158l452 633h-1601q-20 0 -35 -13.5t-15 -33.5v-1844zM293 964q4 60 31.5 115.5t76.5 98.5t109 61q46 14 94 14q13 0 26 -1q60 -5 115.5 -31.5t98.5 -75.5 q61 -72 72 -161q3 -22 3 -43q0 -66 -26 -126q47 -63 80 -106t37 -45q4 -6 16 -10.5t29 12.5l717 985h163q20 0 35 -13.5t15 -33.5v-408l-936 -788q-6 -4 -13 -7q-4 -1 -7 -1q-8 0 -15 8l-297 239q-55 -21 -112 -21q-37 0 -76 9q-97 23 -162 100q-43 49 -61 109 q-14 48 -14 97q0 11 1 23z" />
<glyph unicode="v" d="M0 -342v2048h2048v-2048h-2048zM74 725q0 -20 13 -33.5t34 -13.5h868q20 0 34.5 13.5t14.5 33.5v877q0 20 -14 34.5t-35 14.5h-868q-20 0 -33.5 -14.5t-13.5 -34.5v-877zM1012 -219q0 -20 14 -34.5t35 -14.5h866q20 0 34.5 14t14.5 35v876q0 20 -14 35t-35 15h-866 q-20 0 -34.5 -14.5t-14.5 -35.5v-876z" />
<glyph unicode="w" d="M96 791q0 168 73 317t199 260t294.5 175.5t361.5 64.5t361.5 -64.5t294.5 -175.5t199 -260.5t73 -316.5q0 -186 -90 -353.5t-254 -283.5l178 -328q16 -31 -10 -57q-12 -12 -33 -13q-12 0 -25 6l-420 246q-135 -37 -274 -37q-193 0 -361.5 64.5t-294.5 175.5t-199 260.5 t-73 319.5z" />
<glyph unicode="x" d="M195 -141v454q0 35 15 62.5t44 40.5l575 268q-104 61 -166.5 177t-62.5 261q0 102 33 192.5t90 157t135 105.5t166 39t166 -39t135 -105.5t90 -156.5t33 -193q0 -141 -61.5 -256.5t-161.5 -179.5l571 -270q27 -14 42 -41t15 -62v-454q0 -47 -26.5 -79t-67.5 -32h-1470 q-41 0 -67.5 32t-26.5 79z" />
<glyph unicode="y" d="M63 -240v1844q0 20 14.5 33.5t35.5 13.5h1822q20 0 35 -13.5t15 -33.5v-1844q0 -20 -14.5 -33.5t-35.5 -13.5h-1822q-20 0 -35 13.5t-15 33.5zM618 797h150v-58v-479q0 -76 30.5 -123t77 -72.5t99.5 -33.5t100 -8h82q72 0 118 3t74.5 9t46 13t34.5 15v232v2v-2 q-41 -27 -90.5 -45.5t-100.5 -18.5q-27 0 -55.5 7.5t-52 17.5t-39 22.5t-15.5 22.5v279v217h314v57v160h-314v327h-180q-6 -125 -68 -215q-29 -41 -61 -67q-55 -45 -123 -45h-27v-217z" />
<glyph unicode="z" d="M104 791q0 168 73 317t199 260t295 175.5t361 64.5q193 0 362 -64.5t295 -175.5t198.5 -260.5t72.5 -316.5q0 -170 -72.5 -319.5t-198.5 -260.5t-295 -175.5t-362 -64.5q-139 0 -274 37l-420 -246q-12 -6 -25 -6q-20 0 -32 13q-27 27 -11 57l179 328q-164 117 -254.5 284 t-90.5 353zM598 532q0 -23 15.5 -39t37.5 -16h484q23 0 39 16.5t16 38.5v127l285 -135v545l-285 -133v-2v125q0 23 -16.5 39t-38.5 16h-484q-23 0 -38 -16.5t-15 -38.5v-527z" />
<glyph unicode="&#xaa;" d="M197 1090q-1 9 -2 16q0 30 18 51q10 16 27.5 23.5t35.5 7.5h410q-8 66 -17.5 113t-17.5 81q-4 18 -3 35q0 30 11 59q18 44 47 78.5t59 58t42 32.5q19 14 44 13q12 0 26 -3q35 -12 51 -49l186 -418h189q35 0 58 -23.5t23 -58.5v-827q0 -35 -23.5 -58.5t-57.5 -23.5h-758 q-14 0 -47 8t-69 28.5t-69.5 55.5t-48.5 90zM1485 233v914q0 25 17.5 41t41.5 16h240q25 0 42 -16.5t17 -40.5v-914q0 -23 -17.5 -40t-41.5 -17h-240q-25 0 -42 17t-17 40z" />
<glyph unicode="&#xba;" d="M63 -240v1844q0 20 14.5 33.5t35.5 13.5h1822q20 0 35 -13.5t15 -33.5v-1844q0 -20 -14.5 -33.5t-35.5 -13.5h-1822q-20 0 -35 13.5t-15 33.5zM264 682q0 -76 29 -142.5t78 -115.5t115.5 -78t142.5 -29t142.5 29t115.5 78t77.5 115.5t28.5 142.5t-28.5 142.5t-77.5 115.5 t-115.5 78t-142.5 29t-142.5 -29t-115.5 -78t-78 -115.5t-29 -142.5zM1055 682q0 -76 28.5 -142.5t77.5 -115.5t115.5 -78t142.5 -29t142.5 29t115.5 78t78 115.5t29 142.5t-29 142.5t-78 115.5t-115.5 78t-142.5 29t-142.5 -29t-115.5 -78t-77.5 -115.5t-28.5 -142.5z" />
<glyph unicode="&#x152;" horiz-adv-x="4096" d="M2105 399q70 -68 162 -102q90 -34 184 -34h6q97 1 192 39t173 118q-13 -2 -25 -2q-30 0 -56 11q-36 15 -50 42t1 57.5t71 55.5q-20 -2 -38 -3q-27 0 -51 6q-40 9 -69 27.5t-49.5 41t-30.5 44.5q23 25 52.5 37.5t78.5 16.5q-109 25 -155.5 76t-59.5 116q29 6 62.5 11.5 t56.5 3.5q-96 49 -133 116q-33 61 -33 114v11q172 -63 289 -115.5t207 -101.5q33 -18 69.5 -48t77.5 -71q25 70 54.5 137.5t66.5 129t81 113.5t99 87q-2 -16 -10 -30.5t-18 -26.5q66 61 151 72q-2 -16 -13 -27.5t-26.5 -21t-32 -16.5t-30.5 -13q10 2 38.5 14t59.5 21.5 t57.5 12.5t32.5 -11q6 -16 -8 -27.5t-36.5 -20t-45.5 -14.5t-31 -8q-20 -6 -45 -16q15 1 30 1q54 0 105 -18q66 -23 120 -66.5t95 -105t60 -131.5q4 -10 6 -21.5t4 -23.5q25 -10 58.5 -10t66.5 4t61.5 12t42.5 19q-23 -49 -76 -84t-134 -41q39 -16 103 -24q30 -3 57 -3 q31 0 59 4q-33 -35 -87 -61q-50 -25 -132 -25h-13q-39 -160 -146.5 -287t-256 -208.5t-324.5 -116.5q-100 -20 -199 -20l-153 12q-176 27 -339 116.5t-284 255.5zM63 -240v1844q0 20 14.5 33.5t35.5 13.5h1822q20 0 35 -13.5t15 -33.5v-1844q0 -20 -14.5 -33.5t-35.5 -13.5 h-1822q-20 0 -35 13.5t-15 33.5zM264 682q0 -76 29 -142.5t78 -115.5t115.5 -78t142.5 -29t142.5 29t115.5 78t77.5 115.5t28.5 142.5t-28.5 142.5t-77.5 115.5t-115.5 78t-142.5 29t-142.5 -29t-115.5 -78t-78 -115.5t-29 -142.5zM1055 682q0 -76 28.5 -142.5t77.5 -115.5 t115.5 -78t142.5 -29t142.5 29t115.5 78t78 115.5t29 142.5t-29 142.5t-78 115.5t-115.5 78t-142.5 29t-142.5 -29t-115.5 -78t-77.5 -115.5t-28.5 -142.5z" />
<glyph unicode="&#x153;" horiz-adv-x="4096" d="M2105 399q70 -68 162 -102q90 -34 184 -34h6q97 1 192 39t173 118q-13 -2 -25 -2q-30 0 -56 11q-36 15 -50 42t1 57.5t71 55.5q-20 -2 -38 -3q-27 0 -51 6q-40 9 -69 27.5t-49.5 41t-30.5 44.5q23 25 52.5 37.5t78.5 16.5q-109 25 -155.5 76t-59.5 116q29 6 62.5 11.5 t56.5 3.5q-96 49 -133 116q-33 61 -33 114v11q172 -63 289 -115.5t207 -101.5q33 -18 69.5 -48t77.5 -71q25 70 54.5 137.5t66.5 129t81 113.5t99 87q-2 -16 -10 -30.5t-18 -26.5q66 61 151 72q-2 -16 -13 -27.5t-26.5 -21t-32 -16.5t-30.5 -13q10 2 38.5 14t59.5 21.5 t57.5 12.5t32.5 -11q6 -16 -8 -27.5t-36.5 -20t-45.5 -14.5t-31 -8q-20 -6 -45 -16q15 1 30 1q54 0 105 -18q66 -23 120 -66.5t95 -105t60 -131.5q4 -10 6 -21.5t4 -23.5q25 -10 58.5 -10t66.5 4t61.5 12t42.5 19q-23 -49 -76 -84t-134 -41q39 -16 103 -24q30 -3 57 -3 q31 0 59 4q-33 -35 -87 -61q-50 -25 -132 -25h-13q-39 -160 -146.5 -287t-256 -208.5t-324.5 -116.5q-100 -20 -199 -20l-153 12q-176 27 -339 116.5t-284 255.5zM63 -240v1844q0 20 14.5 33.5t35.5 13.5h1822q20 0 35 -13.5t15 -33.5v-1844q0 -20 -14.5 -33.5t-35.5 -13.5 h-1822q-20 0 -35 13.5t-15 33.5zM264 682q0 -76 29 -142.5t78 -115.5t115.5 -78t142.5 -29t142.5 29t115.5 78t77.5 115.5t28.5 142.5t-28.5 142.5t-77.5 115.5t-115.5 78t-142.5 29t-142.5 -29t-115.5 -78t-78 -115.5t-29 -142.5zM1055 682q0 -76 28.5 -142.5t77.5 -115.5 t115.5 -78t142.5 -29t142.5 29t115.5 78t78 115.5t29 142.5t-29 142.5t-78 115.5t-115.5 78t-142.5 29t-142.5 -29t-115.5 -78t-77.5 -115.5t-28.5 -142.5z" />
<glyph unicode="&#x2013;" horiz-adv-x="1024" d="M205 512v205h614v-205h-614z" />
<glyph unicode="&#x2014;" d="M205 512v205h1638v-205h-1638z" />
<glyph unicode="&#x2122;" horiz-adv-x="4096" d="M2111 4v1364q0 20 14.5 33.5t35.5 13.5h1822q20 0 35 -13t15 -34v-1364q0 -20 -14.5 -33.5t-35.5 -13.5h-1822q-20 0 -35 13.5t-15 33.5zM2796 260l671 422l-671 422v-844zM63 -240v1260h519q-23 -47 -36.5 -101.5t-13.5 -111.5q0 -98 38 -186.5t102.5 -153t151.5 -102 t186 -37.5q98 0 186 37.5t152.5 102t102.5 153t38 186.5q0 115 -51 213h547v-1260q0 -20 -14.5 -33.5t-35.5 -13.5h-1822q-20 0 -35 13.5t-15 33.5zM63 1098v506q0 20 14.5 33.5t35.5 13.5h1822q20 0 35 -13.5t15 -33.5v-506h-596q-66 86 -164.5 136t-214.5 50 q-117 0 -215.5 -50t-163.5 -136h-568zM158 1184h67v372q-29 -12 -48 -40.5t-19 -63.5v-268zM274 1184h66v383h-66v-383zM387 1184h68v383h-68v-383zM502 1184h65v112v156v115h-65v-383zM588 807q0 88 32.5 165t90 134t134.5 90t165 33t164.5 -33t134 -90t90.5 -134t33 -165 t-33 -165t-90.5 -134t-134 -90t-164.5 -33t-165 33t-134.5 90t-90 134t-32.5 165zM674 807q0 -70 26.5 -131.5t72.5 -106.5t106.5 -71.5t130.5 -26.5t131 26.5t106 71.5t72 106.5t27 131.5t-27 130t-72 106.5t-106.5 73t-130.5 26.5q-70 0 -130.5 -26.5t-106.5 -73 t-72.5 -106.5t-26.5 -130zM1485 1296q0 -47 32.5 -79.5t79.5 -32.5h185q47 0 79.5 32.5t32.5 79.5v156q0 47 -32.5 81t-79.5 34h-185q-47 0 -79.5 -34t-32.5 -81v-156z" />
<glyph unicode="&#xe000;" horiz-adv-x="1615" d="M0 1615h1615v-1615h-1615v1615z" />
<glyph unicode="&#xfb01;" horiz-adv-x="4096" d="M2118 682q0 197 74.5 371t204.5 304t304 204.5t371 74.5q150 0 285 -44t252 -122v-915q0 -47 -34 -81t-81 -34t-82 34t-35 81v274q0 82 -19.5 141.5t-53 97.5t-81 55.5t-100.5 17.5h-469q-63 0 -119.5 -19.5t-99.5 -56.5t-67.5 -89t-24.5 -116q0 -33 8 -71.5t31.5 -73.5 t65.5 -62.5t110 -40.5q55 -10 93 -15t62.5 -13.5t36 -23.5t11.5 -44t-15.5 -44t-41 -22.5t-61.5 -8.5t-79 -1h-416q-14 59 -22 119t-8 123zM2222 248h416q150 0 243 74.5t93 203.5q0 90 -31 141.5t-77 79t-100 38t-100.5 18.5t-77 20.5t-30.5 44.5q0 47 36 65.5t103 18.5 h152h137q31 0 62.5 -4t56 -14t41 -29.5t16.5 -52.5v-289q0 -78 27.5 -137t74 -99t106.5 -59.5t124 -19.5q63 0 123.5 19.5t106.5 59.5t74 99t28 137v705q94 -123 147 -271.5t53 -314.5q0 -197 -74.5 -371t-204.5 -304t-304 -204.5t-371 -74.5q-139 0 -267 37.5t-237.5 106.5 t-198 165t-147.5 211zM76 682q0 197 74.5 370t202.5 301t301 202.5t370 74.5t370 -74.5t301 -202.5t202.5 -301t74.5 -370t-74.5 -370t-202.5 -301t-301 -202.5t-370 -74.5q-72 0 -138.5 10t-129.5 29q27 43 53.5 95t40.5 107q4 14 12 50q8 29 20.5 79t35.5 132 q25 -47 89 -82t142 -35q115 0 209 49t161.5 136t104.5 206t37 258q0 104 -43 202.5t-121 174.5t-189.5 121t-246.5 45q-170 0 -297 -54.5t-211 -140.5t-127 -191.5t-43 -205.5q0 -123 47 -222.5t148 -140.5q16 -6 29.5 0t17.5 25q4 12 9 36.5t9 39.5q4 18 2 27.5t-14 25.5 q-29 35 -46.5 79t-17.5 107q0 90 33 172t93.5 144.5t146.5 99.5t194 37q94 0 168 -27.5t125 -76t77 -115t26 -144.5q0 -102 -22 -194t-61.5 -161t-95 -108.5t-123.5 -39.5q-37 0 -68.5 14t-52 38.5t-29.5 58.5q-4 16 -4 33q0 19 5 38q10 45 24.5 91t27.5 89t22.5 83t9.5 73 q0 59 -32 101t-97 42q-37 0 -71 -18.5t-58.5 -52t-38.5 -78.5t-14 -97q0 -27 4 -53q4 -23 9 -48.5t17 -47.5q-41 -166 -63.5 -267.5t-36.5 -156.5q-16 -66 -23 -94q-12 -53 -15 -111q-2 -34 -2 -66q0 -21 1 -40q-125 55 -229.5 143t-179 200.5t-116.5 246t-42 278.5z" />
<glyph unicode="&#xfb02;" horiz-adv-x="4096" d="M2120 -39q45 53 100 82t84 39q43 14 91 23.5t90 13.5t73 6t41 2h34q13 0 29 -4q80 -57 146.5 -102.5t116 -87.5t77 -86t27.5 -97q0 -10 -1 -17t-3 -14h-856q-20 0 -34.5 14.5t-14.5 35.5v192zM2120 119v487q57 -45 133 -75.5t170 -30.5q41 0 88 6q-10 -27 -18.5 -50.5 t-8.5 -60.5q0 -66 28 -108.5t56 -81.5q-41 -2 -97 -2t-118.5 -7.5t-123 -23.5t-109.5 -53zM2120 1303v307q0 20 14 34.5t35 14.5h1823q20 0 34.5 -14.5t14.5 -34.5v-492h-355v357h-153v-357h-355v-147h355v-359h153v359h355v-1202q0 -20 -14.5 -35t-34.5 -15h-803 q16 55 16 119q0 72 -26.5 132.5t-68.5 111.5t-92 94t-98 80l-100 78q-25 18 -49.5 46t-24.5 75t26 78.5t52 58.5q45 35 86 72.5t73 85t50.5 105.5t18.5 136q0 72 -17.5 128.5t-43 99.5t-55.5 74.5t-54 54.5h170l157 127h-592q-55 0 -114.5 -6.5t-121 -22.5t-124 -48 t-121.5 -81q-4 -4 -8 -7t-8 -7zM2224 1079q0 53 9.5 107.5t45.5 99.5q35 41 88.5 66.5t106.5 25.5q88 0 153.5 -52t109.5 -130t65.5 -168t21.5 -166q0 -31 -16.5 -82t-57.5 -98q-35 -41 -85 -55.5t-103 -14.5q-90 0 -153.5 46.5t-104.5 117t-60.5 151t-19.5 152.5zM76 682 q0 197 74.5 370t202.5 301t301 202.5t370 74.5t370 -74.5t301 -202.5t202.5 -301t74.5 -370t-74.5 -370t-202.5 -301t-301 -202.5t-370 -74.5q-72 0 -138.5 10t-129.5 29q27 43 53.5 95t40.5 107q4 14 12 50q8 29 20.5 79t35.5 132q25 -47 89 -82t142 -35q115 0 209 49 t161.5 136t104.5 206t37 258q0 104 -43 202.5t-121 174.5t-189.5 121t-246.5 45q-170 0 -297 -54.5t-211 -140.5t-127 -191.5t-43 -205.5q0 -123 47 -222.5t148 -140.5q16 -6 29.5 0t17.5 25q4 12 9 36.5t9 39.5q4 18 2 27.5t-14 25.5q-29 35 -46.5 79t-17.5 107 q0 90 33 172t93.5 144.5t146.5 99.5t194 37q94 0 168 -27.5t125 -76t77 -115t26 -144.5q0 -102 -22 -194t-61.5 -161t-95 -108.5t-123.5 -39.5q-37 0 -68.5 14t-52 38.5t-29.5 58.5q-4 16 -4 33q0 19 5 38q10 45 24.5 91t27.5 89t22.5 83t9.5 73q0 59 -32 101t-97 42 q-37 0 -71 -18.5t-58.5 -52t-38.5 -78.5t-14 -97q0 -27 4 -53q4 -23 9 -48.5t17 -47.5q-41 -166 -63.5 -267.5t-36.5 -156.5q-16 -66 -23 -94q-12 -53 -15 -111q-2 -34 -2 -66q0 -21 1 -40q-125 55 -229.5 143t-179 200.5t-116.5 246t-42 278.5z" />
<glyph unicode="&#xfb03;" horiz-adv-x="6144" d="M4166 682q0 197 74.5 371t204.5 304t304 204.5t371 74.5q150 0 285 -44t252 -122v-915q0 -47 -34 -81t-81 -34t-82 34t-35 81v274q0 82 -19.5 141.5t-53 97.5t-81 55.5t-100.5 17.5h-469q-63 0 -119.5 -19.5t-99.5 -56.5t-67.5 -89t-24.5 -116q0 -33 8 -71.5t31.5 -73.5 t65.5 -62.5t110 -40.5q55 -10 93 -15t62.5 -13.5t36 -23.5t11.5 -44t-15.5 -44t-41 -22.5t-61.5 -8.5t-79 -1h-416q-14 59 -22 119t-8 123zM4270 248h416q150 0 243 74.5t93 203.5q0 90 -31 141.5t-77 79t-100 38t-100.5 18.5t-77 20.5t-30.5 44.5q0 47 36 65.5t103 18.5 h152h137q31 0 62.5 -4t56 -14t41 -29.5t16.5 -52.5v-289q0 -78 27.5 -137t74 -99t106.5 -59.5t124 -19.5q63 0 123.5 19.5t106.5 59.5t74 99t28 137v705q94 -123 147 -271.5t53 -314.5q0 -197 -74.5 -371t-204.5 -304t-304 -204.5t-371 -74.5q-139 0 -267 37.5t-237.5 106.5 t-198 165t-147.5 211zM2124 682q0 197 74.5 370t202.5 301t301 202.5t370 74.5t370 -74.5t301 -202.5t202.5 -301t74.5 -370t-74.5 -370t-202.5 -301t-301 -202.5t-370 -74.5q-72 0 -138.5 10t-129.5 29q27 43 53.5 95t40.5 107q4 14 12 50q8 29 20.5 79t35.5 132 q25 -47 89 -82t142 -35q115 0 209 49t161.5 136t104.5 206t37 258q0 104 -43 202.5t-121 174.5t-189.5 121t-246.5 45q-170 0 -297 -54.5t-211 -140.5t-127 -191.5t-43 -205.5q0 -123 47 -222.5t148 -140.5q16 -6 29.5 0t17.5 25q4 12 9 36.5t9 39.5q4 18 2 27.5t-14 25.5 q-29 35 -46.5 79t-17.5 107q0 90 33 172t93.5 144.5t146.5 99.5t194 37q94 0 168 -27.5t125 -76t77 -115t26 -144.5q0 -102 -22 -194t-61.5 -161t-95 -108.5t-123.5 -39.5q-37 0 -68.5 14t-52 38.5t-29.5 58.5q-4 16 -4 33q0 19 5 38q10 45 24.5 91t27.5 89t22.5 83t9.5 73 q0 59 -32 101t-97 42q-37 0 -71 -18.5t-58.5 -52t-38.5 -78.5t-14 -97q0 -27 4 -53q4 -23 9 -48.5t17 -47.5q-41 -166 -63.5 -267.5t-36.5 -156.5q-16 -66 -23 -94q-12 -53 -15 -111q-2 -34 -2 -66q0 -21 1 -40q-125 55 -229.5 143t-179 200.5t-116.5 246t-42 278.5zM76 682 q0 197 74.5 370t202.5 301t301 202.5t370 74.5t370 -74.5t301 -202.5t202.5 -301t74.5 -370t-74.5 -370t-202.5 -301t-301 -202.5t-370 -74.5q-72 0 -138.5 10t-129.5 29q27 43 53.5 95t40.5 107q4 14 12 50q8 29 20.5 79t35.5 132q25 -47 89 -82t142 -35q115 0 209 49 t161.5 136t104.5 206t37 258q0 104 -43 202.5t-121 174.5t-189.5 121t-246.5 45q-170 0 -297 -54.5t-211 -140.5t-127 -191.5t-43 -205.5q0 -123 47 -222.5t148 -140.5q16 -6 29.5 0t17.5 25q4 12 9 36.5t9 39.5q4 18 2 27.5t-14 25.5q-29 35 -46.5 79t-17.5 107 q0 90 33 172t93.5 144.5t146.5 99.5t194 37q94 0 168 -27.5t125 -76t77 -115t26 -144.5q0 -102 -22 -194t-61.5 -161t-95 -108.5t-123.5 -39.5q-37 0 -68.5 14t-52 38.5t-29.5 58.5q-4 16 -4 33q0 19 5 38q10 45 24.5 91t27.5 89t22.5 83t9.5 73q0 59 -32 101t-97 42 q-37 0 -71 -18.5t-58.5 -52t-38.5 -78.5t-14 -97q0 -27 4 -53q4 -23 9 -48.5t17 -47.5q-41 -166 -63.5 -267.5t-36.5 -156.5q-16 -66 -23 -94q-12 -53 -15 -111q-2 -34 -2 -66q0 -21 1 -40q-125 55 -229.5 143t-179 200.5t-116.5 246t-42 278.5z" />
<glyph unicode="&#xfb04;" horiz-adv-x="6144" d="M4168 -39q45 53 100 82t84 39q43 14 91 23.5t90 13.5t73 6t41 2h34q13 0 29 -4q80 -57 146.5 -102.5t116 -87.5t77 -86t27.5 -97q0 -10 -1 -17t-3 -14h-856q-20 0 -34.5 14.5t-14.5 35.5v192zM4168 119v487q57 -45 133 -75.5t170 -30.5q41 0 88 6q-10 -27 -18.5 -50.5 t-8.5 -60.5q0 -66 28 -108.5t56 -81.5q-41 -2 -97 -2t-118.5 -7.5t-123 -23.5t-109.5 -53zM4168 1303v307q0 20 14 34.5t35 14.5h1823q20 0 34.5 -14.5t14.5 -34.5v-492h-355v357h-153v-357h-355v-147h355v-359h153v359h355v-1202q0 -20 -14.5 -35t-34.5 -15h-803 q16 55 16 119q0 72 -26.5 132.5t-68.5 111.5t-92 94t-98 80l-100 78q-25 18 -49.5 46t-24.5 75t26 78.5t52 58.5q45 35 86 72.5t73 85t50.5 105.5t18.5 136q0 72 -17.5 128.5t-43 99.5t-55.5 74.5t-54 54.5h170l157 127h-592q-55 0 -114.5 -6.5t-121 -22.5t-124 -48 t-121.5 -81q-4 -4 -8 -7t-8 -7zM4272 1079q0 53 9.5 107.5t45.5 99.5q35 41 88.5 66.5t106.5 25.5q88 0 153.5 -52t109.5 -130t65.5 -168t21.5 -166q0 -31 -16.5 -82t-57.5 -98q-35 -41 -85 -55.5t-103 -14.5q-90 0 -153.5 46.5t-104.5 117t-60.5 151t-19.5 152.5zM2124 682 q0 197 74.5 370t202.5 301t301 202.5t370 74.5t370 -74.5t301 -202.5t202.5 -301t74.5 -370t-74.5 -370t-202.5 -301t-301 -202.5t-370 -74.5q-72 0 -138.5 10t-129.5 29q27 43 53.5 95t40.5 107q4 14 12 50q8 29 20.5 79t35.5 132q25 -47 89 -82t142 -35q115 0 209 49 t161.5 136t104.5 206t37 258q0 104 -43 202.5t-121 174.5t-189.5 121t-246.5 45q-170 0 -297 -54.5t-211 -140.5t-127 -191.5t-43 -205.5q0 -123 47 -222.5t148 -140.5q16 -6 29.5 0t17.5 25q4 12 9 36.5t9 39.5q4 18 2 27.5t-14 25.5q-29 35 -46.5 79t-17.5 107 q0 90 33 172t93.5 144.5t146.5 99.5t194 37q94 0 168 -27.5t125 -76t77 -115t26 -144.5q0 -102 -22 -194t-61.5 -161t-95 -108.5t-123.5 -39.5q-37 0 -68.5 14t-52 38.5t-29.5 58.5q-4 16 -4 33q0 19 5 38q10 45 24.5 91t27.5 89t22.5 83t9.5 73q0 59 -32 101t-97 42 q-37 0 -71 -18.5t-58.5 -52t-38.5 -78.5t-14 -97q0 -27 4 -53q4 -23 9 -48.5t17 -47.5q-41 -166 -63.5 -267.5t-36.5 -156.5q-16 -66 -23 -94q-12 -53 -15 -111q-2 -34 -2 -66q0 -21 1 -40q-125 55 -229.5 143t-179 200.5t-116.5 246t-42 278.5zM76 682q0 197 74.5 370 t202.5 301t301 202.5t370 74.5t370 -74.5t301 -202.5t202.5 -301t74.5 -370t-74.5 -370t-202.5 -301t-301 -202.5t-370 -74.5q-72 0 -138.5 10t-129.5 29q27 43 53.5 95t40.5 107q4 14 12 50q8 29 20.5 79t35.5 132q25 -47 89 -82t142 -35q115 0 209 49t161.5 136t104.5 206 t37 258q0 104 -43 202.5t-121 174.5t-189.5 121t-246.5 45q-170 0 -297 -54.5t-211 -140.5t-127 -191.5t-43 -205.5q0 -123 47 -222.5t148 -140.5q16 -6 29.5 0t17.5 25q4 12 9 36.5t9 39.5q4 18 2 27.5t-14 25.5q-29 35 -46.5 79t-17.5 107q0 90 33 172t93.5 144.5 t146.5 99.5t194 37q94 0 168 -27.5t125 -76t77 -115t26 -144.5q0 -102 -22 -194t-61.5 -161t-95 -108.5t-123.5 -39.5q-37 0 -68.5 14t-52 38.5t-29.5 58.5q-4 16 -4 33q0 19 5 38q10 45 24.5 91t27.5 89t22.5 83t9.5 73q0 59 -32 101t-97 42q-37 0 -71 -18.5t-58.5 -52 t-38.5 -78.5t-14 -97q0 -27 4 -53q4 -23 9 -48.5t17 -47.5q-41 -166 -63.5 -267.5t-36.5 -156.5q-16 -66 -23 -94q-12 -53 -15 -111q-2 -34 -2 -66q0 -21 1 -40q-125 55 -229.5 143t-179 200.5t-116.5 246t-42 278.5z" />
</font>
</defs>
</svg>
