<?xml version="1.0" encoding="utf-8"?>
<!-- Generator: Adobe Illustrator 18.1.1, SVG Export Plug-In . SVG Version: 6.00 Build 0)  -->
<svg version="1.1" id="Layer_1" xmlns="http://www.w3.org/2000/svg" xmlns:xlink="http://www.w3.org/1999/xlink" x="0px" y="0px"
	 viewBox="0 0 255.3 214.7" enable-background="new 0 0 255.3 214.7" xml:space="preserve">
<g>
	<path fill="#198DA0" d="M18.7,320c0-7.3,57.4-13.3,109.2-13.3c61.7,0,109.2,5.9,109.2,13.3"/>
	<path fill="#198DA0" d="M127.9,333.3c-60.3,0-109.2-5.9-109.2-13.3"/>
	<path fill="#198DA0" d="M237.1,320c0,7.3-48.9,13.3-109.2,13.3"/>
	<path fill="#EAF7FE" d="M24.6,271.9c0,0,2.6-2.6,4.7-3.4c0,0,2.9,6.8,6.8,12c3.9,5.2,12.7,9.6,17.9,9.6l9.8-0.4
		c-1.2,5.2-3.6,9.7-8.6,9.9l-0.6,0.9c-0.1,0-0.2,0-0.3,0c-0.1,1.5-3.2,1.8-4,2.9c-2.6,3.2-4.5,7.6-5.9,11.6c-1,2.9-0.5,2.9-1.2,5.9
		c-0.2,1-1.2,2-1.6,3c2.8-0.9,10.6-1.6,14.7-1.9l0.1,3.6c0,0,0.7,0.6,1.8,1.1c0,0,0.1,0,0.1,0c0.4,0,0.7,0.1,1.1,0.2
		c6.2-0.6,10.4,0.5,17.6-0.1c1.4-0.2,2.7-0.4,3.9-1.1c0.3-1,0.4-1.1,0.6-2.4c0-0.2,0-0.5,0.1-0.8c0.1,0,0.2,0,0.3-0.1
		c0,0,0.1,0,0.3,0c0,0,0.1,0,0.1,0c0.1,0,0.2,0,0.3,0c0.1,0,0.2,0,0.2,0c1.3-0.1,3.4-0.2,4.7-0.3c4.2,0,9.7,0.5,9.7,0.5
		c0.3-4.7,0.7-12,8.3-33.3l1.9-1.2c0,0,23.4,8.2,45-0.3c1.7,4.2,7.3,18.4,8.1,27.4c0.7,1,0.7,2.4,0.7,3.8c0,1.2,0.1,2.4,0.2,3.6
		c0.8-0.1,3.6-0.5,7.1-0.4c1.3,0.1,3.4,0.2,4.7,0.3c0.1,0,0.1,0,0.2,0c0.1,0,0.2,0,0.3,0c0,0,0.1,0,0.1,0c0.1,0,0.2,0,0.3,0
		c0.1,0,0.2,0,0.3,0.1c0.1,0.3,0.1,0.5,0.1,0.8c0.2,1.3,0.2,1.4,0.6,2.4c0.1,0.1,0.2,0.1,0.3,0.2c3.9-0.5,7.8-0.6,11.7-0.4
		c3.1,0.1,6.1,0.7,9.1,1.3c0,0,0,0.1,0,0.1c0.3,0,0.6,0.1,0.9,0.1c1.6,0.3,3.2,0.6,4.9,0.7c0-2,0-3.8,0-5.4c3.3,0.2,8,0.8,9.9,1.1
		c0.8,0.2,1.4,0.3,2.1,0.4c0.1,0,0.2,0.1,0.3,0.1c0,0,0,0,0,0c0.7,0.2,1.4,0.3,2.4,0.7c-0.1-1.8-0.1-1.7-0.4-3.9
		c-0.2-1.7-1.4-6.9-3.7-9c0,0,2.5,1.1,3.3,1.5c-2.5-3.3-3.7-8.1-11.4-11.4c0,0,1.4-0.7,2.7-0.8c-1.3-0.8-2.4-1.2-3.7-1.1
		c0.5-1.3,2.5-4.6,4.2-5.1c0,0-1.1-0.7-2.8-0.2c-0.6,0.3-1.3,0.7-1.9,1.1c-0.2,0.2-0.6,0-0.6-0.3c-0.5-2-0.9-4-1.2-6.1
		c15.6-0.6,17.7-8.5,17.7-8.5c1.3,1,1.3,3.4,1.3,3.4c6.8-8.8,6-17.7,6-17.7c1.6,0.3,2.9,1.3,2.9,1.3c0.8-13.5-3.4-36.7-3.4-36.7
		c2.1,1,3.4-0.3,3.4-0.3c-2.3-1-2.6-3.6-2.6-3.6c3.4,0.3,3.9-2.9,3.9-2.9c-3.4,0-7-1.6-9.6-13.5c-2.6-12-6.5-24.2-6.5-24.2
		c4.2,0,6.5-1.8,6.5-1.8c-2.9-1.3-9.1-5.7-13.3-11.2c-4.2-5.5-14.8-14.3-14.8-14.3s0-5.7,0-17.7c0-12,7.7-21.3,7.7-21.3
		c-5.2,0-7.7,4.7-7.7,4.7s0-0.3,0-25.2s12.6-36.1,12.6-36.1c-3.9-0.3-6.5,1.6-6.5,1.6c1.8-18.5,7.5-23.9,7.5-23.9
		c-20.8-5.5-32.4,6.8-32.4,6.8c-2.3-11.2,6.8-17.7,6.8-17.7c-10.7-2.3-19.5,0.8-19.5,0.8c0-16.4,6.5-21.8,6.5-21.8"/>
	<path fill="#EAF7FE" d="M24.4,246.7l4.4,3.1c0,0-3.4,14-4.2,22.1"/>
	<path fill="#EAF7FE" d="M167.7,9.2c-32.5,0-51,24.4-51,24.4c-1.3-10.4,1.6-19.5,1.6-19.5C86.8,27.4,78.5,56.8,78.5,56.8
		c-2.1-4.9-2.3-16.2-2.3-16.2s-13,21.8-15.3,36.9c-2.3,15.1,2.1,58.4,2.1,58.4s-2.1-2.6-6.5-3.1c0,0,4.7,5.2,4.7,16.9
		c0,0-1.8-1.6-4.9-0.8c0,0,4.9,4.4,5.5,12c0,0-5.7,3.9-8.8,7.8c0,0-4.9,0.3-7.5,1c0,0,4.2,2.3,4.9,4.4c0,0-12.2,12.5-18.5,22.6
		c0,0,5.5-3.4,9.4-2.3c0,0-8.6,10.4-11.4,27.6c0,0,4.2-2.1,6-1c0,0-5.2,10.9-5.5,22.4l-5.7,3.4"/>
	<path fill="#CDEAF5" d="M81.6,322.4c0,0,0.6-6.6-1.5-11.3c0,0,4.1,0.3,4.7,11C84.8,322.1,81.9,322.4,81.6,322.4z"/>
	<path fill="#CDEAF5" d="M61.2,300.2l0-0.2C61.2,300.1,61.2,300.2,61.2,300.2z"/>
	<path fill="#CDEAF5" d="M65,321.9C65,321.9,65,321.9,65,321.9c0,0,0-0.1,0-0.1L65,321.9z"/>
	<path fill="#CDEAF5" d="M167.7,9.2c-32.5,0-51,24.4-51,24.4c-1.3-10.4,1.6-19.5,1.6-19.5C86.8,27.4,78.5,56.8,78.5,56.8
		c-2.1-4.9-2.3-16.2-2.3-16.2s-13,21.8-15.3,36.9c-2.3,15.1,2.1,58.4,2.1,58.4s-2.1-2.6-6.5-3.1c0,0,4.7,5.2,4.7,16.9
		c0,0-1.8-1.6-4.9-0.8c0,0,4.9,4.4,5.5,12c0,0-5.7,3.9-8.8,7.8c0,0-4.9,0.3-7.5,1c0,0,4.2,2.3,4.9,4.4c0,0-12.2,12.5-18.5,22.6
		c0,0,5.5-3.4,9.4-2.3c0,0-8.6,10.4-11.4,27.6c0,0,4.2-2.1,6-1c0,0-5.2,10.9-5.5,22.4l-5.7,3.4"/>
	<path fill="#CDEAF5" d="M24.6,271.9c0,0,2.6-2.6,4.7-3.4c0,0,2.9,6.8,6.8,12c3.9,5.2,12.7,9.6,17.9,9.6l0.7-0.1
		c-0.3,1.8-0.6,3.6-1.1,5.3c-0.1,0.2-0.4,0.4-0.6,0.3c-0.6-0.4-1.2-0.8-1.9-1.1c-1.7-0.6-2.8,0.2-2.8,0.2c1.7,0.4,3.8,3.7,4.2,5.1
		c-1.4-0.1-2.4,0.2-3.7,1.1c1.3,0.2,2.7,0.8,2.7,0.8c-7.7,3.3-8.9,8-11.4,11.4c0.8-0.4,3.3-1.5,3.3-1.5c-2.3,2.1-3.5,7.3-3.7,9
		c-0.2,2.2-0.2,2.2-0.4,3.9c2-0.7,3-0.8,4.7-1.2c2.6-0.4,9.7-1.6,12.3-1.4l-0.4,4.8c0,0,0.1,0,0.1,0c1.3,0,2.4-0.1,3.7-0.2
		c0-1.4,0.1-2.6,0.2-4c-0.1-2.4,0.2-4.5,0.7-6.9c0-0.1,0-0.1,0.1-0.2c1-3.3,2.6-5.1,3.7-6.3c0.4-0.4,0.7-0.8,0.9-1.3
		c0.6-0.9,1.3-2,1.8-3.4c1.1-2.9,0.6-9.3-1.5-15.6c2.3,3.3,4.3,6.1,5.3,7.1l-0.1-8c0,0,4.2,4.2,7.9,7.3c1.8,1.6,4,3.4,5.6,4.2
		c0.1,0.1,0.2,0.1,0.3,0.2l0,0c0,0,0,0,0,0c2.1,1.2,4.3,2.2,6.3,3.6c0.2,0.1,0.4,0.3,0.7,0.4c0.9,0.6,2.6,1.4,4.1,2.2l1.4,16.6
		c1.3-17.5,11.2-34.2,11.2-34.2l-0.4-0.1c-3.1-1-25.6-8.7-38.9-36.6c-0.9-1.8,4.9,2.1,4.9,2.1c-5.5-13.3-7.5-34.6-7.5-34.6
		c1.8,1.6,3.6,1.8,3.6,1.8c-3.9-10.9-5.5-24.4-5.5-36.7c-1-65.8,23.3-80.9,23.3-80.9c-4.2-1.6-8.6-1.4-8.6-1.4
		c4.8-11.6,20.8-27.7,20.8-27.7c-4.3,0.3-21.1,4.8-21.1,4.8c13.9-36.3,28-45.9,28-45.9c-1,8.7,2.3,17.9,2.3,17.9
		c30.2-37.3,54.4-35.6,54.4-35.6c1.8-3.7,3.8-6.3,3.8-6.3"/>
	<path fill="#CDEAF5" d="M24.4,246.7l4.4,3.1c0,0-3.4,14-4.2,22.1"/>
	<path fill="#CDEAF5" d="M202,322.2c0,0-0.3-9.4-2.4-14.2c0,0,5.6,3.4,5.6,14.3C205.1,322.4,202.3,322.2,202,322.2z"/>
	<path fill="#ACDBE3" d="M56.5,273.7c3.7-36.1,4.7-106.6,4.7-106.6c-8,15.8-14.4,44.5-14.4,44.5l1.6,6.2l-3.5-1.6
		c-5.6,19.6-1.8,45.8-0.6,53.2C47.8,272.3,52.1,273.2,56.5,273.7z"/>
	<path fill="#ACDBE3" d="M49,272.9c1.1,5.8,2.3,11.3,3.6,17.1c1,0.1,2.1,0.1,2.1,0.1c0.9-3.5,1-8.9,1.7-15.5
		C53.9,274.3,51.3,273.8,49,272.9z"/>
	<path fill="#CDEAF5" d="M171.2,304c-0.2,0.1-0.4,0-0.5-0.2c-0.4,0.1-0.7,0.2-0.9,0.2l0,0c5.4-3.9,5.9-8,5.9-8
		c-3.6,1.6-7.3,2.2-9.2,2.4c12.4-10.7,14.5-30.7,14.5-30.7c-5.1,6.2-12.3,11.5-17.9,15l0,0c0,0-3.7,2.1-7.2,3.7
		c-0.2,0-0.3,0-0.4,0.2c-1.8,0.8-3.4,1.5-4.4,1.7c0,0,2.9,5.3,4.1,8.2l-0.2,0.2c0,0,4.2,9.8,5.7,19.3c0.2,1.6,0.3,3,0.4,4.1
		c0.1,1.4,0.2,2.4,0.2,2.4c5.5-0.8,13.3,0,13.3,0c0,0.9,0.5,3,0.5,3.4c2.6-0.4,5.2-0.5,7.9-0.5C182.8,316.1,182.4,300.8,171.2,304z"
		/>
	<path fill="#85C1CE" d="M56.2,276.5c-8.6-1.5-16.4-11.4-16.4-11.4c6.3,6.7,14.1,7.6,14.1,7.6c1-7.6-5.3-25.1-5.3-25.1
		c4.7,5.8,7.2,12.5,8.6,18L56.2,276.5z"/>
	<path fill="#ACDBE3" d="M75.8,263c0,0,6.8,11.9,12.7,17.1c6.4,5.6,12.4,13.5,14.9,18.2c0,0,3.2-7.5,5-10.1
		C108.4,288.3,89.4,282.7,75.8,263z"/>
	<path fill="#ACDBE3" d="M164.2,286.3c0.9-1.3,2-2.6,3.1-3.8c1.7-2.1,3.6-4.1,5-6.3c-2.4,1.8-5.2,3.4-7.9,5.1
		c-8.1,5.5-13.7,7-13.7,7c1.8,2.6,5,10.1,5,10.1c1.5-2.9,4.3-6.9,7.7-10.9C163.6,287.1,164,286.7,164.2,286.3z"/>
	<path fill="#5C5B5D" d="M73.2,85.1c-0.7,0.1-3.1,0.1-3.1,0.1c-21.4,1.5-37.2-15.1-37.2-15.1s-1.4,13,7.9,24.3
		c9.3,11.4,28.2,13.3,28.2,13.3c0.6,2.7-0.7,8.6-0.7,8.6s5.5-6.1,6.9-17.7C76.2,90.5,73.7,85.1,73.2,85.1"/>
	<path fill="#747F83" d="M73.2,85.1c-0.7,0-3.1,0.1-3.1,0.1c-21.4,1.5-37.2-15.1-37.2-15.1s9.8,28.3,42.5,26.1
		C75.4,96.2,76.3,91,73.2,85.1"/>
	<path fill="#5C5B5D" d="M180.2,85.1c0.7,0.1,3.1,0.1,3.1,0.1c21.4,1.5,37.2-15.1,37.2-15.1s1.4,13-7.9,24.3
		c-9.3,11.4-28.2,13.3-28.2,13.3c-0.6,2.7,0.7,8.6,0.7,8.6s-5.5-6.1-6.9-17.7C177.3,90.5,179.8,85.1,180.2,85.1"/>
	<path fill="#747F83" d="M180.2,85.1c0.7,0,3.1,0.1,3.1,0.1c21.4,1.5,37.2-15.1,37.2-15.1s-9.8,28.3-42.5,26.1
		C178,96.2,177.1,91,180.2,85.1"/>
	<path fill="#CDEAF5" d="M62.7,181.1c0,0-15,55.4,0,90.9V181.1z"/>
	<path fill="#CDEAF5" d="M215.5,268.7c-7.6,5.8-15.5,6.2-15.5,6.2c-0.4-7.6,7.9-24.2,7.9-24.2c-1.9,1.1-3.4,2.5-4.6,3.9l-0.1-5.6
		l6-4.9l-4.8-3.9l6.1-24.6l-5.9,3.9c0,0-1.8-35-0.5-50.1c0,0-7.4-7.4-11.1-10.4c0,0,0.7,10.8,1.5,28c3.3,13.8,8.5,42.4,2.1,67.5
		c0.1,5.1,0.1,10.3,0.2,15.5c0,0,3.2,11.1,4.2,18.9c0,0,1,0.3,2.6,0l-0.1-11.9C211.5,274.7,215.5,268.7,215.5,268.7z"/>
	<ellipse fill="#CDEAF5" cx="151.8" cy="161.5" rx="8.5" ry="10.7"/>
	<ellipse fill="#FFFFFF" cx="151.9" cy="158.6" rx="8.3" ry="10.5"/>
	<path fill="#4F4E51" d="M149.7,153.2c-0.1,0.3-0.1,0.5-0.1,0.8c0,1.5,1,2.7,2.2,2.7c1.1,0,1.9-1,2.1-2.2c0.7,0.9,1.1,2.1,1.1,3.4
		c0,2.7-1.8,5-4,5c-2.2,0-4-2.2-4-5C147,155.7,148.1,153.9,149.7,153.2z"/>
	<ellipse fill="#CDEAF5" cx="111.2" cy="161.5" rx="8.5" ry="10.7"/>
	<ellipse fill="#FFFFFF" cx="111.4" cy="158.6" rx="8.3" ry="10.5"/>
	<path fill="#4F4E51" d="M110.7,153.2c-0.1,0.3-0.1,0.5-0.1,0.8c0,1.5,1,2.7,2.2,2.7c1.1,0,1.9-1,2.1-2.2c0.7,0.9,1.1,2.1,1.1,3.4
		c0,2.7-1.8,5-4,5c-2.2,0-4-2.2-4-5C108,155.7,109.1,153.9,110.7,153.2z"/>
	<path fill="#5C5B5D" d="M180.4,148.6c-3.8-0.6-10.3-1.2-18.2-0.8c-10.3,0.5-19.1,2-24.3,2.8c-1.6,0.3-2.8,0.5-3.7,0.6l-1,0.1
		c-1.2,0.2-1.9,0.3-2.6,0.3c-0.6,0-1.4-0.1-2.6-0.3l-1-0.1c-0.9-0.1-2.2-0.3-3.7-0.6c-5.3-0.9-14.1-2.3-24.3-2.8
		c-7.9-0.4-14.5,0.2-18.2,0.8c0,0-4,0.5-7.5,2l0.7,4.4c0,0,3.6-0.9,7.2-1.3c0.7,6.2,1.9,14.1,1.9,14.1l0,0.2
		c0.1,0.4,0.2,0.8,0.3,1.2c0.7,3.1,1.5,4.9,4.4,6c2.9,1.1,9.7,2.1,16.5,2.4c2.5,0.1,5.4,0,8.4-0.5c4.3-0.6,8.3-1.8,9.8-2.9
		c2.2-1.6,3.3-5.7,4.1-8.3l0.2-0.8c0.3-0.9,0.5-1.9,0.7-2.8c0.3-1.3,0.7-2.7,1-3.2c0.1-0.1,0.3-0.4,1.2-0.5c0.3,0,0.6-0.1,1-0.1
		c0.4,0,0.7,0,1,0.1c1,0.1,1.2,0.4,1.2,0.5c0.3,0.5,0.6,1.9,1,3.2c0.2,0.9,0.5,1.9,0.7,2.8l0.2,0.8c0.8,2.7,1.9,6.7,4.1,8.3
		c1.5,1.1,5.4,2.3,9.8,2.9c2.9,0.4,5.8,0.6,8.4,0.5c6.8-0.4,13.6-1.4,16.5-2.4c2.9-1.1,3.6-2.9,4.4-6c0.1-0.4,0.2-0.8,0.3-1.2l0-0.2
		c0,0,1.3-7.9,1.9-14.1c3.6,0.5,7.2,1.3,7.2,1.3l0.7-4.4C184.4,149.2,180.4,148.6,180.4,148.6z M123.7,158.1L123.7,158.1
		c-0.2,1.5-1.1,8.7-2.6,11.1c-1.5,2.4-2,3-6.5,3.7c-0.2,0-0.4,0.1-0.6,0.1c-4.9,0.7-13.9,0.8-18.9-0.1l-0.3-0.1
		c-5.1-1-6.9-1.4-7.5-3c-0.7-2.2-2.1-12.1-2.2-14.3c-0.1-1.6,1.4-2.4,1.9-2.5c0.3-0.1,0.7-0.1,1.2-0.2c3.6-0.5,11.5-1,15.2-0.9
		c4.7,0.2,16.2,1.8,18.8,3C124,155.9,123.9,156.6,123.7,158.1z M173.8,169.9c-0.5,1.6-2.3,2-7.5,3L166,173c-5,1-14,0.8-18.9,0.1
		c-0.2,0-0.4-0.1-0.6-0.1c-4.6-0.8-5.1-1.4-6.5-3.7c-1.5-2.4-2.4-9.6-2.6-11.1l0-0.1c-0.2-1.5-0.3-2.2,1.7-3.1
		c2.6-1.2,14.1-2.8,18.8-3c3.7-0.2,11.6,0.4,15.2,0.9c0.6,0.1,1,0.2,1.2,0.2c0.4,0.1,1.9,0.9,1.9,2.5
		C175.9,157.8,174.5,167.7,173.8,169.9z"/>
	<path fill="#A1D4E9" d="M113.9,137.6c0,0-9.4-4.5-14.8,3.8c0,0-0.6-8.3,7-9.2C113.7,131.3,113.9,137.6,113.9,137.6z"/>
	<path fill="#A1D4E9" d="M110.3,125.4c0,0-8.7-4.1-12.7,3.8c0,0-1.3-6.9,4.9-8.6C108.8,119,110.3,125.4,110.3,125.4z"/>
	<path fill="#A1D4E9" d="M147.5,142.6c0,0,7.3-3.5,11.5,3c0,0,0.4-6.4-5.5-7.1C147.6,137.8,147.5,142.6,147.5,142.6z"/>
	<path fill="#A1D4E9" d="M152.7,131.1c0,0,7.4-1.2,8.7,5.6c0,0,2.5-4.9-1.8-7.5C155.3,126.7,152.7,131.1,152.7,131.1z"/>
	<path fill="#B2DEEF" d="M113.2,203.2c0,0,5.2-3.5,8.2-3.9c0,0,0.7,6.5,3.7,9.8c0,0,6.5-5.9,13-6.3c0,0,1.7,3.6,4.4,4.9l0,0
		c1,0.6,2.2,1.2,3.3,1.5c0,0,3.7-2.2,4.8-6.3c0,0,0.4,8.6-5.1,13.4c0,0-4.1-2-7.1-5.3c-0.9-0.9-1.8-1.9-2.3-2.7
		c0,0-9.6,6.8-9.9,10.6c0,0-6.9-6.7-9.3-11.9c0,0-4.6,1.5-5.9,2.4c0,0-3.7-6.1-4.5-11.5C106.5,197.7,111,202,113.2,203.2z"/>
	<path fill="#5C5B5D" d="M130.6,186.2c-0.4-0.1,9.7,0.7,19.6,0.3c0,0,0.5-1.9,1.3-2.9c0,0-0.2,3.2,0.7,3.8c0,0-5,2-10,1.9
		c0,0,5.5-0.9,7.3-1.9C149.6,187.5,139.6,188.1,130.6,186.2z"/>
</g>
</svg>
