<?xml version="1.0" encoding="utf-8"?>
<!-- Generator: Adobe Illustrator 21.0.0, SVG Export Plug-In . SVG Version: 6.00 Build 0)  -->
<svg version="1.1" id="Layer_1" xmlns="http://www.w3.org/2000/svg" xmlns:xlink="http://www.w3.org/1999/xlink" x="0px" y="0px"
	 width="470.2px" height="73.7px" viewBox="0 0 470.2 73.7" style="enable-background:new 0 0 470.2 73.7;" xml:space="preserve">
<style type="text/css">
	.st0{fill:#FFFFFF;}
	.st1{fill:#F1F2F2;}
</style>
<rect x="0.4" width="469.8" height="73.7"/>
<g>
	<g>
		<path class="st0" d="M224.8,26.7c2.5,0,4.7,0.9,6.5,2.4l2.4-2.9c-2.4-2-5.5-3.2-8.9-3.2c-7.6,0-13.8,6.2-13.8,13.8
			s6.2,13.8,13.8,13.8c3.4,0,6.5-1.2,8.9-3.2l-2.4-2.9c-1.8,1.5-4,2.4-6.5,2.4c-5.6,0-10.1-4.5-10.1-10.1
			C214.7,31.3,219.2,26.7,224.8,26.7z"/>
		<path class="st0" d="M301.4,23.8h-7.5c-1,0-1.9,0.8-1.9,1.9V48c0,1,0.8,1.9,1.9,1.9h7.5c7.2,0,13-5.8,13-13
			C314.4,29.6,308.6,23.8,301.4,23.8z M301.4,46.1h-5.6V27.5h5.6c5.1,0,9.3,4.2,9.3,9.3C310.7,42,306.5,46.1,301.4,46.1z"/>
		<path class="st0" d="M324.5,25.7V48c0,1,0.8,1.9,1.9,1.9h15.5v-3.7h-13.7v-7.5h8.7V35h-8.7v-7.5h13.7v-3.7h-15.5
			C325.4,23.8,324.5,24.6,324.5,25.7z"/>
		<path class="st0" d="M380.9,25.7V48c0,1,0.8,1.9,1.9,1.9h15.5v-3.7h-13.7v-7.5h8.7V35h-8.7v-7.5h13.7v-3.7h-15.5
			C381.8,23.8,380.9,24.6,380.9,25.7z"/>
		<path class="st0" d="M363.2,23.8h-8.1c-1,0-1.9,0.8-1.9,1.9v24.2h3.7V38.7h6.2c4.1,0,7.5-3.3,7.5-7.5S367.3,23.8,363.2,23.8z
			 M363.2,35H357v-7.5h6.2c2.1,0,3.7,1.7,3.7,3.7C366.9,33.3,365.2,35,363.2,35z"/>
		<path class="st0" d="M427.4,23.8v19.1l-15.3-18.4c-0.5-0.6-1.3-0.8-2.1-0.6c-0.7,0.3-1.2,1-1.2,1.8v24.2h3.7V30.8l15.3,18.4
			c0.4,0.4,0.9,0.7,1.4,0.7c0.2,0,0.4,0,0.6-0.1c0.7-0.3,1.2-1,1.2-1.8V23.8H427.4z"/>
		<path class="st0" d="M281.5,30.5c0,0,0-0.1,0-0.1c0,0,0-0.1,0-0.1c0,0,0-0.1,0-0.1c0,0,0-0.1,0-0.1c0,0,0-0.1-0.1-0.1
			c0,0,0-0.1,0-0.1c0,0,0-0.1-0.1-0.1c0,0,0,0-0.1-0.1c0,0-0.1-0.1-0.1-0.1c0,0,0,0-0.1-0.1c0,0-0.1-0.1-0.1-0.1c0,0-0.1,0-0.1-0.1
			c0,0,0,0,0,0l-18.2-12.1c-0.6-0.4-1.3-0.4-1.9,0l-18.2,12.1c0,0,0,0,0,0c0,0-0.1,0-0.1,0.1c0,0-0.1,0.1-0.1,0.1c0,0,0,0-0.1,0.1
			c0,0-0.1,0.1-0.1,0.1c0,0,0,0-0.1,0.1c0,0,0,0.1-0.1,0.1c0,0,0,0.1,0,0.1c0,0,0,0.1-0.1,0.1c0,0,0,0.1,0,0.1c0,0,0,0.1,0,0.1
			c0,0,0,0.1,0,0.1c0,0,0,0.1,0,0.1c0,0,0,0,0,0.1c0,0.1,0,0.1,0,0.2v12.1c0,0.1,0,0.1,0,0.2c0,0,0,0,0,0.1c0,0,0,0.1,0,0.1
			c0,0,0,0.1,0,0.1c0,0,0,0.1,0,0.1c0,0,0,0.1,0,0.1c0,0,0,0.1,0.1,0.1c0,0,0,0.1,0,0.1c0,0,0,0.1,0.1,0.1c0,0,0,0,0.1,0.1
			c0,0,0.1,0.1,0.1,0.1c0,0,0,0,0.1,0.1c0,0,0.1,0.1,0.1,0.1c0,0,0.1,0,0.1,0.1c0,0,0,0,0,0l18.2,12.1c0.3,0.2,0.6,0.3,0.9,0.3
			c0.3,0,0.7-0.1,0.9-0.3l18.2-12.1c0,0,0,0,0,0c0,0,0.1,0,0.1-0.1c0,0,0.1-0.1,0.1-0.1c0,0,0,0,0.1-0.1c0,0,0.1-0.1,0.1-0.1
			c0,0,0,0,0.1-0.1c0,0,0-0.1,0.1-0.1c0,0,0-0.1,0-0.1c0,0,0-0.1,0.1-0.1c0,0,0-0.1,0-0.1c0,0,0-0.1,0-0.1c0,0,0-0.1,0-0.1
			c0,0,0-0.1,0-0.1c0,0,0,0,0-0.1c0-0.1,0-0.1,0-0.2V30.8C281.5,30.7,281.5,30.6,281.5,30.5C281.5,30.5,281.5,30.5,281.5,30.5z
			 M261.7,40.9l-6-4l6-4l6,4L261.7,40.9z M259.9,29.8l-7.4,5l-6-4l13.4-8.9L259.9,29.8L259.9,29.8z M249.5,36.8l-4.3,2.9V34
			L249.5,36.8z M252.5,38.9l7.4,5v8l-13.4-8.9L252.5,38.9z M263.4,43.8l7.4-5l6,4l-13.4,8.9C263.4,51.8,263.4,43.8,263.4,43.8z
			 M273.8,36.8l4.3-2.9v5.7L273.8,36.8z M270.8,34.8l-7.4-5v-8l13.4,8.9L270.8,34.8z"/>
	</g>
	<g>
		<path class="st1" d="M47.3,45.7h-2V29.8h-5.9V28h13.9v1.8h-5.9V45.7z"/>
		<path class="st1" d="M71.8,45.7l-5.1-6.9h-5.1v6.9h-2V28h7.6c3.9,0,6.4,2.1,6.4,5.3c0,3-2,4.7-4.8,5.2l5.4,7.2L71.8,45.7
			L71.8,45.7z M67,29.8h-5.5V37H67c2.7,0,4.6-1.4,4.6-3.7C71.6,31.1,69.9,29.8,67,29.8z"/>
		<path class="st1" d="M87.3,45.7h-2v-7L77.9,28h2.4l6,8.9l6-8.9h2.3l-7.4,10.7C87.3,38.7,87.3,45.7,87.3,45.7z"/>
		<path class="st1" d="M112.7,28v17.7h-2V28H112.7z"/>
		<path class="st1" d="M127.2,45.7h-2V29.8h-5.9V28h13.9v1.8h-5.9L127.2,45.7L127.2,45.7z"/>
		<path class="st1" d="M157.7,46c-5.4,0-9-4.2-9-9.1s3.7-9.2,9.1-9.2c5.4,0,9,4.2,9,9.1C166.8,41.7,163.1,46,157.7,46z M157.7,29.5
			c-4.1,0-6.9,3.2-6.9,7.3s2.9,7.3,7,7.3c4,0,6.9-3.2,6.9-7.3S161.8,29.5,157.7,29.5z"/>
		<path class="st1" d="M186.6,28h1.9v17.7H187l-11.4-14.5v14.5h-1.9V28h1.9l11.2,14.2L186.6,28L186.6,28z"/>
	</g>
</g>
</svg>
