<?xml version="1.0" encoding="utf-8"?>
<!-- Generator: Adobe Illustrator 21.0.0, SVG Export Plug-In . SVG Version: 6.00 Build 0)  -->
<svg version="1.1" id="Layer_1" xmlns="http://www.w3.org/2000/svg" xmlns:xlink="http://www.w3.org/1999/xlink" x="0px" y="0px"
	 width="284.6px" height="73.7px" viewBox="0 0 284.6 73.7" style="enable-background:new 0 0 284.6 73.7;" xml:space="preserve">
<style type="text/css">
	.st0{fill:#FFFFFF;}
	.st1{fill:#F1F2F2;}
</style>
<rect x="0" width="284.6" height="73.7"/>
<g>
	<path class="st0" d="M246.9,30.5v-0.1v-0.1v-0.1v-0.1c0,0,0-0.1-0.1-0.1v-0.1c0,0,0-0.1-0.1-0.1c0,0,0,0-0.1-0.1l-0.1-0.1
		c0,0,0,0-0.1-0.1l-0.1-0.1c0,0-0.1,0-0.1-0.1l0,0L228,17.2c-0.6-0.4-1.3-0.4-1.9,0l-18.2,12.1l0,0c0,0-0.1,0-0.1,0.1l-0.1,0.1
		c0,0,0,0-0.1,0.1l-0.1,0.1c0,0,0,0-0.1,0.1c0,0,0,0.1-0.1,0.1V30c0,0,0,0.1-0.1,0.1v0.1v0.1v0.1v0.1c0,0,0,0,0,0.1s0,0.1,0,0.2
		v12.1c0,0.1,0,0.1,0,0.2c0,0,0,0,0,0.1v0.1v0.1v0.1v0.1c0,0,0,0.1,0.1,0.1v0.1c0,0,0,0.1,0.1,0.1c0,0,0,0,0.1,0.1l0.1,0.1
		c0,0,0,0,0.1,0.1l0.1,0.1c0,0,0.1,0,0.1,0.1l0,0l18.2,12.1c0.3,0.2,0.6,0.3,0.9,0.3s0.7-0.1,0.9-0.3l18.2-12.1l0,0
		c0,0,0.1,0,0.1-0.1l0.1-0.1c0,0,0,0,0.1-0.1l0.1-0.1c0,0,0,0,0.1-0.1c0,0,0-0.1,0.1-0.1v-0.1c0,0,0-0.1,0.1-0.1v-0.1v-0.1v-0.1
		v-0.1c0,0,0,0,0-0.1s0-0.1,0-0.2V30.8C246.9,30.7,246.9,30.6,246.9,30.5L246.9,30.5z M227.1,40.9l-6-4l6-4l6,4L227.1,40.9z
		 M225.3,29.8l-7.4,5l-6-4l13.4-8.9V29.8L225.3,29.8z M214.9,36.8l-4.3,2.9V34L214.9,36.8z M217.9,38.9l7.4,5v8L211.9,43L217.9,38.9
		z M228.8,43.8l7.4-5l6,4l-13.4,8.9C228.8,51.8,228.8,43.8,228.8,43.8z M239.2,36.8l4.3-2.9v5.7L239.2,36.8z M236.2,34.8l-7.4-5v-8
		l13.4,8.9L236.2,34.8z"/>
	<g>
		<path class="st1" d="M45.7,45.7h-2V29.8h-5.9V28h13.9v1.8h-5.9L45.7,45.7L45.7,45.7z"/>
		<path class="st1" d="M70.2,45.7l-5.1-6.9H60v6.9h-2V28h7.6c3.9,0,6.4,2.1,6.4,5.3c0,3-2,4.7-4.8,5.2l5.4,7.2H70.2L70.2,45.7z
			 M65.4,29.8h-5.5V37h5.5c2.7,0,4.6-1.4,4.6-3.7C70,31.1,68.3,29.8,65.4,29.8z"/>
		<path class="st1" d="M85.7,45.7h-2v-7L76.3,28h2.4l6,8.9l6-8.9H93l-7.4,10.7C85.7,38.7,85.7,45.7,85.7,45.7z"/>
		<path class="st1" d="M111.1,28v17.7h-2V28H111.1z"/>
		<path class="st1" d="M125.6,45.7h-2V29.8h-5.9V28h13.9v1.8h-5.9L125.6,45.7L125.6,45.7z"/>
		<path class="st1" d="M156.1,46c-5.4,0-9-4.2-9-9.1s3.7-9.2,9.1-9.2c5.4,0,9,4.2,9,9.1S161.5,46,156.1,46z M156.1,29.5
			c-4.1,0-6.9,3.2-6.9,7.3s2.9,7.3,7,7.3c4,0,6.9-3.2,6.9-7.3S160.2,29.5,156.1,29.5z"/>
		<path class="st1" d="M185,28h1.9v17.7h-1.5L174,31.2v14.5h-1.9V28h1.9l11.2,14.2L185,28L185,28z"/>
	</g>
</g>
</svg>
