<?xml version="1.0" encoding="utf-8"?>
<!-- Generator: Adobe Illustrator 21.0.0, SVG Export Plug-In . SVG Version: 6.00 Build 0)  -->
<svg version="1.1" id="Layer_1" xmlns="http://www.w3.org/2000/svg" xmlns:xlink="http://www.w3.org/1999/xlink" x="0px" y="0px"
	 width="72px" height="72px" viewBox="0 0 72 72" style="enable-background:new 0 0 72 72;" xml:space="preserve">
<style type="text/css">
	.st0{fill:#FFFFFF;}
</style>
<rect width="72" height="72"/>
<path class="st0" d="M55.9,29.7v-0.1v-0.1v-0.1v-0.1c0,0,0-0.1-0.1-0.1v-0.1c0,0,0-0.1-0.1-0.1c0,0,0,0-0.1-0.1l-0.1-0.1
	c0,0,0,0-0.1-0.1l-0.1-0.1c0,0-0.1,0-0.1-0.1l0,0L36.9,16.4c-0.6-0.4-1.3-0.4-1.9,0L16.8,28.5l0,0c0,0-0.1,0-0.1,0.1l-0.1,0.1
	c0,0,0,0-0.1,0.1l-0.1,0.1c0,0,0,0-0.1,0.1c0,0,0,0.1-0.1,0.1v0.1c0,0,0,0.1-0.1,0.1v0.1v0.1v0.1v0.1c0,0,0,0,0,0.1s0,0.1,0,0.2
	v12.1c0,0.1,0,0.1,0,0.2c0,0,0,0,0,0.1v0.1v0.1v0.1v0.1c0,0,0,0.1,0.1,0.1V43c0,0,0,0.1,0.1,0.1c0,0,0,0,0.1,0.1l0.1,0.1
	c0,0,0,0,0.1,0.1l0.1,0.1c0,0,0.1,0,0.1,0.1l0,0L35,55.6c0.3,0.2,0.6,0.3,0.9,0.3s0.7-0.1,0.9-0.3L55,43.5l0,0c0,0,0.1,0,0.1-0.1
	l0.1-0.1c0,0,0,0,0.1-0.1l0.1-0.1c0,0,0,0,0.1-0.1c0,0,0-0.1,0.1-0.1v-0.1c0,0,0-0.1,0.1-0.1v-0.1v-0.1v-0.1v-0.1c0,0,0,0,0-0.1
	s0-0.1,0-0.2V30C55.9,29.9,55.9,29.8,55.9,29.7L55.9,29.7z M36.1,40.1l-6-4l6-4l6,4L36.1,40.1z M34.3,29l-7.4,5l-6-4l13.4-8.9V29
	L34.3,29z M23.9,36l-4.3,2.9v-5.7L23.9,36z M26.9,38.1l7.4,5v8l-13.4-8.9L26.9,38.1z M37.8,43l7.4-5l6,4l-13.4,8.9
	C37.8,51,37.8,43,37.8,43z M48.2,36l4.3-2.9v5.7L48.2,36z M45.2,34l-7.4-5v-8l13.4,8.9L45.2,34z"/>
</svg>
