<?xml version="1.0" encoding="utf-8"?>
<!-- Generator: Adobe Illustrator 21.0.0, SVG Export Plug-In . SVG Version: 6.00 Build 0)  -->
<svg version="1.1" id="Layer_1" xmlns="http://www.w3.org/2000/svg" xmlns:xlink="http://www.w3.org/1999/xlink" x="0px" y="0px"
	 width="136.8px" height="36px" viewBox="0 0 136.8 36" style="enable-background:new 0 0 136.8 36;" xml:space="preserve">
<style type="text/css">
	.st0{enable-background:new    ;}
</style>
<title>Group 2</title>
<desc>Created with Sketch.</desc>
<g class="st0">
	<path d="M17,22.3V13h6.1v1h-5v3H23v1h-4.9v3.2h5v1H17z"/>
	<path d="M29.8,22.3v-1c-0.5,0.7-1.3,1.2-2.3,1.2c-1.8,0-3-1.3-3-3.5c0-2.2,1.2-3.6,3-3.6c0.9,0,1.7,0.4,2.3,1.2V13h1.1v9.3H29.8z
		 M29.8,20.5v-3.1c-0.4-0.6-1.2-1.1-2-1.1c-1.4,0-2.2,1.1-2.2,2.6s0.8,2.6,2.2,2.6C28.6,21.5,29.5,21,29.8,20.5z"/>
	<path d="M32.8,13.9c0-0.4,0.3-0.7,0.7-0.7c0.4,0,0.7,0.3,0.7,0.7s-0.3,0.7-0.7,0.7C33.1,14.6,32.8,14.3,32.8,13.9z M33,22.3v-6.8
		H34v6.8H33z"/>
	<path d="M36.3,20.9v-4.4h-1.1v-0.9h1.1v-1.8h1.1v1.8h1.4v0.9h-1.4v4.2c0,0.5,0.2,0.9,0.7,0.9c0.3,0,0.6-0.1,0.7-0.3l0.3,0.8
		c-0.3,0.3-0.6,0.4-1.2,0.4C36.8,22.5,36.3,21.9,36.3,20.9z"/>
	<path d="M43.7,13.9c0-0.4,0.3-0.7,0.7-0.7c0.4,0,0.7,0.3,0.7,0.7s-0.3,0.7-0.7,0.7C44,14.6,43.7,14.3,43.7,13.9z M43.9,22.3v-6.8
		h1.1v6.8H43.9z"/>
	<path d="M51.6,22.3v-4.4c0-1.2-0.6-1.6-1.5-1.6c-0.8,0-1.6,0.5-2,1.1v4.9H47v-6.8h1.1v1c0.5-0.6,1.4-1.1,2.4-1.1
		c1.4,0,2.1,0.7,2.1,2.2v4.7H51.6z"/>
	<path d="M58.4,22.3V13h4.2c1.6,0,2.6,1,2.6,2.4c0,1.2-0.8,2-1.6,2.1c1,0.2,1.8,1.2,1.8,2.3c0,1.5-1,2.5-2.7,2.5H58.4z M64,15.5
		c0-0.8-0.6-1.5-1.6-1.5h-2.8v3h2.8C63.4,17,64,16.4,64,15.5z M64.2,19.7c0-0.9-0.6-1.6-1.7-1.6h-2.9v3.2h2.9
		C63.5,21.3,64.2,20.6,64.2,19.7z"/>
	<path d="M67.2,22.3v-6.8h1v1.1c0.5-0.7,1.3-1.2,2.3-1.2v1.1c-0.1,0-0.3,0-0.4,0c-0.7,0-1.5,0.5-1.8,1.1v4.8H67.2z"/>
	<path d="M71.4,18.9c0-2,1.3-3.5,3.3-3.5c2.1,0,3.3,1.6,3.3,3.5s-1.3,3.6-3.3,3.6C72.7,22.5,71.4,20.9,71.4,18.9z M77,18.9
		c0-1.4-0.8-2.6-2.2-2.6c-1.4,0-2.2,1.2-2.2,2.6c0,1.4,0.8,2.6,2.2,2.6C76.2,21.5,77,20.3,77,18.9z"/>
	<path d="M85.7,22.3l-1.8-5.4l-1.8,5.4h-1.1l-2.2-6.8H80l1.7,5.4l1.8-5.4h0.9l1.8,5.4l1.7-5.4h1.1l-2.2,6.8H85.7z"/>
	<path d="M89.5,21.4l0.5-0.8c0.4,0.5,1.3,1,2.2,1c1,0,1.6-0.5,1.6-1.2c0-1.6-4.2-0.6-4.2-3.1c0-1.1,0.9-1.9,2.5-1.9
		c1.2,0,2,0.4,2.5,1l-0.5,0.7c-0.4-0.5-1.1-0.9-2-0.9c-0.9,0-1.5,0.5-1.5,1.1c0,1.5,4.2,0.5,4.2,3.1c0,1.1-0.9,2-2.6,2
		C91.1,22.5,90.2,22.1,89.5,21.4z"/>
	<path d="M96.2,18.9c0-2,1.4-3.5,3.3-3.5c2,0,3.2,1.6,3.2,3.6v0.3h-5.5c0.1,1.3,1,2.3,2.4,2.3c0.8,0,1.6-0.3,2.1-0.9l0.5,0.7
		c-0.7,0.7-1.6,1.1-2.7,1.1C97.6,22.5,96.2,21,96.2,18.9z M99.5,16.2c-1.4,0-2.2,1.2-2.2,2.2h4.4C101.7,17.5,101.1,16.2,99.5,16.2z"
		/>
	<path d="M104.5,22.3v-6.8h1.1v1.1c0.5-0.7,1.3-1.2,2.3-1.2v1.1c-0.1,0-0.3,0-0.4,0c-0.7,0-1.5,0.5-1.8,1.1v4.8H104.5z"/>
</g>
<path d="M116.6,15.6l1.1-1l4.1,4.2l-4.1,4.2l-1.1-1l3.1-3.1L116.6,15.6z"/>
</svg>
