<?xml version="1.0" encoding="utf-8"?>
<!-- Generator: Adobe Illustrator 21.0.2, SVG Export Plug-In . SVG Version: 6.00 Build 0)  -->
<svg version="1.1" id="Layer_1" xmlns="http://www.w3.org/2000/svg" xmlns:xlink="http://www.w3.org/1999/xlink" x="0px" y="0px"
	 width="26.9px" height="26px" viewBox="0 0 26.9 26" style="enable-background:new 0 0 26.9 26;" xml:space="preserve">
<style type="text/css">
	.st0{fill:#FF8F00;}
	.st1{fill:#FFFFFF;}
</style>
<rect class="st0" width="26.9" height="26"/>
<g>
	<path class="st1" d="M2.9,10.7v-0.4C4,9.8,4.7,8.5,5,7.3h0.4v2.6h1.9v0.9h-2v3.7c0,1.2,0.3,1.6,1.1,1.6c0.3,0,0.6-0.2,0.9-0.5
		l0.2,0.3c-0.2,0.3-1.4,1.7-1.7,1.7c-0.8,0-2.1-0.8-2.1-2.3v-4.6L2.9,10.7L2.9,10.7z"/>
	<path class="st1" d="M7.5,6.2C8,6.3,8.3,6.9,8.3,7.4c0,0.6,0.1,1.8,0.1,3.6v6.1c0.6,0.3,1.8,0.5,2.4,0.5c2.2,0,4.4-1.1,4.4-4
		c0-1.9-1.3-3.9-3.1-3.9c-0.7,0-1.4,0.2-2.1,0.6l0-5.9H9.6C9.2,5.1,8.4,5.7,7.5,5.8L7.5,6.2L7.5,6.2z M9.9,11.2
		c0.4-0.2,0.8-0.4,1.2-0.4c1.6,0,2.3,1.3,2.3,2.9c0,1.8-1.1,3.3-2.7,3.3c-0.6,0-0.8-0.3-0.8-1V11.2z"/>
	<path class="st1" d="M23.4,10.4h-1.9c-0.7-0.5-1.5-0.7-2.4-0.7c-1.7,0-3.1,1.1-3.1,3.1c0,1.2,0.8,2.3,1.7,2.8
		c-0.9,0.6-1.9,1.2-1.9,2.4c0,0.5,0.1,0.7,1.3,0.6v0c-0.5,0.2-1,0.7-1,1.4c0,1.6,1.8,1.9,2.8,1.9c1.6,0,4-0.8,4-3.1
		c0-1.4-0.9-1.8-2.6-1.8c-1.1,0-1.8,0-2.4,0c-0.2,0-0.4,0-0.4-0.3c0-0.5,0.7-1,1.6-1c1.9,0,3.4-0.8,3.4-3.1c0-0.4-0.1-0.8-0.3-1.4
		h1.2L23.4,10.4L23.4,10.4z M17.7,12.9c0-1.5,0.6-2.4,1.6-2.4s1.6,0.9,1.6,2.4s-0.6,2.4-1.6,2.4C18.2,15.3,17.7,14.4,17.7,12.9z
		 M17.3,20c0-1.1,0.8-1.3,2.3-1.3c1.4,0,2.1,0.2,2.1,1.1c0,1.3-1.6,1.6-2.5,1.6C18.5,21.3,17.3,21,17.3,20z"/>
</g>
</svg>
