<?xml version="1.0" encoding="utf-8"?>
<!-- Generator: Adobe Illustrator 17.0.0, SVG Export Plug-In . SVG Version: 6.00 Build 0)  -->
<!DOCTYPE svg PUBLIC "-//W3C//DTD SVG 1.1//EN" "http://www.w3.org/Graphics/SVG/1.1/DTD/svg11.dtd">
<svg version="1.1" id="Layer_1" xmlns="http://www.w3.org/2000/svg" xmlns:xlink="http://www.w3.org/1999/xlink" x="0px" y="0px"
	 width="72.083px" height="13.057px" viewBox="0 0 72.083 13.057" enable-background="new 0 0 72.083 13.057" xml:space="preserve">
<path fill="#CCCCCC" d="M16.038,5.352c0.425-0.5,0.637-1.078,0.637-1.734c0-0.787-0.312-1.462-0.936-2.028
	c-0.623-0.565-1.378-0.848-2.263-0.848H1.441c-0.4,0.088-0.7,0.439-0.706,0.864v2.022h12.686L2.97,6.612
	C2.324,6.811,1.79,7.162,1.368,7.666C0.946,8.171,0.735,8.745,0.735,9.389c0,0.811,0.312,1.501,0.935,2.071
	c0.623,0.57,1.378,0.855,2.264,0.855l11.959,0c0.416-0.052,0.742-0.382,0.783-0.801V9.397H3.934l10.464-3
	C15.067,6.2,15.613,5.852,16.038,5.352z M32.527,0.741C32.07,0.761,31.705,1.118,31.67,1.57l0.001,6.979
	c-0.02,0.48-0.42,0.858-0.905,0.858c-0.008,0-5.907,0.001-7.778,0.002c-0.466-0.021-0.839-0.393-0.859-0.86h-0.002V0.741h-2.361
	v0.001c-0.41,0.018-0.748,0.308-0.838,0.694V9.41c0,0.804,0.312,1.49,0.935,2.056c0.623,0.567,1.379,0.85,2.264,0.85h9.542
	c0.885,0,1.64-0.283,2.263-0.85c0.624-0.566,0.936-1.252,0.936-2.056v-8.67L32.527,0.741L32.527,0.741z M70.438,5.693
	c-0.178-0.166-0.382-0.304-0.611-0.404c-0.305-0.133-0.643-0.174-0.97-0.22V3.626c0-0.789-0.312-1.467-0.936-2.035
	c-0.624-0.567-1.37-0.851-2.238-0.851h-9.416v0.004c-0.466,0.02-0.838,0.391-0.86,0.857v10.715h12.742
	c0.885,0,1.64-0.284,2.264-0.854c0.623-0.569,0.936-1.257,0.936-2.066c0,0,0-1.441,0-1.443C71.348,7.131,71.049,6.263,70.438,5.693z
	 M58.621,3.626h3.955c0.004,0,0.008-0.002,0.012-0.002h2.339v0.002c0.008,0,0.015-0.002,0.022-0.002
	c0.412,0,0.745,0.325,0.763,0.733h0.004v0.445c0,0.148-0.132,0.269-0.295,0.269h-2.833c-0.004,0-0.007-0.002-0.011-0.002h-3.956
	V3.626z M68.136,9.131c0,0.148-0.133,0.268-0.295,0.268h-2.088c-0.003,0-0.007-0.002-0.01-0.002h-7.122V7.954c0,0,8.747,0,8.755,0
	c0.405,0,0.732,0.315,0.76,0.713V9.131z M52.176,1.591c-0.624-0.567-1.378-0.851-2.263-0.851H38.019
	c-0.465,0.027-0.834,0.401-0.848,0.87v10.706l2.42,0c0.405-0.05,0.725-0.364,0.779-0.768V7.973l8.665,0.002
	c0.489,0,0.887,0.361,0.887,0.805v2.785c0,0.027-0.006,0.054-0.009,0.08v0.672h2.284v0h0.076c0.452-0.029,0.809-0.387,0.839-0.838
	V9.407c0-0.854-0.362-1.577-1.085-2.169c0.722-0.575,1.085-1.298,1.085-2.17V3.626C53.111,2.837,52.799,2.159,52.176,1.591z
	 M49.914,4.799c0,0.148-0.132,0.269-0.295,0.269h-1.2v0.001H40.37V3.626l8.76,0.005v0.003c0.008,0,0.015-0.002,0.022-0.002
	c0.409,0,0.74,0.322,0.762,0.725V4.799z"/>
</svg>
