<?xml version="1.0" encoding="utf-8"?>
<!-- Generator: Adobe Illustrator 19.2.0, SVG Export Plug-In . SVG Version: 6.00 Build 0)  -->
<svg version="1.1" id="Layer_1" xmlns="http://www.w3.org/2000/svg" xmlns:xlink="http://www.w3.org/1999/xlink" x="0px" y="0px"
	 viewBox="0 0 6000 120" style="enable-background:new 0 0 6000 120;" xml:space="preserve">
<style type="text/css">
	.st0{fill:#71B9EA;}
	.st1{fill:#1C86AF;}
</style>
<polyline class="st0" points="-5.5,-6.3 6004.5,-6.3 6004.5,117.8 -5.5,117.8 -5.5,-6.3 "/>
<g>
	<path class="st1" d="M998.3,98.2c-100.3-19-184.2,0-184.2,0s-92.2,19-192.5,0c-100.3-19-184.2,0-184.2,0s-92.2,19-192.5,0
		s-184.2,0-184.2,0s-92.2,19-192.5,0s-184.2,0-184.2,0s-92.2,19-192.5,0s-184.2,0-184.2,0s-4.2,0.9-11.8,2.1V143h1895.7V98.2
		C1190.8,98.2,1098.6,117.2,998.3,98.2z"/>
	<path class="st1" d="M6703.8,105.2c-17.4-1.3-35.5-3.5-54-7c-100.3-19-184.2,0-184.2,0s-92.2,19-192.5,0c-100.3-19-184.2,0-184.2,0
		s-92.2,19-192.5,0c-100.3-19-184.2,0-184.2,0s-92.2,19-192.5,0c-100.3-19-184.2,0-184.2,0s-92.2,19-192.5,0
		c-100.3-19-184.2,0-184.2,0s-92.2,19-192.5,0c-100.3-19-184.2,0-184.2,0s-92.2,19-192.5,0c-100.3-19-184.2,0-184.2,0v0
		c-3.7,0.7-94.4,18.6-192.9,0c-100.3-19-184.2,0-184.2,0s-92.2,19-192.5,0c-100.3-19-184.2,0-184.2,0s-92.2,19-192.5,0
		c-100.3-19-184.2,0-184.2,0s-92.2,19-192.5,0c-100.3-19-184.2,0-184.2,0s-92.2,19-192.5,0s-184.2,0-184.2,0s-92.2,19-192.5,0
		c-100.3-19-184.2,0-184.2,0s-92.2,19-192.5,0c-100.3-19-184.2,0-184.2,0s-92.2,19-192.5,0c-100.3-19-184.2,0-184.2,0V143h753.6
		h753.6h753.6h753.4h0.1H6704v-37.8H6703.8z"/>
</g>
</svg>
