<?xml version="1.0" encoding="utf-8"?>
<!-- Generator: Adobe Illustrator 17.1.0, SVG Export Plug-In . SVG Version: 6.00 Build 0)  -->
<!DOCTYPE svg PUBLIC "-//W3C//DTD SVG 1.1//EN" "http://www.w3.org/Graphics/SVG/1.1/DTD/svg11.dtd">
<svg version="1.1" id="Layer_1" xmlns="http://www.w3.org/2000/svg" xmlns:xlink="http://www.w3.org/1999/xlink" x="0px" y="0px"
	 viewBox="-51.6 0.7 252.4 252.3" enable-background="new -51.6 0.7 252.4 252.3" xml:space="preserve">
<g>
	<g>
		<circle fill="#074E68" cx="74.5" cy="127.3" r="125.9"/>
		<g opacity="0.5" enable-background="new    ">
			<g>
				<g>
					<g>
						<defs>
							<circle id="SVGID_1_" cx="74.1" cy="127" r="125.9"/>
						</defs>
						<clipPath id="SVGID_2_">
							<use xlink:href="#SVGID_1_"  overflow="visible"/>
						</clipPath>
						<g clip-path="url(#SVGID_2_)">
							<g>
								
									<line fill="none" stroke="#FFFFFF" stroke-width="0.5" stroke-miterlimit="10" x1="168.2" y1="345.3" x2="168.2" y2="-76.8"/>
								
									<line fill="none" stroke="#FFFFFF" stroke-width="0.5" stroke-miterlimit="10" x1="151.1" y1="345.3" x2="151.1" y2="-76.8"/>
								
									<line fill="none" stroke="#FFFFFF" stroke-width="0.5" stroke-miterlimit="10" x1="185.3" y1="344.9" x2="185.3" y2="-77.2"/>
								
									<line fill="none" stroke="#FFFFFF" stroke-width="0.5" stroke-miterlimit="10" x1="202.4" y1="345.3" x2="202.4" y2="-76.8"/>
								<line fill="none" stroke="#FFFFFF" stroke-width="0.5" stroke-miterlimit="10" x1="99.9" y1="345.3" x2="99.9" y2="-76.8"/>
								<line fill="none" stroke="#FFFFFF" stroke-width="0.5" stroke-miterlimit="10" x1="82.8" y1="345.3" x2="82.8" y2="-76.8"/>
								
									<line fill="none" stroke="#FFFFFF" stroke-width="0.5" stroke-miterlimit="10" x1="116.9" y1="344.9" x2="116.9" y2="-77.2"/>
								<line fill="none" stroke="#FFFFFF" stroke-width="0.5" stroke-miterlimit="10" x1="134" y1="345.3" x2="134" y2="-76.8"/>
								<line fill="none" stroke="#FFFFFF" stroke-width="0.5" stroke-miterlimit="10" x1="31.9" y1="345.5" x2="31.9" y2="-76.6"/>
								<line fill="none" stroke="#FFFFFF" stroke-width="0.5" stroke-miterlimit="10" x1="14.8" y1="345.5" x2="14.8" y2="-76.6"/>
								<line fill="none" stroke="#FFFFFF" stroke-width="0.5" stroke-miterlimit="10" x1="49" y1="345.1" x2="49" y2="-77"/>
								<line fill="none" stroke="#FFFFFF" stroke-width="0.5" stroke-miterlimit="10" x1="66.1" y1="345.5" x2="66.1" y2="-76.6"/>
								
									<line fill="none" stroke="#FFFFFF" stroke-width="0.5" stroke-miterlimit="10" x1="-36.3" y1="345.5" x2="-36.3" y2="-76.6"/>
								
									<line fill="none" stroke="#FFFFFF" stroke-width="0.5" stroke-miterlimit="10" x1="-53.4" y1="345.5" x2="-53.4" y2="-76.6"/>
								<line fill="none" stroke="#FFFFFF" stroke-width="0.5" stroke-miterlimit="10" x1="-19.2" y1="345.1" x2="-19.2" y2="-77"/>
								<line fill="none" stroke="#FFFFFF" stroke-width="0.5" stroke-miterlimit="10" x1="-2.2" y1="345.5" x2="-2.2" y2="-76.6"/>
							</g>
							<g>
								
									<line fill="none" stroke="#FFFFFF" stroke-width="0.5" stroke-miterlimit="10" x1="-128.3" y1="220.6" x2="293.8" y2="220.6"/>
								
									<line fill="none" stroke="#FFFFFF" stroke-width="0.5" stroke-miterlimit="10" x1="-128.3" y1="203.5" x2="293.8" y2="203.5"/>
								
									<line fill="none" stroke="#FFFFFF" stroke-width="0.5" stroke-miterlimit="10" x1="-127.9" y1="237.6" x2="294.2" y2="237.6"/>
								
									<line fill="none" stroke="#FFFFFF" stroke-width="0.5" stroke-miterlimit="10" x1="-128.3" y1="254.7" x2="293.8" y2="254.7"/>
								
									<line fill="none" stroke="#FFFFFF" stroke-width="0.5" stroke-miterlimit="10" x1="-128.3" y1="152.2" x2="293.8" y2="152.2"/>
								
									<line fill="none" stroke="#FFFFFF" stroke-width="0.5" stroke-miterlimit="10" x1="-128.3" y1="135.2" x2="293.8" y2="135.2"/>
								
									<line fill="none" stroke="#FFFFFF" stroke-width="0.5" stroke-miterlimit="10" x1="-127.9" y1="169.3" x2="294.2" y2="169.3"/>
								
									<line fill="none" stroke="#FFFFFF" stroke-width="0.5" stroke-miterlimit="10" x1="-128.3" y1="186.4" x2="293.8" y2="186.4"/>
								
									<line fill="none" stroke="#FFFFFF" stroke-width="0.5" stroke-miterlimit="10" x1="-128.6" y1="84.3" x2="293.6" y2="84.3"/>
								
									<line fill="none" stroke="#FFFFFF" stroke-width="0.5" stroke-miterlimit="10" x1="-128.6" y1="67.3" x2="293.6" y2="67.3"/>
								
									<line fill="none" stroke="#FFFFFF" stroke-width="0.5" stroke-miterlimit="10" x1="-128.1" y1="101.4" x2="294" y2="101.4"/>
								
									<line fill="none" stroke="#FFFFFF" stroke-width="0.5" stroke-miterlimit="10" x1="-128.6" y1="118.5" x2="293.6" y2="118.5"/>
								
									<line fill="none" stroke="#FFFFFF" stroke-width="0.5" stroke-miterlimit="10" x1="-128.6" y1="16.1" x2="293.6" y2="16.1"/>
								<line fill="none" stroke="#FFFFFF" stroke-width="0.5" stroke-miterlimit="10" x1="-128.6" y1="-1" x2="293.6" y2="-1"/>
								<line fill="none" stroke="#FFFFFF" stroke-width="0.5" stroke-miterlimit="10" x1="-128.1" y1="33.1" x2="294" y2="33.1"/>
								
									<line fill="none" stroke="#FFFFFF" stroke-width="0.5" stroke-miterlimit="10" x1="-128.6" y1="50.2" x2="293.6" y2="50.2"/>
							</g>
						</g>
					</g>
				</g>
			</g>
		</g>
	</g>
	<g>
		<g>
			<path fill="#FFFFFF" d="M61.4,65.1v7.4c-6.9,0.6-11.7,3.7-14.1,9.2c-1.3,3-2,7.2-2,12.5l0,7.3c0,6.5-0.8,11.4-2.4,14.9
				c-2.9,6.3-8.5,9.8-16.9,10.5c8.3,0.8,14,4.3,16.9,10.9c1.6,3.6,2.4,8.4,2.4,14.6v10h-0.1c0,6.7,1.7,11.4,5.1,14.2
				c3.3,2.8,7.1,4.5,11.1,4.9v7.6c-7.7-0.8-14-3-19.1-6.8c-5-3.8-7.5-9.9-7.5-18.5v-13.4c0-4.7-0.8-8.4-2.2-11.1
				c-2.7-4.9-7.9-7.9-15.5-8.7v-7.4c7.7-0.9,12.8-3.8,15.5-8.5c1.5-2.7,2.2-6.4,2.2-11.4V92.9c0-8.1,1.8-14.5,5.3-19.3
				C43.5,68.8,50.6,66,61.4,65.1 M64.4,61.8l-3.3,0.3c-11.8,1-19.5,4.2-23.5,9.7c-3.9,5.3-5.8,12.4-5.8,21.1v10.4
				c0,4.5-0.6,7.8-1.8,9.9c-2.2,3.9-6.5,6.2-13.2,7l-2.6,0.3v2.7v7.4v2.7l2.7,0.3c6.5,0.7,11,3.1,13.1,7.1c1.2,2.2,1.8,5.6,1.8,9.7
				v13.4c0,9.5,2.9,16.5,8.7,20.9c5.5,4.1,12.5,6.6,20.6,7.4l3.3,0.3V189v-7.6v-2.7l-2.7-0.3c-3.4-0.4-6.6-1.8-9.5-4.2l0,0l0,0
				c-2.3-1.8-3.6-5-3.9-9.5v-2.4v-10c0-6.5-0.9-11.8-2.7-15.8c-1.9-4.3-4.8-7.5-8.7-9.6c3.9-2.1,6.8-5.2,8.7-9.3
				c1.8-3.9,2.7-9.2,2.7-16.1l0-7.3c0-4.9,0.6-8.7,1.7-11.3c2-4.5,5.8-6.9,11.6-7.4l2.7-0.2v-2.8v-7.4V61.8L64.4,61.8z"/>
		</g>
		<g>
			<path fill="#FFFFFF" d="M87.2,65.1c11.2,0.8,18.7,4.3,22.7,10.3c2.6,3.8,3.9,9.6,3.9,17.4l0,10.5c0,4.8,0.8,8.6,2.2,11.3
				c2.7,4.8,7.9,7.7,15.5,8.5l0,7.4c-7.6,0.8-12.8,3.7-15.5,8.8c-1.5,2.8-2.2,6.4-2.2,11.1l0,13.4c0,8.7-2.5,14.9-7.5,18.5
				c-5,3.6-11.4,5.8-19,6.7v-7.6c4.6-0.6,8.4-2.4,11.5-5.5c3.1-3.1,4.6-7.6,4.6-13.6v-9.8c0-6.2,0.8-11.1,2.4-14.6
				c2.9-6.5,8.5-10.2,16.8-10.9c-8.4-0.8-14-4.3-16.9-10.5c-1.6-3.4-2.4-8.4-2.4-15v-7.3c0-5.7-0.7-10-2-12.9
				c-2.4-5.3-7.1-8.2-14.1-8.8V65.1 M84.2,61.9v3.2v7.4v2.8l2.8,0.2c5.9,0.5,9.7,2.8,11.6,7c0.8,1.7,1.7,5.2,1.7,11.7v7.3
				c0,6.9,0.9,12.3,2.7,16.2c1.9,4.1,4.9,7.2,8.7,9.3c-3.9,2.2-6.8,5.4-8.7,9.7c-1.8,3.9-2.7,9.3-2.7,15.8v9.8c0,5.2-1.2,9-3.7,11.5
				c-2.6,2.6-5.8,4.2-9.8,4.7l-2.6,0.3v2.6v7.6v3.3l3.3-0.4c8.1-0.9,15-3.3,20.5-7.2c5.8-4.3,8.8-11.3,8.8-21l0-13.4
				c0-4.3,0.6-7.4,1.8-9.7c2.2-4.2,6.5-6.6,13.1-7.2l2.7-0.3v-2.7l0-7.4v-2.7l-2.7-0.3c-6.7-0.7-11-3-13.2-7
				c-1.2-2.2-1.8-5.6-1.8-9.8l0-10.5c0-8.4-1.5-14.6-4.4-19.1c-4.5-6.8-12.9-10.7-25-11.6L84.2,61.9L84.2,61.9z"/>
		</g>
	</g>
</g>
</svg>
