<?xml version="1.0" encoding="utf-8"?>
<!-- Generator: Adobe Illustrator 17.1.0, SVG Export Plug-In . SVG Version: 6.00 Build 0)  -->
<!DOCTYPE svg PUBLIC "-//W3C//DTD SVG 1.1//EN" "http://www.w3.org/Graphics/SVG/1.1/DTD/svg11.dtd">
<svg version="1.1" id="Layer_1" xmlns="http://www.w3.org/2000/svg" xmlns:xlink="http://www.w3.org/1999/xlink" x="0px" y="0px"
	 viewBox="-51.6 0.7 252.4 252.3" enable-background="new -51.6 0.7 252.4 252.3" xml:space="preserve">
<g>
	<g>
		<circle fill="#074E68" cx="74.5" cy="127.3" r="125.9"/>
		<g opacity="0.5" enable-background="new    ">
			<g>
				<g>
					<g>
						<defs>
							<circle id="SVGID_1_" cx="74.1" cy="127" r="125.9"/>
						</defs>
						<clipPath id="SVGID_2_">
							<use xlink:href="#SVGID_1_"  overflow="visible"/>
						</clipPath>
						<g clip-path="url(#SVGID_2_)">
							<g>
								
									<line fill="none" stroke="#FFFFFF" stroke-width="0.5" stroke-miterlimit="10" x1="168.2" y1="345.3" x2="168.2" y2="-76.8"/>
								
									<line fill="none" stroke="#FFFFFF" stroke-width="0.5" stroke-miterlimit="10" x1="151.1" y1="345.3" x2="151.1" y2="-76.8"/>
								
									<line fill="none" stroke="#FFFFFF" stroke-width="0.5" stroke-miterlimit="10" x1="185.3" y1="344.9" x2="185.3" y2="-77.2"/>
								
									<line fill="none" stroke="#FFFFFF" stroke-width="0.5" stroke-miterlimit="10" x1="202.4" y1="345.3" x2="202.4" y2="-76.8"/>
								<line fill="none" stroke="#FFFFFF" stroke-width="0.5" stroke-miterlimit="10" x1="99.9" y1="345.3" x2="99.9" y2="-76.8"/>
								<line fill="none" stroke="#FFFFFF" stroke-width="0.5" stroke-miterlimit="10" x1="82.8" y1="345.3" x2="82.8" y2="-76.8"/>
								
									<line fill="none" stroke="#FFFFFF" stroke-width="0.5" stroke-miterlimit="10" x1="116.9" y1="344.9" x2="116.9" y2="-77.2"/>
								<line fill="none" stroke="#FFFFFF" stroke-width="0.5" stroke-miterlimit="10" x1="134" y1="345.3" x2="134" y2="-76.8"/>
								<line fill="none" stroke="#FFFFFF" stroke-width="0.5" stroke-miterlimit="10" x1="31.9" y1="345.5" x2="31.9" y2="-76.6"/>
								<line fill="none" stroke="#FFFFFF" stroke-width="0.5" stroke-miterlimit="10" x1="14.8" y1="345.5" x2="14.8" y2="-76.6"/>
								<line fill="none" stroke="#FFFFFF" stroke-width="0.5" stroke-miterlimit="10" x1="49" y1="345.1" x2="49" y2="-77"/>
								<line fill="none" stroke="#FFFFFF" stroke-width="0.5" stroke-miterlimit="10" x1="66.1" y1="345.5" x2="66.1" y2="-76.6"/>
								
									<line fill="none" stroke="#FFFFFF" stroke-width="0.5" stroke-miterlimit="10" x1="-36.3" y1="345.5" x2="-36.3" y2="-76.6"/>
								
									<line fill="none" stroke="#FFFFFF" stroke-width="0.5" stroke-miterlimit="10" x1="-53.4" y1="345.5" x2="-53.4" y2="-76.6"/>
								<line fill="none" stroke="#FFFFFF" stroke-width="0.5" stroke-miterlimit="10" x1="-19.2" y1="345.1" x2="-19.2" y2="-77"/>
								<line fill="none" stroke="#FFFFFF" stroke-width="0.5" stroke-miterlimit="10" x1="-2.2" y1="345.5" x2="-2.2" y2="-76.6"/>
							</g>
							<g>
								
									<line fill="none" stroke="#FFFFFF" stroke-width="0.5" stroke-miterlimit="10" x1="-128.3" y1="220.6" x2="293.8" y2="220.6"/>
								
									<line fill="none" stroke="#FFFFFF" stroke-width="0.5" stroke-miterlimit="10" x1="-128.3" y1="203.5" x2="293.8" y2="203.5"/>
								
									<line fill="none" stroke="#FFFFFF" stroke-width="0.5" stroke-miterlimit="10" x1="-127.9" y1="237.6" x2="294.2" y2="237.6"/>
								
									<line fill="none" stroke="#FFFFFF" stroke-width="0.5" stroke-miterlimit="10" x1="-128.3" y1="254.7" x2="293.8" y2="254.7"/>
								
									<line fill="none" stroke="#FFFFFF" stroke-width="0.5" stroke-miterlimit="10" x1="-128.3" y1="152.2" x2="293.8" y2="152.2"/>
								
									<line fill="none" stroke="#FFFFFF" stroke-width="0.5" stroke-miterlimit="10" x1="-128.3" y1="135.2" x2="293.8" y2="135.2"/>
								
									<line fill="none" stroke="#FFFFFF" stroke-width="0.5" stroke-miterlimit="10" x1="-127.9" y1="169.3" x2="294.2" y2="169.3"/>
								
									<line fill="none" stroke="#FFFFFF" stroke-width="0.5" stroke-miterlimit="10" x1="-128.3" y1="186.4" x2="293.8" y2="186.4"/>
								
									<line fill="none" stroke="#FFFFFF" stroke-width="0.5" stroke-miterlimit="10" x1="-128.6" y1="84.3" x2="293.6" y2="84.3"/>
								
									<line fill="none" stroke="#FFFFFF" stroke-width="0.5" stroke-miterlimit="10" x1="-128.6" y1="67.3" x2="293.6" y2="67.3"/>
								
									<line fill="none" stroke="#FFFFFF" stroke-width="0.5" stroke-miterlimit="10" x1="-128.1" y1="101.4" x2="294" y2="101.4"/>
								
									<line fill="none" stroke="#FFFFFF" stroke-width="0.5" stroke-miterlimit="10" x1="-128.6" y1="118.5" x2="293.6" y2="118.5"/>
								
									<line fill="none" stroke="#FFFFFF" stroke-width="0.5" stroke-miterlimit="10" x1="-128.6" y1="16.1" x2="293.6" y2="16.1"/>
								<line fill="none" stroke="#FFFFFF" stroke-width="0.5" stroke-miterlimit="10" x1="-128.6" y1="-1" x2="293.6" y2="-1"/>
								<line fill="none" stroke="#FFFFFF" stroke-width="0.5" stroke-miterlimit="10" x1="-128.1" y1="33.1" x2="294" y2="33.1"/>
								
									<line fill="none" stroke="#FFFFFF" stroke-width="0.5" stroke-miterlimit="10" x1="-128.6" y1="50.2" x2="293.6" y2="50.2"/>
							</g>
						</g>
					</g>
				</g>
			</g>
		</g>
	</g>
	<g>
		<g>
			<path fill="#FFFFFF" d="M62.3,69.8v6.7C56,77.1,51.6,79.9,49.4,85c-1.2,2.8-1.8,6.6-1.8,11.5v6.7c0,6-0.8,10.5-2.2,13.6
				c-2.7,5.7-7.8,9-15.5,9.6c7.6,0.7,12.8,4,15.5,9.9c1.5,3.3,2.2,7.7,2.2,13.4v9.2h-0.1c0,6.1,1.5,10.5,4.7,13
				c3.1,2.6,6.5,4.1,10.2,4.5v7c-7-0.7-12.9-2.8-17.5-6.2c-4.6-3.4-6.9-9-6.9-16.9V148c0-4.3-0.7-7.7-2-10.2
				c-2.4-4.5-7.2-7.2-14.2-8v-6.8c7-0.8,11.7-3.4,14.2-7.8c1.4-2.4,2-5.9,2-10.4v-9.6c0-7.4,1.6-13.3,4.8-17.7
				C46,73.3,52.5,70.7,62.3,69.8 M65.3,66.6l-3.3,0.3c-10.8,0.9-18,3.9-21.7,9c-3.6,4.9-5.4,11.4-5.4,19.5v9.6c0,4.1-0.5,7-1.6,8.9
				c-2,3.5-5.9,5.6-11.9,6.3l-2.6,0.3v2.7v6.8v2.7l2.7,0.3c5.9,0.6,9.9,2.8,11.8,6.4c1.1,2,1.6,5,1.6,8.7v12.2
				c0,8.8,2.7,15.3,8.1,19.3c5.1,3.8,11.5,6,19,6.8l3.3,0.3v-3.3v-7v-2.7l-2.7-0.3c-3.1-0.3-5.9-1.6-8.5-3.8l0,0l0,0
				c-2-1.6-3.2-4.5-3.5-8.5v-2.2v-9.2c0-6-0.8-10.9-2.5-14.6c-1.7-3.8-4.3-6.7-7.7-8.7c3.4-1.9,6-4.7,7.7-8.4
				c1.7-3.6,2.5-8.5,2.5-14.9v-6.7c0-4.5,0.5-7.9,1.6-10.3c1.8-4,5.2-6.2,10.4-6.6l2.7-0.2v-2.8v-6.7V66.6L65.3,66.6z"/>
		</g>
		<g>
			<path fill="#FFFFFF" d="M85.9,69.9c10.3,0.8,17.1,3.9,20.8,9.4c2.4,3.5,3.6,8.8,3.6,15.9v9.6c0,4.4,0.7,7.9,2,10.3
				c2.4,4.4,7.2,7,14.2,7.8v6.8c-7,0.7-11.7,3.4-14.2,8c-1.4,2.5-2,5.9-2,10.2v12.2c0,8-2.3,13.6-6.9,17c-4.6,3.3-10.4,5.4-17.4,6.1
				v-7c4.2-0.5,7.7-2.2,10.6-5.1c2.8-2.8,4.2-7,4.2-12.5v-9c0-5.7,0.8-10.2,2.2-13.4c2.7-6,7.8-9.3,15.4-10
				c-7.7-0.7-12.8-3.9-15.5-9.6c-1.5-3.1-2.2-7.7-2.2-13.7v-6.7c0-5.2-0.6-9.2-1.8-11.9c-2.2-4.8-6.5-7.5-12.9-8V69.9 M82.9,66.7
				v3.2v6.7v2.8l2.8,0.2c5.4,0.4,8.7,2.4,10.5,6.3c0.7,1.6,1.6,4.7,1.6,10.6v6.7c0,6.4,0.8,11.4,2.5,15c1.7,3.7,4.3,6.5,7.7,8.4
				c-3.4,2-5.9,4.9-7.7,8.7c-1.6,3.6-2.5,8.6-2.5,14.6v9c0,4.7-1.1,8.1-3.3,10.4c-2.4,2.4-5.3,3.7-8.8,4.2l-2.6,0.3v2.6v7v3.3
				l3.3-0.4c7.5-0.8,13.8-3.1,18.9-6.7c5.4-4,8.1-10.5,8.1-19.4V148c0-3.9,0.5-6.7,1.6-8.7c2-3.8,5.8-5.9,11.8-6.5l2.7-0.3v-2.7V123
				v-2.7l-2.7-0.3c-6-0.7-9.9-2.7-11.9-6.3c-1-2-1.6-5.1-1.6-8.9v-9.6c0-7.7-1.3-13.5-4.1-17.6c-4.2-6.3-12-9.9-23.1-10.7L82.9,66.7
				L82.9,66.7z"/>
		</g>
	</g>
</g>
<g>
	<line fill="none" stroke="#FFFFFF" stroke-miterlimit="10" x1="139" y1="183.6" x2="139" y2="71.2"/>
	<polygon fill="#FFFFFF" points="139,185.1 136.1,182.2 141.9,182.2 	"/>
	<polygon fill="#FFFFFF" points="139,69.7 141.9,72.6 136.1,72.6 	"/>
</g>
<g>
	<line fill="none" stroke="#FFFFFF" stroke-miterlimit="10" x1="96.7" y1="194.9" x2="52.3" y2="194.9"/>
	<polygon fill="#FFFFFF" points="98.1,194.9 95.2,197.8 95.2,192 	"/>
	<polygon fill="#FFFFFF" points="50.9,194.9 53.8,192 53.8,197.8 	"/>
</g>
</svg>
