<?xml version="1.0" encoding="utf-8"?>
<!-- Generator: Adobe Illustrator 17.0.0, SVG Export Plug-In . SVG Version: 6.00 Build 0)  -->
<!DOCTYPE svg PUBLIC "-//W3C//DTD SVG 1.1//EN" "http://www.w3.org/Graphics/SVG/1.1/DTD/svg11.dtd">
<svg version="1.1" id="Layer_1" xmlns="http://www.w3.org/2000/svg" xmlns:xlink="http://www.w3.org/1999/xlink" x="0px" y="0px"
	 width="100px" height="100px" viewBox="0 0 100 100" enable-background="new 0 0 100 100" xml:space="preserve">
<g>
	<path d="M82.488,74.334c0-0.12-0.019-0.234-0.035-0.35V47.06h-0.001c0-0.003,0.001-0.006,0.001-0.009
		c0-1.401-1.136-2.536-2.537-2.536c-0.047,0-0.09,0.011-0.136,0.014l-4.799,0v0.018c-1.361,0.04-2.452,1.145-2.461,2.513h-0.008
		v27.502h0.043c0.12,1.257,1.147,2.243,2.426,2.287v0.022l4.971,0l0,0l0,0h0l0,0C81.352,76.871,82.488,75.735,82.488,74.334z"/>
	<path d="M67.49,78.554v-8.341h0V42.061H67.49c0-0.003,0.001-0.006,0.001-0.009c0-1.401-1.136-2.536-2.537-2.536
		c-0.046,0-0.09,0.011-0.136,0.014h-9.932c-0.15-0.244-0.334-0.453-0.536-0.637L44.47,21.778l-0.025,0.015
		c-0.99-1.753-2.848-2.936-4.98-2.936c-3.171,0-5.742,2.608-5.742,5.825c0,0,0,0,0,0h-0.058v3.257v0.105v11.485H19.981v0.018
		c-1.361,0.04-2.452,1.145-2.461,2.513h-0.008v28.152h0.006c0,0.323,0.124,0.646,0.368,0.894l-0.003,0.003l9.764,9.764l0.024-0.024
		c0.281,0.231,0.626,0.318,0.967,0.272h36.103c0.073,0.006,0.143,0.022,0.217,0.022c1.355,0,2.454-1.066,2.523-2.405h0.008V78.66
		c0-0.018,0.005-0.035,0.005-0.053S67.491,78.572,67.49,78.554z M20.505,70.212l0.042,0.047l-0.047-0.047H20.505z"/>
</g>
</svg>
