<?xml version="1.0" encoding="utf-8"?>
<!-- Generator: Adobe Illustrator 17.0.0, SVG Export Plug-In . SVG Version: 6.00 Build 0)  -->
<!DOCTYPE svg PUBLIC "-//W3C//DTD SVG 1.1//EN" "http://www.w3.org/Graphics/SVG/1.1/DTD/svg11.dtd">
<svg version="1.1" id="Layer_1" xmlns="http://www.w3.org/2000/svg" xmlns:xlink="http://www.w3.org/1999/xlink" x="0px" y="0px"
	 width="100px" height="100px" viewBox="0 0 100 100" enable-background="new 0 0 100 100" xml:space="preserve">
<g>
	<path fill="#231F20" d="M85.944,20.189H14.056c-1.41,0-2.556,1.147-2.556,2.557v5.144c0,0.237,0.257,0.509,0.467,0.619
		l37.786,21.583c0.098,0.057,0.208,0.083,0.318,0.083c0.112,0,0.225-0.029,0.324-0.088L87.039,28.53
		c0.206-0.115,0.752-0.419,0.957-0.559c0.248-0.169,0.504-0.322,0.504-0.625v-4.601C88.5,21.336,87.354,20.189,85.944,20.189z"/>
	<path fill="#231F20" d="M88.181,35.646c-0.2-0.116-0.444-0.111-0.645,0.004L66.799,47.851c-0.166,0.096-0.281,0.266-0.309,0.458
		c-0.025,0.191,0.035,0.386,0.164,0.527l20.74,22.357c0.123,0.133,0.291,0.204,0.467,0.204c0.079,0,0.159-0.015,0.234-0.043
		c0.245-0.097,0.405-0.332,0.405-0.596V36.201C88.5,35.971,88.379,35.76,88.181,35.646z"/>
	<path fill="#231F20" d="M60.823,51.948c-0.204-0.221-0.532-0.27-0.791-0.118l-8.312,4.891c-0.976,0.574-2.226,0.579-3.208,0.021
		l-7.315-4.179c-0.242-0.137-0.547-0.104-0.751,0.086L12.668,78.415c-0.148,0.138-0.222,0.337-0.2,0.538
		c0.022,0.201,0.139,0.381,0.314,0.482c0.432,0.254,0.849,0.375,1.273,0.375h71.153c0.255,0,0.485-0.151,0.585-0.385
		c0.102-0.232,0.056-0.503-0.118-0.689L60.823,51.948z"/>
	<path fill="#231F20" d="M34.334,49.601c0.15-0.137,0.225-0.339,0.203-0.54c-0.022-0.202-0.142-0.381-0.318-0.483L12.453,36.146
		c-0.194-0.112-0.439-0.11-0.637,0.004c-0.196,0.114-0.316,0.325-0.316,0.552v32.62c0,0.253,0.15,0.483,0.382,0.584
		c0.082,0.037,0.169,0.055,0.257,0.055c0.157,0,0.314-0.059,0.434-0.171L34.334,49.601z"/>
</g>
</svg>
