<?xml version="1.0" encoding="utf-8"?>
<!-- Generator: Adobe Illustrator 17.1.0, SVG Export Plug-In . SVG Version: 6.00 Build 0)  -->
<!DOCTYPE svg PUBLIC "-//W3C//DTD SVG 1.1//EN" "http://www.w3.org/Graphics/SVG/1.1/DTD/svg11.dtd">
<svg version="1.1" id="Layer_1" xmlns="http://www.w3.org/2000/svg" xmlns:xlink="http://www.w3.org/1999/xlink" x="0px" y="0px"
	 viewBox="-1565.8 1547.4 612.1 279.2" enable-background="new -1565.8 1547.4 612.1 279.2" xml:space="preserve">
<g>
	<path fill="#413000" d="M-1153.5,1658.7c4.5,5.6,9,13.5,9,24.7c0,27.2-21.3,42.9-51.8,42.9c-7.8,0-14.9-0.8-19.3-2.2l-8.1,12.9
		l23.8,1.4c42.3,2.8,67,3.9,67,36.4c0,28-24.7,44-67,44c-44.3,0-61.1-11.2-61.1-30.5c0-10.9,4.8-16.8,13.5-24.9
		c-8.1-3.4-10.6-9.5-10.6-16c0-5.3,2.8-10.4,7-14.9c4.5-4.8,9.2-9.2,15.1-14.6c-12-5.9-21-18.5-21-36.7c0-28,18.5-47.4,55.8-47.4
		c10.4,0,16.8,0.8,22.4,2.5h47.6v20.7L-1153.5,1658.7z M-1225.8,1769.9c-3.1,3.9-6.4,8.1-6.4,12.9c0,9.8,12.3,12.6,29.4,12.6
		c14,0,33.3-1.1,33.3-14c0-7.8-9.2-8.4-21-9L-1225.8,1769.9z M-1198.9,1657.8c-13.5,0-23.5,6.7-23.5,22.4c0,12,6.7,20.2,22.7,20.2
		c13.7,0,23-8.1,23-20.7C-1176.8,1665.4-1185.2,1657.8-1198.9,1657.8z"/>
	<path fill="#413000" d="M-1119.6,1760.9v-19.3l12.3-1.7c3.4-0.6,3.9-1.1,3.9-4.8v-71.7c0-2.8-0.8-4.5-3.1-5l-13.2-4.8l2.8-19.6
		h50.4v101.2c0,3.9,0.3,4.5,3.9,4.8l12.3,1.7v19.3L-1119.6,1760.9L-1119.6,1760.9z M-1088.2,1614.4c-14,0-21.9-8.1-21.9-21.9
		c0-14,8.1-21.6,21.9-21.6c14,0,22.1,7.6,22.1,21.6C-1066.1,1606.3-1074.2,1614.4-1088.2,1614.4z"/>
	<path fill="#413000" d="M-953.7,1751.4c-10.4,5-25.8,9.8-39.8,9.8c-29.1,0-40.1-11.8-40.1-39.2v-63.9c0-1.4,0-2.5-2-2.5h-17.1V1634
		c21.6-2.5,30-13.2,32.8-39.8h23.3v34.7c0,1.7,0,2.5,2,2.5h34.2v24.4h-36.4v58c0,14.3,3.4,19.9,16.5,19.9c6.7,0,14-1.7,19.6-3.9
		L-953.7,1751.4z"/>
	<g>
		<path fill="#F05133" d="M-1315.2,1687.5l-111.5-111.5c-6.4-6.4-16.8-6.4-23.3,0l-23.3,23.3l29.4,29.4c6.7-2.2,14.6-0.8,20.2,4.8
			c5.6,5.6,7,13.5,4.8,20.2l28.3,28.3c6.7-2.2,14.9-0.8,20.2,4.8c7.6,7.6,7.6,19.9,0,27.7c-7.6,7.6-19.9,7.6-27.7,0
			c-5.9-5.9-7.3-14.3-4.2-21.3l-26.3-26.9v69.5c2,0.8,3.6,2.2,5,3.6c7.6,7.6,7.6,19.9,0,27.7c-7.6,7.6-20.2,7.6-27.7,0
			s-7.6-20.2,0-27.7c2-2,4.2-3.4,6.4-4.2v-70.1c-2.2-0.8-4.5-2.2-6.4-4.2c-5.9-5.9-7.3-14.3-4.2-21.3l-28.9-29.1l-76.5,76.5
			c-6.4,6.4-6.4,16.8,0,23.3l111.5,111.5c6.4,6.4,16.8,6.4,23.3,0l111-111C-1308.7,1704.3-1308.7,1694-1315.2,1687.5z"/>
	</g>
</g>
</svg>
