<?xml version="1.0" encoding="utf-8"?>
<!-- Generator: Adobe Illustrator 17.1.0, SVG Export Plug-In . SVG Version: 6.00 Build 0)  -->
<!DOCTYPE svg PUBLIC "-//W3C//DTD SVG 1.1//EN" "http://www.w3.org/Graphics/SVG/1.1/DTD/svg11.dtd">
<svg version="1.1" id="Layer_1" xmlns="http://www.w3.org/2000/svg" xmlns:xlink="http://www.w3.org/1999/xlink" x="0px" y="0px"
	 viewBox="0 0 218.4 91.2" enable-background="new 0 0 218.4 91.2" xml:space="preserve">
<path fill="#413000" d="M147.1,31.3c1.6,2,3.2,4.8,3.2,8.8c0,9.7-7.6,15.3-18.5,15.3c-2.8,0-5.3-0.3-6.9-0.8l-2.9,4.6l8.5,0.5
	c15.1,1,23.9,1.4,23.9,13c0,10-8.8,15.7-23.9,15.7c-15.8,0-21.8-4-21.8-10.9c0-3.9,1.7-6,4.8-8.9c-2.9-1.2-3.8-3.4-3.8-5.7
	c0-1.9,1-3.7,2.5-5.3c1.6-1.7,3.3-3.3,5.4-5.2c-4.3-2.1-7.5-6.6-7.5-13.1c0-10,6.6-16.9,19.9-16.9c3.7,0,6,0.3,8,0.9h17v7.4
	L147.1,31.3z M121.3,71c-1.1,1.4-2.3,2.9-2.3,4.6c0,3.5,4.4,4.5,10.5,4.5c5,0,11.9-0.4,11.9-5c0-2.8-3.3-3-7.5-3.2L121.3,71z
	 M130.9,31c-4.8,0-8.4,2.4-8.4,8c0,4.3,2.4,7.2,8.1,7.2c4.9,0,8.2-2.9,8.2-7.4C138.8,33.7,135.8,31,130.9,31z"/>
<path fill="#413000" d="M159.2,67.8v-6.9l4.4-0.6c1.2-0.2,1.4-0.4,1.4-1.7V33c0-1-0.3-1.6-1.1-1.8l-4.7-1.7l1-7h18v36.1
	c0,1.4,0.1,1.6,1.4,1.7l4.4,0.6v6.9H159.2z M170.4,15.5c-5,0-7.8-2.9-7.8-7.8c0-5,2.9-7.7,7.8-7.7c5,0,7.9,2.7,7.9,7.7
	C178.3,12.6,175.4,15.5,170.4,15.5z"/>
<path fill="#413000" d="M218.4,64.4c-3.7,1.8-9.2,3.5-14.2,3.5c-10.4,0-14.3-4.2-14.3-14V31.1c0-0.5,0-0.9-0.7-0.9h-6.1v-7.7
	c7.7-0.9,10.7-4.7,11.7-14.2h8.3v12.4c0,0.6,0,0.9,0.7,0.9H216v8.7h-13V51c0,5.1,1.2,7.1,5.9,7.1c2.4,0,5-0.6,7-1.4L218.4,64.4z"/>
<g>
	<path fill="#F05133" d="M89.4,41.6L49.6,1.8c-2.3-2.3-6-2.3-8.3,0l-8.3,8.3l10.5,10.5c2.4-0.8,5.2-0.3,7.2,1.7c2,2,2.5,4.8,1.7,7.2
		l10.1,10.1c2.4-0.8,5.3-0.3,7.2,1.7c2.7,2.7,2.7,7.1,0,9.9c-2.7,2.7-7.1,2.7-9.9,0c-2.1-2.1-2.6-5.1-1.5-7.6L48.9,34l0,24.8
		c0.7,0.3,1.3,0.8,1.8,1.3c2.7,2.7,2.7,7.1,0,9.9c-2.7,2.7-7.2,2.7-9.9,0c-2.7-2.7-2.7-7.2,0-9.9c0.7-0.7,1.5-1.2,2.3-1.5v-25
		c-0.8-0.3-1.6-0.8-2.3-1.5c-2.1-2.1-2.6-5.1-1.5-7.6L29,14.1L1.7,41.4c-2.3,2.3-2.3,6,0,8.3l39.8,39.8c2.3,2.3,6,2.3,8.3,0
		l39.6-39.6C91.7,47.6,91.7,43.9,89.4,41.6z"/>
</g>
</svg>
