<?xml version="1.0" encoding="utf-8"?>
<!-- Generator: Adobe Illustrator 17.1.0, SVG Export Plug-In . SVG Version: 6.00 Build 0)  -->
<!DOCTYPE svg PUBLIC "-//W3C//DTD SVG 1.1//EN" "http://www.w3.org/Graphics/SVG/1.1/DTD/svg11.dtd">
<svg version="1.1" id="Layer_1" xmlns="http://www.w3.org/2000/svg" xmlns:xlink="http://www.w3.org/1999/xlink" x="0px" y="0px"
	 viewBox="0 246 612 300" enable-background="new 0 246 612 300" xml:space="preserve">
<g>
	<path fill="#46483E" d="M91.6,401.3c0-1.6-1-3.3-2.6-4.3l-41-23.6c-0.3-0.7-1-0.7-2-0.7h-0.3c-0.7,0-1.6,0.3-2.3,0.7L2.6,396.7
		c-1.6,1-2.6,2.6-2.6,4.6v63.4c0,1,0.3,1.6,1.3,2.3c0.7,0.3,1.6,0.3,2.3,0l24.3-13.8c1.6-1,2.6-2.6,2.6-4.3v-29.5
		c0-1.6,1-3.3,2.6-4.3l10.5-5.9c0.7-0.3,1.6-0.7,2.6-0.7c1,0,1.6,0.3,2.3,0.7l10.5,5.9c1.6,1,2.6,2.6,2.6,4.3v29.5
		c0,1.6,1,3.3,2.6,4.3l24.3,13.8c0.7,0.3,1.6,0.3,2.6,0c0.7-0.3,1.3-1.3,1.3-2.3L91.6,401.3z"/>
	<path fill="#46483E" d="M310.3,313.9c-0.7-0.3-1.6-0.3-2.3,0c-0.7,0.3-1.3,1.3-1.3,2v62.7c0,0.7-0.3,1.3-1,1.6
		c-0.7,0.3-1.3,0.3-1.6,0l-10.2-5.9c-1.6-1-3.3-1-4.9,0l-41,23.6c-1.6,1-2.3,2.6-2.3,4.3v47.3c0,1.6,1,3.3,2.6,4.3l40.7,24
		c1.6,1,3.3,1,4.9,0l41-23.6c1.6-1,2.6-2.6,2.6-4.3V332c0-1.6-1-3.3-2.6-4.3L310.3,313.9z M306.7,434.1c0,0.3-0.3,1-0.7,1l-14.1,8.2
		c-0.3,0.3-1,0.3-1.3,0l-14.1-8.2c-0.3-0.3-0.7-0.7-0.7-1V418c0-0.3,0.3-1,0.7-1l14.1-8.2c0.3-0.3,1-0.3,1.3,0L306,417
		c0.3,0.3,0.7,0.7,0.7,1V434.1z"/>
	<path fill="#46483E" d="M457,417.3c1.6-1,2.3-2.6,2.3-4.3v-11.5c0-1.6-1-3.3-2.6-4.3L416,373.7c-1.6-1-3.3-1-4.9,0l-41,23.6
		c-1.6,1-2.6,2.6-2.6,4.3v47.3c0,1.6,1,3.3,2.6,4.3l40.7,23.3c1.6,1,3.3,1,4.9,0l24.6-13.8c0.7-0.3,1.3-1.3,1.3-2.3
		s-0.3-1.6-1.3-2.3l-41-23.6c-0.7-0.3-1.3-1.3-1.3-2.3v-14.8c0-1,0.3-1.6,1.3-2.3l12.8-7.6c0.7-0.3,1.6-0.3,2.6,0l12.8,7.6
		c0.7,0.3,1.3,1.3,1.3,2.3v11.5c0,1,0.3,1.6,1.3,2.3c0.7,0.3,1.6,0.3,2.6,0L457,417.3z"/>
	<path fill="#8CC84B" d="M166.1,373.7c1.6-1,3.3-1,4.9,0l41,23.6c1.6,1,2.6,2.6,2.6,4.3v47.3c0,1.6-1,3.3-2.6,4.3l-41,23.6
		c-1.6,1-3.3,1-4.9,0l-41-23.6c-1.6-1-2.6-2.6-2.6-4.3v-47.3c0-1.6,1-3.3,2.6-4.3L166.1,373.7z"/>
	<path fill="#8CC84B" d="M536.5,477.4c-1.3,0-3-0.3-3.9-1l-12.8-7.6c-2-1-1-1.3-0.3-1.6c2.6-1,3-1,5.9-2.6c0.3,0,0.7,0,1,0l9.8,5.9
		c0.3,0.3,1,0.3,1.3,0l38.7-22.3c0.3-0.3,0.7-0.7,0.7-1v-44.7c0-0.3-0.3-1-0.7-1l-39.1-22.3c-0.3-0.3-1-0.3-1.3,0l-38.7,22.3
		c-0.3,0.3-0.7,0.7-0.7,1v44.7c0,0.3,0.3,1,0.7,1l10.5,6.2c5.6,3,9.2-0.7,9.2-3.9v-44.3c0-0.7,0.7-1,1-1h4.9c0.7,0,1,0.3,1,1v44
		c0,7.6-4.3,12.1-11.5,12.1c-2.3,0-3.9,0-8.9-2.3l-10.2-5.9c-2.6-1.3-3.9-4.3-3.9-6.9v-44.7c0-3,1.6-5.6,3.9-6.9l38.7-22.3
		c2.3-1.3,5.6-1.3,8.2,0l38.7,22.3c2.6,1.3,3.9,4.3,3.9,6.9v44.7c0,3-1.6,5.6-3.9,6.9l-38.7,22.3
		C539.1,477.1,537.8,477.4,536.5,477.4z"/>
	<path fill="#8CC84B" d="M548.3,446.6c-16.7,0-20.4-7.9-20.4-14.1c0-0.7,0.7-1,1-1h4.9c0.7,0,1,0.3,1,1c0.7,4.9,3,7.6,13.1,7.6
		c8.2,0,11.5-2,11.5-6.2c0-2.6-1-4.3-13.5-5.6c-10.5-1-17.1-3.3-17.1-11.8c0-7.9,6.6-12.5,17.7-12.5c12.5,0,18.4,4.3,19.4,13.5
		c0,0.3,0,0.7-0.3,1c-0.3,0.3-0.7,0.3-0.7,0.3h-4.9c-0.7,0-1-0.3-1-1c-1.3-5.3-4.3-6.9-12.1-6.9c-8.9,0-9.8,3-9.8,5.3
		c0,3,1.3,3.6,13.1,5.3s17.4,3.9,17.4,12.1C567.7,442,560.5,446.6,548.3,446.6z"/>
	<g>
		<path fill="#8CC84B" d="M601.5,373v1h-3.3v8.5h-1.3V374h-3.3v-1H601.5z"/>
		<path fill="#8CC84B" d="M602.8,373h2l2.6,8.2l2.6-8.2h2v9.5h-1.3V377c0-0.3,0-0.7,0-1c0-0.3,0-1,0-1.3l-2.6,8.2h-1.3l-2.6-8.2v0.3
			c0,0.3,0,0.7,0,1c0,0.3,0,1,0,1v5.6h-1.3V373z"/>
	</g>
	<path fill="#8CC84B" d="M413,415.4c0.3-0.3,0.7-0.3,1,0l7.9,4.6c0.3,0.3,0.3,0.3,0.3,1v9.2c0,0.3-0.3,0.7-0.3,1l-7.9,4.6
		c-0.3,0.3-0.7,0.3-1,0l-7.9-4.6c-0.3-0.3-0.3-0.3-0.3-1V421c0-0.3,0.3-0.7,0.3-1L413,415.4z"/>
</g>
</svg>
