<?xml version="1.0" encoding="utf-8"?>
<!-- Generator: Adobe Illustrator 17.1.0, SVG Export Plug-In . SVG Version: 6.00 Build 0)  -->
<!DOCTYPE svg PUBLIC "-//W3C//DTD SVG 1.1//EN" "http://www.w3.org/Graphics/SVG/1.1/DTD/svg11.dtd">
<svg version="1.1" id="Layer_1" xmlns="http://www.w3.org/2000/svg" xmlns:xlink="http://www.w3.org/1999/xlink" x="0px" y="0px"
	 viewBox="-646.3 1547.4 819.5 279.2" enable-background="new -646.3 1547.4 819.5 279.2" xml:space="preserve">
<g>
	<path fill="#46483E" d="M-523.6,1664.7c0-2.1-1.3-4.4-3.5-5.8l-54.9-31.6c-0.4-0.9-1.3-0.9-2.7-0.9h-0.4c-0.9,0-2.1,0.4-3.1,0.9
		l-54.6,31.2c-2.1,1.3-3.5,3.5-3.5,6.2v84.9c0,1.3,0.4,2.1,1.7,3.1c0.9,0.4,2.1,0.4,3.1,0l32.5-18.5c2.1-1.3,3.5-3.5,3.5-5.8V1689
		c0-2.1,1.3-4.4,3.5-5.8l14.1-7.9c0.9-0.4,2.1-0.9,3.5-0.9c1.3,0,2.1,0.4,3.1,0.9l14.1,7.9c2.1,1.3,3.5,3.5,3.5,5.8v39.5
		c0,2.1,1.3,4.4,3.5,5.8l31.5,17.5c0.9,0.4,2.1,0.4,3.5,0c0.9-0.4,1.7-1.7,1.7-3.1L-523.6,1664.7z"/>
	<path fill="#46483E" d="M-230.8,1547.7c-0.9-0.4-2.1-0.4-3.1,0c-0.9,0.4-1.7,1.7-1.7,2.7v84c0,0.9-0.4,1.7-1.3,2.1
		c-0.9,0.4-1.7,0.4-2.1,0l-13.7-7.9c-2.1-1.3-4.4-1.3-6.6,0l-54.9,31.6c-2.1,1.3-3.1,3.5-3.1,5.8v63.3c0,2.1,1.3,4.4,3.5,5.8
		l54.5,32.1c2.1,1.3,4.4,1.3,6.6,0l54.9-31.6c2.1-1.3,3.5-3.5,3.5-5.8v-157.9c0-2.1-1.3-4.4-3.5-5.8L-230.8,1547.7z M-235.6,1708.6
		c0,0.4-0.4,1.3-0.9,1.3l-18.9,11c-0.4,0.4-1.3,0.4-1.7,0l-18.9-11c-0.4-0.4-0.9-0.9-0.9-1.3v-21.6c0-0.4,0.4-1.3,0.9-1.3l18.9-11
		c0.4-0.4,1.3-0.4,1.7,0l18.9,11c0.4,0.4,0.9,0.9,0.9,1.3V1708.6z"/>
	<path fill="#46483E" d="M-34.3,1686.1c2.1-1.3,3.1-3.5,3.1-5.8V1665c0-2.1-1.3-4.4-3.5-5.8l-54.5-31.5c-2.1-1.3-4.4-1.3-6.6,0
		l-54.9,31.6c-2.1,1.3-3.5,3.5-3.5,5.8v63.3c0,2.1,1.3,4.4,3.5,5.8l54.5,31.2c2.1,1.3,4.4,1.3,6.6,0l32.9-18.5
		c0.9-0.4,1.7-1.7,1.7-3.1c0-1.3-0.4-2.1-1.7-3.1l-54.9-31.6c-0.9-0.4-1.7-1.7-1.7-3.1v-19.8c0-1.3,0.4-2.1,1.7-3.1l17.1-10.2
		c0.9-0.4,2.1-0.4,3.5,0l17.1,10.2c0.9,0.4,1.7,1.7,1.7,3.1v15.4c0,1.3,0.4,2.1,1.7,3.1c0.9,0.4,2.1,0.4,3.5,0L-34.3,1686.1z"/>
	<path fill="#8CC84B" d="M-423.9,1627.8c2.1-1.3,4.4-1.3,6.6,0l54.9,31.6c2.1,1.3,3.5,3.5,3.5,5.8v63.3c0,2.1-1.3,4.4-3.5,5.8
		l-54.9,31.6c-2.1,1.3-4.4,1.3-6.6,0l-54.9-31.6c-2.1-1.3-3.5-3.5-3.5-5.8v-63.3c0-2.1,1.3-4.4,3.5-5.8L-423.9,1627.8z"/>
	<path fill="#8CC84B" d="M72.1,1766.6c-1.7,0-4-0.4-5.2-1.3l-17.1-10.2c-2.7-1.3-1.3-1.7-0.4-2.1c3.5-1.3,4-1.3,7.9-3.5
		c0.4,0,0.9,0,1.3,0l13.1,7.9c0.4,0.4,1.3,0.4,1.7,0l51.8-29.9c0.4-0.4,0.9-0.9,0.9-1.3v-59.9c0-0.4-0.4-1.3-0.9-1.3l-52.4-29.9
		c-0.4-0.4-1.3-0.4-1.7,0L19.4,1665c-0.4,0.4-0.9,0.9-0.9,1.3v59.9c0,0.4,0.4,1.3,0.9,1.3l14.1,8.3c7.5,4,12.3-0.9,12.3-5.2v-59.3
		c0-0.9,0.9-1.3,1.3-1.3h6.6c0.9,0,1.3,0.4,1.3,1.3v58.9c0,10.2-5.8,16.2-15.4,16.2c-3.1,0-5.2,0-11.9-3.1l-13.7-7.9
		c-3.5-1.7-5.2-5.8-5.2-9.2v-59.9c0-4,2.1-7.5,5.2-9.2l51.8-29.9c3.1-1.7,7.5-1.7,11,0l51.8,29.9c3.5,1.7,5.2,5.8,5.2,9.2v59.9
		c0,4-2.1,7.5-5.2,9.2l-51.8,29.9C75.6,1766.2,73.9,1766.6,72.1,1766.6z"/>
	<path fill="#8CC84B" d="M87.9,1725.4c-22.4,0-27.3-10.6-27.3-18.9c0-0.9,0.9-1.3,1.3-1.3h6.6c0.9,0,1.3,0.4,1.3,1.3
		c0.9,6.6,4,10.2,17.5,10.2c11,0,15.4-2.7,15.4-8.3c0-3.5-1.3-5.8-18.1-7.5c-14.1-1.3-22.9-4.4-22.9-15.8c0-10.6,8.8-16.7,23.7-16.7
		c16.7,0,24.6,5.8,26,18.1c0,0.4,0,0.9-0.4,1.3c-0.4,0.4-0.9,0.4-0.9,0.4h-6.6c-0.9,0-1.3-0.4-1.3-1.3c-1.7-7.1-5.8-9.2-16.2-9.2
		c-11.9,0-13.1,4-13.1,7.1c0,4,1.7,4.8,17.5,7.1s23.3,5.2,23.3,16.2C113.9,1719.2,104.3,1725.4,87.9,1725.4z"/>
	<g>
		<path fill="#8CC84B" d="M159.2,1626.8v1.3h-4.4v11.4H153v-11.4h-4.4v-1.3H159.2z"/>
		<path fill="#8CC84B" d="M160.9,1626.8h2.7l3.5,11l3.5-11h2.7v12.7h-1.7v-7.4c0-0.4,0-0.9,0-1.3s0-1.3,0-1.7l-3.5,11h-1.7l-3.5-11
			v0.4c0,0.4,0,0.9,0,1.3s0,1.3,0,1.3v7.5h-1.7v-12.9H160.9z"/>
	</g>
	<path fill="#8CC84B" d="M-93.2,1683.6c0.4-0.4,0.9-0.4,1.3,0l10.6,6.2c0.4,0.4,0.4,0.4,0.4,1.3v12.3c0,0.4-0.4,0.9-0.4,1.3
		l-10.6,6.2c-0.4,0.4-0.9,0.4-1.3,0l-10.6-6.2c-0.4-0.4-0.4-0.4-0.4-1.3v-12.3c0-0.4,0.4-0.9,0.4-1.3L-93.2,1683.6z"/>
</g>
</svg>
