<?xml version="1.0" encoding="utf-8"?>
<!-- Generator: Adobe Illustrator 17.1.0, SVG Export Plug-In . SVG Version: 6.00 Build 0)  -->
<!DOCTYPE svg PUBLIC "-//W3C//DTD SVG 1.1//EN" "http://www.w3.org/Graphics/SVG/1.1/DTD/svg11.dtd">
<svg version="1.1" id="Layer_1" xmlns="http://www.w3.org/2000/svg" xmlns:xlink="http://www.w3.org/1999/xlink" x="0px" y="0px"
	 viewBox="400 0 253 253" enable-background="new 400 0 253 253" xml:space="preserve">
<g>
	<circle fill="#074E68" cx="526.1" cy="125.9" r="126"/>
	<g opacity="0.5" enable-background="new    ">
		<g>
			<g>
				<defs>
					<circle id="SVGID_1_" cx="525.7" cy="125.6" r="126"/>
				</defs>
				<clipPath id="SVGID_2_">
					<use xlink:href="#SVGID_1_"  overflow="visible"/>
				</clipPath>
				<g clip-path="url(#SVGID_2_)">
					<g>
						<line fill="none" stroke="#FFFFFF" stroke-width="0.5" stroke-miterlimit="10" x1="619.9" y1="344.2" x2="619.9" y2="-78.3"/>
						<line fill="none" stroke="#FFFFFF" stroke-width="0.5" stroke-miterlimit="10" x1="602.8" y1="344.2" x2="602.8" y2="-78.3"/>
						<line fill="none" stroke="#FFFFFF" stroke-width="0.5" stroke-miterlimit="10" x1="636.9" y1="343.8" x2="636.9" y2="-78.8"/>
						<line fill="none" stroke="#FFFFFF" stroke-width="0.5" stroke-miterlimit="10" x1="654" y1="344.2" x2="654" y2="-78.3"/>
						<line fill="none" stroke="#FFFFFF" stroke-width="0.5" stroke-miterlimit="10" x1="551.5" y1="344.2" x2="551.5" y2="-78.3"/>
						<line fill="none" stroke="#FFFFFF" stroke-width="0.5" stroke-miterlimit="10" x1="534.4" y1="344.2" x2="534.4" y2="-78.3"/>
						<line fill="none" stroke="#FFFFFF" stroke-width="0.5" stroke-miterlimit="10" x1="568.6" y1="343.8" x2="568.6" y2="-78.8"/>
						<line fill="none" stroke="#FFFFFF" stroke-width="0.5" stroke-miterlimit="10" x1="585.7" y1="344.2" x2="585.7" y2="-78.3"/>
						<line fill="none" stroke="#FFFFFF" stroke-width="0.5" stroke-miterlimit="10" x1="483.5" y1="344.4" x2="483.5" y2="-78.1"/>
						<line fill="none" stroke="#FFFFFF" stroke-width="0.5" stroke-miterlimit="10" x1="466.4" y1="344.4" x2="466.4" y2="-78.1"/>
						<line fill="none" stroke="#FFFFFF" stroke-width="0.5" stroke-miterlimit="10" x1="500.6" y1="344" x2="500.6" y2="-78.6"/>
						<line fill="none" stroke="#FFFFFF" stroke-width="0.5" stroke-miterlimit="10" x1="517.7" y1="344.4" x2="517.7" y2="-78.1"/>
						<line fill="none" stroke="#FFFFFF" stroke-width="0.5" stroke-miterlimit="10" x1="415.1" y1="344.4" x2="415.1" y2="-78.1"/>
						<line fill="none" stroke="#FFFFFF" stroke-width="0.5" stroke-miterlimit="10" x1="398" y1="344.4" x2="398" y2="-78.1"/>
						<line fill="none" stroke="#FFFFFF" stroke-width="0.5" stroke-miterlimit="10" x1="432.2" y1="344" x2="432.2" y2="-78.6"/>
						<line fill="none" stroke="#FFFFFF" stroke-width="0.5" stroke-miterlimit="10" x1="449.3" y1="344.4" x2="449.3" y2="-78.1"/>
					</g>
					<g>
						<line fill="none" stroke="#FFFFFF" stroke-width="0.5" stroke-miterlimit="10" x1="323" y1="219.3" x2="745.6" y2="219.3"/>
						<line fill="none" stroke="#FFFFFF" stroke-width="0.5" stroke-miterlimit="10" x1="323" y1="202.3" x2="745.6" y2="202.3"/>
						<line fill="none" stroke="#FFFFFF" stroke-width="0.5" stroke-miterlimit="10" x1="323.4" y1="236.4" x2="746" y2="236.4"/>
						<line fill="none" stroke="#FFFFFF" stroke-width="0.5" stroke-miterlimit="10" x1="323" y1="253.5" x2="745.6" y2="253.5"/>
						<line fill="none" stroke="#FFFFFF" stroke-width="0.5" stroke-miterlimit="10" x1="323" y1="151" x2="745.6" y2="151"/>
						<line fill="none" stroke="#FFFFFF" stroke-width="0.5" stroke-miterlimit="10" x1="323" y1="133.9" x2="745.6" y2="133.9"/>
						<line fill="none" stroke="#FFFFFF" stroke-width="0.5" stroke-miterlimit="10" x1="323.4" y1="168.1" x2="746" y2="168.1"/>
						<line fill="none" stroke="#FFFFFF" stroke-width="0.5" stroke-miterlimit="10" x1="323" y1="185.2" x2="745.6" y2="185.2"/>
						<line fill="none" stroke="#FFFFFF" stroke-width="0.5" stroke-miterlimit="10" x1="322.8" y1="83" x2="745.4" y2="83"/>
						<line fill="none" stroke="#FFFFFF" stroke-width="0.5" stroke-miterlimit="10" x1="322.8" y1="65.9" x2="745.4" y2="65.9"/>
						<line fill="none" stroke="#FFFFFF" stroke-width="0.5" stroke-miterlimit="10" x1="323.2" y1="100.1" x2="745.8" y2="100.1"/>
						<line fill="none" stroke="#FFFFFF" stroke-width="0.5" stroke-miterlimit="10" x1="322.8" y1="117.2" x2="745.4" y2="117.2"/>
						<line fill="none" stroke="#FFFFFF" stroke-width="0.5" stroke-miterlimit="10" x1="322.8" y1="14.6" x2="745.4" y2="14.6"/>
						<line fill="none" stroke="#FFFFFF" stroke-width="0.5" stroke-miterlimit="10" x1="322.8" y1="-2.5" x2="745.4" y2="-2.5"/>
						<line fill="none" stroke="#FFFFFF" stroke-width="0.5" stroke-miterlimit="10" x1="323.2" y1="31.7" x2="745.8" y2="31.7"/>
						<line fill="none" stroke="#FFFFFF" stroke-width="0.5" stroke-miterlimit="10" x1="322.8" y1="48.8" x2="745.4" y2="48.8"/>
					</g>
				</g>
			</g>
		</g>
	</g>
</g>
<g>
	<path fill="none" stroke="#FFFFFF" stroke-width="3" stroke-miterlimit="10" d="M527.3,194.9c-1.7,0-3.9-0.4-5.1-1.3l-16.6-9.9
		c-2.6-1.3-1.3-1.7-0.4-2c3.4-1.3,3.9-1.3,7.7-3.4c0.4,0,0.9,0,1.3,0l12.7,7.7c0.4,0.4,1.3,0.4,1.7,0l50.4-29.1
		c0.4-0.4,0.9-0.9,0.9-1.3V97.4c0-0.4-0.4-1.3-0.9-1.3L528,67c-0.4-0.4-1.3-0.4-1.7,0L476,96.1c-0.4,0.4-0.9,0.9-0.9,1.3v58.2
		c0,0.4,0.4,1.3,0.9,1.3l13.7,8.1c7.3,3.9,12-0.9,12-5.1v-57.6c0-0.9,0.9-1.3,1.3-1.3h6.4c0.9,0,1.3,0.4,1.3,1.3v57.3
		c0,9.9-5.6,15.7-15,15.7c-3,0-5.1,0-11.6-3l-13.3-7.7c-3.4-1.7-5.1-5.6-5.1-8.9V97.4c0-3.9,2-7.3,5.1-8.9l50.4-29.1
		c3-1.7,7.3-1.7,10.7,0l50.4,29.1c3.4,1.7,5.1,5.6,5.1,8.9v58.2c0,3.9-2,7.3-5.1,8.9l-50.4,29.1C530.7,194.5,529,194.9,527.3,194.9z
		"/>
	<path fill="none" stroke="#FFFFFF" stroke-width="3" stroke-miterlimit="10" d="M542.6,154.8c-21.8,0-26.5-10.3-26.5-18.4
		c0-0.9,0.9-1.3,1.3-1.3h6.4c0.9,0,1.3,0.4,1.3,1.3c0.9,6.4,3.9,9.9,17,9.9c10.7,0,15-2.6,15-8.1c0-3.4-1.3-5.6-17.6-7.3
		c-13.7-1.3-22.3-4.3-22.3-15.4c0-10.3,8.6-16.2,23-16.2c16.2,0,23.9,5.6,25.3,17.6c0,0.4,0,0.9-0.4,1.3c-0.4,0.4-0.9,0.4-0.9,0.4
		h-6.4c-0.9,0-1.3-0.4-1.3-1.3c-1.7-6.9-5.6-8.9-15.7-8.9c-11.6,0-12.7,3.9-12.7,6.9c0,3.9,1.7,4.7,17,6.9
		c15.4,2.2,22.7,5.1,22.7,15.7C567.9,148.8,558.6,154.8,542.6,154.8z"/>
</g>
<g>
	<line fill="none" stroke="#FFFFFF" stroke-miterlimit="10" x1="597.3" y1="160.9" x2="597.3" y2="91.4"/>
	<polygon fill="#FFFFFF" points="597.3,162.3 594.3,159.4 600.2,159.4 	"/>
	<polygon fill="#FFFFFF" points="597.3,90 600.2,92.9 594.3,92.9 	"/>
</g>
<g display="none">
	<line display="inline" fill="none" stroke="#FFFFFF" stroke-miterlimit="10" x1="572.5" y1="175.7" x2="585.8" y2="175.7"/>
	<line display="inline" fill="none" stroke="#FFFFFF" stroke-miterlimit="10" x1="466.4" y1="175.7" x2="480.6" y2="175.7"/>
	<polygon display="inline" fill="#FFFFFF" points="464.9,175.7 467.8,172.8 467.8,178.6 	"/>
	<polygon display="inline" fill="#FFFFFF" points="587.3,175.7 584.4,178.6 584.4,172.8 	"/>
</g>
<rect x="-7780.8" y="-7796.8" fill="#FFFFFF" width="702.9" height="383.4"/>
</svg>
