<?xml version="1.0" encoding="utf-8"?>
<!-- Generator: Adobe Illustrator 17.1.0, SVG Export Plug-In . SVG Version: 6.00 Build 0)  -->
<!DOCTYPE svg PUBLIC "-//W3C//DTD SVG 1.1//EN" "http://www.w3.org/Graphics/SVG/1.1/DTD/svg11.dtd">
<svg version="1.1" id="Layer_1" xmlns="http://www.w3.org/2000/svg" xmlns:xlink="http://www.w3.org/1999/xlink" x="0px" y="0px"
	 viewBox="200.3 1.3 252.1 252" enable-background="new 200.3 1.3 252.1 252" xml:space="preserve">
<g display="none">
	<g display="inline">
		<path fill="#FFFFFF" d="M488.2,115.4v24.6c19.8,1.6,35.1,6.4,46.4,14.6c20.4,12.9,30.9,34,31.7,63h-47.7
			c-0.9-10.9-2.7-18.6-5.3-23.5c-4.7-8.7-12.9-13.3-24.9-14.2v69.3c28.6,10,47.9,18.6,57.9,26.4c16.2,12.7,24.4,30.6,24.4,53.7
			c0,30.6-11.3,52.8-33.7,66.6c-13.8,8.4-30,13.5-48.8,14.9v36.6h-17.5v-36.2c-24-2.7-41.7-7.8-53.5-15.5
			c-20.6-14-30.9-37.7-30.6-71.2h49.1c1.8,15.3,4,25.5,7.1,30.6c4.7,8.2,14,13.3,27.7,15.8v-77.7l-14.6-4.4
			c-23.1-6.9-39.5-16.2-49.1-28.4c-9.5-12.2-14.2-26.6-14.2-43.7c0-11.3,1.8-21.5,5.5-30.6c3.8-9.1,8.9-17.1,15.5-23.7
			c8.7-8.7,18.2-14.6,28.6-17.8c6.4-2,15.8-3.6,28.2-4.4v-24.6H488.2 M470.7,243.9v-63.7c-10.7,0.2-18.4,3.1-23.5,8.4
			c-5.1,5.3-7.5,12.7-7.5,22.2c0,10.2,3.8,18.2,11.5,24.2C455.4,238.2,461.8,241.3,470.7,243.9 M488.2,370.2
			c9.5-1.1,16.4-3.3,20.6-6.4c7.5-5.5,11.3-15.3,11.3-28.9c0-10.4-3.6-18.6-10.7-24.6c-4.2-3.6-11.3-7.1-21.3-10.9V370.2
			 M494.9,108.8h-6.7h-17.5H464v6.7v18.2c-10,1.1-17.8,2.4-23.5,4.2c-11.5,3.6-22,10.2-31.3,19.5c-7.3,7.3-13.1,16-17.1,26
			c-4,10-6,21.1-6,33.3c0,18.6,5.3,34.6,15.8,47.9c10.4,13.1,28,23.5,52.4,30.6l10,2.9v64.1c-7.5-2.4-12.7-6-15.3-10.7
			c-1.8-3.1-4.2-10.4-6.2-28.2l-0.7-6h-6h-49.3h-6.7v6.7c-0.4,35.7,10.9,61.7,33.5,76.8c11.8,7.8,28.4,13.1,50.6,16V447v6.7h6.7
			h17.5h6.7V447v-30.4c17.3-2,32.6-7.1,45.5-15.3c24.4-15.1,36.8-39.3,36.8-72.1c0-25.3-9.1-45.1-27.1-59
			c-10-7.8-28.2-16.2-55.3-25.7v-56.8c5.8,1.6,9.8,4.7,12.2,9.5c1.6,2.9,3.6,8.9,4.7,21.1l0.4,6h6h47.7h6.9l-0.2-6.9
			c-0.9-31.3-12.4-54.2-34.6-68.4c-10.9-7.8-25.5-12.9-43.5-15.1v-18.4v-6.7H494.9z M464,234.6c-3.8-1.6-6.7-3.3-8.9-4.9
			c-6-4.7-8.9-10.9-8.9-18.9c0-7.5,2-13.3,5.8-17.5c2.7-2.9,6.7-4.9,12-5.8V234.6L464,234.6z M494.9,362.2V309
			c5.5,2.7,8.7,4.7,10.4,6c5.5,4.7,8.2,11.1,8.2,19.5c0,11.3-2.9,19.3-8.7,23.5C503.3,359.6,500.4,360.9,494.9,362.2L494.9,362.2z"
			/>
	</g>
</g>
<g>
	<g>
		<circle fill="#074E68" cx="326.6" cy="127.6" r="126.2"/>
		<g opacity="0.5" enable-background="new    ">
			<g>
				<g>
					<g>
						<defs>
							<circle id="SVGID_1_" cx="326.2" cy="127.3" r="126.2"/>
						</defs>
						<clipPath id="SVGID_2_">
							<use xlink:href="#SVGID_1_"  overflow="visible"/>
						</clipPath>
						<g clip-path="url(#SVGID_2_)">
							<g>
								
									<line fill="none" stroke="#FFFFFF" stroke-width="0.5" stroke-miterlimit="10" x1="420.6" y1="346.2" x2="420.6" y2="-77.1"/>
								
									<line fill="none" stroke="#FFFFFF" stroke-width="0.5" stroke-miterlimit="10" x1="403.4" y1="346.2" x2="403.4" y2="-77.1"/>
								
									<line fill="none" stroke="#FFFFFF" stroke-width="0.5" stroke-miterlimit="10" x1="437.7" y1="345.8" x2="437.7" y2="-77.5"/>
								
									<line fill="none" stroke="#FFFFFF" stroke-width="0.5" stroke-miterlimit="10" x1="454.8" y1="346.2" x2="454.8" y2="-77.1"/>
								
									<line fill="none" stroke="#FFFFFF" stroke-width="0.5" stroke-miterlimit="10" x1="352.1" y1="346.2" x2="352.1" y2="-77.1"/>
								
									<line fill="none" stroke="#FFFFFF" stroke-width="0.5" stroke-miterlimit="10" x1="334.9" y1="346.2" x2="334.9" y2="-77.1"/>
								
									<line fill="none" stroke="#FFFFFF" stroke-width="0.5" stroke-miterlimit="10" x1="369.2" y1="345.8" x2="369.2" y2="-77.5"/>
								
									<line fill="none" stroke="#FFFFFF" stroke-width="0.5" stroke-miterlimit="10" x1="386.3" y1="346.2" x2="386.3" y2="-77.1"/>
								
									<line fill="none" stroke="#FFFFFF" stroke-width="0.5" stroke-miterlimit="10" x1="283.9" y1="346.4" x2="283.9" y2="-76.8"/>
								
									<line fill="none" stroke="#FFFFFF" stroke-width="0.5" stroke-miterlimit="10" x1="266.8" y1="346.4" x2="266.8" y2="-76.8"/>
								<line fill="none" stroke="#FFFFFF" stroke-width="0.5" stroke-miterlimit="10" x1="301.1" y1="346" x2="301.1" y2="-77.3"/>
								
									<line fill="none" stroke="#FFFFFF" stroke-width="0.5" stroke-miterlimit="10" x1="318.2" y1="346.4" x2="318.2" y2="-76.8"/>
								
									<line fill="none" stroke="#FFFFFF" stroke-width="0.5" stroke-miterlimit="10" x1="215.4" y1="346.4" x2="215.4" y2="-76.8"/>
								
									<line fill="none" stroke="#FFFFFF" stroke-width="0.5" stroke-miterlimit="10" x1="198.4" y1="346.4" x2="198.4" y2="-76.8"/>
								<line fill="none" stroke="#FFFFFF" stroke-width="0.5" stroke-miterlimit="10" x1="232.6" y1="346" x2="232.6" y2="-77.3"/>
								
									<line fill="none" stroke="#FFFFFF" stroke-width="0.5" stroke-miterlimit="10" x1="249.7" y1="346.4" x2="249.7" y2="-76.8"/>
							</g>
							<g>
								
									<line fill="none" stroke="#FFFFFF" stroke-width="0.5" stroke-miterlimit="10" x1="123.2" y1="221.1" x2="546.5" y2="221.1"/>
								
									<line fill="none" stroke="#FFFFFF" stroke-width="0.5" stroke-miterlimit="10" x1="123.2" y1="204.1" x2="546.5" y2="204.1"/>
								
									<line fill="none" stroke="#FFFFFF" stroke-width="0.5" stroke-miterlimit="10" x1="123.7" y1="238.3" x2="546.9" y2="238.3"/>
								
									<line fill="none" stroke="#FFFFFF" stroke-width="0.5" stroke-miterlimit="10" x1="123.2" y1="255.4" x2="546.5" y2="255.4"/>
								
									<line fill="none" stroke="#FFFFFF" stroke-width="0.5" stroke-miterlimit="10" x1="123.2" y1="152.7" x2="546.5" y2="152.7"/>
								
									<line fill="none" stroke="#FFFFFF" stroke-width="0.5" stroke-miterlimit="10" x1="123.2" y1="135.6" x2="546.5" y2="135.6"/>
								
									<line fill="none" stroke="#FFFFFF" stroke-width="0.5" stroke-miterlimit="10" x1="123.7" y1="169.8" x2="546.9" y2="169.8"/>
								<line fill="none" stroke="#FFFFFF" stroke-width="0.5" stroke-miterlimit="10" x1="123.2" y1="187" x2="546.5" y2="187"/>
								<line fill="none" stroke="#FFFFFF" stroke-width="0.5" stroke-miterlimit="10" x1="123" y1="84.6" x2="546.3" y2="84.6"/>
								<line fill="none" stroke="#FFFFFF" stroke-width="0.5" stroke-miterlimit="10" x1="123" y1="67.5" x2="546.3" y2="67.5"/>
								
									<line fill="none" stroke="#FFFFFF" stroke-width="0.5" stroke-miterlimit="10" x1="123.4" y1="101.7" x2="546.7" y2="101.7"/>
								<line fill="none" stroke="#FFFFFF" stroke-width="0.5" stroke-miterlimit="10" x1="123" y1="118.8" x2="546.3" y2="118.8"/>
								<line fill="none" stroke="#FFFFFF" stroke-width="0.5" stroke-miterlimit="10" x1="123" y1="16.1" x2="546.3" y2="16.1"/>
								<line fill="none" stroke="#FFFFFF" stroke-width="0.5" stroke-miterlimit="10" x1="123" y1="-1.1" x2="546.3" y2="-1.1"/>
								<line fill="none" stroke="#FFFFFF" stroke-width="0.5" stroke-miterlimit="10" x1="123.4" y1="33.2" x2="546.7" y2="33.2"/>
								<line fill="none" stroke="#FFFFFF" stroke-width="0.5" stroke-miterlimit="10" x1="123" y1="50.3" x2="546.3" y2="50.3"/>
							</g>
						</g>
					</g>
				</g>
			</g>
		</g>
	</g>
	<path fill="none" stroke="#FFFFFF" stroke-width="3" stroke-miterlimit="10" d="M374.6,73.8l-0.8-7.2l-5.9,0.6l0.6,5.6
		c-4.4-0.6-9.9-0.8-15.8-0.4l-3.5-8.5l-6.7,2.7l2.7,6.6c-5.3,0.9-10.9,2.4-16.5,4.9l-6.4-8l-6.3,5.1l5.5,6.8
		c-1.8,1.1-3.6,2.3-5.5,3.7c-3.7,2.7-7,5.9-10,9.3l-10.8-7.6l-6,8.4l10.4,7.5c-4.3,6.5-7.7,13.6-10.5,20.9l-14.3-4.8l-3.2,9.6
		l14.3,4.8c-2.6,8.9-4.3,17.7-5.5,25.9l-18.3-2l-1.2,11.8l18.2,1.9c-0.6,8.1-0.6,14.6-0.3,18.4h61.3c0,0-2.1-4.8-4.5-12.4l14.4,1.6
		l1.1-11.7l-18.8-2c-1.2-5.1-2.2-10.8-2.7-16.7l11.1,3.7l3.2-9.6l-14.7-5c0.1-4.1,0.5-8.2,1.3-12.2l10.3,7.4l6-8.4l-13.1-9.4
		c1.5-3.5,3.5-6.9,6-10l6.3,7.8l6.3-5.1l-6.9-8.6c2.6-2.5,5.3-4.6,7.8-6.3l2.9,7l6.7-2.7l-3.3-8c3.9-2,7.3-3.2,10.4-3.9l0.6,4.7
		l5.9-0.6l-0.6-5c3.1-0.2,4.9,0.1,4.9,0.1l0.2-9.1C380.9,75.4,378.6,74.6,374.6,73.8z"/>
</g>
</svg>
