<?xml version="1.0" encoding="utf-8"?>
<!-- Generator: Adobe Illustrator 17.1.0, SVG Export Plug-In . SVG Version: 6.00 Build 0)  -->
<!DOCTYPE svg PUBLIC "-//W3C//DTD SVG 1.1//EN" "http://www.w3.org/Graphics/SVG/1.1/DTD/svg11.dtd">
<svg version="1.1" id="Layer_1" xmlns="http://www.w3.org/2000/svg" xmlns:xlink="http://www.w3.org/1999/xlink" x="0px" y="0px"
	 viewBox="273.2 1547.4 745.4 279.2" enable-background="new 273.2 1547.4 745.4 279.2" xml:space="preserve">
<g>
	<g>
		<path d="M611,1697.7v49h-27.1v-127.6h37.2c17.3,0,30.2,3.2,38.5,9.5c8.3,6.3,12.5,15.9,12.5,28.8c0,7.5-2.1,14.2-6.2,20
			c-4.1,5.8-10,10.4-17.5,13.7l37.5,55.6h-30l-30.5-49H611z M611,1675.7h8.7c8.6,0,14.9-1.4,18.9-4.3c4.1-2.9,6.1-7.3,6.1-13.4
			c0-6.1-2.1-10.4-6.2-12.9c-4.2-2.6-10.6-3.8-19.3-3.8H611V1675.7z"/>
		<path d="M768.8,1746.7l-3.6-12.5h-1.4c-2.9,4.5-6.9,8-12.1,10.5c-5.2,2.5-11.2,3.7-17.9,3.7c-11.5,0-20.1-3.1-25.9-9.2
			c-5.8-6.1-8.7-15-8.7-26.5v-63.6h26.6v57c0,7,1.3,12.3,3.8,15.8c2.5,3.5,6.5,5.3,12,5.3c7.4,0,12.8-2.5,16.1-7.5
			c3.3-5,5-13.2,5-24.7v-45.9h26.6v97.6H768.8z"/>
		<path d="M872.1,1647.2c11.5,0,20.5,4.5,27.1,13.5c6.5,9,9.8,21.3,9.8,37c0,16.1-3.4,28.6-10.1,37.4c-6.7,8.8-15.9,13.3-27.5,13.3
			c-11.5,0-20.5-4.2-27-12.5h-1.8l-4.5,10.7h-20.3v-135.8h26.6v31.6c0,4-0.3,10.4-1,19.3h1C850.6,1652.1,859.9,1647.2,872.1,1647.2z
			 M863.5,1668.5c-6.6,0-11.4,2-14.4,6.1c-3,4-4.6,10.7-4.7,20v2.9c0,10.5,1.6,18,4.7,22.5c3.1,4.5,8,6.8,14.8,6.8
			c5.5,0,9.8-2.5,13.1-7.6c3.2-5,4.8-12.4,4.8-22s-1.6-16.8-4.9-21.6C873.6,1671,869.2,1668.5,863.5,1668.5z"/>
		<path d="M916.9,1649.1h29.2l18.4,54.9c1.6,4.8,2.6,10.4,3.2,16.9h0.5c0.6-6,1.9-11.6,3.8-16.9l18.1-54.9h28.5l-41.3,110.1
			c-3.8,10.2-9.2,17.8-16.2,22.9c-7,5.1-15.2,7.6-24.6,7.6c-4.6,0-9.1-0.5-13.5-1.5V1767c3.2,0.8,6.7,1.1,10.5,1.1
			c4.7,0,8.8-1.4,12.4-4.3s6.3-7.2,8.2-13.1l1.6-4.8L916.9,1649.1z"/>
	</g>
	<g>
		<linearGradient id="SVGID_1_" gradientUnits="userSpaceOnUse" x1="495.7384" y1="1842.0278" x2="442.3082" y2="1747.6941">
			<stop  offset="0" style="stop-color:#FB7655"/>
			<stop  offset="0" style="stop-color:#FB7655"/>
			<stop  offset="0.41" style="stop-color:#E42B1E"/>
			<stop  offset="0.99" style="stop-color:#990000"/>
			<stop  offset="1" style="stop-color:#990000"/>
		</linearGradient>
		<polygon fill-rule="evenodd" clip-rule="evenodd" fill="url(#SVGID_1_)" points="324.8,1819.1 512.1,1806.4 526.5,1617.6 
			469.4,1733.2 		"/>
		<linearGradient id="SVGID_2_" gradientUnits="userSpaceOnUse" x1="522.357" y1="1762.7833" x2="453.4986" y2="1716.5752">
			<stop  offset="0" style="stop-color:#871101"/>
			<stop  offset="0" style="stop-color:#871101"/>
			<stop  offset="0.99" style="stop-color:#911209"/>
			<stop  offset="1" style="stop-color:#911209"/>
		</linearGradient>
		<polygon fill-rule="evenodd" clip-rule="evenodd" fill="url(#SVGID_2_)" points="452.5,1753 512.4,1806.2 496.3,1695.2 		"/>
		<linearGradient id="SVGID_3_" gradientUnits="userSpaceOnUse" x1="467.2627" y1="1844.8868" x2="398.405" y2="1798.6792">
			<stop  offset="0" style="stop-color:#871101"/>
			<stop  offset="0" style="stop-color:#871101"/>
			<stop  offset="0.99" style="stop-color:#911209"/>
			<stop  offset="1" style="stop-color:#911209"/>
		</linearGradient>
		<polygon fill-rule="evenodd" clip-rule="evenodd" fill="url(#SVGID_3_)" points="325.5,1818.8 512.6,1806.2 394.7,1797 		"/>
		<linearGradient id="SVGID_4_" gradientUnits="userSpaceOnUse" x1="322.6841" y1="1729.3337" x2="333.3588" y2="1798.7084">
			<stop  offset="0" style="stop-color:#FFFFFF"/>
			<stop  offset="0" style="stop-color:#FFFFFF"/>
			<stop  offset="0.23" style="stop-color:#E57252"/>
			<stop  offset="0.46" style="stop-color:#DE3B20"/>
			<stop  offset="0.99" style="stop-color:#A60003"/>
			<stop  offset="1" style="stop-color:#A60003"/>
		</linearGradient>
		<polygon fill-rule="evenodd" clip-rule="evenodd" fill="url(#SVGID_4_)" points="290.3,1736.2 325.6,1818.8 355.1,1722.4 		"/>
		<linearGradient id="SVGID_5_" gradientUnits="userSpaceOnUse" x1="396.1063" y1="1664.5538" x2="400.0395" y2="1735.3563">
			<stop  offset="0" style="stop-color:#FFFFFF"/>
			<stop  offset="0" style="stop-color:#FFFFFF"/>
			<stop  offset="0.23" style="stop-color:#E4714E"/>
			<stop  offset="0.56" style="stop-color:#BE1A0D"/>
			<stop  offset="0.99" style="stop-color:#A80D00"/>
			<stop  offset="1" style="stop-color:#A80D00"/>
		</linearGradient>
		<polygon fill-rule="evenodd" clip-rule="evenodd" fill="url(#SVGID_5_)" points="347.8,1719.9 452.4,1753.4 425.3,1647.2 		"/>
		<linearGradient id="SVGID_6_" gradientUnits="userSpaceOnUse" x1="461.2628" y1="1599.1121" x2="473.0375" y2="1649.855">
			<stop  offset="0" style="stop-color:#FFFFFF"/>
			<stop  offset="0" style="stop-color:#FFFFFF"/>
			<stop  offset="0.18" style="stop-color:#E46342"/>
			<stop  offset="0.4" style="stop-color:#C82410"/>
			<stop  offset="0.99" style="stop-color:#A80D00"/>
			<stop  offset="1" style="stop-color:#A80D00"/>
		</linearGradient>
		<polygon fill-rule="evenodd" clip-rule="evenodd" fill="url(#SVGID_6_)" points="426.6,1654.8 520.3,1648.7 447,1588.8 		"/>
		<linearGradient id="SVGID_7_" gradientUnits="userSpaceOnUse" x1="425.3079" y1="1581.2424" x2="476.048" y2="1555.8723">
			<stop  offset="0" style="stop-color:#FFFFFF"/>
			<stop  offset="0" style="stop-color:#FFFFFF"/>
			<stop  offset="0.54" style="stop-color:#C81F11"/>
			<stop  offset="0.99" style="stop-color:#BF0905"/>
			<stop  offset="1" style="stop-color:#BF0905"/>
		</linearGradient>
		<polygon fill-rule="evenodd" clip-rule="evenodd" fill="url(#SVGID_7_)" points="415.7,1567.2 486.1,1567.5 442.9,1591.3 		"/>
		<linearGradient id="SVGID_8_" gradientUnits="userSpaceOnUse" x1="278.2089" y1="1711.6471" x2="282.3849" y2="1753.4583">
			<stop  offset="0" style="stop-color:#FFFFFF"/>
			<stop  offset="0" style="stop-color:#FFFFFF"/>
			<stop  offset="0.31" style="stop-color:#DE4024"/>
			<stop  offset="0.99" style="stop-color:#BF190B"/>
			<stop  offset="1" style="stop-color:#BF190B"/>
		</linearGradient>
		<polygon fill-rule="evenodd" clip-rule="evenodd" fill="url(#SVGID_8_)" points="276.7,1696.4 273.2,1768.6 291.3,1735.6 		"/>
		<path fill-rule="evenodd" clip-rule="evenodd" fill="#FFFFFF" d="M275.7,1695.2l14.7,41.7l63.9-14.3l72.9-67.8l20.6-65.4
			l-32.4-22.9l-55.1,20.6c-17.4,16.1-51,48.1-52.3,48.7C306.8,1636.4,285.8,1676.2,275.7,1695.2z"/>
		<linearGradient id="SVGID_9_" gradientUnits="userSpaceOnUse" x1="249.4976" y1="1764.76" x2="445.8098" y2="1562.8961">
			<stop  offset="0" style="stop-color:#BD0012"/>
			<stop  offset="0" style="stop-color:#BD0012"/>
			<stop  offset="7.000000e-02" style="stop-color:#FFFFFF"/>
			<stop  offset="0.17" style="stop-color:#FFFFFF"/>
			<stop  offset="0.27" style="stop-color:#C82F1C"/>
			<stop  offset="0.33" style="stop-color:#820C01"/>
			<stop  offset="0.46" style="stop-color:#A31601"/>
			<stop  offset="0.72" style="stop-color:#B31301"/>
			<stop  offset="0.99" style="stop-color:#E82609"/>
			<stop  offset="1" style="stop-color:#E82609"/>
		</linearGradient>
		<path fill-rule="evenodd" clip-rule="evenodd" fill="url(#SVGID_9_)" d="M327.3,1620.2c37.6-37.3,86.1-59.3,104.7-40.6
			c18.6,18.8-1.1,64.4-38.7,101.7c-37.6,37.3-85.5,60.5-104.1,41.8C270.6,1704.4,289.7,1657.5,327.3,1620.2z"/>
		<linearGradient id="SVGID_10_" gradientUnits="userSpaceOnUse" x1="399.8672" y1="1785.1213" x2="340.7363" y2="1770.5273">
			<stop  offset="0" style="stop-color:#8C0C01"/>
			<stop  offset="0" style="stop-color:#8C0C01"/>
			<stop  offset="0.54" style="stop-color:#990C00"/>
			<stop  offset="0.99" style="stop-color:#A80D0E"/>
			<stop  offset="1" style="stop-color:#A80D0E"/>
		</linearGradient>
		<path fill-rule="evenodd" clip-rule="evenodd" fill="url(#SVGID_10_)" d="M325.6,1818.8l29.2-96.8l97,31.2
			C416.8,1786.1,377.8,1813.9,325.6,1818.8z"/>
		<linearGradient id="SVGID_11_" gradientUnits="userSpaceOnUse" x1="501.4303" y1="1714.1517" x2="448.9005" y2="1667.0707">
			<stop  offset="0" style="stop-color:#7E110B"/>
			<stop  offset="0" style="stop-color:#7E110B"/>
			<stop  offset="0.99" style="stop-color:#9E0C00"/>
			<stop  offset="1" style="stop-color:#9E0C00"/>
		</linearGradient>
		<path fill-rule="evenodd" clip-rule="evenodd" fill="url(#SVGID_11_)" d="M427.3,1654.6l24.9,98.7c29.3-30.8,55.6-64,68.5-104.9
			L427.3,1654.6z"/>
		<linearGradient id="SVGID_12_" gradientUnits="userSpaceOnUse" x1="520.7299" y1="1627.7672" x2="494.5634" y2="1599.7935">
			<stop  offset="0" style="stop-color:#79130D"/>
			<stop  offset="0" style="stop-color:#79130D"/>
			<stop  offset="0.99" style="stop-color:#9E120B"/>
			<stop  offset="1" style="stop-color:#9E120B"/>
		</linearGradient>
		<path fill-rule="evenodd" clip-rule="evenodd" fill="url(#SVGID_12_)" d="M520.5,1648.8c10-30.1,12.3-73.3-34.7-81.3l-38.6,21.3
			L520.5,1648.8z"/>
		<path fill-rule="evenodd" clip-rule="evenodd" fill="#9E1209" d="M273.2,1768.1c1.4,49.7,37.2,50.4,52.5,50.8l-35.3-82.3
			L273.2,1768.1z"/>
		
			<radialGradient id="SVGID_13_" cx="183.1247" cy="1645.7804" r="50.3572" gradientTransform="matrix(1.2783 0 0 1.2783 222.9895 -435.8532)" gradientUnits="userSpaceOnUse">
			<stop  offset="0" style="stop-color:#A80D00"/>
			<stop  offset="0" style="stop-color:#A80D00"/>
			<stop  offset="0.99" style="stop-color:#7E0E08"/>
			<stop  offset="1" style="stop-color:#7E0E08"/>
		</radialGradient>
		<path fill-rule="evenodd" clip-rule="evenodd" fill="url(#SVGID_13_)" d="M427.5,1654.7c22.5,13.8,67.9,41.6,68.8,42.2
			c1.4,0.8,19.6-30.6,23.7-48.3L427.5,1654.7z"/>
		
			<radialGradient id="SVGID_14_" cx="113.3857" cy="1712.1433" r="66.9436" gradientTransform="matrix(1.2783 0 0 1.2783 222.9895 -435.8532)" gradientUnits="userSpaceOnUse">
			<stop  offset="0" style="stop-color:#A30C00"/>
			<stop  offset="0" style="stop-color:#A30C00"/>
			<stop  offset="0.99" style="stop-color:#800E08"/>
			<stop  offset="1" style="stop-color:#800E08"/>
		</radialGradient>
		<path fill-rule="evenodd" clip-rule="evenodd" fill="url(#SVGID_14_)" d="M354.8,1722l39.1,75.4c23.1-12.5,41.2-27.8,57.8-44.1
			L354.8,1722z"/>
		<linearGradient id="SVGID_15_" gradientUnits="userSpaceOnUse" x1="307.3117" y1="1818.7469" x2="285.9875" y2="1746.4009">
			<stop  offset="0" style="stop-color:#8B2114"/>
			<stop  offset="0" style="stop-color:#8B2114"/>
			<stop  offset="0.43" style="stop-color:#9E100A"/>
			<stop  offset="0.99" style="stop-color:#B3100C"/>
			<stop  offset="1" style="stop-color:#B3100C"/>
		</linearGradient>
		<path fill-rule="evenodd" clip-rule="evenodd" fill="url(#SVGID_15_)" d="M290.3,1736.7l-5.5,65.9c10.4,14.3,24.8,15.5,39.9,14.4
			C313.7,1789.9,291.9,1735.6,290.3,1736.7z"/>
		<linearGradient id="SVGID_16_" gradientUnits="userSpaceOnUse" x1="470.8981" y1="1579.0128" x2="518.7042" y2="1600.1152">
			<stop  offset="0" style="stop-color:#B31000"/>
			<stop  offset="0" style="stop-color:#B31000"/>
			<stop  offset="0.44" style="stop-color:#910F08"/>
			<stop  offset="0.99" style="stop-color:#791C12"/>
			<stop  offset="1" style="stop-color:#791C12"/>
		</linearGradient>
		<path fill-rule="evenodd" clip-rule="evenodd" fill="url(#SVGID_16_)" d="M446.9,1589l77.6,10.9c-4.1-17.6-16.9-28.9-38.5-32.4
			L446.9,1589z"/>
	</g>
</g>
</svg>
