<?xml version="1.0" encoding="utf-8"?>
<!-- Generator: Adobe Illustrator 17.1.0, SVG Export Plug-In . SVG Version: 6.00 Build 0)  -->
<!DOCTYPE svg PUBLIC "-//W3C//DTD SVG 1.1//EN" "http://www.w3.org/Graphics/SVG/1.1/DTD/svg11.dtd">
<svg version="1.1" id="Layer_1" xmlns="http://www.w3.org/2000/svg" xmlns:xlink="http://www.w3.org/1999/xlink" x="0px" y="0px"
	 viewBox="0 0 198.1 197.6" enable-background="new 0 0 198.1 197.6" xml:space="preserve">
<linearGradient id="SVGID_1_" gradientUnits="userSpaceOnUse" x1="174.0706" y1="215.5448" x2="132.2706" y2="141.7448">
	<stop  offset="0" style="stop-color:#F68F71"/>
	<stop  offset="0" style="stop-color:#F68F71"/>
	<stop  offset="0.41" style="stop-color:#DC5242"/>
	<stop  offset="0.99" style="stop-color:#A72C32"/>
	<stop  offset="1" style="stop-color:#A72C32"/>
</linearGradient>
<polygon fill-rule="evenodd" clip-rule="evenodd" fill="url(#SVGID_1_)" points="40.4,197.6 186.9,187.6 198.1,40 153.5,130.4 "/>
<linearGradient id="SVGID_2_" gradientUnits="userSpaceOnUse" x1="194.8943" y1="153.5565" x2="141.0255" y2="117.4073">
	<stop  offset="0" style="stop-color:#9B3F34"/>
	<stop  offset="0" style="stop-color:#9B3F34"/>
	<stop  offset="0.99" style="stop-color:#A23E36"/>
	<stop  offset="1" style="stop-color:#A23E36"/>
</linearGradient>
<polygon fill-rule="evenodd" clip-rule="evenodd" fill="url(#SVGID_2_)" points="140.2,145.9 187.1,187.5 174.5,100.7 "/>
<linearGradient id="SVGID_3_" gradientUnits="userSpaceOnUse" x1="151.7941" y1="217.7835" x2="97.9253" y2="181.6343">
	<stop  offset="0" style="stop-color:#9B3F34"/>
	<stop  offset="0" style="stop-color:#9B3F34"/>
	<stop  offset="0.99" style="stop-color:#A23E36"/>
	<stop  offset="1" style="stop-color:#A23E36"/>
</linearGradient>
<polygon fill-rule="evenodd" clip-rule="evenodd" fill="url(#SVGID_3_)" points="40.9,197.4 187.3,187.5 95,180.3 "/>
<linearGradient id="SVGID_4_" gradientUnits="userSpaceOnUse" x1="38.6963" y1="127.3912" x2="47.0473" y2="181.6642">
	<stop  offset="0" style="stop-color:#FFFFFF"/>
	<stop  offset="0" style="stop-color:#FFFFFF"/>
	<stop  offset="0.23" style="stop-color:#E28B6F"/>
	<stop  offset="0.46" style="stop-color:#DA6144"/>
	<stop  offset="0.99" style="stop-color:#A60003"/>
	<stop  offset="1" style="stop-color:#A60003"/>
</linearGradient>
<polygon fill-rule="evenodd" clip-rule="evenodd" fill="url(#SVGID_4_)" points="13.3,132.8 41,197.4 64,121.9 "/>
<linearGradient id="SVGID_5_" gradientUnits="userSpaceOnUse" x1="96.1328" y1="76.7104" x2="99.2097" y2="132.1004">
	<stop  offset="0" style="stop-color:#FFFFFF"/>
	<stop  offset="0" style="stop-color:#FFFFFF"/>
	<stop  offset="0.23" style="stop-color:#E08A6D"/>
	<stop  offset="0.56" style="stop-color:#C14435"/>
	<stop  offset="0.99" style="stop-color:#B13430"/>
	<stop  offset="1" style="stop-color:#B13430"/>
</linearGradient>
<polygon fill-rule="evenodd" clip-rule="evenodd" fill="url(#SVGID_5_)" points="58.3,120 140.2,146.2 119,63.1 "/>
<linearGradient id="SVGID_6_" gradientUnits="userSpaceOnUse" x1="147.1041" y1="25.5239" x2="156.3152" y2="65.2189">
	<stop  offset="0" style="stop-color:#FFFFFF"/>
	<stop  offset="0" style="stop-color:#FFFFFF"/>
	<stop  offset="0.18" style="stop-color:#DF8063"/>
	<stop  offset="0.4" style="stop-color:#C94D37"/>
	<stop  offset="0.99" style="stop-color:#B13430"/>
	<stop  offset="1" style="stop-color:#B13430"/>
</linearGradient>
<polygon fill-rule="evenodd" clip-rule="evenodd" fill="url(#SVGID_6_)" points="120,69.1 193.3,64.3 136,17.5 "/>
<linearGradient id="SVGID_7_" gradientUnits="userSpaceOnUse" x1="118.976" y1="11.542" x2="158.67" y2="-8.305">
	<stop  offset="0" style="stop-color:#FFFFFF"/>
	<stop  offset="0" style="stop-color:#FFFFFF"/>
	<stop  offset="0.54" style="stop-color:#C94838"/>
	<stop  offset="0.99" style="stop-color:#C12D2F"/>
	<stop  offset="1" style="stop-color:#C12D2F"/>
</linearGradient>
<polygon fill-rule="evenodd" clip-rule="evenodd" fill="url(#SVGID_7_)" points="111.5,0.5 166.5,0.8 132.8,19.4 "/>
<linearGradient id="SVGID_8_" gradientUnits="userSpaceOnUse" x1="3.9039" y1="113.5554" x2="7.1709" y2="146.2654">
	<stop  offset="0" style="stop-color:#FFFFFF"/>
	<stop  offset="0" style="stop-color:#FFFFFF"/>
	<stop  offset="0.31" style="stop-color:#DA6548"/>
	<stop  offset="0.99" style="stop-color:#C14433"/>
	<stop  offset="1" style="stop-color:#C14433"/>
</linearGradient>
<polygon fill-rule="evenodd" clip-rule="evenodd" fill="url(#SVGID_8_)" points="2.7,101.6 0,158.1 14.1,132.3 "/>
<path fill-rule="evenodd" clip-rule="evenodd" fill="#FFFFFF" d="M1.9,100.7l11.5,32.6l50-11.2l57-53l16.1-51.1L111.2,0L68.1,16.1
	C54.5,28.8,28.2,53.8,27.2,54.2C26.3,54.7,9.8,85.8,1.9,100.7z"/>
<linearGradient id="SVGID_9_" gradientUnits="userSpaceOnUse" x1="-18.5609" y1="155.1089" x2="135.0132" y2="-2.8083">
	<stop  offset="0" style="stop-color:#BD0012"/>
	<stop  offset="0" style="stop-color:#BD0012"/>
	<stop  offset="7.000000e-02" style="stop-color:#FFFFFF"/>
	<stop  offset="0.17" style="stop-color:#FFFFFF"/>
	<stop  offset="0.27" style="stop-color:#C95841"/>
	<stop  offset="0.33" style="stop-color:#983734"/>
	<stop  offset="0.46" style="stop-color:#AE4231"/>
	<stop  offset="0.72" style="stop-color:#B93E2F"/>
	<stop  offset="0.99" style="stop-color:#DE4E2B"/>
	<stop  offset="1" style="stop-color:#DE4E2B"/>
</linearGradient>
<path fill-rule="evenodd" clip-rule="evenodd" fill="url(#SVGID_9_)" d="M42.3,42c29.4-29.2,67.4-46.4,81.9-31.7
	c14.6,14.7-0.9,50.4-30.3,79.6S27,137.2,12.5,122.6C-2.1,107.9,12.9,71.2,42.3,42z"/>
<linearGradient id="SVGID_10_" gradientUnits="userSpaceOnUse" x1="99.0767" y1="171.0328" x2="52.8226" y2="159.6169">
	<stop  offset="0" style="stop-color:#9F3633"/>
	<stop  offset="0" style="stop-color:#9F3633"/>
	<stop  offset="0.54" style="stop-color:#A73532"/>
	<stop  offset="0.99" style="stop-color:#B13439"/>
	<stop  offset="1" style="stop-color:#B13439"/>
</linearGradient>
<path fill-rule="evenodd" clip-rule="evenodd" fill="url(#SVGID_10_)" d="M41,197.4l22.9-75.7l75.9,24.4
	C112.3,171.8,81.8,193.6,41,197.4z"/>
<linearGradient id="SVGID_11_" gradientUnits="userSpaceOnUse" x1="178.5253" y1="115.5137" x2="137.4315" y2="78.6825">
	<stop  offset="0" style="stop-color:#923C36"/>
	<stop  offset="0" style="stop-color:#923C36"/>
	<stop  offset="0.99" style="stop-color:#AA3531"/>
	<stop  offset="1" style="stop-color:#AA3531"/>
</linearGradient>
<path fill-rule="evenodd" clip-rule="evenodd" fill="url(#SVGID_11_)" d="M120.6,68.9l19.5,77.2c22.9-24.1,43.5-50,53.6-82.1
	L120.6,68.9z"/>
<linearGradient id="SVGID_12_" gradientUnits="userSpaceOnUse" x1="193.623" y1="47.9367" x2="173.153" y2="26.0527">
	<stop  offset="0" style="stop-color:#8D3E36"/>
	<stop  offset="0" style="stop-color:#8D3E36"/>
	<stop  offset="0.99" style="stop-color:#AA3E37"/>
	<stop  offset="1" style="stop-color:#AA3E37"/>
</linearGradient>
<path fill-rule="evenodd" clip-rule="evenodd" fill="url(#SVGID_12_)" d="M193.4,64.4c7.8-23.5,9.6-57.3-27.2-63.6l-30.2,16.7
	L193.4,64.4z"/>
<path fill-rule="evenodd" clip-rule="evenodd" fill="#AA3E35" d="M0,157.8c1.1,38.9,29.1,39.4,41,39.8l-27.6-64.4L0,157.8z"/>
<radialGradient id="SVGID_13_" cx="143.83" cy="79.39" r="50.36" gradientUnits="userSpaceOnUse">
	<stop  offset="0" style="stop-color:#B13430"/>
	<stop  offset="0" style="stop-color:#B13430"/>
	<stop  offset="0.99" style="stop-color:#923934"/>
	<stop  offset="1" style="stop-color:#923934"/>
</radialGradient>
<path fill-rule="evenodd" clip-rule="evenodd" fill="url(#SVGID_13_)" d="M120.7,69c17.6,10.8,53.1,32.6,53.9,33
	c1.1,0.6,15.3-23.9,18.5-37.8L120.7,69z"/>
<radialGradient id="SVGID_14_" cx="74.09" cy="145.75" r="66.9469" gradientUnits="userSpaceOnUse">
	<stop  offset="0" style="stop-color:#AE3531"/>
	<stop  offset="0" style="stop-color:#AE3531"/>
	<stop  offset="0.99" style="stop-color:#953A36"/>
	<stop  offset="1" style="stop-color:#953A36"/>
</radialGradient>
<path fill-rule="evenodd" clip-rule="evenodd" fill="url(#SVGID_14_)" d="M63.8,121.7l30.6,59c18.1-9.8,32.2-21.7,45.2-34.5
	L63.8,121.7z"/>
<linearGradient id="SVGID_15_" gradientUnits="userSpaceOnUse" x1="26.6712" y1="197.3392" x2="9.9892" y2="140.7422">
	<stop  offset="0" style="stop-color:#994939"/>
	<stop  offset="0" style="stop-color:#994939"/>
	<stop  offset="0.43" style="stop-color:#AA3A36"/>
	<stop  offset="0.99" style="stop-color:#B83936"/>
	<stop  offset="1" style="stop-color:#B83936"/>
</linearGradient>
<path fill-rule="evenodd" clip-rule="evenodd" fill="url(#SVGID_15_)" d="M13.4,133.2L9,184.8c8.2,11.2,19.4,12.1,31.2,11.3
	C31.7,174.8,14.6,132.3,13.4,133.2z"/>
<linearGradient id="SVGID_16_" gradientUnits="userSpaceOnUse" x1="154.6428" y1="9.7985" x2="192.0428" y2="26.3075">
	<stop  offset="0" style="stop-color:#B9392F"/>
	<stop  offset="0" style="stop-color:#B9392F"/>
	<stop  offset="0.44" style="stop-color:#A23A36"/>
	<stop  offset="0.99" style="stop-color:#8D463A"/>
	<stop  offset="1" style="stop-color:#8D463A"/>
</linearGradient>
<path fill-rule="evenodd" clip-rule="evenodd" fill="url(#SVGID_16_)" d="M135.9,17.6l60.7,8.5c-3.2-13.7-13.2-22.6-30.1-25.4
	L135.9,17.6z"/>
</svg>
