<?xml version="1.0" encoding="utf-8"?>
<!-- Generator: Adobe Illustrator 17.1.0, SVG Export Plug-In . SVG Version: 6.00 Build 0)  -->
<!DOCTYPE svg PUBLIC "-//W3C//DTD SVG 1.1//EN" "http://www.w3.org/Graphics/SVG/1.1/DTD/svg11.dtd">
<svg version="1.1" id="Layer_1" xmlns="http://www.w3.org/2000/svg" xmlns:xlink="http://www.w3.org/1999/xlink" x="0px" y="0px"
	 viewBox="315.8 0 252.1 252" enable-background="new 315.8 0 252.1 252" xml:space="preserve">
<g>
	<circle fill="#074E68" cx="443" cy="125.9" r="125.9"/>
	<g opacity="0.5" enable-background="new    ">
		<g>
			<g>
				<g>
					<defs>
						<circle id="SVGID_1_" cx="442.6" cy="125.6" r="125.9"/>
					</defs>
					<clipPath id="SVGID_2_">
						<use xlink:href="#SVGID_1_"  overflow="visible"/>
					</clipPath>
					<g clip-path="url(#SVGID_2_)">
						<g>
							
								<line fill="none" stroke="#FFFFFF" stroke-width="0.5" stroke-miterlimit="10" x1="536.7" y1="343.9" x2="536.7" y2="-78.2"/>
							
								<line fill="none" stroke="#FFFFFF" stroke-width="0.5" stroke-miterlimit="10" x1="519.6" y1="343.9" x2="519.6" y2="-78.2"/>
							
								<line fill="none" stroke="#FFFFFF" stroke-width="0.5" stroke-miterlimit="10" x1="553.7" y1="343.5" x2="553.7" y2="-78.6"/>
							
								<line fill="none" stroke="#FFFFFF" stroke-width="0.5" stroke-miterlimit="10" x1="570.8" y1="343.9" x2="570.8" y2="-78.2"/>
							
								<line fill="none" stroke="#FFFFFF" stroke-width="0.5" stroke-miterlimit="10" x1="468.3" y1="343.9" x2="468.3" y2="-78.2"/>
							
								<line fill="none" stroke="#FFFFFF" stroke-width="0.5" stroke-miterlimit="10" x1="451.3" y1="343.9" x2="451.3" y2="-78.2"/>
							
								<line fill="none" stroke="#FFFFFF" stroke-width="0.5" stroke-miterlimit="10" x1="485.4" y1="343.5" x2="485.4" y2="-78.6"/>
							
								<line fill="none" stroke="#FFFFFF" stroke-width="0.5" stroke-miterlimit="10" x1="502.5" y1="343.9" x2="502.5" y2="-78.2"/>
							
								<line fill="none" stroke="#FFFFFF" stroke-width="0.5" stroke-miterlimit="10" x1="400.4" y1="344.1" x2="400.4" y2="-77.9"/>
							
								<line fill="none" stroke="#FFFFFF" stroke-width="0.5" stroke-miterlimit="10" x1="383.3" y1="344.1" x2="383.3" y2="-77.9"/>
							
								<line fill="none" stroke="#FFFFFF" stroke-width="0.5" stroke-miterlimit="10" x1="417.5" y1="343.7" x2="417.5" y2="-78.4"/>
							
								<line fill="none" stroke="#FFFFFF" stroke-width="0.5" stroke-miterlimit="10" x1="434.6" y1="344.1" x2="434.6" y2="-77.9"/>
							
								<line fill="none" stroke="#FFFFFF" stroke-width="0.5" stroke-miterlimit="10" x1="332.1" y1="344.1" x2="332.1" y2="-77.9"/>
							
								<line fill="none" stroke="#FFFFFF" stroke-width="0.5" stroke-miterlimit="10" x1="315.1" y1="344.1" x2="315.1" y2="-77.9"/>
							
								<line fill="none" stroke="#FFFFFF" stroke-width="0.5" stroke-miterlimit="10" x1="349.2" y1="343.7" x2="349.2" y2="-78.4"/>
							
								<line fill="none" stroke="#FFFFFF" stroke-width="0.5" stroke-miterlimit="10" x1="366.2" y1="344.1" x2="366.2" y2="-77.9"/>
						</g>
						<g>
							
								<line fill="none" stroke="#FFFFFF" stroke-width="0.5" stroke-miterlimit="10" x1="240.1" y1="219.2" x2="662.2" y2="219.2"/>
							
								<line fill="none" stroke="#FFFFFF" stroke-width="0.5" stroke-miterlimit="10" x1="240.1" y1="202.2" x2="662.2" y2="202.2"/>
							
								<line fill="none" stroke="#FFFFFF" stroke-width="0.5" stroke-miterlimit="10" x1="240.6" y1="236.2" x2="662.6" y2="236.2"/>
							
								<line fill="none" stroke="#FFFFFF" stroke-width="0.5" stroke-miterlimit="10" x1="240.1" y1="253.3" x2="662.2" y2="253.3"/>
							
								<line fill="none" stroke="#FFFFFF" stroke-width="0.5" stroke-miterlimit="10" x1="240.1" y1="150.9" x2="662.2" y2="150.9"/>
							
								<line fill="none" stroke="#FFFFFF" stroke-width="0.5" stroke-miterlimit="10" x1="240.1" y1="133.8" x2="662.2" y2="133.8"/>
							<line fill="none" stroke="#FFFFFF" stroke-width="0.5" stroke-miterlimit="10" x1="240.6" y1="168" x2="662.6" y2="168"/>
							
								<line fill="none" stroke="#FFFFFF" stroke-width="0.5" stroke-miterlimit="10" x1="240.1" y1="185.1" x2="662.2" y2="185.1"/>
							<line fill="none" stroke="#FFFFFF" stroke-width="0.5" stroke-miterlimit="10" x1="239.9" y1="83" x2="662" y2="83"/>
							<line fill="none" stroke="#FFFFFF" stroke-width="0.5" stroke-miterlimit="10" x1="239.9" y1="65.9" x2="662" y2="65.9"/>
							
								<line fill="none" stroke="#FFFFFF" stroke-width="0.5" stroke-miterlimit="10" x1="240.3" y1="100.1" x2="662.4" y2="100.1"/>
							<line fill="none" stroke="#FFFFFF" stroke-width="0.5" stroke-miterlimit="10" x1="239.9" y1="117.2" x2="662" y2="117.2"/>
							<line fill="none" stroke="#FFFFFF" stroke-width="0.5" stroke-miterlimit="10" x1="239.9" y1="14.7" x2="662" y2="14.7"/>
							<line fill="none" stroke="#FFFFFF" stroke-width="0.5" stroke-miterlimit="10" x1="239.9" y1="-2.4" x2="662" y2="-2.4"/>
							<line fill="none" stroke="#FFFFFF" stroke-width="0.5" stroke-miterlimit="10" x1="240.3" y1="31.8" x2="662.4" y2="31.8"/>
							<line fill="none" stroke="#FFFFFF" stroke-width="0.5" stroke-miterlimit="10" x1="239.9" y1="48.8" x2="662" y2="48.8"/>
						</g>
					</g>
				</g>
			</g>
		</g>
	</g>
</g>
<g display="none">
	<g display="inline">
		<path fill="#FFFFFF" d="M486.9,138.7v21.2c17,1.3,30.1,5.5,39.9,12.6c17.5,11.1,26.5,29.2,27.3,54.2h-41c-0.8-9.3-2.3-16-4.6-20.2
			c-4-7.4-11.1-11.4-21.4-12.2v59.5c24.6,8.6,41.2,16,49.8,22.7c13.9,10.9,21,26.3,21,46.2c0,26.3-9.7,45.4-29,57.2
			c-11.8,7.2-25.8,11.6-42,12.8v31.5h-15.1V393c-20.6-2.3-35.9-6.7-46-13.4c-17.7-12-26.5-32.4-26.3-61.2h42.2
			c1.5,13.2,3.4,21.9,6.1,26.3c4,7.1,12,11.4,23.8,13.5v-66.8l-12.6-3.8c-19.8-5.9-34-13.9-42.2-24.4c-8.2-10.5-12.2-22.9-12.2-37.6
			c0-9.7,1.5-18.5,4.8-26.3s7.6-14.7,13.4-20.4c7.4-7.4,15.6-12.6,24.6-15.3c5.5-1.7,13.5-3.1,24.2-3.8v-21.2H486.9 M471.8,249.2
			v-54.7c-9.2,0.2-15.8,2.7-20.2,7.2c-4.4,4.6-6.5,10.9-6.5,19.1c0,8.8,3.2,15.6,9.9,20.8C458.7,244.2,464.2,246.9,471.8,249.2
			 M486.9,357.7c8.2-1,14.1-2.9,17.7-5.5c6.5-4.8,9.7-13.2,9.7-24.8c0-9-3.1-16-9.2-21.2c-3.6-3.1-9.7-6.1-18.3-9.3V357.7
			 M492.6,133h-5.7h-15.1h-5.7v5.7v15.6c-8.6,1-15.3,2.1-20.2,3.6c-9.9,3.1-18.9,8.8-26.9,16.8c-6.3,6.3-11.3,13.7-14.7,22.3
			c-3.4,8.6-5.2,18.1-5.2,28.6c0,16,4.6,29.8,13.5,41.2c9,11.3,24,20.2,45,26.3l8.6,2.5v55.1c-6.5-2.1-10.9-5.2-13.2-9.2
			c-1.5-2.7-3.6-9-5.3-24.2l-0.6-5.2h-5.2h-42.3H394v5.7c-0.4,30.7,9.3,53,28.8,66c10.1,6.7,24.4,11.3,43.5,13.7v25.9v5.7h5.7h15.1
			h5.7v-5.7v-26.1c14.9-1.7,28-6.1,39.1-13.2c21-13,31.7-33.8,31.7-62c0-21.7-7.8-38.7-23.3-50.7c-8.6-6.7-24.2-13.9-47.5-22.1
			v-48.8c5,1.3,8.4,4,10.5,8.2c1.3,2.5,3.1,7.6,4,18.1l0.4,5.2h5.2h41h5.9l-0.2-5.9c-0.8-26.9-10.7-46.5-29.8-58.7
			c-9.3-6.7-21.9-11.1-37.4-13v-15.8V133H492.6z M466.1,241.2c-3.2-1.3-5.7-2.9-7.6-4.2c-5.2-4-7.6-9.3-7.6-16.2
			c0-6.5,1.7-11.4,5-15.1c2.3-2.5,5.7-4.2,10.3-5V241.2L466.1,241.2z M492.6,350.8v-45.8c4.8,2.3,7.4,4,9,5.2
			c4.8,4,7.1,9.5,7.1,16.8c0,9.7-2.5,16.6-7.4,20.2C499.9,348.6,497.4,349.7,492.6,350.8L492.6,350.8z"/>
	</g>
</g>
<g>
	<g>
		<path fill="#FFFFFF" d="M446.3,64.3v9.1c7.3,0.6,13,2.4,17.1,5.4c7.5,4.8,11.5,12.6,11.7,23.4h-17.7c-0.4-4-1-6.9-2-8.7
			c-1.7-3.2-4.7-4.9-9.2-5.2v25.6c10.6,3.7,17.8,6.9,21.4,9.8c6,4.7,9,11.4,9,19.9c0,11.3-4.2,19.5-12.5,24.6
			c-5.1,3.1-11.1,5-18,5.5v13.5h-6.5v-13.4c-8.8-1-15.4-2.9-19.8-5.8c-7.7-5.2-11.4-14-11.3-26.4h18.2c0.6,5.7,1.5,9.4,2.6,11.4
			c1.7,3,5.2,5,10.3,5.9V130l-5.5-1.6c-8.6-2.5-14.6-6-18.1-10.5c-3.5-4.5-5.3-9.9-5.3-16.2c0-4.2,0.7-8,2.1-11.4
			c1.4-3.4,3.3-6.3,5.8-8.8c3.2-3.2,6.7-5.4,10.6-6.6c2.4-0.8,5.9-1.3,10.4-1.7v-9H446.3 M439.8,111.9V88.3
			c-3.9,0.1-6.8,1.1-8.7,3.1c-1.9,2-2.8,4.7-2.8,8.2c0,3.8,1.4,6.8,4.2,9C434.1,109.7,436.5,110.8,439.8,111.9 M446.3,158.6
			c3.5-0.4,6.1-1.3,7.7-2.4c2.8-2.1,4.2-5.6,4.2-10.7c0-3.9-1.3-6.9-3.9-9.2c-1.6-1.3-4.2-2.6-7.9-4V158.6 M449.3,61.3h-3h-6.5h-3v3
			v6.2c-3.5,0.4-6.2,0.9-8.3,1.6c-4.3,1.3-8.3,3.8-11.8,7.3c-2.7,2.7-4.9,6-6.4,9.8c-1.5,3.7-2.3,8-2.3,12.5c0,7,2,13.1,5.9,18.1
			c3.9,5,10.5,8.8,19.7,11.5l3.3,1v22.6c-2.3-0.8-3.8-2-4.7-3.5c-0.5-0.9-1.5-3.4-2.2-10.2l-0.3-2.7h-2.7h-18.2h-3l0,3
			c-0.1,13.4,4.1,23.2,12.6,28.9c4.4,2.9,10.4,4.8,18.5,5.9v10.7v3h3h6.5h3v-3v-10.8c6.3-0.8,11.8-2.7,16.6-5.7
			c9.2-5.7,13.9-14.8,13.9-27.2c0-9.5-3.4-17-10.2-22.3c-3.7-2.9-10.4-6-20.3-9.5V91.7c2.1,0.8,3,2,3.5,3c0.5,1,1.3,3.2,1.7,7.6
			l0.2,2.7h2.7h17.7h3.1l-0.1-3.1c-0.3-11.7-4.7-20.4-13-25.8c-4-2.9-9.3-4.8-15.8-5.6v-6.4V61.3L449.3,61.3z M436.8,107.5
			c-1.2-0.6-2-1-2.4-1.4c-2.1-1.6-3.1-3.7-3.1-6.6c0-2.7,0.7-4.7,2-6.1c0.8-0.9,2-1.5,3.5-1.8V107.5L436.8,107.5z M449.3,155v-18.2
			c1.6,0.8,2.5,1.4,3,1.8c1.9,1.6,2.9,3.9,2.9,6.9c0,4-1,6.8-3,8.3C451.7,154.1,450.8,154.6,449.3,155L449.3,155z"/>
	</g>
</g>
</svg>
