<?xml version="1.0" encoding="utf-8"?>
<!-- Generator: Adobe Illustrator 17.1.0, SVG Export Plug-In . SVG Version: 6.00 Build 0)  -->
<!DOCTYPE svg PUBLIC "-//W3C//DTD SVG 1.1//EN" "http://www.w3.org/Graphics/SVG/1.1/DTD/svg11.dtd">
<svg version="1.1" id="Layer_1" xmlns="http://www.w3.org/2000/svg" xmlns:xlink="http://www.w3.org/1999/xlink" x="0px" y="0px"
	 viewBox="0 0 253 253" enable-background="new 0 0 253 253" xml:space="preserve">
<g>
	<g>
		<circle fill="#074E68" cx="126.4" cy="126.6" r="126"/>
		<g opacity="0.5" enable-background="new    ">
			<g>
				<g>
					<g>
						<defs>
							<circle id="SVGID_1_" cx="126" cy="126.4" r="126"/>
						</defs>
						<clipPath id="SVGID_2_">
							<use xlink:href="#SVGID_1_"  overflow="visible"/>
						</clipPath>
						<g clip-path="url(#SVGID_2_)">
							<g>
								
									<line fill="none" stroke="#FFFFFF" stroke-width="0.5" stroke-miterlimit="10" x1="220.2" y1="344.9" x2="220.2" y2="-77.6"/>
								
									<line fill="none" stroke="#FFFFFF" stroke-width="0.5" stroke-miterlimit="10" x1="203.1" y1="344.9" x2="203.1" y2="-77.6"/>
								<line fill="none" stroke="#FFFFFF" stroke-width="0.5" stroke-miterlimit="10" x1="237.3" y1="344.5" x2="237.3" y2="-78"/>
								
									<line fill="none" stroke="#FFFFFF" stroke-width="0.5" stroke-miterlimit="10" x1="254.4" y1="344.9" x2="254.4" y2="-77.6"/>
								
									<line fill="none" stroke="#FFFFFF" stroke-width="0.5" stroke-miterlimit="10" x1="151.9" y1="344.9" x2="151.9" y2="-77.6"/>
								
									<line fill="none" stroke="#FFFFFF" stroke-width="0.5" stroke-miterlimit="10" x1="134.8" y1="344.9" x2="134.8" y2="-77.6"/>
								<line fill="none" stroke="#FFFFFF" stroke-width="0.5" stroke-miterlimit="10" x1="168.9" y1="344.5" x2="168.9" y2="-78"/>
								<line fill="none" stroke="#FFFFFF" stroke-width="0.5" stroke-miterlimit="10" x1="186" y1="344.9" x2="186" y2="-77.6"/>
								<line fill="none" stroke="#FFFFFF" stroke-width="0.5" stroke-miterlimit="10" x1="83.8" y1="345.2" x2="83.8" y2="-77.4"/>
								<line fill="none" stroke="#FFFFFF" stroke-width="0.5" stroke-miterlimit="10" x1="66.8" y1="346.8" x2="66.8" y2="-75.7"/>
								
									<line fill="none" stroke="#FFFFFF" stroke-width="0.5" stroke-miterlimit="10" x1="100.9" y1="344.7" x2="100.9" y2="-77.8"/>
								<line fill="none" stroke="#FFFFFF" stroke-width="0.5" stroke-miterlimit="10" x1="118" y1="345.2" x2="118" y2="-77.4"/>
								<line fill="none" stroke="#FFFFFF" stroke-width="0.5" stroke-miterlimit="10" x1="15.5" y1="345.2" x2="15.5" y2="-77.4"/>
								<line fill="none" stroke="#FFFFFF" stroke-width="0.5" stroke-miterlimit="10" x1="-1.6" y1="345.2" x2="-1.6" y2="-77.4"/>
								<line fill="none" stroke="#FFFFFF" stroke-width="0.5" stroke-miterlimit="10" x1="32.6" y1="344.7" x2="32.6" y2="-77.8"/>
								<line fill="none" stroke="#FFFFFF" stroke-width="0.5" stroke-miterlimit="10" x1="49.7" y1="345.2" x2="49.7" y2="-77.4"/>
							</g>
							<g>
								
									<line fill="none" stroke="#FFFFFF" stroke-width="0.5" stroke-miterlimit="10" x1="-76.6" y1="220.1" x2="345.9" y2="220.1"/>
								<line fill="none" stroke="#FFFFFF" stroke-width="0.5" stroke-miterlimit="10" x1="-76.6" y1="203" x2="345.9" y2="203"/>
								
									<line fill="none" stroke="#FFFFFF" stroke-width="0.5" stroke-miterlimit="10" x1="-76.2" y1="237.2" x2="346.4" y2="237.2"/>
								
									<line fill="none" stroke="#FFFFFF" stroke-width="0.5" stroke-miterlimit="10" x1="-76.6" y1="254.3" x2="345.9" y2="254.3"/>
								
									<line fill="none" stroke="#FFFFFF" stroke-width="0.5" stroke-miterlimit="10" x1="-76.6" y1="151.7" x2="345.9" y2="151.7"/>
								
									<line fill="none" stroke="#FFFFFF" stroke-width="0.5" stroke-miterlimit="10" x1="-76.6" y1="134.6" x2="345.9" y2="134.6"/>
								
									<line fill="none" stroke="#FFFFFF" stroke-width="0.5" stroke-miterlimit="10" x1="-76.2" y1="168.8" x2="346.4" y2="168.8"/>
								
									<line fill="none" stroke="#FFFFFF" stroke-width="0.5" stroke-miterlimit="10" x1="-76.6" y1="185.9" x2="345.9" y2="185.9"/>
								<line fill="none" stroke="#FFFFFF" stroke-width="0.5" stroke-miterlimit="10" x1="-76.8" y1="83.7" x2="345.7" y2="83.7"/>
								<line fill="none" stroke="#FFFFFF" stroke-width="0.5" stroke-miterlimit="10" x1="-76.8" y1="66.6" x2="345.7" y2="66.6"/>
								
									<line fill="none" stroke="#FFFFFF" stroke-width="0.5" stroke-miterlimit="10" x1="-76.4" y1="100.8" x2="346.1" y2="100.8"/>
								
									<line fill="none" stroke="#FFFFFF" stroke-width="0.5" stroke-miterlimit="10" x1="-76.8" y1="117.9" x2="345.7" y2="117.9"/>
								<line fill="none" stroke="#FFFFFF" stroke-width="0.5" stroke-miterlimit="10" x1="-76.8" y1="15.3" x2="345.7" y2="15.3"/>
								<line fill="none" stroke="#FFFFFF" stroke-width="0.5" stroke-miterlimit="10" x1="-76.8" y1="-1.7" x2="345.7" y2="-1.7"/>
								<line fill="none" stroke="#FFFFFF" stroke-width="0.5" stroke-miterlimit="10" x1="-76.4" y1="32.4" x2="346.1" y2="32.4"/>
								<line fill="none" stroke="#FFFFFF" stroke-width="0.5" stroke-miterlimit="10" x1="-76.8" y1="49.5" x2="345.7" y2="49.5"/>
							</g>
						</g>
					</g>
				</g>
			</g>
		</g>
	</g>
	<g display="none">
		
			<rect x="65" y="83.5" display="inline" fill="none" stroke="#FFFFFF" stroke-width="3" stroke-miterlimit="10" width="122.5" height="84.8"/>
		<g display="inline">
			<circle fill="none" stroke="#FFFFFF" stroke-width="3" stroke-miterlimit="10" cx="126.2" cy="122.7" r="21.9"/>
			<polygon fill="none" stroke="#FFFFFF" stroke-width="3" stroke-miterlimit="10" points="120.6,135.6 120.2,109.8 138.6,122.6 			
				"/>
		</g>
		
			<line display="inline" fill="none" stroke="#FFFFFF" stroke-width="3" stroke-miterlimit="10" x1="65" y1="160.8" x2="187.5" y2="160.8"/>
	</g>
</g>
<g>
	<line fill="none" stroke="#FFFFFF" stroke-miterlimit="10" x1="195.4" y1="172.8" x2="195.4" y2="103.7"/>
	<polygon fill="#FFFFFF" points="195.4,174.8 192.4,171.9 198.3,171.9 	"/>
	<polygon fill="#FFFFFF" points="195.4,100.8 198.3,103.7 192.4,103.7 	"/>
</g>
<g>
	<line fill="none" stroke="#FFFFFF" stroke-miterlimit="10" x1="136.5" y1="179.3" x2="67.9" y2="179.3"/>
	<line fill="none" stroke="#FFFFFF" stroke-miterlimit="10" x1="184.6" y1="179.3" x2="172" y2="179.3"/>
	<polygon fill="#FFFFFF" points="186.1,179.3 183.2,182.2 183.2,176.4 	"/>
	<polygon fill="#FFFFFF" points="66.4,179.3 69.3,176.4 69.3,182.2 	"/>
</g>
<path fill="none" stroke="#FFFFFF" stroke-width="3" stroke-miterlimit="10" d="M185.6,63.1c0,0-9.1,15.1-25.1,25.3
	c0-2.4,0.1-4.4,0-5.8c-1,0.8-3,2.4-7,5.5c-1.4-5.6-3.1-10.3-3.1-10.3s-3.3,5.3-6.2,4.4c-2.8-0.9-4.9-4.4,2.3-7.6
	c-14.1,0-31.3,7.1-31.3,7.1s-1.6-5.2-0.9-6.8c-5.7,2.2-10,6.6-12.7,9.4c-1.8-0.2-1.8-4.9-0.3-7.1c-3.1,1.5-7.5,6.3-9.4,11.8
	C75.6,78.8,66.2,63.1,66.2,63.1s-8.4,8.8-7.4,22.1c0.6,8.4,5.9,15.3,9.6,19.3c-0.7,2-1.2,4.2-1.2,6.4v42.2
	c0,10.4,8.5,18.9,18.9,18.9h49.9l9.2,7.3l3.1,2.4c2.6,2,5.5,3.1,8.3,3.1c3.7,0,7.1-1.8,9.3-4.9c1.5-2.2,2.3-4.9,2.3-7.9V172
	c9.7-0.8,17.4-8.9,17.4-18.9V111c0-2.6-0.6-5.2-1.5-7.5c3.6-4.1,8.1-10.5,8.7-18.3C194,72,185.6,63.1,185.6,63.1z M176.7,153.2
	c0,5.4-4.4,9.8-9.8,9.8h-7.6c0,0,0,0.8,0,1.2v8c0,2.3-1,3.6-2.4,3.6c-0.8,0-1.7-0.4-2.7-1.1l-3.1-2.4c-2.8-2.2-7.4-5.9-10.2-8.1
	l-1.5-1.2H86.3c-5.4,0-9.8-4.4-9.8-9.8V111c0-5.4,4.4-9.8,9.8-9.8h80.7c5.4,0,9.8,4.4,9.8,9.8V153.2z"/>
</svg>
