<?xml version="1.0" encoding="utf-8"?>
<!-- Generator: Adobe Illustrator 17.1.0, SVG Export Plug-In . SVG Version: 6.00 Build 0)  -->
<!DOCTYPE svg PUBLIC "-//W3C//DTD SVG 1.1//EN" "http://www.w3.org/Graphics/SVG/1.1/DTD/svg11.dtd">
<svg version="1.1" id="Layer_1" xmlns="http://www.w3.org/2000/svg" xmlns:xlink="http://www.w3.org/1999/xlink" x="0px" y="0px"
	 viewBox="0 0 253 253" enable-background="new 0 0 253 253" xml:space="preserve">
<g>
	<g>
		<g>
			<g>
				<circle fill="#074E68" cx="126.9" cy="126.5" r="126.1"/>
				<g opacity="0.5" enable-background="new    ">
					<g>
						<g>
							<g>
								<g>
									<g>
										<g>
											<defs>
												<circle id="SVGID_1_" cx="126.5" cy="126.3" r="126.1"/>
											</defs>
											<clipPath id="SVGID_2_">
												<use xlink:href="#SVGID_1_"  overflow="visible"/>
											</clipPath>
											<g clip-path="url(#SVGID_2_)">
												<g>
													
														<line fill="none" stroke="#FFFFFF" stroke-width="0.5" stroke-miterlimit="10" x1="220.7" y1="345" x2="220.7" y2="-77.8"/>
													
														<line fill="none" stroke="#FFFFFF" stroke-width="0.5" stroke-miterlimit="10" x1="203.6" y1="345" x2="203.6" y2="-77.8"/>
													
														<line fill="none" stroke="#FFFFFF" stroke-width="0.5" stroke-miterlimit="10" x1="237.8" y1="344.6" x2="237.8" y2="-78.2"/>
													
														<line fill="none" stroke="#FFFFFF" stroke-width="0.5" stroke-miterlimit="10" x1="255" y1="345" x2="255" y2="-77.8"/>
													
														<line fill="none" stroke="#FFFFFF" stroke-width="0.5" stroke-miterlimit="10" x1="152.4" y1="345" x2="152.4" y2="-77.8"/>
													
														<line fill="none" stroke="#FFFFFF" stroke-width="0.5" stroke-miterlimit="10" x1="135.3" y1="345" x2="135.3" y2="-77.8"/>
													
														<line fill="none" stroke="#FFFFFF" stroke-width="0.5" stroke-miterlimit="10" x1="169.4" y1="344.6" x2="169.4" y2="-78.2"/>
													
														<line fill="none" stroke="#FFFFFF" stroke-width="0.5" stroke-miterlimit="10" x1="186.5" y1="345" x2="186.5" y2="-77.8"/>
													
														<line fill="none" stroke="#FFFFFF" stroke-width="0.5" stroke-miterlimit="10" x1="84.2" y1="345.3" x2="84.2" y2="-77.6"/>
													
														<line fill="none" stroke="#FFFFFF" stroke-width="0.5" stroke-miterlimit="10" x1="67.3" y1="346.9" x2="67.3" y2="-75.9"/>
													
														<line fill="none" stroke="#FFFFFF" stroke-width="0.5" stroke-miterlimit="10" x1="101.4" y1="344.8" x2="101.4" y2="-78"/>
													
														<line fill="none" stroke="#FFFFFF" stroke-width="0.5" stroke-miterlimit="10" x1="118.5" y1="345.3" x2="118.5" y2="-77.6"/>
													
														<line fill="none" stroke="#FFFFFF" stroke-width="0.5" stroke-miterlimit="10" x1="15.9" y1="345.3" x2="15.9" y2="-77.6"/>
													
														<line fill="none" stroke="#FFFFFF" stroke-width="0.5" stroke-miterlimit="10" x1="-1.3" y1="345.3" x2="-1.3" y2="-77.6"/>
													<line fill="none" stroke="#FFFFFF" stroke-width="0.5" stroke-miterlimit="10" x1="33" y1="344.8" x2="33" y2="-78"/>
													
														<line fill="none" stroke="#FFFFFF" stroke-width="0.5" stroke-miterlimit="10" x1="50.1" y1="345.3" x2="50.1" y2="-77.6"/>
												</g>
												<g>
													
														<line fill="none" stroke="#FFFFFF" stroke-width="0.5" stroke-miterlimit="10" x1="-76.2" y1="220.1" x2="346.6" y2="220.1"/>
													
														<line fill="none" stroke="#FFFFFF" stroke-width="0.5" stroke-miterlimit="10" x1="-76.2" y1="203" x2="346.6" y2="203"/>
													
														<line fill="none" stroke="#FFFFFF" stroke-width="0.5" stroke-miterlimit="10" x1="-75.8" y1="237.1" x2="347.1" y2="237.1"/>
													
														<line fill="none" stroke="#FFFFFF" stroke-width="0.5" stroke-miterlimit="10" x1="-76.2" y1="254.3" x2="346.6" y2="254.3"/>
													
														<line fill="none" stroke="#FFFFFF" stroke-width="0.5" stroke-miterlimit="10" x1="-76.2" y1="151.6" x2="346.6" y2="151.6"/>
													
														<line fill="none" stroke="#FFFFFF" stroke-width="0.5" stroke-miterlimit="10" x1="-76.2" y1="134.6" x2="346.6" y2="134.6"/>
													
														<line fill="none" stroke="#FFFFFF" stroke-width="0.5" stroke-miterlimit="10" x1="-75.8" y1="168.8" x2="347.1" y2="168.8"/>
													
														<line fill="none" stroke="#FFFFFF" stroke-width="0.5" stroke-miterlimit="10" x1="-76.2" y1="185.8" x2="346.6" y2="185.8"/>
													
														<line fill="none" stroke="#FFFFFF" stroke-width="0.5" stroke-miterlimit="10" x1="-76.4" y1="83.6" x2="346.4" y2="83.6"/>
													
														<line fill="none" stroke="#FFFFFF" stroke-width="0.5" stroke-miterlimit="10" x1="-76.4" y1="66.4" x2="346.4" y2="66.4"/>
													
														<line fill="none" stroke="#FFFFFF" stroke-width="0.5" stroke-miterlimit="10" x1="-76" y1="100.7" x2="346.8" y2="100.7"/>
													
														<line fill="none" stroke="#FFFFFF" stroke-width="0.5" stroke-miterlimit="10" x1="-76.4" y1="117.8" x2="346.4" y2="117.8"/>
													
														<line fill="none" stroke="#FFFFFF" stroke-width="0.5" stroke-miterlimit="10" x1="-76.4" y1="15.2" x2="346.4" y2="15.2"/>
													
														<line fill="none" stroke="#FFFFFF" stroke-width="0.5" stroke-miterlimit="10" x1="-76.4" y1="-1.9" x2="346.4" y2="-1.9"/>
													
														<line fill="none" stroke="#FFFFFF" stroke-width="0.5" stroke-miterlimit="10" x1="-76" y1="32.2" x2="346.8" y2="32.2"/>
													
														<line fill="none" stroke="#FFFFFF" stroke-width="0.5" stroke-miterlimit="10" x1="-76.4" y1="49.4" x2="346.4" y2="49.4"/>
												</g>
											</g>
										</g>
									</g>
								</g>
							</g>
						</g>
					</g>
				</g>
			</g>
			<g>
				<line fill="none" stroke="#FFFFFF" stroke-miterlimit="10" x1="203.3" y1="177" x2="203.3" y2="79.1"/>
				<polygon fill="#FFFFFF" points="203.3,179 200.5,176.1 206.2,176.1 				"/>
				<polygon fill="#FFFFFF" points="203.3,76.2 206.2,79.1 200.5,79.1 				"/>
			</g>
			<g>
				<line fill="none" stroke="#FFFFFF" stroke-miterlimit="10" x1="171.6" y1="186" x2="80.9" y2="186"/>
				<polygon fill="#FFFFFF" points="173.1,186 170.3,188.9 170.3,183 				"/>
				<polygon fill="#FFFFFF" points="79.4,186 82.2,183 82.2,188.9 				"/>
			</g>
		</g>
		<g>
			<circle fill="none" stroke="#FFFFFF" stroke-width="3" stroke-miterlimit="10" cx="126.2" cy="129.7" r="46.8"/>
			<ellipse fill="none" stroke="#FFFFFF" stroke-width="3" stroke-miterlimit="10" cx="140" cy="157.2" rx="9.8" ry="5.3"/>
			<path fill="none" stroke="#FFFFFF" stroke-width="3" stroke-miterlimit="10" d="M74.5,113.6L74.5,113.6
				c-9.3,0-16.6,7.5-16.6,16.5c0,9.1,7.5,16.5,16.5,16.5l0,0L74.5,113.6L74.5,113.6L74.5,113.6z"/>
			<path fill="none" stroke="#FFFFFF" stroke-width="3" stroke-miterlimit="10" d="M179.5,112L179.5,112v33.2l0,0
				c9.2,0,16.5-7.5,16.5-16.5C196.1,119.5,188.7,112,179.5,112z"/>
			<path fill="none" stroke="#FFFFFF" stroke-width="3" stroke-miterlimit="10" d="M149.6,157.7c8.4,0.7,19.6,1.1,23.4-1
				c3.2-1.8,6.7-7,9.3-11.8"/>
			<path fill="none" stroke="#FFFFFF" stroke-width="3" stroke-miterlimit="10" d="M184.1,112.6c-4-21.8-23.1-38.5-46-38.5h-20.6
				C94,74,74.4,91.4,71.1,114"/>
			<path fill="none" stroke="#FFFFFF" stroke-width="3" stroke-miterlimit="10" d="M100.5,128.6c0-3.7,3.2-6.9,6.9-6.9
				c3.7,0,6.9,3.2,6.9,6.9c0,3.7-3.2,6.9-6.9,6.9C103.7,135.5,100.5,132.3,100.5,128.6z"/>
			<path fill="none" stroke="#FFFFFF" stroke-width="3" stroke-miterlimit="10" d="M138.2,128.6c0-3.7,3.2-6.9,6.9-6.9
				c3.7,0,6.9,3.2,6.9,6.9c0,3.7-3.2,6.9-6.9,6.9C141.4,135.5,138.2,132.3,138.2,128.6z"/>
		</g>
	</g>
</g>
</svg>
