<?xml version="1.0" encoding="utf-8"?>
<!-- Generator: Adobe Illustrator 17.1.0, SVG Export Plug-In . SVG Version: 6.00 Build 0)  -->
<!DOCTYPE svg PUBLIC "-//W3C//DTD SVG 1.1//EN" "http://www.w3.org/Graphics/SVG/1.1/DTD/svg11.dtd">
<svg version="1.1" id="Layer_1" xmlns="http://www.w3.org/2000/svg" xmlns:xlink="http://www.w3.org/1999/xlink" x="0px" y="0px"
	 viewBox="0 0 253 253" enable-background="new 0 0 253 253" xml:space="preserve">
<g>
	<g>
		<circle fill="#074E68" cx="126.6" cy="126.3" r="126.2"/>
		<g opacity="0.5" enable-background="new    ">
			<g>
				<g>
					<g>
						<g>
							<g>
								<defs>
									<circle id="SVGID_1_" cx="126.2" cy="126" r="126.2"/>
								</defs>
								<clipPath id="SVGID_2_">
									<use xlink:href="#SVGID_1_"  overflow="visible"/>
								</clipPath>
								<g clip-path="url(#SVGID_2_)">
									<g>
										
											<line fill="none" stroke="#FFFFFF" stroke-width="0.5" stroke-miterlimit="10" x1="220.6" y1="345" x2="220.6" y2="-78.3"/>
										
											<line fill="none" stroke="#FFFFFF" stroke-width="0.5" stroke-miterlimit="10" x1="203.5" y1="345" x2="203.5" y2="-78.3"/>
										
											<line fill="none" stroke="#FFFFFF" stroke-width="0.5" stroke-miterlimit="10" x1="237.6" y1="344.6" x2="237.6" y2="-78.8"/>
										
											<line fill="none" stroke="#FFFFFF" stroke-width="0.5" stroke-miterlimit="10" x1="254.8" y1="345" x2="254.8" y2="-78.3"/>
										
											<line fill="none" stroke="#FFFFFF" stroke-width="0.5" stroke-miterlimit="10" x1="152.1" y1="345" x2="152.1" y2="-78.3"/>
										<line fill="none" stroke="#FFFFFF" stroke-width="0.5" stroke-miterlimit="10" x1="135" y1="345" x2="135" y2="-78.3"/>
										
											<line fill="none" stroke="#FFFFFF" stroke-width="0.5" stroke-miterlimit="10" x1="169.2" y1="344.6" x2="169.2" y2="-78.8"/>
										
											<line fill="none" stroke="#FFFFFF" stroke-width="0.5" stroke-miterlimit="10" x1="186.3" y1="345" x2="186.3" y2="-78.3"/>
										<line fill="none" stroke="#FFFFFF" stroke-width="0.5" stroke-miterlimit="10" x1="84" y1="345.2" x2="84" y2="-78.1"/>
										
											<line fill="none" stroke="#FFFFFF" stroke-width="0.5" stroke-miterlimit="10" x1="66.8" y1="346.9" x2="66.8" y2="-76.5"/>
										
											<line fill="none" stroke="#FFFFFF" stroke-width="0.5" stroke-miterlimit="10" x1="101.1" y1="344.8" x2="101.1" y2="-78.6"/>
										
											<line fill="none" stroke="#FFFFFF" stroke-width="0.5" stroke-miterlimit="10" x1="118.2" y1="345.2" x2="118.2" y2="-78.1"/>
										
											<line fill="none" stroke="#FFFFFF" stroke-width="0.5" stroke-miterlimit="10" x1="15.4" y1="345.2" x2="15.4" y2="-78.1"/>
										
											<line fill="none" stroke="#FFFFFF" stroke-width="0.5" stroke-miterlimit="10" x1="-1.7" y1="345.2" x2="-1.7" y2="-78.1"/>
										
											<line fill="none" stroke="#FFFFFF" stroke-width="0.5" stroke-miterlimit="10" x1="32.6" y1="344.8" x2="32.6" y2="-78.6"/>
										
											<line fill="none" stroke="#FFFFFF" stroke-width="0.5" stroke-miterlimit="10" x1="49.7" y1="345.2" x2="49.7" y2="-78.1"/>
									</g>
									<g>
										
											<line fill="none" stroke="#FFFFFF" stroke-width="0.5" stroke-miterlimit="10" x1="-76.8" y1="219.8" x2="346.5" y2="219.8"/>
										
											<line fill="none" stroke="#FFFFFF" stroke-width="0.5" stroke-miterlimit="10" x1="-76.8" y1="202.8" x2="346.5" y2="202.8"/>
										<line fill="none" stroke="#FFFFFF" stroke-width="0.5" stroke-miterlimit="10" x1="-76.4" y1="237" x2="346.9" y2="237"/>
										
											<line fill="none" stroke="#FFFFFF" stroke-width="0.5" stroke-miterlimit="10" x1="-76.8" y1="254.1" x2="346.5" y2="254.1"/>
										
											<line fill="none" stroke="#FFFFFF" stroke-width="0.5" stroke-miterlimit="10" x1="-76.8" y1="151.4" x2="346.5" y2="151.4"/>
										
											<line fill="none" stroke="#FFFFFF" stroke-width="0.5" stroke-miterlimit="10" x1="-76.8" y1="134.3" x2="346.5" y2="134.3"/>
										
											<line fill="none" stroke="#FFFFFF" stroke-width="0.5" stroke-miterlimit="10" x1="-76.4" y1="168.5" x2="346.9" y2="168.5"/>
										
											<line fill="none" stroke="#FFFFFF" stroke-width="0.5" stroke-miterlimit="10" x1="-76.8" y1="185.7" x2="346.5" y2="185.7"/>
										<line fill="none" stroke="#FFFFFF" stroke-width="0.5" stroke-miterlimit="10" x1="-77" y1="83.3" x2="346.3" y2="83.3"/>
										<line fill="none" stroke="#FFFFFF" stroke-width="0.5" stroke-miterlimit="10" x1="-77" y1="66.2" x2="346.3" y2="66.2"/>
										
											<line fill="none" stroke="#FFFFFF" stroke-width="0.5" stroke-miterlimit="10" x1="-76.6" y1="100.4" x2="346.7" y2="100.4"/>
										
											<line fill="none" stroke="#FFFFFF" stroke-width="0.5" stroke-miterlimit="10" x1="-77" y1="117.6" x2="346.3" y2="117.6"/>
										<line fill="none" stroke="#FFFFFF" stroke-width="0.5" stroke-miterlimit="10" x1="-77" y1="14.8" x2="346.3" y2="14.8"/>
										<line fill="none" stroke="#FFFFFF" stroke-width="0.5" stroke-miterlimit="10" x1="-77" y1="-2.4" x2="346.3" y2="-2.4"/>
										
											<line fill="none" stroke="#FFFFFF" stroke-width="0.5" stroke-miterlimit="10" x1="-76.6" y1="31.9" x2="346.7" y2="31.9"/>
										<line fill="none" stroke="#FFFFFF" stroke-width="0.5" stroke-miterlimit="10" x1="-77" y1="49" x2="346.3" y2="49"/>
									</g>
								</g>
							</g>
						</g>
					</g>
				</g>
			</g>
		</g>
	</g>
	<g>
		<line fill="none" stroke="#FFFFFF" stroke-miterlimit="10" x1="185.6" y1="194.4" x2="64.4" y2="194.4"/>
		<polygon fill="#FFFFFF" points="188.5,194.4 185.6,197.3 185.6,191.4 		"/>
		<polygon fill="#FFFFFF" points="64.4,194.4 67.3,191.4 67.3,197.3 		"/>
	</g>
	<g>
		<line fill="none" stroke="#FFFFFF" stroke-miterlimit="10" x1="55.1" y1="186.9" x2="55.1" y2="65.7"/>
		<polygon fill="#FFFFFF" points="55.1,189.8 52.2,186.9 58.1,186.9 		"/>
		<polygon fill="#FFFFFF" points="55.1,65.7 58.1,68.6 52.2,68.6 		"/>
	</g>
	<path fill-rule="evenodd" clip-rule="evenodd" fill="none" stroke="#FFFFFF" stroke-width="3" stroke-miterlimit="10" d="
		M127.3,65.7c-34.2,0-61.9,27.7-61.9,61.9c0,27.4,17.7,50.6,42.4,58.8c3.1,0.6,4.2-1.3,4.2-3c0-1.5-0.1-5.4-0.1-10.5
		c-17.2,3.7-20.9-8.3-20.9-8.3c-2.8-7.2-6.9-9.1-6.9-9.1c-5.6-3.8,0.4-3.8,0.4-3.8c6.2,0.4,9.5,6.4,9.5,6.4c5.5,9.5,14.5,6.7,18,5.1
		c0.6-4,2.2-6.7,3.9-8.3c-13.8-1.6-28.2-6.9-28.2-30.6c0-6.8,2.4-12.3,6.4-16.6c-0.6-1.6-2.8-7.9,0.6-16.4c0,0,5.2-1.7,17,6.3
		c4.9-1.4,10.2-2.1,15.5-2.1c5.3,0,10.6,0.7,15.5,2.1c11.8-8,17-6.3,17-6.3c3.4,8.5,1.3,14.8,0.6,16.4c4,4.3,6.4,9.9,6.4,16.6
		c0,23.8-14.5,29-28.3,30.6c2.2,1.9,4.2,5.7,4.2,11.5c0,8.3-0.1,15-0.1,17c0,1.7,1.1,3.6,4.3,3c24.6-8.2,42.3-31.4,42.3-58.8
		C189.3,93.4,161.5,65.7,127.3,65.7z"/>
</g>
</svg>
